# 3ds Max Wavefront OBJ Exporter v0.97b - (c)2007 guruware
# File Created: 14.05.2018 05:08:37

mtllib 3d_room_desk2.mtl

#
# object Box007
#

v  -0.5600 0.4354 1.6468
v  -0.5600 0.4354 -1.6464
v  0.4931 0.4354 -1.6464
v  0.4931 0.4354 1.6468
v  -0.5600 0.4954 1.7193
v  0.5600 0.4954 1.7193
v  0.5600 0.4954 -1.7193
v  -0.5600 0.4954 -1.7193
v  -0.5600 0.4354 1.7193
v  0.5600 0.4354 1.7193
v  0.5600 0.4354 1.6468
v  0.5600 0.4354 -1.6464
v  0.5600 0.4354 -1.7193
v  -0.5600 0.4354 -1.7193
v  -0.5600 -0.5646 -1.6464
v  -0.5600 -0.5646 -1.7193
v  0.5600 -0.5646 -1.7193
v  0.5600 -0.5646 -1.6464
v  0.5600 -0.5646 1.6468
v  0.5600 -0.5646 1.7193
v  -0.5600 -0.5646 1.7193
v  -0.5600 -0.5646 1.6468
v  0.5600 -0.3378 -1.7193
v  -0.5600 -0.3378 -1.7193
v  0.5600 -0.3378 -1.6464
v  -0.5600 -0.3378 -1.6464
v  -0.5600 -0.3378 1.6468
v  -0.5600 -0.3378 1.7193
v  0.4931 -0.3378 1.6468
v  0.5600 -0.3378 1.7193
v  0.5600 -0.3378 1.6468
v  0.4931 -0.3378 -1.6464
# 32 vertices

vn 0.0000 -1.0000 -0.0000
vn 0.0000 1.0000 -0.0000
vn 0.0000 0.0000 1.0000
vn 1.0000 0.0000 -0.0000
vn 0.0000 0.0000 -1.0000
vn -1.0000 -0.0000 0.0000
vn -1.0000 -0.0000 -0.0000
vn -1.0000 0.0000 -0.0000
vn -1.0000 0.0000 0.0000
# 9 vertex normals

vt 0.0267 0.0431 0.0000
vt 0.0267 0.5182 0.0000
vt 0.4930 0.5182 0.0000
vt 0.4930 0.0431 0.0000
vt 0.0267 0.0327 0.0000
vt 0.5227 0.0327 0.0000
vt 0.5227 0.5287 0.0000
vt 0.0267 0.5287 0.0000
vt 0.0291 0.5455 0.0000
vt 0.5251 0.5455 0.0000
vt 0.5251 0.5769 0.0000
vt 0.0291 0.5769 0.0000
vt 0.5569 0.0327 0.0000
vt 0.5564 0.0327 0.0000
vt 0.5320 0.0327 0.0000
vt 0.5315 0.0327 0.0000
vt 0.5315 0.5287 0.0000
vt 0.5569 0.5287 0.0000
vt 0.5345 0.5435 0.0000
vt 0.9545 0.5435 0.0000
vt 0.5345 0.9635 0.0000
vt 0.9545 0.9635 0.0000
vt 0.9545 0.6388 0.0000
vt 0.5345 0.6388 0.0000
vt 0.9294 0.9635 0.0000
vt 0.9294 0.6388 0.0000
# 26 texture coords

g Box007
usemtl wire_006135006
s 2
f 1/1/1 2/2/1 3/3/1 4/4/1 
s 4
f 5/5/2 6/6/2 7/7/2 8/8/2 
s 8
f 9/9/3 10/10/3 6/11/3 5/12/3 
s 16
f 10/13/4 11/14/4 12/15/4 13/16/4 7/17/4 6/18/4 
s 32
f 13/10/5 14/9/5 8/12/5 7/11/5 
s 64
f 14/16/6 2/15/6 1/14/7 9/13/8 5/18/7 8/17/8 
s 2
f 15/19/1 16/19/1 17/20/1 18/20/1 
f 19/20/1 20/20/1 21/19/1 22/19/1 
s off
f 14/21/5 13/22/5 23/23/5 24/24/5 
f 13/22/4 12/22/4 25/23/4 23/23/4 
f 2/21/9 14/21/9 24/24/9 26/24/9 
f 9/21/8 1/21/8 27/24/8 28/24/8 
f 1/21/5 4/25/5 29/26/5 27/24/5 
f 11/22/4 10/22/4 30/23/4 31/23/4 
f 10/22/3 9/21/3 28/24/3 30/23/3 
f 23/23/5 17/20/5 16/19/5 24/24/5 
f 25/23/4 18/20/4 17/20/4 23/23/4 
f 26/24/3 15/19/3 18/20/3 25/23/3 32/26/3 
f 24/24/9 16/19/9 15/19/9 26/24/9 
f 27/24/8 22/19/8 21/19/8 28/24/8 
f 31/23/5 19/20/5 22/19/5 27/24/5 29/26/5 
f 30/23/4 20/20/4 19/20/4 31/23/4 
f 28/24/3 21/19/3 20/20/3 30/23/3 
f 3/25/3 2/21/3 26/24/3 32/26/3 
s 1
f 12/20/2 3/20/2 4/20/2 11/20/2 
s 4
f 3/25/8 32/26/8 29/26/8 4/25/8 
s 1
f 32/26/1 25/23/1 31/23/1 29/26/1 
s 4
f 25/23/4 12/22/4 11/22/4 31/23/4 
# 28 polygons

