# 3ds Max Wavefront OBJ Exporter v0.97b - (c)2007 guruware
# File Created: 14.05.2018 05:03:09

mtllib 3d_room_desk.mtl

#
# object Box011
#

v  0.6685 0.3876 0.5160
v  0.6685 0.4511 0.5160
v  -0.6933 0.4511 0.5160
v  -0.6933 0.3876 0.5160
v  0.6685 0.3876 -0.4512
v  -0.6933 0.3876 -0.4512
v  -0.6933 0.4511 -0.4512
v  0.6685 0.4511 -0.4512
v  -0.5814 -0.4645 -0.3875
v  -0.5862 -0.4645 -0.4055
v  -0.5862 0.4252 -0.4055
v  -0.5814 0.4252 -0.3875
v  -0.5994 -0.4645 -0.4187
v  -0.5994 0.4252 -0.4187
v  -0.6174 -0.4645 -0.4236
v  -0.6174 0.4252 -0.4236
v  -0.6354 -0.4645 -0.4187
v  -0.6354 0.4252 -0.4187
v  -0.6486 -0.4645 -0.4055
v  -0.6486 0.4252 -0.4055
v  -0.6534 -0.4645 -0.3875
v  -0.6534 0.4252 -0.3875
v  -0.6486 -0.4645 -0.3695
v  -0.6486 0.4252 -0.3695
v  -0.6354 -0.4645 -0.3563
v  -0.6354 -0.0630 -0.3563
v  -0.6354 0.2335 -0.3563
v  -0.6354 0.4252 -0.3563
v  -0.6174 -0.4645 -0.3515
v  -0.5994 -0.4645 -0.3563
v  -0.5994 0.4252 -0.3563
v  -0.6174 0.4252 -0.3515
v  -0.6174 0.2335 -0.3515
v  -0.6174 -0.0630 -0.3515
v  -0.5862 -0.4645 -0.3695
v  -0.5862 0.4252 -0.3695
v  0.6379 -0.4645 -0.3875
v  0.6331 -0.4645 -0.4055
v  0.6331 0.4252 -0.4055
v  0.6379 0.4252 -0.3875
v  0.6199 -0.4645 -0.4187
v  0.6199 0.4252 -0.4187
v  0.6019 -0.4645 -0.4236
v  0.6019 0.4252 -0.4236
v  0.5839 -0.4645 -0.4187
v  0.5839 0.4252 -0.4187
v  0.5707 -0.4645 -0.4055
v  0.5707 0.4252 -0.4055
v  0.5659 -0.4645 -0.3875
v  0.5659 0.4252 -0.3875
v  0.5707 -0.4645 -0.3695
v  0.5707 0.4252 -0.3695
v  0.5839 -0.4645 -0.3563
v  0.5839 0.4252 -0.3563
v  0.6019 -0.4645 -0.3515
v  0.6019 0.4252 -0.3515
v  0.6199 -0.4645 -0.3563
v  0.6199 0.4252 -0.3563
v  0.6331 -0.4645 -0.3695
v  0.6331 0.4252 -0.3695
v  -0.5814 -0.4645 0.4613
v  -0.5862 -0.4645 0.4433
v  -0.5862 0.4252 0.4433
v  -0.5814 0.4252 0.4613
v  -0.5994 -0.4645 0.4301
v  -0.5994 0.4252 0.4301
v  -0.6174 -0.4645 0.4253
v  -0.6174 -0.0630 0.4253
v  -0.6174 0.2335 0.4253
v  -0.6174 0.4252 0.4253
v  -0.6354 -0.4645 0.4301
v  -0.6486 -0.4645 0.4433
v  -0.6486 0.4252 0.4433
v  -0.6354 0.4252 0.4301
v  -0.6354 0.2335 0.4301
v  -0.6354 -0.0630 0.4301
v  -0.6534 -0.4645 0.4613
v  -0.6534 0.4252 0.4613
v  -0.6486 -0.4645 0.4793
v  -0.6486 0.4252 0.4793
v  -0.6354 -0.4645 0.4925
v  -0.6354 0.4252 0.4925
v  -0.6174 -0.4645 0.4973
v  -0.6174 0.4252 0.4973
v  -0.5994 -0.4645 0.4925
v  -0.5994 0.4252 0.4925
v  -0.5862 -0.4645 0.4793
v  -0.5862 0.4252 0.4793
v  0.6379 -0.4645 0.4613
v  0.6331 -0.4645 0.4433
v  0.6331 0.4252 0.4433
v  0.6379 0.4252 0.4613
v  0.6199 -0.4645 0.4301
v  0.6199 0.4252 0.4301
v  0.6019 -0.4645 0.4253
v  0.6019 0.4252 0.4253
v  0.5839 -0.4645 0.4301
v  0.5839 0.4252 0.4301
v  0.5707 -0.4645 0.4433
v  0.5707 0.4252 0.4433
v  0.5659 -0.4645 0.4613
v  0.5659 0.4252 0.4613
v  0.5707 -0.4645 0.4793
v  0.5707 0.4252 0.4793
v  0.5839 -0.4645 0.4925
v  0.5839 0.4252 0.4925
v  0.6019 -0.4645 0.4973
v  0.6019 0.4252 0.4973
v  0.6199 -0.4645 0.4925
v  0.6199 0.4252 0.4925
v  0.6331 -0.4645 0.4793
v  0.6331 0.4252 0.4793
v  -0.6174 -0.2551 -0.2661
v  -0.6174 -0.2551 0.3399
v  -0.6354 -0.2551 0.3436
v  -0.6354 -0.2551 -0.2698
v  -0.6174 -0.0630 0.3399
v  -0.6174 -0.0630 -0.2661
v  -0.6354 -0.0630 -0.2698
v  -0.6354 -0.0630 0.3436
v  -0.6354 -0.2354 -0.2698
v  -0.6354 -0.2354 0.3436
v  -0.6174 -0.2354 -0.2661
v  -0.6174 -0.2354 0.3399
v  -0.3078 -0.2354 -0.2661
v  -0.3078 -0.2354 0.3399
v  -0.3078 -0.2551 0.3399
v  -0.3078 -0.2551 -0.2661
v  -0.3260 -0.2354 0.3399
v  -0.3260 -0.2354 -0.2661
v  -0.3260 -0.2551 0.3399
v  -0.3260 -0.2551 -0.2661
v  -0.3260 -0.2028 -0.2661
v  -0.3260 -0.2028 0.3399
v  -0.3078 -0.2028 0.3399
v  -0.3078 -0.2028 -0.2661
v  -0.3293 -0.2308 0.3610
v  -0.3293 0.2832 0.3610
v  -0.5826 0.2832 0.3610
v  -0.5826 -0.2308 0.3610
v  -0.3293 -0.2308 -0.2962
v  -0.5826 -0.2308 -0.2962
v  -0.5826 0.2832 -0.2962
v  -0.3293 0.2832 -0.2962
# 144 vertices

vn -0.0000 0.0000 1.0000
vn 0.0000 -0.0000 -1.0000
vn 0.0000 -1.0000 -0.0000
vn -1.0000 0.0000 -0.0000
vn -0.0000 1.0000 0.0000
vn -0.0000 1.0000 -0.0000
vn 1.0000 0.0000 0.0000
vn 0.7060 -0.0000 -0.7082
vn 1.0000 -0.0000 -0.0000
vn 0.3019 -0.0000 -0.9533
vn -0.3019 -0.0000 -0.9533
vn -0.7060 -0.0000 -0.7082
vn -1.0000 -0.0000 -0.0000
vn -0.7060 0.0000 0.7082
vn -0.3019 -0.0000 0.9533
vn -0.3557 0.0000 0.9346
vn -0.3558 0.0000 0.9346
vn -0.3019 0.0000 0.9533
vn 0.3019 0.0000 0.9533
vn 0.0460 0.0000 0.9989
vn 0.7060 0.0000 0.7082
vn -0.0000 -1.0000 0.0000
vn 0.0000 1.0000 -0.0000
vn -1.0000 -0.0000 0.0000
vn 0.0000 0.0000 1.0000
vn -0.0001 -1.0000 0.0000
vn -0.0003 -1.0000 -0.0002
vn 0.0000 -1.0000 0.0001
vn 0.0003 -1.0000 -0.0002
vn 0.0001 -1.0000 0.0000
vn 0.0000 1.0000 0.0000
vn 0.0460 -0.0000 -0.9989
vn -0.3557 -0.0000 -0.9346
vn -0.0001 -1.0000 -0.0001
vn 0.0001 -1.0000 -0.0001
vn 0.0000 -1.0000 0.0000
vn -0.0000 -0.0000 -1.0000
vn -0.0001 1.0000 0.0000
vn 0.0001 1.0000 0.0000
vn -0.0000 -1.0000 -0.0000
vn 1.0000 -0.0000 0.0000
vn -1.0000 0.0000 0.0000
vn 0.1039 -0.0000 -0.9946
vn 0.1039 0.0000 0.9946
vn 0.1039 0.0000 -0.9946
vn 0.1039 -0.0000 0.9946
vn -0.0000 -0.0000 1.0000
vn 0.0000 0.0000 -1.0000
vn 1.0000 0.0000 -0.0000
# 49 vertex normals

vt 0.7302 0.9271 0.0000
vt 0.7302 0.9681 0.0000
vt 0.1152 0.9681 0.0000
vt 0.1152 0.9271 0.0000
vt 0.7295 0.4529 0.0000
vt 0.1145 0.4529 0.0000
vt 0.1145 0.8833 0.0000
vt 0.7295 0.8833 0.0000
vt 0.0583 0.4529 0.0000
vt 0.0583 0.8830 0.0000
vt 0.0150 0.8830 0.0000
vt 0.0150 0.4529 0.0000
vt 0.0425 0.0278 0.0000
vt 0.0347 0.0278 0.0000
vt 0.0347 0.4278 0.0000
vt 0.0425 0.4278 0.0000
vt 0.0289 0.0278 0.0000
vt 0.0289 0.4278 0.0000
vt 0.0268 0.0278 0.0000
vt 0.0268 0.4278 0.0000
vt 0.0503 0.0278 0.0000
vt 0.0503 0.4278 0.0000
vt 0.0560 0.0278 0.0000
vt 0.0560 0.2083 0.0000
vt 0.0560 0.3417 0.0000
vt 0.0560 0.4278 0.0000
vt 0.0581 0.0278 0.0000
vt 0.0581 0.4278 0.0000
vt 0.0581 0.3417 0.0000
vt 0.0581 0.2083 0.0000
vt 0.4112 0.0278 0.0000
vt 0.4034 0.0278 0.0000
vt 0.4034 0.4278 0.0000
vt 0.4112 0.4278 0.0000
vt 0.3977 0.0278 0.0000
vt 0.3977 0.4278 0.0000
vt 0.3956 0.0278 0.0000
vt 0.3956 0.2083 0.0000
vt 0.3956 0.3417 0.0000
vt 0.3956 0.4278 0.0000
vt 0.3977 0.3417 0.0000
vt 0.3977 0.2083 0.0000
vt 0.4190 0.0278 0.0000
vt 0.4190 0.4278 0.0000
vt 0.4248 0.0278 0.0000
vt 0.4248 0.4278 0.0000
vt 0.4268 0.0278 0.0000
vt 0.4268 0.4278 0.0000
vt 0.0952 0.1220 0.0000
vt 0.3585 0.1220 0.0000
vt 0.3601 0.1220 0.0000
vt 0.0936 0.1220 0.0000
vt 0.3585 0.2083 0.0000
vt 0.0952 0.2083 0.0000
vt 0.0936 0.2083 0.0000
vt 0.3601 0.2083 0.0000
vt 0.0936 0.1309 0.0000
vt 0.3601 0.1309 0.0000
vt 0.0952 0.1309 0.0000
vt 0.3585 0.1309 0.0000
vt 0.0952 0.1455 0.0000
vt 0.3585 0.1455 0.0000
vt 0.9674 0.5153 0.0000
vt 0.9674 0.9652 0.0000
vt 0.7660 0.9652 0.0000
vt 0.7660 0.5153 0.0000
vt 0.7660 0.0403 0.0000
vt 0.9674 0.0403 0.0000
vt 0.9674 0.4902 0.0000
vt 0.7660 0.4902 0.0000
vt 0.7486 0.1208 0.0000
vt 0.4397 0.1208 0.0000
vt 0.7486 0.3880 0.0000
vt 0.4397 0.3880 0.0000
# 74 texture coords

g Box011
usemtl wire_229154215
s 2
f 1/1/1 2/2/1 3/3/1 4/4/1 
s 4
f 5/1/2 6/4/2 7/3/2 8/2/2 
s 8
f 1/5/3 4/6/3 6/7/3 5/8/3 
s 16
f 4/9/4 3/10/4 7/11/4 6/12/4 
s 32
f 3/6/5 2/5/5 8/8/5 7/7/6 
s 64
f 2/10/7 1/9/7 5/12/7 8/11/7 
s 8
f 9/13/7 10/14/8 11/15/8 12/16/9 
f 10/14/8 13/17/10 14/18/10 11/15/8 
f 13/17/10 15/19/2 16/20/2 14/18/10 
f 15/19/2 17/17/11 18/18/11 16/20/2 
f 17/17/11 19/14/12 20/15/12 18/18/11 
f 19/14/12 21/13/13 22/16/4 20/15/12 
f 21/13/13 23/21/14 24/22/14 22/16/4 
f 23/21/14 25/23/15 26/24/16 27/25/17 28/26/18 24/22/14 
f 29/27/1 30/23/19 31/26/19 32/28/1 33/29/20 34/30/20 
f 30/23/19 35/21/21 36/22/21 31/26/19 
f 35/21/21 9/13/7 12/16/9 36/22/21 
s 1
f 35/21/22 30/23/22 29/27/22 25/23/22 23/21/22 21/13/22 19/14/22 17/17/22 15/19/22 13/17/22 10/14/22 9/13/22 
f 12/16/23 11/15/23 14/18/23 16/20/23 18/18/23 20/15/23 22/16/23 24/22/23 28/26/23 32/28/23 31/26/23 36/22/23 
s 8
f 37/13/7 38/14/8 39/15/8 40/16/9 
f 38/14/8 41/17/10 42/18/10 39/15/8 
f 41/17/10 43/19/2 44/20/2 42/18/10 
f 43/19/2 45/17/11 46/18/11 44/20/2 
f 45/17/11 47/14/12 48/15/12 46/18/11 
f 47/14/12 49/13/24 50/16/4 48/15/12 
f 49/13/24 51/21/14 52/22/14 50/16/4 
f 51/21/14 53/23/18 54/26/18 52/22/14 
f 53/23/18 55/27/25 56/28/25 54/26/18 
f 55/27/25 57/23/19 58/26/19 56/28/25 
f 57/23/19 59/21/21 60/22/21 58/26/19 
f 59/21/21 37/13/7 40/16/9 60/22/21 
s 1
f 59/21/22 57/23/22 55/27/22 53/23/22 51/21/22 49/13/26 47/14/27 45/17/22 43/19/22 41/17/28 38/14/29 37/13/30 
f 40/16/31 39/15/31 42/18/23 44/20/5 46/18/23 48/15/5 50/16/5 52/22/5 54/26/23 56/28/23 58/26/23 60/22/31 
s 8
f 61/31/7 62/32/8 63/33/8 64/34/9 
f 62/32/8 65/35/10 66/36/10 63/33/8 
f 65/35/10 67/37/2 68/38/32 69/39/32 70/40/2 66/36/10 
f 71/35/11 72/32/12 73/33/12 74/36/11 75/41/33 76/42/33 
f 72/32/12 77/31/4 78/34/4 73/33/12 
f 77/31/4 79/43/14 80/44/14 78/34/4 
f 79/43/14 81/45/18 82/46/18 80/44/14 
f 81/45/18 83/47/25 84/48/25 82/46/18 
f 83/47/25 85/45/19 86/46/19 84/48/25 
f 85/45/19 87/43/21 88/44/21 86/46/19 
f 87/43/21 61/31/7 64/34/9 88/44/21 
s 1
f 87/43/22 85/45/22 83/47/22 81/45/22 79/43/22 77/31/22 72/32/34 71/35/22 67/37/22 65/35/28 62/32/35 61/31/36 
f 64/34/23 63/33/23 66/36/23 70/40/23 74/36/23 73/33/23 78/34/23 80/44/23 82/46/23 84/48/23 86/46/23 88/44/23 
s 8
f 89/31/7 90/32/8 91/33/8 92/34/9 
f 90/32/8 93/35/10 94/36/10 91/33/8 
f 93/35/10 95/37/37 96/40/2 94/36/10 
f 95/37/37 97/35/11 98/36/11 96/40/2 
f 97/35/11 99/32/12 100/33/12 98/36/11 
f 99/32/12 101/31/24 102/34/4 100/33/12 
f 101/31/24 103/43/14 104/44/14 102/34/4 
f 103/43/14 105/45/18 106/46/18 104/44/14 
f 105/45/18 107/47/25 108/48/25 106/46/18 
f 107/47/25 109/45/19 110/46/19 108/48/25 
f 109/45/19 111/43/21 112/44/21 110/46/19 
f 111/43/21 89/31/7 92/34/9 112/44/21 
s 1
f 111/43/22 109/45/22 107/47/22 105/45/22 103/43/22 101/31/22 99/32/22 97/35/22 95/37/22 93/35/22 90/32/22 89/31/22 
f 92/34/38 91/33/5 94/36/23 96/40/31 98/36/23 100/33/31 102/34/39 104/44/31 106/46/23 108/48/23 110/46/23 112/44/5 
s 8
f 33/29/20 32/28/1 28/26/18 27/25/17 
f 26/24/16 25/23/15 29/27/1 34/30/20 
f 75/41/33 74/36/11 70/40/2 69/39/32 
f 68/38/32 67/37/2 71/35/11 76/42/33 
s 1
f 113/49/3 114/50/40 115/51/40 116/52/3 
s 2
f 34/30/41 33/29/9 69/39/9 68/38/9 117/53/9 118/54/41 
s 1
f 33/29/5 27/25/5 75/41/31 69/39/31 
s 2
f 27/25/42 26/24/13 119/55/4 120/56/42 76/42/13 75/41/42 
s 1
f 117/53/40 68/38/40 76/42/40 120/56/40 
f 119/55/3 26/24/3 34/30/3 118/54/3 
s off
f 120/56/42 119/55/42 121/57/42 122/58/42 
f 119/55/43 118/54/43 123/59/43 121/57/43 
f 118/54/41 117/53/41 124/60/41 123/59/41 
f 117/53/44 120/56/44 122/58/44 124/60/44 
f 122/58/4 121/57/4 116/52/4 115/51/4 
f 121/57/45 123/59/45 113/49/45 116/52/45 
f 125/59/41 126/60/41 127/50/41 128/49/41 
f 124/60/46 122/58/46 115/51/46 114/50/46 
f 123/59/5 124/60/5 129/60/5 130/59/5 
f 124/60/47 114/50/47 131/50/47 129/60/47 
f 114/50/40 113/49/40 132/49/40 131/50/40 
f 113/49/48 123/59/48 130/59/48 132/49/48 
f 133/61/23 134/62/23 135/62/23 136/61/23 
f 129/60/47 131/50/47 127/50/47 126/60/47 
f 131/50/22 132/49/22 128/49/22 127/50/22 
f 132/49/48 130/59/48 125/59/48 128/49/48 
f 130/59/4 129/60/4 134/62/4 133/61/4 
f 129/60/47 126/60/47 135/62/47 134/62/47 
f 126/60/41 125/59/41 136/61/41 135/62/41 
f 125/59/48 130/59/48 133/61/48 136/61/48 
s 2
f 137/63/1 138/64/1 139/65/1 140/66/1 
s 4
f 141/67/2 142/68/2 143/69/2 144/70/2 
s 8
f 137/71/22 140/71/22 142/72/22 141/72/22 
s 16
f 140/71/13 139/73/13 143/74/13 142/72/13 
s 32
f 139/73/23 138/73/23 144/74/23 143/74/23 
s 64
f 138/73/49 137/71/49 141/72/49 144/74/49 
# 96 polygons

