# 3ds Max Wavefront OBJ Exporter v0.97b - (c)2007 guruware
# File Created: 06.04.2018 00:54:37

mtllib ??\??.mtl

#
# object Box010
#

v  -65.8518 345.3561 643.6323
v  -22.4131 345.3561 643.6323
v  -22.4131 374.3152 643.6323
v  -65.8518 374.3152 643.6323
v  -65.8518 345.3561 642.9260
v  -65.8518 374.3152 642.9260
v  -22.4131 374.3152 642.9260
v  -22.4131 345.3561 642.9260
v  -14.2618 346.6352 645.9819
v  -14.2618 346.6352 640.5765
v  -14.2618 373.0361 640.5765
v  -14.2618 373.0361 645.9819
v  -22.4131 351.1037 643.5858
v  -22.4131 368.5675 643.5858
v  -22.4131 351.1037 642.9726
v  -22.4131 368.5675 642.9726
v  -15.4233 351.1037 643.5858
v  -15.4233 368.5675 643.5858
v  -15.4233 351.1037 642.9726
v  -15.4233 368.5675 642.9726
v  -15.4233 346.6352 645.9819
v  -15.4233 373.0361 645.9819
v  -15.4233 346.6352 640.5765
v  -15.4233 373.0361 640.5765
# 24 vertices

vn 0.0000 -0.0000 1.0000
vn 0.0000 0.0000 -1.0000
vn 0.0000 -1.0000 -0.0000
vn 1.0000 0.0000 -0.0000
vn 0.0000 1.0000 0.0000
vn -1.0000 0.0000 -0.0000
# 6 vertex normals

vt 1.0000 0.0000 0.0000
vt 0.0000 0.0000 0.0000
vt 0.0000 1.0000 0.0000
vt 1.0000 1.0000 0.0000
# 4 texture coords

g Box010
usemtl wire_086086086
s 2
f 1/1/1 2/2/1 3/3/1 4/4/1 
s 4
f 5/2/2 6/3/2 7/4/2 8/1/2 
s 8
f 1/2/3 5/3/3 8/4/3 2/1/3 
s 16
f 9/2/4 10/3/4 11/4/4 12/1/4 
s 32
f 3/2/5 7/3/5 6/4/5 4/1/5 
s 64
f 4/2/6 6/3/6 5/4/6 1/1/6 
s off
f 3/1/4 2/2/4 13/2/4 14/1/4 
f 2/2/4 8/3/4 15/3/4 13/2/4 
f 8/3/4 7/4/4 16/4/4 15/3/4 
f 7/4/4 3/1/4 14/1/4 16/4/4 
f 14/1/1 13/2/1 17/2/1 18/1/1 
f 13/2/3 15/3/3 19/3/3 17/2/3 
f 15/3/2 16/4/2 20/4/2 19/3/2 
f 16/4/5 14/1/5 18/1/5 20/4/5 
f 18/1/6 17/2/6 21/2/6 22/1/6 
f 17/2/6 19/3/6 23/3/6 21/2/6 
f 19/3/6 20/4/6 24/4/6 23/3/6 
f 20/4/6 18/1/6 22/1/6 24/4/6 
f 21/2/1 9/2/1 12/1/1 22/1/1 
f 23/3/3 10/3/3 9/2/3 21/2/3 
f 24/4/2 11/4/2 10/3/2 23/3/2 
f 22/1/5 12/1/5 11/4/5 24/4/5 
# 22 polygons

