# 3ds Max Wavefront OBJ Exporter v0.97b - (c)2007 guruware
# File Created: 07.04.2018 01:08:15

mtllib ?\?.mtl

#
# object Cylinder002
#

v  41.8553 367.4088 2617.8694
v  41.6828 367.4088 2616.8911
v  41.6828 371.7306 2616.8911
v  41.8553 371.7306 2617.8694
v  41.1861 367.4088 2616.0308
v  41.1861 371.7306 2616.0308
v  40.4250 367.4088 2615.3921
v  40.4250 371.7306 2615.3921
v  39.4915 367.4088 2615.0522
v  39.4915 371.7306 2615.0522
v  38.4981 367.4088 2615.0522
v  38.4981 371.7306 2615.0522
v  37.5645 367.4088 2615.3921
v  37.5645 371.7306 2615.3921
v  36.8035 367.4088 2616.0308
v  36.8035 371.7306 2616.0308
v  36.3068 367.4088 2616.8911
v  36.3068 371.7306 2616.8911
v  36.1343 367.4088 2617.8694
v  36.1343 371.7306 2617.8694
v  36.3068 367.4088 2618.8477
v  36.3068 371.7306 2618.8477
v  36.8035 367.4088 2619.7080
v  36.8035 371.7306 2619.7080
v  37.5645 367.4088 2620.3467
v  37.5645 371.7306 2620.3467
v  38.4981 367.4088 2620.6865
v  38.4981 371.7306 2620.6865
v  39.4915 367.4088 2620.6865
v  39.4915 371.7306 2620.6865
v  40.4250 367.4088 2620.3467
v  40.4250 371.7306 2620.3467
v  41.1861 367.4088 2619.7080
v  41.1861 371.7306 2619.7080
v  41.6828 367.4088 2618.8477
v  41.6828 371.7306 2618.8477
v  41.6828 376.0524 2616.8911
v  41.8553 376.0524 2617.8694
v  41.1861 376.0524 2616.0308
v  40.4250 376.0524 2615.3921
v  39.4915 376.0524 2615.0522
v  38.4981 376.0524 2615.0522
v  37.5645 376.0524 2615.3921
v  36.8035 376.0524 2616.0308
v  36.3068 376.0524 2616.8911
v  36.1343 376.0524 2617.8694
v  36.3068 376.0524 2618.8477
v  36.8035 376.0524 2619.7080
v  37.5645 376.0524 2620.3467
v  38.4981 376.0524 2620.6865
v  39.4915 376.0524 2620.6865
v  40.4250 376.0524 2620.3467
v  41.1861 376.0524 2619.7080
v  41.6828 376.0524 2618.8477
v  44.3932 351.1942 2618.7041
v  44.0935 350.8945 2619.4382
v  43.6344 350.4354 2619.9829
v  43.0712 349.8722 2620.2729
v  42.4719 349.2729 2620.2729
v  41.9087 348.7097 2619.9829
v  41.4496 348.2505 2619.4382
v  41.1499 347.9509 2618.7041
v  41.0458 347.8468 2617.8694
v  41.1499 347.9509 2617.0347
v  41.4496 348.2505 2616.3005
v  41.9087 348.7097 2615.7559
v  42.4719 349.2729 2615.4658
v  43.0712 349.8722 2615.4658
v  43.6344 350.4354 2615.7559
v  44.0935 350.8945 2616.3005
v  44.3932 351.1942 2617.0347
v  44.4973 351.2983 2617.8694
v  39.6067 367.1191 2617.8694
v  39.5698 367.1191 2617.6602
v  39.5698 367.1191 2618.0786
v  39.4636 367.1191 2618.2627
v  39.3008 367.1191 2618.3994
v  39.1010 367.1191 2618.4722
v  38.8885 367.1191 2618.4722
v  38.6888 367.1191 2618.3994
v  38.5260 367.1191 2618.2627
v  38.4197 367.1191 2618.0786
v  38.3828 367.1191 2617.8694
v  38.4197 367.1191 2617.6602
v  38.5260 367.1191 2617.4761
v  38.6888 367.1191 2617.3394
v  38.8885 367.1191 2617.2666
v  39.1010 367.1191 2617.2666
v  39.3008 367.1191 2617.3394
v  39.4636 367.1191 2617.4761
v  39.6067 353.7775 2617.8694
v  39.5701 353.7514 2617.5757
v  39.5701 353.7514 2618.1631
v  39.4646 353.6762 2618.4214
v  39.3030 353.5611 2618.6133
v  39.1048 353.4199 2618.7153
v  38.8939 353.2696 2618.7153
v  38.6957 353.1284 2618.6133
v  38.5341 353.0133 2618.4214
v  38.4286 352.9381 2618.1631
v  38.3920 352.9120 2617.8694
v  38.4286 352.9381 2617.5757
v  38.5341 353.0133 2617.3174
v  38.6957 353.1284 2617.1255
v  38.8939 353.2696 2617.0234
v  39.1048 353.4199 2617.0234
v  39.3030 353.5611 2617.1255
v  39.4646 353.6762 2617.3174
# 108 vertices

vn 1.0000 0.0000 0.0000
vn 0.9397 0.0000 -0.3420
vn 0.7660 0.0000 -0.6428
vn 0.5000 0.0000 -0.8660
vn 0.1736 0.0000 -0.9848
vn -0.1736 0.0000 -0.9848
vn -0.5000 0.0000 -0.8660
vn -0.7660 0.0000 -0.6428
vn -0.9397 0.0000 -0.3420
vn -1.0000 0.0000 -0.0000
vn -1.0000 0.0000 0.0000
vn -0.9397 0.0000 0.3420
vn -0.7660 0.0000 0.6428
vn -0.5000 0.0000 0.8660
vn -0.1736 0.0000 0.9848
vn 0.1736 0.0000 0.9848
vn 0.5000 0.0000 0.8660
vn 0.7660 0.0000 0.6428
vn 0.9397 0.0000 0.3420
vn 0.8142 -0.5806 -0.0000
vn 0.8142 -0.5806 0.0000
vn 0.0000 1.0000 -0.0000
vn 0.1777 -0.9836 -0.0313
vn 0.1777 -0.9836 0.0313
vn 0.1563 -0.9836 0.0902
vn 0.1160 -0.9836 0.1382
vn 0.0617 -0.9836 0.1696
vn -0.0000 -0.9836 0.1804
vn -0.0617 -0.9836 0.1696
vn -0.1160 -0.9836 0.1382
vn -0.1563 -0.9836 0.0902
vn -0.1777 -0.9836 0.0313
vn -0.1777 -0.9836 -0.0313
vn -0.1563 -0.9836 -0.0902
vn -0.1160 -0.9836 -0.1382
vn -0.0617 -0.9836 -0.1696
vn -0.0000 -0.9836 -0.1804
vn 0.0617 -0.9836 -0.1696
vn 0.1160 -0.9836 -0.1382
vn 0.1563 -0.9836 -0.0902
vn 0.9895 0.0003 -0.1447
vn 0.9895 0.0003 0.1447
vn 0.9017 0.0028 0.4323
vn 0.7097 0.0070 0.7045
vn 0.3974 0.0110 0.9176
vn -0.0063 0.0126 0.9999
vn -0.4064 0.0106 0.9136
vn -0.7129 0.0064 0.7012
vn -0.9022 0.0023 0.4313
vn -0.9895 -0.0001 0.1446
vn -0.9895 -0.0001 -0.1446
vn -0.9022 0.0023 -0.4313
vn -0.7129 0.0064 -0.7012
vn -0.4064 0.0106 -0.9136
vn -0.0063 0.0126 -0.9999
vn 0.3974 0.0110 -0.9176
vn 0.7097 0.0070 -0.7045
vn 0.9017 0.0028 -0.4323
vn 0.5689 0.7977 -0.2000
vn 0.5689 0.7977 0.2000
vn 0.4585 0.6942 0.5549
vn 0.2724 0.5266 0.8053
vn 0.0476 0.3364 0.9405
vn -0.1925 0.1483 0.9700
vn -0.4318 -0.0249 0.9016
vn -0.6516 -0.1733 0.7385
vn -0.8253 -0.2847 0.4877
vn -0.9228 -0.3453 0.1709
vn -0.9228 -0.3453 -0.1709
vn -0.8253 -0.2847 -0.4877
vn -0.6516 -0.1733 -0.7385
vn -0.4318 -0.0249 -0.9016
vn -0.1925 0.1483 -0.9700
vn 0.0476 0.3364 -0.9405
vn 0.2724 0.5266 -0.8053
vn 0.4585 0.6942 -0.5549
# 76 vertex normals

vt 0.7500 0.0000 1.0000
vt 0.8056 0.0000 1.0000
vt 0.8056 0.5000 1.0000
vt 0.7500 0.5000 1.0000
vt 0.8611 0.0000 1.0000
vt 0.8611 0.5000 1.0000
vt 0.9167 0.0000 1.0000
vt 0.9167 0.5000 1.0000
vt 0.9722 0.0000 1.0000
vt 0.9722 0.5000 1.0000
vt 1.0278 0.0000 1.0000
vt 1.0278 0.5000 1.0000
vt 0.0278 0.0000 1.0000
vt 0.0833 0.0000 1.0000
vt 0.0833 0.5000 1.0000
vt 0.0278 0.5000 1.0000
vt 0.1389 0.0000 1.0000
vt 0.1389 0.5000 1.0000
vt 0.1944 0.0000 1.0000
vt 0.1944 0.5000 1.0000
vt 0.2500 0.0000 1.0000
vt 0.2500 0.5000 1.0000
vt 0.3056 0.0000 1.0000
vt 0.3056 0.5000 1.0000
vt 0.3611 0.0000 1.0000
vt 0.3611 0.5000 1.0000
vt 0.4167 0.0000 1.0000
vt 0.4167 0.5000 1.0000
vt 0.4722 0.0000 1.0000
vt 0.4722 0.5000 1.0000
vt 0.5278 0.0000 1.0000
vt 0.5278 0.5000 1.0000
vt 0.5833 0.0000 1.0000
vt 0.5833 0.5000 1.0000
vt 0.6389 0.0000 1.0000
vt 0.6389 0.5000 1.0000
vt 0.6944 0.0000 1.0000
vt 0.6944 0.5000 1.0000
vt 0.8056 1.0000 1.0000
vt 0.7500 1.0000 1.0000
vt 0.8611 1.0000 1.0000
vt 0.9167 1.0000 1.0000
vt 0.9722 1.0000 1.0000
vt 1.0278 1.0000 1.0000
vt 0.0833 1.0000 1.0000
vt 0.0278 1.0000 1.0000
vt 0.1389 1.0000 1.0000
vt 0.1944 1.0000 1.0000
vt 0.2500 1.0000 1.0000
vt 0.3056 1.0000 1.0000
vt 0.3611 1.0000 1.0000
vt 0.4167 1.0000 1.0000
vt 0.4722 1.0000 1.0000
vt 0.5278 1.0000 1.0000
vt 0.5833 1.0000 1.0000
vt 0.6389 1.0000 1.0000
vt 0.6944 1.0000 1.0000
vt 0.6710 0.9698 -0.2500
vt 0.8214 0.8830 -0.2500
vt 0.9330 0.7500 -0.2500
vt 0.9924 0.5868 -0.2500
vt 0.9924 0.4132 -0.2500
vt 0.9330 0.2500 -0.2500
vt 0.8214 0.1170 -0.2500
vt 0.6710 0.0302 -0.2500
vt 0.5000 0.0000 -0.2500
vt 0.3290 0.0302 -0.2500
vt 0.1786 0.1170 -0.2500
vt 0.0670 0.2500 -0.2500
vt 0.0076 0.4132 -0.2500
vt 0.0076 0.5868 -0.2500
vt 0.0670 0.7500 -0.2500
vt 0.1786 0.8830 -0.2500
vt 0.3290 0.9698 -0.2500
vt 0.5000 1.0000 -0.2500
vt 0.5000 1.0000 0.2500
vt 0.3290 0.9698 0.2500
vt 0.1786 0.8830 0.2500
vt 0.0670 0.7500 0.2500
vt 0.0076 0.5868 0.2500
vt 0.0076 0.4132 0.2500
vt 0.0670 0.2500 0.2500
vt 0.1786 0.1170 0.2500
vt 0.3290 0.0302 0.2500
vt 0.5000 0.0000 0.2500
vt 0.6710 0.0302 0.2500
vt 0.8214 0.1170 0.2500
vt 0.9330 0.2500 0.2500
vt 0.9924 0.4132 0.2500
vt 0.9924 0.5868 0.2500
vt 0.9330 0.7500 0.2500
vt 0.8214 0.8830 0.2500
vt 0.6710 0.9698 0.2500
# 93 texture coords

g Cylinder002
usemtl wire_086086086
s 8
f 1/1/1 2/2/2 3/3/2 4/4/1 
f 2/2/2 5/5/3 6/6/3 3/3/2 
f 5/5/3 7/7/4 8/8/4 6/6/3 
f 7/7/4 9/9/5 10/10/5 8/8/4 
f 9/9/5 11/11/6 12/12/6 10/10/5 
f 11/13/6 13/14/7 14/15/7 12/16/6 
f 13/14/7 15/17/8 16/18/8 14/15/7 
f 15/17/8 17/19/9 18/20/9 16/18/8 
f 17/19/9 19/21/10 20/22/11 18/20/9 
f 19/21/10 21/23/12 22/24/12 20/22/11 
f 21/23/12 23/25/13 24/26/13 22/24/12 
f 23/25/13 25/27/14 26/28/14 24/26/13 
f 25/27/14 27/29/15 28/30/15 26/28/14 
f 27/29/15 29/31/16 30/32/16 28/30/15 
f 29/31/16 31/33/17 32/34/17 30/32/16 
f 31/33/17 33/35/18 34/36/18 32/34/17 
f 33/35/18 35/37/19 36/38/19 34/36/18 
f 35/37/19 1/1/1 4/4/1 36/38/19 
f 4/4/1 3/3/2 37/39/2 38/40/1 
f 3/3/2 6/6/3 39/41/3 37/39/2 
f 6/6/3 8/8/4 40/42/4 39/41/3 
f 8/8/4 10/10/5 41/43/5 40/42/4 
f 10/10/5 12/12/6 42/44/6 41/43/5 
f 12/16/6 14/15/7 43/45/7 42/46/6 
f 14/15/7 16/18/8 44/47/8 43/45/7 
f 16/18/8 18/20/9 45/48/9 44/47/8 
f 18/20/9 20/22/11 46/49/11 45/48/9 
f 20/22/11 22/24/12 47/50/12 46/49/11 
f 22/24/12 24/26/13 48/51/13 47/50/12 
f 24/26/13 26/28/14 49/52/14 48/51/13 
f 26/28/14 28/30/15 50/53/15 49/52/14 
f 28/30/15 30/32/16 51/54/16 50/53/15 
f 30/32/16 32/34/17 52/55/17 51/54/16 
f 32/34/17 34/36/18 53/56/18 52/55/17 
f 34/36/18 36/38/19 54/57/19 53/56/18 
f 36/38/19 4/4/1 38/40/1 54/57/19 
s 1
f 55/58/20 56/59/20 57/60/20 58/61/20 59/62/20 60/63/20 61/64/21 62/65/21 63/66/20 64/67/20 65/68/20 66/69/21 67/70/21 68/71/20 69/72/21 70/73/21 71/74/21 72/75/21 
f 38/76/22 37/77/22 39/78/22 40/79/22 41/80/22 42/81/22 43/82/22 44/83/22 45/84/22 46/85/22 47/86/22 48/87/22 49/88/22 50/89/22 51/90/22 52/91/22 53/92/22 54/93/22 
s off
f 2/74/23 1/75/23 73/75/23 74/74/23 
f 1/75/24 35/58/24 75/58/24 73/75/24 
f 35/58/25 33/59/25 76/59/25 75/58/25 
f 33/59/26 31/60/26 77/60/26 76/59/26 
f 31/60/27 29/61/27 78/61/27 77/60/27 
f 29/61/28 27/62/28 79/62/28 78/61/28 
f 27/62/29 25/63/29 80/63/29 79/62/29 
f 25/63/30 23/64/30 81/64/30 80/63/30 
f 23/64/31 21/65/31 82/65/31 81/64/31 
f 21/65/32 19/66/32 83/66/32 82/65/32 
f 19/66/33 17/67/33 84/67/33 83/66/33 
f 17/67/34 15/68/34 85/68/34 84/67/34 
f 15/68/35 13/69/35 86/69/35 85/68/35 
f 13/69/36 11/70/36 87/70/36 86/69/36 
f 11/70/37 9/71/37 88/71/37 87/70/37 
f 9/71/38 7/72/38 89/72/38 88/71/38 
f 7/72/39 5/73/39 90/73/39 89/72/39 
f 5/73/40 2/74/40 74/74/40 90/73/40 
f 74/74/41 73/75/41 91/75/41 92/74/41 
f 73/75/42 75/58/42 93/58/42 91/75/42 
f 75/58/43 76/59/43 94/59/43 93/58/43 
f 76/59/44 77/60/44 95/60/44 94/59/44 
f 77/60/45 78/61/45 96/61/45 95/60/45 
f 78/61/46 79/62/46 97/62/46 96/61/46 
f 79/62/47 80/63/47 98/63/47 97/62/47 
f 80/63/48 81/64/48 99/64/48 98/63/48 
f 81/64/49 82/65/49 100/65/49 99/64/49 
f 82/65/50 83/66/50 101/66/50 100/65/50 
f 83/66/51 84/67/51 102/67/51 101/66/51 
f 84/67/52 85/68/52 103/68/52 102/67/52 
f 85/68/53 86/69/53 104/69/53 103/68/53 
f 86/69/54 87/70/54 105/70/54 104/69/54 
f 87/70/55 88/71/55 106/71/55 105/70/55 
f 88/71/56 89/72/56 107/72/56 106/71/56 
f 89/72/57 90/73/57 108/73/57 107/72/57 
f 90/73/58 74/74/58 92/74/58 108/73/58 
f 91/75/59 72/75/59 71/74/59 92/74/59 
f 93/58/60 55/58/60 72/75/60 91/75/60 
f 94/59/61 56/59/61 55/58/61 93/58/61 
f 95/60/62 57/60/62 56/59/62 94/59/62 
f 96/61/63 58/61/63 57/60/63 95/60/63 
f 97/62/64 59/62/64 58/61/64 96/61/64 
f 98/63/65 60/63/65 59/62/65 97/62/65 
f 99/64/66 61/64/66 60/63/66 98/63/66 
f 100/65/67 62/65/67 61/64/67 99/64/67 
f 101/66/68 63/66/68 62/65/68 100/65/68 
f 102/67/69 64/67/69 63/66/69 101/66/69 
f 103/68/70 65/68/70 64/67/70 102/67/70 
f 104/69/71 66/69/71 65/68/71 103/68/71 
f 105/70/72 67/70/72 66/69/72 104/69/72 
f 106/71/73 68/71/73 67/70/73 105/70/73 
f 107/72/74 69/72/74 68/71/74 106/71/74 
f 108/73/75 70/73/75 69/72/75 107/72/75 
f 92/74/76 71/74/76 70/73/76 108/73/76 
# 92 polygons

