# 3ds Max Wavefront OBJ Exporter v0.97b - (c)2007 guruware
# File Created: 16.05.2018 01:03:43

mtllib aniport_bollbox_lid.mtl

#
# object Object001
#

v  0.6918 0.0222 0.5018
v  0.4928 0.0222 0.5018
v  0.4549 0.0222 0.5018
v  0.2559 0.0222 0.5018
v  0.2180 0.0222 0.5018
v  0.0190 0.0222 0.5018
v  -0.0190 0.0222 0.5018
v  -0.2180 0.0222 0.5018
v  -0.2559 0.0222 0.5018
v  -0.4549 0.0222 0.5018
v  -0.4928 0.0222 0.5018
v  -0.6918 0.0222 0.5018
v  -0.6918 0.0222 -0.5018
v  -0.4928 0.0222 -0.5018
v  -0.4549 0.0222 -0.5018
v  -0.2559 0.0222 -0.5018
v  -0.2180 0.0222 -0.5018
v  -0.0190 0.0222 -0.5018
v  0.0190 0.0222 -0.5018
v  0.2180 0.0222 -0.5018
v  0.2559 0.0222 -0.5018
v  0.4549 0.0222 -0.5018
v  0.4928 0.0222 -0.5018
v  0.6918 0.0222 -0.5018
v  -0.7108 0.0222 0.5018
v  -0.7108 -0.0305 0.5018
v  -0.6918 -0.0305 0.5018
v  0.6918 -0.0305 0.5018
v  0.7108 -0.0305 0.5018
v  0.7108 0.0222 0.5018
v  0.7108 0.0222 -0.5018
v  0.7108 -0.0305 -0.5018
v  0.6918 -0.0305 -0.5018
v  -0.6918 -0.0305 -0.5018
v  -0.7108 -0.0305 -0.5018
v  -0.7108 0.0222 -0.5018
v  -0.0190 0.0222 0.4817
v  0.0190 0.0222 0.4817
v  0.0190 0.0222 -0.4817
v  -0.0190 0.0222 -0.4817
v  0.2559 0.0222 -0.4817
v  0.2180 0.0222 -0.4817
v  0.2180 0.0222 0.4817
v  0.2559 0.0222 0.4817
v  -0.7108 0.0222 -0.4817
v  -0.7108 0.0222 0.4817
v  -0.6918 0.0222 0.4817
v  -0.6918 0.0222 -0.4817
v  0.7108 0.0222 0.4817
v  0.7108 0.0222 -0.4817
v  0.6918 0.0222 -0.4817
v  0.6918 0.0222 0.4817
v  -0.4549 0.0222 -0.4817
v  -0.4928 0.0222 -0.4817
v  -0.4928 0.0222 0.4817
v  -0.4549 0.0222 0.4817
v  -0.2180 0.0222 -0.4817
v  -0.2559 0.0222 -0.4817
v  -0.2559 0.0222 0.4817
v  -0.2180 0.0222 0.4817
v  0.4549 0.0222 0.4817
v  0.4928 0.0222 0.4817
v  0.4928 0.0222 -0.4817
v  0.4549 0.0222 -0.4817
v  0.7108 -0.0305 0.4817
v  0.7108 -0.0305 -0.4817
v  -0.7108 -0.0305 -0.4817
v  -0.7108 -0.0305 0.4817
v  0.2180 -0.0305 0.4817
v  0.0190 -0.0305 0.4817
v  0.0190 -0.0305 -0.4817
v  0.2180 -0.0305 -0.4817
v  -0.2180 -0.0305 -0.4817
v  -0.0190 -0.0305 -0.4817
v  -0.0190 -0.0305 0.4817
v  -0.2180 -0.0305 0.4817
v  -0.4928 -0.0305 0.4817
v  -0.6918 -0.0305 0.4817
v  -0.6918 -0.0305 -0.4817
v  -0.4928 -0.0305 -0.4817
v  -0.2559 -0.0305 0.4817
v  -0.4549 -0.0305 0.4817
v  -0.4549 -0.0305 -0.4817
v  -0.2559 -0.0305 -0.4817
v  0.6918 -0.0305 0.4817
v  0.4928 -0.0305 0.4817
v  0.4928 -0.0305 -0.4817
v  0.6918 -0.0305 -0.4817
v  0.4549 -0.0305 0.4817
v  0.2559 -0.0305 0.4817
v  0.2559 -0.0305 -0.4817
v  0.4549 -0.0305 -0.4817
# 92 vertices

vn 0.0000 0.9959 0.0905
vn 0.0000 0.9959 -0.0905
vn 0.0000 0.0000 1.0000
vn 0.0000 0.0000 -1.0000
vn 0.0000 1.0000 -0.0000
vn 1.0000 0.0000 -0.0000
vn -1.0000 0.0000 -0.0000
vn 0.0000 -1.0000 -0.0000
# 8 vertex normals

vt 0.9702 0.1612 0.0000
vt 0.8350 0.1612 0.0000
vt 0.8092 0.1612 0.0000
vt 0.6739 0.1612 0.0000
vt 0.6482 0.1612 0.0000
vt 0.5129 0.1612 0.0000
vt 0.4871 0.1612 0.0000
vt 0.3518 0.1612 0.0000
vt 0.3261 0.1612 0.0000
vt 0.1908 0.1612 0.0000
vt 0.1650 0.1612 0.0000
vt 0.0298 0.1612 0.0000
vt 0.0298 0.8184 0.0000
vt 0.1650 0.8184 0.0000
vt 0.1908 0.8184 0.0000
vt 0.3261 0.8184 0.0000
vt 0.3518 0.8184 0.0000
vt 0.4871 0.8184 0.0000
vt 0.5129 0.8184 0.0000
vt 0.6482 0.8184 0.0000
vt 0.6739 0.8184 0.0000
vt 0.8092 0.8184 0.0000
vt 0.8350 0.8184 0.0000
vt 0.9702 0.8184 0.0000
vt 0.0169 0.1612 0.0000
vt 0.9831 0.1612 0.0000
vt 0.9831 0.8184 0.0000
vt 0.0169 0.8184 0.0000
vt 0.4871 0.1744 0.0000
vt 0.5129 0.1744 0.0000
vt 0.5129 0.8052 0.0000
vt 0.4871 0.8052 0.0000
vt 0.6739 0.8052 0.0000
vt 0.6482 0.8052 0.0000
vt 0.6482 0.1744 0.0000
vt 0.6739 0.1744 0.0000
vt 0.0169 0.8052 0.0000
vt 0.0169 0.1744 0.0000
vt 0.0298 0.1744 0.0000
vt 0.0298 0.8052 0.0000
vt 0.9831 0.1744 0.0000
vt 0.9831 0.8052 0.0000
vt 0.9702 0.8052 0.0000
vt 0.9702 0.1744 0.0000
vt 0.1908 0.8052 0.0000
vt 0.1650 0.8052 0.0000
vt 0.1650 0.1744 0.0000
vt 0.1908 0.1744 0.0000
vt 0.3518 0.8052 0.0000
vt 0.3261 0.8052 0.0000
vt 0.3261 0.1744 0.0000
vt 0.3518 0.1744 0.0000
vt 0.8092 0.1744 0.0000
vt 0.8350 0.1744 0.0000
vt 0.8350 0.8052 0.0000
vt 0.8092 0.8052 0.0000
# 56 texture coords

g Object001
usemtl wire_154154229
s off
f 1/1/1 2/2/1 3/3/1 4/4/1 5/5/1 6/6/1 7/7/1 8/8/1 9/9/1 10/10/1 11/11/1 12/12/1 
f 13/13/2 14/14/2 15/15/2 16/16/2 17/17/2 18/18/2 19/19/2 20/20/2 21/21/2 22/22/2 23/23/2 24/24/2 
f 12/12/3 25/25/3 26/25/3 27/12/3 28/1/3 29/26/3 30/26/3 1/1/3 
f 24/24/4 31/27/4 32/27/4 33/24/4 34/13/4 35/28/4 36/28/4 13/13/4 
f 37/29/5 38/30/5 39/31/5 40/32/5 
f 41/33/5 42/34/5 43/35/5 44/36/5 
f 45/37/5 46/38/5 47/39/5 48/40/5 
f 49/41/5 50/42/5 51/43/5 52/44/5 
f 53/45/5 54/46/5 55/47/5 56/48/5 
f 57/49/5 58/50/5 59/51/5 60/52/5 
f 61/53/5 62/54/5 63/55/5 64/56/5 
f 49/41/6 65/41/6 66/42/6 50/42/6 
f 45/37/7 67/37/7 68/38/7 46/38/7 
f 38/30/5 6/6/5 5/5/5 43/35/5 
f 42/34/5 20/20/5 19/19/5 39/31/5 
f 47/39/5 12/12/5 11/11/5 55/47/5 
f 54/46/5 14/14/5 13/13/5 48/40/5 
f 56/48/5 10/10/5 9/9/5 59/51/5 
f 58/50/5 16/16/5 15/15/5 53/45/5 
f 60/52/5 8/8/5 7/7/5 37/29/5 
f 40/32/5 18/18/5 17/17/5 57/49/5 
f 51/43/5 24/24/5 23/23/5 63/55/5 
f 62/54/5 2/2/5 1/1/5 52/44/5 
f 64/56/5 22/22/5 21/21/5 41/33/5 
f 44/36/5 4/4/5 3/3/5 61/53/5 
f 6/6/5 38/30/5 37/29/5 7/7/5 
f 18/18/5 40/32/5 39/31/5 19/19/5 
f 20/20/5 42/34/5 41/33/5 21/21/5 
f 4/4/5 44/36/5 43/35/5 5/5/5 
f 46/38/5 25/25/5 12/12/5 47/39/5 
f 48/40/5 13/13/5 36/28/5 45/37/5 
f 10/10/5 56/48/5 55/47/5 11/11/5 
f 14/14/5 54/46/5 53/45/5 15/15/5 
f 8/8/5 60/52/5 59/51/5 9/9/5 
f 16/16/5 58/50/5 57/49/5 17/17/5 
f 50/42/5 31/27/5 24/24/5 51/43/5 
f 52/44/5 1/1/5 30/26/5 49/41/5 
f 22/22/5 64/56/5 63/55/5 23/23/5 
f 2/2/5 62/54/5 61/53/5 3/3/5 
s 16
f 69/35/4 38/30/4 43/35/4 
s 32
f 70/30/6 71/31/6 39/31/6 38/30/6 
s 16
f 71/31/3 42/34/3 39/31/3 
s 32
f 72/34/7 69/35/7 43/35/7 42/34/7 
s 16
f 73/49/3 40/32/3 57/49/3 
s 32
f 74/32/7 75/29/7 37/29/7 40/32/7 
s 16
f 75/29/4 60/52/4 37/29/4 
s 32
f 76/52/6 73/49/6 57/49/6 60/52/6 
s 16
f 77/47/4 47/39/4 55/47/4 
s 32
f 78/39/6 79/40/6 48/40/6 47/39/6 
s 16
f 79/40/3 54/46/3 48/40/3 
s 32
f 80/46/7 77/47/7 55/47/7 54/46/7 
s 16
f 81/51/4 56/48/4 59/51/4 
s 32
f 82/48/6 83/45/6 53/45/6 56/48/6 
s 16
f 83/45/3 58/50/3 53/45/3 
s 32
f 84/50/7 81/51/7 59/51/7 58/50/7 
s 16
f 85/44/4 62/54/4 52/44/4 
s 32
f 86/54/6 87/55/6 63/55/6 62/54/6 
s 16
f 87/55/3 51/43/3 63/55/3 
s 32
f 88/43/7 85/44/7 52/44/7 51/43/7 
s 16
f 89/53/4 44/36/4 61/53/4 
s 32
f 90/36/6 91/33/6 41/33/6 44/36/6 
s 16
f 91/33/3 64/56/3 41/33/3 
s 32
f 92/56/7 89/53/7 61/53/7 64/56/7 
s off
f 66/42/6 32/27/6 31/27/6 50/42/6 
f 45/37/7 36/28/7 35/28/7 67/37/7 
s 16
f 71/31/3 72/34/3 42/34/3 
f 73/49/3 74/32/3 40/32/3 
f 79/40/3 80/46/3 54/46/3 
f 83/45/3 84/50/3 58/50/3 
f 87/55/3 88/43/3 51/43/3 
f 91/33/3 92/56/3 64/56/3 
s off
f 49/41/6 30/26/6 29/26/6 65/41/6 
f 68/38/7 26/25/7 25/25/7 46/38/7 
s 16
f 69/35/4 70/30/4 38/30/4 
f 75/29/4 76/52/4 60/52/4 
f 77/47/4 78/39/4 47/39/4 
f 81/51/4 82/48/4 56/48/4 
f 85/44/4 86/54/4 62/54/4 
f 89/53/4 90/36/4 44/36/4 
s 1
f 83/45/8 82/48/8 77/47/8 80/46/8 
f 81/51/8 84/50/8 73/49/8 76/52/8 
f 75/29/8 74/32/8 71/31/8 70/30/8 
f 85/44/8 88/43/8 66/42/8 65/41/8 
f 89/53/8 92/56/8 87/55/8 86/54/8 
f 91/33/8 90/36/8 69/35/8 72/34/8 
f 79/40/8 78/39/8 68/38/8 67/37/8 
s 2
f 68/38/8 78/39/8 27/12/8 26/25/8 
f 79/40/8 67/37/8 35/28/8 34/13/8 
f 66/42/8 88/43/8 33/24/8 32/27/8 
f 85/44/8 65/41/8 29/26/8 28/1/8 
s 4
f 86/54/8 85/44/8 28/1/8 27/12/8 
s 8
f 86/54/8 27/12/8 90/36/8 89/53/8 
s 64
f 90/36/8 27/12/8 70/30/8 69/35/8 
s 128
f 70/30/8 27/12/8 76/52/8 75/29/8 
s 256
f 76/52/8 27/12/8 82/48/8 81/51/8 
s 512
f 82/48/8 27/12/8 78/39/8 77/47/8 
s 4
f 80/46/8 79/40/8 34/13/8 33/24/8 
s 8
f 80/46/8 33/24/8 84/50/8 83/45/8 
s 64
f 84/50/8 33/24/8 74/32/8 73/49/8 
s 128
f 74/32/8 33/24/8 72/34/8 71/31/8 
s 256
f 72/34/8 33/24/8 92/56/8 91/33/8 
s 512
f 92/56/8 33/24/8 88/43/8 87/55/8 
# 78 polygons - 24 triangles

