# 3ds Max Wavefront OBJ Exporter v0.97b - (c)2007 guruware
# File Created: 14.05.2018 22:26:28

mtllib aniport_windowwall.mtl

#
# object Cylinder001
#

v  -0.4146 0.0000 -0.0000
v  -0.3896 0.1418 -0.0000
v  -0.3896 0.1418 -0.0188
v  -0.4146 -0.0000 -0.0188
v  -0.3176 0.2665 -0.0000
v  -0.3176 0.2665 -0.0188
v  -0.2073 0.3590 -0.0000
v  -0.2073 0.3590 -0.0188
v  -0.0720 0.4083 -0.0000
v  -0.0720 0.4083 -0.0188
v  0.0720 0.4083 -0.0000
v  0.0720 0.4083 -0.0188
v  0.2073 0.3590 0.0000
v  0.2073 0.3590 -0.0188
v  0.3176 0.2665 0.0000
v  0.3176 0.2665 -0.0188
v  0.3896 0.1418 0.0000
v  0.3896 0.1418 -0.0188
v  0.4146 0.0000 0.0000
v  0.4146 0.0000 -0.0188
v  0.3896 -0.1418 0.0000
v  0.3896 -0.1418 -0.0188
v  0.3176 -0.2665 0.0000
v  0.3176 -0.2665 -0.0188
v  0.2073 -0.3590 0.0000
v  0.2073 -0.3590 -0.0188
v  0.0720 -0.4083 0.0000
v  0.0720 -0.4083 -0.0188
v  -0.0720 -0.4083 0.0000
v  -0.0720 -0.4083 -0.0188
v  -0.2073 -0.3590 -0.0000
v  -0.2073 -0.3590 -0.0188
v  -0.3176 -0.2665 -0.0000
v  -0.3176 -0.2665 -0.0188
v  -0.3896 -0.1418 -0.0000
v  -0.3896 -0.1418 -0.0188
v  -0.9234 0.7327 -0.0188
v  0.9104 0.7327 -0.0188
v  0.9104 0.7327 -0.1837
v  -0.9234 0.7327 -0.1837
v  0.9104 -0.7399 -0.0188
v  0.9104 -0.7399 -0.1837
v  -0.9234 -0.7399 -0.0188
v  -0.9234 -0.7399 -0.1837
v  -0.4146 -0.0000 -0.1837
v  -0.3896 0.1418 -0.1837
v  -0.3896 0.1418 -0.2026
v  -0.4146 -0.0000 -0.2026
v  -0.3176 0.2665 -0.1837
v  -0.3176 0.2665 -0.2026
v  -0.2073 0.3590 -0.1837
v  -0.2073 0.3590 -0.2026
v  -0.0720 0.4083 -0.1837
v  -0.0720 0.4083 -0.2026
v  0.0720 0.4083 -0.1837
v  0.0720 0.4083 -0.2026
v  0.2073 0.3590 -0.1837
v  0.2073 0.3590 -0.2026
v  0.3176 0.2665 -0.1837
v  0.3176 0.2665 -0.2026
v  0.3896 0.1418 -0.1837
v  0.3896 0.1418 -0.2026
v  0.4146 0.0000 -0.1837
v  0.4146 0.0000 -0.2026
v  0.3896 -0.1418 -0.1837
v  0.3896 -0.1418 -0.2026
v  0.3176 -0.2665 -0.1837
v  0.3176 -0.2665 -0.2026
v  0.2073 -0.3590 -0.1837
v  0.2073 -0.3590 -0.2026
v  0.0720 -0.4083 -0.1837
v  0.0720 -0.4083 -0.2026
v  -0.0720 -0.4083 -0.1837
v  -0.0720 -0.4083 -0.2026
v  -0.2073 -0.3590 -0.1837
v  -0.2073 -0.3590 -0.2026
v  -0.3176 -0.2665 -0.1837
v  -0.3176 -0.2665 -0.2026
v  -0.3896 -0.1418 -0.1837
v  -0.3896 -0.1418 -0.2026
v  -0.3296 -0.0000 -0.0000
v  -0.3097 0.1127 -0.0000
v  -0.3097 -0.1127 -0.0000
v  -0.2525 -0.2118 -0.0000
v  -0.1648 -0.2854 -0.0000
v  -0.0572 -0.3246 0.0000
v  0.0572 -0.3246 0.0000
v  0.1648 -0.2854 0.0000
v  0.2525 -0.2118 0.0000
v  0.3097 -0.1127 0.0000
v  0.3296 0.0000 0.0000
v  0.3097 0.1127 0.0000
v  0.2525 0.2118 0.0000
v  0.1648 0.2854 0.0000
v  0.0572 0.3246 -0.0000
v  -0.0572 0.3246 -0.0000
v  -0.1648 0.2854 -0.0000
v  -0.2525 0.2118 -0.0000
v  -0.3097 0.1127 -0.2026
v  -0.3296 -0.0000 -0.2026
v  -0.2525 0.2118 -0.2026
v  -0.1648 0.2854 -0.2026
v  -0.0572 0.3246 -0.2026
v  0.0572 0.3246 -0.2026
v  0.1648 0.2854 -0.2026
v  0.2525 0.2118 -0.2026
v  0.3097 0.1127 -0.2026
v  0.3296 0.0000 -0.2026
v  0.3097 -0.1127 -0.2026
v  0.2525 -0.2118 -0.2026
v  0.1648 -0.2854 -0.2026
v  0.0572 -0.3246 -0.2026
v  -0.0572 -0.3246 -0.2026
v  -0.1648 -0.2854 -0.2026
v  -0.2525 -0.2118 -0.2026
v  -0.3097 -0.1127 -0.2026
v  -0.3097 -0.1127 -0.0177
v  -0.2525 -0.2118 -0.0177
v  -0.1648 -0.2854 -0.0177
v  -0.0572 -0.3246 -0.0177
v  0.0572 -0.3246 -0.0177
v  0.1648 -0.2854 -0.0177
v  0.2525 -0.2118 -0.0177
v  0.3097 -0.1127 -0.0177
v  0.3296 0.0000 -0.0177
v  0.3097 0.1127 -0.0177
v  0.2525 0.2118 -0.0177
v  0.1648 0.2854 -0.0177
v  0.0572 0.3246 -0.0177
v  -0.0572 0.3246 -0.0177
v  -0.1648 0.2854 -0.0177
v  -0.2525 0.2118 -0.0177
v  -0.3097 0.1127 -0.0177
v  -0.3296 -0.0000 -0.0177
v  -0.3296 -0.0000 -0.0531
v  -0.3097 0.1127 -0.0531
v  -0.2525 0.2118 -0.0531
v  -0.1648 0.2854 -0.0531
v  -0.0572 0.3246 -0.0531
v  0.0572 0.3246 -0.0531
v  0.1648 0.2854 -0.0531
v  0.2525 0.2118 -0.0531
v  0.3097 0.1127 -0.0531
v  0.3296 0.0000 -0.0531
v  0.3097 -0.1127 -0.0531
v  0.2525 -0.2118 -0.0531
v  0.1648 -0.2854 -0.0531
v  0.0572 -0.3246 -0.0531
v  -0.0572 -0.3246 -0.0531
v  -0.1648 -0.2854 -0.0531
v  -0.2525 -0.2118 -0.0531
v  -0.3097 -0.1127 -0.0531
# 152 vertices

vn -1.0000 -0.0000 0.0000
vn -0.9397 0.3420 0.0000
vn -0.7660 0.6428 0.0000
vn -0.5000 0.8660 0.0000
vn -0.1736 0.9848 -0.0000
vn -0.1736 0.9848 0.0000
vn 0.1736 0.9848 -0.0000
vn 0.5000 0.8660 0.0000
vn 0.7660 0.6428 0.0000
vn 0.9397 0.3420 0.0000
vn 1.0000 0.0000 0.0000
vn 0.9397 -0.3420 0.0000
vn 0.7660 -0.6428 0.0000
vn 0.5000 -0.8660 0.0000
vn 0.1736 -0.9848 0.0000
vn -0.1736 -0.9848 0.0000
vn -0.5000 -0.8660 -0.0000
vn -0.5000 -0.8660 0.0000
vn -0.7660 -0.6428 0.0000
vn -0.9397 -0.3420 0.0000
vn 0.0000 1.0000 -0.0000
vn 1.0000 -0.0000 0.0000
vn 0.0000 -1.0000 0.0000
vn -1.0000 0.0000 -0.0000
vn -1.0000 -0.0000 -0.0000
vn -0.9397 0.3420 -0.0000
vn -0.7660 0.6428 -0.0000
vn -0.5000 0.8660 -0.0000
vn 0.5000 0.8660 -0.0000
vn 0.7660 0.6428 -0.0000
vn 0.9397 0.3420 -0.0000
vn 0.9397 -0.3420 -0.0000
vn 0.7660 -0.6428 -0.0000
vn 0.5000 -0.8660 -0.0000
vn 0.1736 -0.9848 -0.0000
vn -0.1736 -0.9848 -0.0000
vn -0.7660 -0.6428 -0.0000
vn -0.9397 -0.3420 -0.0000
vn 0.0000 -0.0000 1.0000
vn 0.0000 0.0000 1.0000
vn -0.0000 0.0000 1.0000
vn -0.0000 -0.0000 1.0000
vn -0.0000 0.0000 -1.0000
vn 0.0000 0.0000 -1.0000
vn 0.0000 -0.0000 -1.0000
vn -0.0000 -0.0000 -1.0000
vn 0.3420 0.9397 -0.0000
vn -0.3420 0.9397 -0.0000
# 48 vertex normals

vt 0.3686 0.2622 0.0000
vt 0.3766 0.3073 0.0000
vt 0.3998 0.3470 0.0000
vt 0.4353 0.3765 0.0000
vt 0.4789 0.3922 0.0000
vt 0.5253 0.3922 0.0000
vt 0.5689 0.3765 0.0000
vt 0.6044 0.3470 0.0000
vt 0.6276 0.3073 0.0000
vt 0.6356 0.2622 0.0000
vt 0.6276 0.2170 0.0000
vt 0.6044 0.1773 0.0000
vt 0.5689 0.1479 0.0000
vt 0.5253 0.1322 0.0000
vt 0.4789 0.1322 0.0000
vt 0.4353 0.1479 0.0000
vt 0.3998 0.1773 0.0000
vt 0.3766 0.2170 0.0000
vt 0.2047 0.4954 0.0000
vt 0.7953 0.4954 0.0000
vt 0.7953 0.0266 0.0000
vt 0.2047 0.0266 0.0000
vt 0.3959 0.2622 0.0000
vt 0.4023 0.2981 0.0000
vt 0.4023 0.2263 0.0000
vt 0.4208 0.1947 0.0000
vt 0.4490 0.1713 0.0000
vt 0.4837 0.1589 0.0000
vt 0.5205 0.1589 0.0000
vt 0.5552 0.1713 0.0000
vt 0.5834 0.1947 0.0000
vt 0.6018 0.2263 0.0000
vt 0.6082 0.2622 0.0000
vt 0.6018 0.2981 0.0000
vt 0.5834 0.3296 0.0000
vt 0.5552 0.3530 0.0000
vt 0.5205 0.3655 0.0000
vt 0.4837 0.3655 0.0000
vt 0.4490 0.3530 0.0000
vt 0.4208 0.3296 0.0000
vt 0.2887 0.6717 0.0000
vt 0.3278 0.6030 0.0000
vt 0.3876 0.5521 0.0000
vt 0.4610 0.5249 0.0000
vt 0.5390 0.5249 0.0000
vt 0.6124 0.5521 0.0000
vt 0.6722 0.6030 0.0000
vt 0.7113 0.6717 0.0000
vt 0.7248 0.7497 0.0000
vt 0.7113 0.8278 0.0000
vt 0.6722 0.8965 0.0000
vt 0.6124 0.9474 0.0000
vt 0.5390 0.9746 0.0000
vt 0.4610 0.9746 0.0000
vt 0.3876 0.9474 0.0000
vt 0.3278 0.8965 0.0000
vt 0.2887 0.8278 0.0000
vt 0.2752 0.7497 0.0000
# 58 texture coords

g Cylinder001
usemtl wire_057008136
s 8
f 1/1/1 2/2/2 3/2/2 4/1/1 
f 2/2/2 5/3/3 6/3/3 3/2/2 
f 5/3/3 7/4/4 8/4/4 6/3/3 
f 7/4/4 9/5/5 10/5/6 8/4/4 
f 9/5/5 11/6/7 12/6/7 10/5/6 
f 11/6/7 13/7/8 14/7/8 12/6/7 
f 13/7/8 15/8/9 16/8/9 14/7/8 
f 15/8/9 17/9/10 18/9/10 16/8/9 
f 17/9/10 19/10/11 20/10/11 18/9/10 
f 19/10/11 21/11/12 22/11/12 20/10/11 
f 21/11/12 23/12/13 24/12/13 22/11/12 
f 23/12/13 25/13/14 26/13/14 24/12/13 
f 25/13/14 27/14/15 28/14/15 26/13/14 
f 27/14/15 29/15/16 30/15/16 28/14/15 
f 29/15/16 31/16/17 32/16/18 30/15/16 
f 31/16/17 33/17/19 34/17/19 32/16/18 
f 33/17/19 35/18/20 36/18/20 34/17/19 
f 35/18/20 1/1/1 4/1/1 36/18/20 
s off
f 37/19/21 38/20/21 39/20/21 40/19/21 
f 38/20/22 41/21/22 42/21/22 39/20/22 
f 41/21/23 43/22/23 44/22/23 42/21/23 
f 43/22/24 37/19/24 40/19/24 44/22/24 
s 8
f 45/1/25 46/2/26 47/2/26 48/1/24 
f 46/2/26 49/3/27 50/3/27 47/2/26 
f 49/3/27 51/4/28 52/4/28 50/3/27 
f 51/4/28 53/5/5 54/5/5 52/4/28 
f 53/5/5 55/6/7 56/6/7 54/5/5 
f 55/6/7 57/7/29 58/7/29 56/6/7 
f 57/7/29 59/8/30 60/8/30 58/7/29 
f 59/8/30 61/9/31 62/9/31 60/8/30 
f 61/9/31 63/10/22 64/10/22 62/9/31 
f 63/10/22 65/11/32 66/11/32 64/10/22 
f 65/11/32 67/12/33 68/12/33 66/11/32 
f 67/12/33 69/13/34 70/13/34 68/12/33 
f 69/13/34 71/14/35 72/14/35 70/13/34 
f 71/14/35 73/15/36 74/15/36 72/14/35 
f 73/15/36 75/16/17 76/16/17 74/15/36 
f 75/16/17 77/17/37 78/17/37 76/16/17 
f 77/17/37 79/18/38 80/18/38 78/17/37 
f 79/18/38 45/1/25 48/1/24 80/18/38 
s off
f 2/2/39 1/1/39 81/23/39 82/24/39 
f 1/1/40 35/18/40 83/25/40 81/23/40 
f 35/18/40 33/17/40 84/26/40 83/25/40 
f 33/17/41 31/16/41 85/27/41 84/26/41 
f 31/16/42 29/15/42 86/28/42 85/27/42 
f 29/15/42 27/14/42 87/29/42 86/28/42 
f 27/14/39 25/13/39 88/30/39 87/29/39 
f 25/13/39 23/12/39 89/31/39 88/30/39 
f 23/12/39 21/11/39 90/32/39 89/31/39 
f 21/11/39 19/10/39 91/33/39 90/32/39 
f 19/10/40 17/9/40 92/34/40 91/33/40 
f 17/9/40 15/8/40 93/35/40 92/34/40 
f 15/8/41 13/7/41 94/36/41 93/35/41 
f 13/7/42 11/6/42 95/37/42 94/36/42 
f 11/6/42 9/5/42 96/38/42 95/37/42 
f 9/5/39 7/4/39 97/39/39 96/38/39 
f 7/4/39 5/3/39 98/40/39 97/39/39 
f 5/3/39 2/2/39 82/24/39 98/40/39 
f 48/1/43 47/2/43 99/24/43 100/23/43 
f 47/2/43 50/3/43 101/40/43 99/24/43 
f 50/3/43 52/4/43 102/39/43 101/40/43 
f 52/4/43 54/5/43 103/38/43 102/39/43 
f 54/5/44 56/6/44 104/37/44 103/38/44 
f 56/6/45 58/7/45 105/36/45 104/37/45 
f 58/7/46 60/8/46 106/35/46 105/36/46 
f 60/8/46 62/9/46 107/34/46 106/35/46 
f 62/9/46 64/10/46 108/33/46 107/34/46 
f 64/10/43 66/11/43 109/32/43 108/33/43 
f 66/11/43 68/12/43 110/31/43 109/32/43 
f 68/12/43 70/13/43 111/30/43 110/31/43 
f 70/13/43 72/14/43 112/29/43 111/30/43 
f 72/14/44 74/15/44 113/28/44 112/29/44 
f 74/15/45 76/16/45 114/27/45 113/28/45 
f 76/16/46 78/17/46 115/26/46 114/27/46 
f 78/17/46 80/18/46 116/25/46 115/26/46 
f 80/18/46 48/1/46 100/23/46 116/25/46 
s 1
f 117/41/39 118/42/39 119/43/42 120/44/39 121/45/39 122/46/39 123/47/39 124/48/39 125/49/39 126/50/39 127/51/40 128/52/39 129/53/40 130/54/40 131/55/41 132/56/40 133/57/39 134/58/39 
f 135/58/43 136/57/43 137/56/43 138/55/43 139/54/43 140/53/43 141/52/43 142/51/43 143/50/43 144/49/44 145/48/44 146/47/43 147/46/45 148/45/46 149/44/46 150/43/43 151/42/44 152/41/43 
f 97/39/14 98/40/13 101/40/13 102/39/14 
f 98/40/13 82/24/12 99/24/12 101/40/13 
f 82/24/12 81/23/11 100/23/11 99/24/12 
f 81/23/11 83/25/10 116/25/10 100/23/11 
f 83/25/10 84/26/9 115/26/9 116/25/10 
f 84/26/9 85/27/8 114/27/8 115/26/9 
f 85/27/8 86/28/7 113/28/7 114/27/8 
f 86/28/7 87/29/5 112/29/5 113/28/7 
f 87/29/5 88/30/28 111/30/28 112/29/5 
f 88/30/28 89/31/27 110/31/27 111/30/28 
f 89/31/27 90/32/26 109/32/26 110/31/27 
f 90/32/26 91/33/25 108/33/25 109/32/26 
f 91/33/25 92/34/38 107/34/38 108/33/25 
f 92/34/38 93/35/37 106/35/37 107/34/38 
f 93/35/37 94/36/17 105/36/17 106/35/37 
f 94/36/17 95/37/16 104/37/16 105/36/17 
f 95/37/16 96/38/15 103/38/15 104/37/16 
f 96/38/15 97/39/14 102/39/14 103/38/15 
s 2
f 140/53/21 139/54/21 130/54/21 129/53/21 
s 4
f 141/52/29 140/53/47 129/53/47 128/52/29 
f 142/51/30 141/52/29 128/52/29 127/51/30 
f 143/50/10 142/51/30 127/51/30 126/50/10 
f 144/49/22 143/50/10 126/50/10 125/49/11 
f 145/48/12 144/49/22 125/49/11 124/48/12 
f 146/47/33 145/48/12 124/48/12 123/47/33 
f 147/46/14 146/47/33 123/47/33 122/46/14 
f 148/45/15 147/46/14 122/46/14 121/45/15 
f 149/44/16 148/45/15 121/45/15 120/44/16 
f 150/43/18 149/44/16 120/44/16 119/43/18 
f 151/42/19 150/43/18 119/43/18 118/42/19 
f 152/41/20 151/42/19 118/42/19 117/41/20 
f 135/58/25 152/41/20 117/41/20 134/58/24 
f 136/57/2 135/58/25 134/58/24 133/57/2 
f 137/56/27 136/57/2 133/57/2 132/56/27 
f 138/55/4 137/56/27 132/56/27 131/55/4 
f 139/54/48 138/55/4 131/55/4 130/54/48 
s off
f 6/3/39 8/4/39 37/19/39 
f 16/8/41 18/9/41 38/20/41 
f 24/12/39 26/13/39 41/21/39 
f 34/17/41 36/18/41 43/22/41 
f 77/17/45 75/16/45 44/22/45 
f 67/12/43 65/11/43 42/21/43 
f 59/8/45 57/7/45 39/20/45 
f 49/3/43 46/2/43 40/19/43 
f 10/5/42 12/6/42 38/20/42 37/19/42 
f 32/16/41 34/17/41 43/22/41 
f 30/15/41 32/16/41 43/22/41 
f 37/19/42 8/4/42 10/5/42 
f 28/14/42 30/15/42 43/22/42 41/21/42 
f 14/7/41 16/8/41 38/20/41 
f 12/6/41 14/7/41 38/20/41 
f 41/21/42 26/13/42 28/14/42 
f 22/11/39 24/12/39 41/21/39 
f 20/10/40 22/11/40 41/21/40 
f 18/9/40 20/10/40 41/21/40 38/20/40 
f 3/2/39 6/3/39 37/19/39 
f 4/1/40 3/2/40 37/19/40 
f 36/18/40 4/1/40 37/19/40 43/22/40 
f 51/4/43 49/3/43 40/19/43 
f 53/5/44 51/4/44 40/19/44 
f 55/6/44 53/5/44 40/19/44 39/20/44 
f 39/20/45 57/7/45 55/6/45 
f 61/9/45 59/8/45 39/20/45 
f 63/10/45 61/9/45 39/20/45 
f 65/11/46 63/10/46 39/20/46 42/21/46 
f 69/13/43 67/12/43 42/21/43 
f 71/14/44 69/13/44 42/21/44 
f 73/15/44 71/14/44 42/21/44 44/22/44 
f 44/22/45 75/16/45 73/15/45 
f 79/18/45 77/17/45 44/22/45 
f 45/1/45 79/18/45 44/22/45 
f 46/2/46 45/1/46 44/22/46 40/19/46 
# 122 polygons - 28 triangles

