# 3ds Max Wavefront OBJ Exporter v0.97b - (c)2007 guruware
# File Created: 11.05.2018 23:15:07

mtllib Science_room_door_left(window).mtl

#
# object ????_?_??_
#

v  0.0581 -1.3687 -0.5846
v  0.0581 1.2090 -0.5846
v  0.0581 1.2090 -0.5719
v  0.0581 -1.3687 -0.5719
v  0.0493 -1.3687 -0.5846
v  0.0493 -1.3687 -0.5600
v  -0.0574 -1.3687 -0.5846
v  0.0493 -1.3687 0.6452
v  0.0493 1.2090 0.6452
v  -0.0574 1.2090 0.6452
v  -0.0574 -1.3687 0.6452
v  0.0493 1.2090 -0.5600
v  -0.0574 1.2090 -0.5846
v  0.0493 1.2090 -0.5846
v  0.1901 -0.0441 -0.5172
v  0.1901 -0.0441 -0.3679
v  0.1901 -0.1936 -0.3679
v  0.1901 -0.1936 -0.5172
v  0.0493 -1.3687 -0.6198
v  0.0493 1.2090 -0.6198
v  0.0581 1.2090 -0.6198
v  0.0581 -1.3687 -0.6198
v  -0.1982 -0.1936 -0.5172
v  -0.1982 -0.1936 -0.3679
v  -0.1982 -0.0441 -0.3679
v  -0.1982 -0.0441 -0.5172
v  0.0493 0.1437 0.3920
v  0.0493 0.9952 0.3920
v  0.0493 -0.1705 -0.4941
v  0.0493 -0.1705 -0.3910
v  0.0493 -0.0672 -0.4941
v  -0.0574 0.1437 0.3920
v  -0.0574 -0.0672 -0.3910
v  -0.0574 -0.1705 -0.3910
v  0.0493 -0.0672 -0.3910
v  0.0843 -0.1705 -0.3910
v  0.0843 -0.0672 -0.3910
v  0.0843 -0.1705 -0.4941
v  0.0843 -0.0672 -0.4941
v  -0.0924 -0.0672 -0.3910
v  -0.0924 -0.1705 -0.3910
v  -0.0574 -0.0672 -0.4941
v  -0.0924 -0.0672 -0.4941
v  -0.0574 -0.1705 -0.4941
v  -0.0924 -0.1705 -0.4941
v  0.0845 -0.0441 -0.3679
v  0.0845 -0.1936 -0.3679
v  0.0845 -0.1936 -0.5172
v  0.0845 -0.0441 -0.5172
v  -0.0926 -0.1936 -0.3679
v  -0.0926 -0.0441 -0.3679
v  -0.0926 -0.0441 -0.5172
v  -0.0926 -0.1936 -0.5172
v  -0.0574 0.1437 -0.3663
v  -0.0574 0.9952 -0.3663
v  0.0493 0.1437 -0.3663
v  0.0493 0.9952 -0.3663
v  -0.0574 0.9952 0.3920
v  0.0405 0.1437 0.3920
v  0.0405 0.9952 0.3920
v  0.0405 0.1437 -0.3663
v  0.0405 0.9952 -0.3663
v  -0.0486 0.9952 0.3920
v  -0.0486 0.1437 0.3920
v  -0.0486 0.9952 -0.3663
v  -0.0486 0.1437 -0.3663
v  0.0405 0.1789 0.3568
v  0.0405 0.9600 0.3568
v  0.0405 0.1789 -0.3311
v  0.0405 0.9600 -0.3311
v  -0.0486 0.9600 0.3568
v  -0.0486 0.1789 0.3568
v  -0.0486 0.9600 -0.3311
v  -0.0486 0.1789 -0.3311
v  0.0171 0.9600 0.3564
v  0.0171 0.1789 0.3564
v  0.0171 0.1789 -0.3315
v  0.0171 0.9600 -0.3315
v  -0.0174 0.9600 -0.3315
v  -0.0174 0.1789 -0.3315
v  -0.0174 0.1789 0.3564
v  -0.0174 0.9600 0.3564
# 82 vertices

vn 1.0000 0.0000 0.0000
vn 0.0000 -1.0000 0.0000
vn -0.0000 0.0000 1.0000
vn -0.0000 -0.0000 1.0000
vn -0.0000 1.0000 -0.0000
vn 0.0000 -0.0000 -1.0000
vn 0.0000 0.0000 -1.0000
vn 0.8022 0.0000 0.5970
vn -1.0000 -0.0000 -0.0000
vn 1.0000 0.0000 -0.0000
vn 0.0000 -1.0000 -0.0000
vn 0.0000 0.0000 1.0000
vn -0.0000 1.0000 0.0000
vn -1.0000 0.0000 -0.0000
vn -1.0000 -0.0000 0.0000
vn -1.0000 -0.0000 0.0076
vn -1.0000 -0.0076 -0.0000
vn -1.0000 -0.0000 -0.0076
vn -1.0000 0.0076 -0.0000
vn 1.0000 0.0000 0.0076
vn 1.0000 0.0076 0.0000
vn 1.0000 0.0000 -0.0076
vn 1.0000 -0.0076 0.0000
vn 1.0000 -0.0000 0.0000
vn -0.0000 -0.0000 -1.0000
# 25 vertex normals

vt 0.3909 0.0264 0.0000
vt 0.3909 0.9222 0.0000
vt 0.3953 0.9222 0.0000
vt 0.3953 0.0264 0.0000
vt 0.3921 0.9829 0.0000
vt 0.4004 0.9829 0.0000
vt 0.3921 0.9350 0.0000
vt 0.8845 0.0279 0.0000
vt 0.8845 0.9237 0.0000
vt 0.8351 0.9237 0.0000
vt 0.8351 0.0279 0.0000
vt 0.8075 0.9829 0.0000
vt 0.8075 0.9350 0.0000
vt 0.1715 0.3478 0.0000
vt 0.2310 0.3478 0.0000
vt 0.2310 0.2883 0.0000
vt 0.1715 0.2883 0.0000
vt 0.8886 0.9237 0.0000
vt 0.8886 0.0279 0.0000
vt 0.3964 0.9868 0.0000
vt 0.3921 0.9868 0.0000
vt 0.3993 0.9222 0.0000
vt 0.3993 0.0264 0.0000
vt 0.3790 0.9222 0.0000
vt 0.3790 0.0264 0.0000
vt 0.3802 0.9868 0.0000
vt 0.3802 0.9829 0.0000
vt 0.8068 0.9222 0.0000
vt 0.8068 0.0264 0.0000
vt 0.7212 0.5520 0.0000
vt 0.7212 0.8479 0.0000
vt 0.4215 0.4428 0.0000
vt 0.4564 0.4428 0.0000
vt 0.4215 0.4787 0.0000
vt 0.4564 0.4787 0.0000
vt 0.2269 0.2345 0.0000
vt 0.2269 0.1968 0.0000
vt 0.2415 0.1968 0.0000
vt 0.2415 0.2345 0.0000
vt 0.2267 0.1277 0.0000
vt 0.2267 0.1701 0.0000
vt 0.2414 0.1701 0.0000
vt 0.2414 0.1277 0.0000
vt 0.1826 0.1968 0.0000
vt 0.1826 0.2345 0.0000
vt 0.1680 0.2345 0.0000
vt 0.1680 0.1968 0.0000
vt 0.1820 0.1277 0.0000
vt 0.1820 0.1701 0.0000
vt 0.1673 0.1701 0.0000
vt 0.1673 0.1277 0.0000
vt 0.2415 0.2430 0.0000
vt 0.2415 0.1884 0.0000
vt 0.2854 0.1884 0.0000
vt 0.2854 0.2430 0.0000
vt 0.2415 0.1182 0.0000
vt 0.2415 0.1796 0.0000
vt 0.2857 0.1796 0.0000
vt 0.2857 0.1182 0.0000
vt 0.1680 0.1884 0.0000
vt 0.1680 0.2430 0.0000
vt 0.1241 0.2430 0.0000
vt 0.1241 0.1884 0.0000
vt 0.1672 0.1182 0.0000
vt 0.1672 0.1796 0.0000
vt 0.1230 0.1796 0.0000
vt 0.1230 0.1182 0.0000
vt 0.4648 0.5520 0.0000
vt 0.4648 0.8479 0.0000
vt 0.2218 0.2975 0.0000
vt 0.2218 0.3386 0.0000
vt 0.1807 0.2975 0.0000
vt 0.1807 0.3386 0.0000
vt 0.8845 0.8494 0.0000
vt 0.8845 0.5534 0.0000
vt 0.8804 0.5534 0.0000
vt 0.8804 0.8494 0.0000
vt 0.7219 0.9829 0.0000
vt 0.4658 0.9829 0.0000
vt 0.4658 0.9789 0.0000
vt 0.7219 0.9789 0.0000
vt 0.8351 0.5534 0.0000
vt 0.8351 0.8494 0.0000
vt 0.8392 0.8494 0.0000
vt 0.8392 0.5534 0.0000
vt 0.7219 0.9350 0.0000
vt 0.4658 0.9350 0.0000
vt 0.4658 0.9390 0.0000
vt 0.7219 0.9390 0.0000
vt 0.3581 0.3765 0.0000
vt 0.3581 0.0282 0.0000
vt 0.3442 0.0426 0.0000
vt 0.3442 0.3621 0.0000
vt 0.0576 0.0282 0.0000
vt 0.0715 0.0426 0.0000
vt 0.0576 0.3765 0.0000
vt 0.0715 0.3621 0.0000
vt 0.7101 0.9390 0.0000
vt 0.4777 0.9390 0.0000
vt 0.4777 0.9789 0.0000
vt 0.7101 0.9789 0.0000
vt 0.8392 0.5657 0.0000
vt 0.8392 0.8371 0.0000
vt 0.8804 0.8371 0.0000
vt 0.8804 0.5657 0.0000
vt 0.3277 0.8925 0.0000
vt 0.3277 0.5976 0.0000
vt 0.0589 0.5976 0.0000
vt 0.0589 0.8925 0.0000
# 109 texture coords

g ????_?_??_
usemtl Material__29
s 2
f 1/1/1 2/2/1 3/3/1 4/4/1 
s 8
f 5/5/2 6/6/2 7/7/2 
s 16
f 8/8/3 9/9/4 10/10/3 11/11/3 
s 32
f 9/12/5 12/6/5 13/7/5 10/13/5 
s 64
f 14/9/6 5/8/6 7/11/6 13/10/6 
s 2
f 15/14/1 16/15/1 17/16/1 18/17/1 
s off
f 19/8/7 20/9/7 21/18/7 22/19/7 
f 14/5/5 12/6/5 3/20/5 2/21/5 
f 12/22/8 6/23/8 4/4/8 3/3/8 
f 6/6/2 5/5/2 1/21/2 4/20/2 
f 5/1/9 14/2/9 20/24/9 19/25/9 
f 14/5/5 2/21/5 21/26/5 20/27/5 
f 2/2/1 1/1/1 22/25/1 21/24/1 
f 1/21/2 5/5/2 19/27/2 22/26/2 
s 4
f 23/17/9 24/16/9 25/15/9 26/14/9 
s off
f 9/28/10 8/29/10 27/30/10 28/31/10 
f 8/29/1 6/23/1 29/32/1 30/33/1 
f 6/23/1 12/22/1 31/34/1 29/32/1 
f 11/29/9 32/30/9 33/35/9 34/33/9 
f 35/36/4 30/37/4 36/38/4 37/39/4 
f 30/40/11 29/41/11 38/42/11 36/43/11 
f 29/37/7 31/36/7 39/39/7 38/38/7 
f 31/41/5 35/40/5 37/43/5 39/42/5 
f 34/44/12 33/45/12 40/46/12 41/47/12 
f 33/48/13 42/49/13 43/50/13 40/51/13 
f 42/45/7 44/44/7 45/47/7 43/46/7 
f 44/49/11 34/48/11 41/51/11 45/50/11 
f 46/52/4 47/53/4 17/54/4 16/55/4 
f 47/56/11 48/57/11 18/58/11 17/59/11 
f 48/53/7 49/52/7 15/55/7 18/54/7 
f 49/57/5 46/56/5 16/59/5 15/58/5 
f 50/60/4 51/61/4 25/62/4 24/63/4 
f 51/64/13 52/65/13 26/66/13 25/67/13 
f 52/61/7 53/60/7 23/63/7 26/62/7 
f 53/65/11 50/64/11 24/67/11 23/66/11 
s 32
f 12/6/5 14/5/5 13/7/5 
s 8
f 6/6/2 8/12/2 11/13/2 7/7/2 
s 4
f 7/1/9 11/29/9 34/33/9 44/32/9 
f 13/2/9 42/34/9 54/68/14 55/69/15 
s off
f 36/70/16 47/16/16 46/15/16 37/71/16 
f 38/72/17 48/17/17 47/16/17 36/70/17 
f 39/73/18 49/14/18 48/17/18 38/72/18 
f 37/71/19 46/15/19 49/14/19 39/73/19 
f 40/71/20 51/15/20 50/16/20 41/70/20 
f 43/73/21 52/14/21 51/15/21 40/71/21 
f 45/72/22 53/17/22 52/14/22 43/73/22 
f 41/70/23 50/16/23 53/17/23 45/72/23 
f 27/30/24 35/35/24 31/34/24 56/68/24 
f 57/69/1 12/22/1 9/28/1 28/31/1 
f 8/29/1 30/33/1 35/35/1 27/30/1 
f 12/22/1 57/69/1 56/68/1 31/34/1 
s 4
f 54/68/14 42/34/9 33/35/14 32/30/14 
f 58/31/9 10/28/9 13/2/9 55/69/15 
s off
f 11/29/9 10/28/9 58/31/9 32/30/9 
s 4
f 13/2/9 7/1/9 44/32/9 42/34/9 
s off
f 28/74/7 27/75/7 59/76/7 60/77/7 
f 27/78/5 56/79/5 61/80/5 59/81/5 
f 56/75/3 57/74/3 62/77/3 61/76/3 
f 57/79/2 28/78/2 60/81/2 62/80/2 
f 32/82/7 58/83/7 63/84/7 64/85/7 
f 58/86/2 55/87/2 65/88/2 63/89/2 
f 55/83/3 54/82/3 66/85/3 65/84/3 
f 54/87/5 32/86/5 64/89/5 66/88/5 
f 60/90/24 59/91/24 67/92/24 68/93/24 
f 59/91/24 61/94/24 69/95/24 67/92/24 
f 61/94/1 62/96/1 70/97/1 69/95/1 
f 62/96/24 60/90/24 68/93/24 70/97/24 
f 64/91/14 63/90/14 71/93/14 72/92/14 
f 63/90/14 65/96/14 73/97/14 71/93/14 
f 65/96/14 66/94/14 74/95/14 73/97/14 
f 66/94/14 64/91/14 72/92/14 74/95/14 
s 1
f 71/98/2 73/99/2 70/100/2 68/101/2 
s 2
f 72/102/7 71/103/7 68/104/7 67/105/7 
f 73/103/3 74/102/3 69/105/3 70/104/3 
s 1
f 74/99/5 72/98/5 67/101/5 69/100/5 
s off
f 75/106/1 76/107/1 77/108/1 78/109/1 
s 4
f 79/109/9 80/108/9 81/107/9 82/106/9 
s 1
f 79/109/5 82/106/5 75/106/5 78/109/5 
f 81/107/2 80/108/2 77/108/2 76/107/2 
s 2
f 82/106/12 81/107/12 76/107/12 75/106/12 
f 80/108/25 79/109/25 78/109/25 77/108/25 
# 79 polygons - 2 triangles

