# 3ds Max Wavefront OBJ Exporter v0.97b - (c)2007 guruware
# File Created: 14.05.2018 03:31:59

mtllib Science_room_chair.mtl

#
# object Cylinder002
#

v  0.2346 0.1802 -0.0000
v  0.2167 0.1802 -0.0898
v  0.2167 0.3252 -0.0898
v  0.2346 0.3252 -0.0000
v  0.1659 0.1802 -0.1659
v  0.1659 0.3252 -0.1659
v  0.0898 0.1802 -0.2167
v  0.0898 0.3252 -0.2167
v  -0.0000 0.1802 -0.2346
v  -0.0000 0.3252 -0.2346
v  -0.0898 0.1802 -0.2167
v  -0.0898 0.3252 -0.2167
v  -0.1659 0.1802 -0.1659
v  -0.1659 0.3252 -0.1659
v  -0.2167 0.1802 -0.0898
v  -0.2167 0.3252 -0.0898
v  -0.2346 0.1802 -0.0000
v  -0.2346 0.3252 -0.0000
v  -0.2167 0.1802 0.0898
v  -0.2167 0.3252 0.0898
v  -0.1659 0.1802 0.1659
v  -0.1659 0.3252 0.1659
v  -0.0898 0.1802 0.2167
v  -0.0898 0.3252 0.2167
v  0.0000 0.1802 0.2346
v  0.0000 0.3252 0.2346
v  0.0898 0.1802 0.2167
v  0.0898 0.3252 0.2167
v  0.1659 0.1802 0.1659
v  0.1659 0.3252 0.1659
v  0.2167 0.1802 0.0898
v  0.2167 0.3252 0.0898
v  0.0440 -0.2332 0.0182
v  0.0337 -0.2332 0.0337
v  0.0182 -0.2332 0.0440
v  -0.0000 -0.2332 0.0477
v  -0.0182 -0.2332 0.0440
v  -0.0337 -0.2332 0.0337
v  -0.0440 -0.2332 0.0182
v  -0.0477 -0.2332 -0.0000
v  -0.0440 -0.2332 -0.0182
v  -0.0337 -0.2332 -0.0337
v  -0.0182 -0.2332 -0.0440
v  -0.0000 -0.2332 -0.0477
v  0.0182 -0.2332 -0.0440
v  0.0337 -0.2332 -0.0337
v  0.0440 -0.2332 -0.0182
v  0.0477 -0.2332 0.0000
v  0.0477 0.1802 0.0000
v  0.0440 0.1802 -0.0182
v  0.0440 0.1802 0.0182
v  0.0337 0.1802 0.0337
v  0.0182 0.1802 0.0440
v  -0.0000 0.1802 0.0477
v  -0.0182 0.1802 0.0440
v  -0.0337 0.1802 0.0337
v  -0.0440 0.1802 0.0182
v  -0.0477 0.1802 -0.0000
v  -0.0440 0.1802 -0.0182
v  -0.0337 0.1802 -0.0337
v  -0.0182 0.1802 -0.0440
v  -0.0000 0.1802 -0.0477
v  0.0182 0.1802 -0.0440
v  0.0337 0.1802 -0.0337
v  0.0477 -0.0221 0.0000
v  0.0440 -0.0221 -0.0182
v  0.0440 -0.0221 0.0182
v  0.0337 -0.0221 0.0337
v  0.0182 -0.0221 0.0440
v  -0.0000 -0.0221 0.0477
v  -0.0182 -0.0221 0.0440
v  -0.0337 -0.0221 0.0337
v  -0.0440 -0.0221 0.0182
v  -0.0477 -0.0221 -0.0000
v  -0.0440 -0.0221 -0.0182
v  -0.0337 -0.0221 -0.0337
v  -0.0182 -0.0221 -0.0440
v  -0.0000 -0.0221 -0.0477
v  0.0182 -0.0221 -0.0440
v  0.0337 -0.0221 -0.0337
v  0.0500 -0.0221 -0.0207
v  0.0541 -0.0221 -0.0000
v  0.0541 -0.1868 -0.0000
v  0.0500 -0.1868 -0.0207
v  0.0500 -0.0221 0.0207
v  0.0500 -0.1868 0.0207
v  0.0383 -0.0221 0.0383
v  0.0383 -0.1868 0.0383
v  0.0207 -0.0221 0.0500
v  0.0207 -0.1868 0.0500
v  -0.0000 -0.0221 0.0541
v  -0.0000 -0.1868 0.0541
v  -0.0207 -0.0221 0.0500
v  -0.0207 -0.1868 0.0500
v  -0.0383 -0.0221 0.0383
v  -0.0383 -0.1868 0.0383
v  -0.0500 -0.0221 0.0207
v  -0.0500 -0.1868 0.0207
v  -0.0541 -0.0221 -0.0000
v  -0.0541 -0.1868 -0.0000
v  -0.0500 -0.0221 -0.0207
v  -0.0500 -0.1868 -0.0207
v  -0.0383 -0.0221 -0.0383
v  -0.0383 -0.1868 -0.0383
v  -0.0207 -0.0221 -0.0500
v  -0.0207 -0.1868 -0.0500
v  0.0000 -0.0221 -0.0541
v  0.0000 -0.1868 -0.0541
v  0.0207 -0.0221 -0.0500
v  0.0207 -0.1868 -0.0500
v  0.0383 -0.0221 -0.0383
v  0.0383 -0.1868 -0.0383
v  0.0500 -0.2332 -0.0207
v  0.0541 -0.2332 -0.0000
v  0.0383 -0.2332 -0.0383
v  0.0207 -0.2332 -0.0500
v  0.0000 -0.2332 -0.0541
v  -0.0207 -0.2332 -0.0500
v  -0.0383 -0.2332 -0.0383
v  -0.0500 -0.2332 -0.0207
v  -0.0541 -0.2332 -0.0000
v  -0.0500 -0.2332 0.0207
v  -0.0383 -0.2332 0.0383
v  -0.0207 -0.2332 0.0500
v  -0.0000 -0.2332 0.0541
v  0.0207 -0.2332 0.0500
v  0.0383 -0.2332 0.0383
v  0.0500 -0.2332 0.0207
v  0.2126 -0.1868 -0.0298
v  0.2126 -0.2332 -0.0298
v  0.2078 -0.2332 -0.0538
v  0.2078 -0.1868 -0.0538
v  0.2019 -0.1868 0.0836
v  0.2019 -0.2332 0.0836
v  0.1545 -0.1868 0.1545
v  0.1545 -0.2332 0.1545
v  0.0521 -0.1868 0.2082
v  0.0521 -0.2332 0.2082
v  0.0315 -0.1868 0.2123
v  0.0315 -0.2332 0.2123
v  -0.0836 -0.1868 0.2019
v  -0.0836 -0.2332 0.2019
v  -0.1545 -0.1868 0.1545
v  -0.1545 -0.2332 0.1545
v  -0.2078 -0.1868 0.0538
v  -0.2078 -0.2332 0.0538
v  -0.2126 -0.1868 0.0298
v  -0.2126 -0.2332 0.0298
v  -0.2019 -0.1868 -0.0836
v  -0.2019 -0.2332 -0.0836
v  -0.1545 -0.1868 -0.1545
v  -0.1545 -0.2332 -0.1545
v  -0.0521 -0.1868 -0.2082
v  -0.0521 -0.2332 -0.2082
v  -0.0315 -0.1868 -0.2123
v  -0.0315 -0.2332 -0.2123
v  0.0836 -0.1868 -0.2019
v  0.0836 -0.2332 -0.2019
v  0.1545 -0.1868 -0.1545
v  0.1545 -0.2332 -0.1545
v  0.1763 -0.2332 -0.0472
v  0.1809 -0.2332 -0.0239
v  -0.0458 -0.2332 -0.1765
v  -0.0252 -0.2332 -0.1806
v  -0.1763 -0.2332 0.0472
v  -0.1809 -0.2332 0.0239
v  0.0458 -0.2332 0.1765
v  0.0252 -0.2332 0.1806
v  0.1809 -0.1868 -0.0239
v  0.1763 -0.1868 -0.0472
v  0.0252 -0.1868 0.1806
v  0.0458 -0.1868 0.1765
v  -0.1809 -0.1868 0.0239
v  -0.1763 -0.1868 0.0472
v  -0.0252 -0.1868 -0.1806
v  -0.0458 -0.1868 -0.1765
v  0.1763 -0.3154 -0.0472
v  0.2078 -0.3154 -0.0538
v  0.2126 -0.3154 -0.0298
v  0.1809 -0.3154 -0.0239
v  0.1313 -0.2332 -0.1313
v  0.0710 -0.2332 -0.1715
v  -0.0458 -0.3154 -0.1765
v  -0.0521 -0.3154 -0.2082
v  -0.0315 -0.3154 -0.2123
v  -0.0252 -0.3154 -0.1806
v  -0.1313 -0.2332 -0.1313
v  -0.1715 -0.2332 -0.0710
v  -0.1763 -0.3154 0.0472
v  -0.2078 -0.3154 0.0538
v  -0.2126 -0.3154 0.0298
v  -0.1809 -0.3154 0.0239
v  -0.1313 -0.2332 0.1313
v  -0.0710 -0.2332 0.1715
v  0.0458 -0.3154 0.1765
v  0.0521 -0.3154 0.2082
v  0.0315 -0.3154 0.2123
v  0.0252 -0.3154 0.1806
v  0.1313 -0.2332 0.1313
v  0.1715 -0.2332 0.0710
v  0.1715 -0.1868 0.0710
v  0.1313 -0.1868 0.1313
v  -0.0710 -0.1868 0.1715
v  -0.1313 -0.1868 0.1313
v  -0.1715 -0.1868 -0.0710
v  -0.1313 -0.1868 -0.1313
v  0.0710 -0.1868 -0.1715
v  0.1313 -0.1868 -0.1313
v  0.2126 -0.2600 -0.0298
v  0.2078 -0.2600 -0.0538
v  0.1809 -0.2600 -0.0239
v  0.1763 -0.2600 -0.0472
v  -0.0315 -0.2600 -0.2123
v  -0.0521 -0.2600 -0.2082
v  -0.0252 -0.2600 -0.1806
v  -0.0458 -0.2600 -0.1765
v  -0.2126 -0.2600 0.0298
v  -0.2078 -0.2600 0.0538
v  -0.1809 -0.2600 0.0239
v  -0.1763 -0.2600 0.0472
v  0.0315 -0.2600 0.2123
v  0.0521 -0.2600 0.2082
v  0.0252 -0.2600 0.1806
v  0.0458 -0.2600 0.1765
v  0.2170 -0.2600 -0.0677
v  0.2264 -0.2600 -0.0205
v  0.2264 -0.3154 -0.0205
v  0.2170 -0.3154 -0.0677
v  0.1840 -0.2600 -0.0075
v  0.1840 -0.3154 -0.0075
v  0.1728 -0.2600 -0.0635
v  0.1728 -0.3154 -0.0635
v  -0.0660 -0.2600 -0.2174
v  -0.0223 -0.2600 -0.2261
v  -0.0223 -0.3154 -0.2261
v  -0.0660 -0.3154 -0.2174
v  -0.0089 -0.2600 -0.1839
v  -0.0089 -0.3154 -0.1839
v  -0.0622 -0.2600 -0.1733
v  -0.0622 -0.3154 -0.1733
v  -0.2170 -0.2600 0.0677
v  -0.2264 -0.2600 0.0205
v  -0.2264 -0.3154 0.0205
v  -0.2170 -0.3154 0.0677
v  -0.1840 -0.2600 0.0075
v  -0.1840 -0.3154 0.0075
v  -0.1728 -0.2600 0.0635
v  -0.1728 -0.3154 0.0635
v  0.0660 -0.2600 0.2174
v  0.0223 -0.2600 0.2261
v  0.0223 -0.3154 0.2261
v  0.0660 -0.3154 0.2174
v  0.0089 -0.2600 0.1839
v  0.0089 -0.3154 0.1839
v  0.0622 -0.2600 0.1733
v  0.0622 -0.3154 0.1733
# 256 vertices

vn 1.0000 0.0000 -0.0000
vn 0.9239 0.0000 -0.3827
vn 0.7071 0.0000 -0.7071
vn 0.3827 0.0000 -0.9239
vn 0.0000 0.0000 -1.0000
vn -0.3827 0.0000 -0.9239
vn -0.7071 0.0000 -0.7071
vn -0.9239 0.0000 -0.3827
vn -1.0000 0.0000 -0.0000
vn -0.9239 0.0000 0.3827
vn -0.7071 0.0000 0.7071
vn -0.3827 0.0000 0.9239
vn 0.0000 0.0000 1.0000
vn 0.3827 0.0000 0.9239
vn 0.7071 0.0000 0.7071
vn 0.9239 0.0000 0.3827
vn 0.0000 -1.0000 -0.0000
vn 0.0000 1.0000 -0.0000
vn -0.0000 0.0000 1.0000
vn -0.0000 -0.0000 -1.0000
vn -0.0000 0.0000 -1.0000
vn 0.9987 0.0000 -0.0511
vn 0.9422 0.0000 -0.3349
vn 0.9422 0.0000 0.3349
vn 0.6684 0.0000 0.7438
vn 0.3329 0.0000 0.9430
vn 0.0533 0.0000 0.9986
vn -0.3329 0.0000 0.9430
vn -0.7423 0.0000 0.6700
vn -0.9422 0.0000 0.3349
vn -0.9987 0.0000 0.0511
vn -0.9422 0.0000 -0.3349
vn -0.6684 0.0000 -0.7438
vn -0.3329 0.0000 -0.9430
vn -0.0533 0.0000 -0.9986
vn 0.3329 0.0000 -0.9430
vn 0.7423 0.0000 -0.6700
vn -0.0000 -1.0000 0.0000
vn 0.0000 -1.0000 0.0000
vn -0.0000 -1.0000 -0.0000
vn 0.9808 0.0000 0.1951
vn 0.1850 0.0000 0.9827
vn -0.9415 0.0000 -0.3371
vn -0.9951 0.0000 -0.0984
vn -0.6702 0.0000 -0.7422
vn -0.4681 0.0000 -0.8837
vn 0.9809 0.0000 -0.1946
vn 0.5556 0.0000 0.8315
vn 0.8315 0.0000 0.5556
vn -0.1951 0.0000 0.9808
vn -0.9807 0.0000 0.1956
vn 0.3351 0.0000 -0.9422
vn 0.0943 0.0000 -0.9955
vn 0.7408 0.0000 -0.6717
vn 0.8817 0.0000 -0.4717
vn 0.2052 0.0000 0.9787
vn -0.8315 0.0000 0.5556
vn -0.5556 0.0000 0.8315
vn -0.9808 0.0000 -0.1951
vn -0.1850 0.0000 -0.9827
vn 0.9415 0.0000 0.3371
vn 0.9951 0.0000 0.0984
vn 0.6702 0.0000 0.7422
vn 0.4681 0.0000 0.8837
vn -0.9809 0.0000 0.1946
vn -0.5556 0.0000 -0.8315
vn -0.8315 0.0000 -0.5556
vn 0.1951 0.0000 -0.9808
vn 0.9807 0.0000 -0.1956
vn -0.3351 0.0000 0.9422
vn -0.0942 0.0000 0.9955
vn -0.7408 0.0000 0.6717
vn -0.8817 0.0000 0.4717
vn -0.2052 0.0000 -0.9787
vn 0.8315 0.0000 -0.5556
vn 0.5556 0.0000 -0.8315
vn 0.9808 0.0000 -0.1951
vn -0.9808 0.0000 0.1951
vn -0.1951 0.0000 -0.9808
vn 0.1951 0.0000 0.9808
vn 0.9808 -0.0000 -0.1951
vn 0.2933 0.0000 0.9560
vn -0.9808 -0.0000 0.1951
vn -0.0949 0.0000 -0.9955
vn 0.9532 0.0000 -0.3024
vn -0.9963 0.0000 0.0854
vn -0.2933 0.0000 -0.9560
vn 0.0949 0.0000 0.9955
vn -0.9532 0.0000 0.3024
vn 0.9963 0.0000 -0.0854
vn -0.9827 -0.0000 0.1850
vn -0.9787 0.0000 0.2052
vn 0.1956 0.0000 0.9807
vn 0.1946 0.0000 0.9809
vn 0.9827 0.0000 -0.1850
vn 0.9787 0.0000 -0.2052
vn -0.1956 0.0000 -0.9807
vn -0.1946 0.0000 -0.9809
# 98 vertex normals

vt 0.5207 0.7529 0.0000
vt 0.3968 0.7529 0.0000
vt 0.3968 0.9622 0.0000
vt 0.5207 0.9622 0.0000
vt 0.2917 0.7529 0.0000
vt 0.2917 0.9622 0.0000
vt 0.2216 0.7529 0.0000
vt 0.2216 0.9622 0.0000
vt 0.1969 0.7529 0.0000
vt 0.1969 0.9622 0.0000
vt 0.6446 0.7529 0.0000
vt 0.6446 0.9622 0.0000
vt 0.7496 0.7529 0.0000
vt 0.7496 0.9622 0.0000
vt 0.8198 0.7529 0.0000
vt 0.8198 0.9622 0.0000
vt 0.8444 0.7529 0.0000
vt 0.8444 0.9622 0.0000
vt 0.5458 0.1564 0.0000
vt 0.5672 0.1564 0.0000
vt 0.5814 0.1564 0.0000
vt 0.5865 0.1564 0.0000
vt 0.5207 0.1564 0.0000
vt 0.4955 0.1564 0.0000
vt 0.4742 0.1564 0.0000
vt 0.4599 0.1564 0.0000
vt 0.4549 0.1564 0.0000
vt 0.4955 0.7529 0.0000
vt 0.5458 0.7529 0.0000
vt 0.5672 0.7529 0.0000
vt 0.5814 0.7529 0.0000
vt 0.5865 0.7529 0.0000
vt 0.4742 0.7529 0.0000
vt 0.4599 0.7529 0.0000
vt 0.4549 0.7529 0.0000
vt 0.5207 0.4611 0.0000
vt 0.4955 0.4611 0.0000
vt 0.5458 0.4611 0.0000
vt 0.5672 0.4611 0.0000
vt 0.5814 0.4611 0.0000
vt 0.5865 0.4611 0.0000
vt 0.4742 0.4611 0.0000
vt 0.4599 0.4611 0.0000
vt 0.4549 0.4611 0.0000
vt 0.4921 0.4611 0.0000
vt 0.5207 0.2234 0.0000
vt 0.4921 0.2234 0.0000
vt 0.5493 0.4611 0.0000
vt 0.5493 0.2234 0.0000
vt 0.5735 0.4611 0.0000
vt 0.5735 0.2234 0.0000
vt 0.5897 0.4611 0.0000
vt 0.5897 0.2234 0.0000
vt 0.5954 0.4611 0.0000
vt 0.5954 0.2234 0.0000
vt 0.4678 0.4611 0.0000
vt 0.4678 0.2234 0.0000
vt 0.4517 0.4611 0.0000
vt 0.4517 0.2234 0.0000
vt 0.4460 0.4611 0.0000
vt 0.4460 0.2234 0.0000
vt 0.4921 0.1564 0.0000
vt 0.4678 0.1564 0.0000
vt 0.4517 0.1564 0.0000
vt 0.4460 0.1564 0.0000
vt 0.5493 0.1564 0.0000
vt 0.5735 0.1564 0.0000
vt 0.5897 0.1564 0.0000
vt 0.5954 0.1564 0.0000
vt 0.4795 0.2234 0.0000
vt 0.4795 0.1564 0.0000
vt 0.4464 0.1564 0.0000
vt 0.4464 0.2234 0.0000
vt 0.6361 0.2234 0.0000
vt 0.6361 0.1564 0.0000
vt 0.7339 0.2234 0.0000
vt 0.7339 0.1564 0.0000
vt 0.8080 0.2234 0.0000
vt 0.8080 0.1564 0.0000
vt 0.8136 0.2234 0.0000
vt 0.8136 0.1564 0.0000
vt 0.7993 0.2234 0.0000
vt 0.7993 0.1564 0.0000
vt 0.5949 0.2234 0.0000
vt 0.5949 0.1564 0.0000
vt 0.5618 0.2234 0.0000
vt 0.5618 0.1564 0.0000
vt 0.4052 0.2234 0.0000
vt 0.4052 0.1564 0.0000
vt 0.3074 0.2234 0.0000
vt 0.3074 0.1564 0.0000
vt 0.2334 0.2234 0.0000
vt 0.2334 0.1564 0.0000
vt 0.2277 0.2234 0.0000
vt 0.2277 0.1564 0.0000
vt 0.2420 0.2234 0.0000
vt 0.2420 0.1564 0.0000
vt 0.4556 0.1564 0.0000
vt 0.4877 0.1564 0.0000
vt 0.2770 0.1564 0.0000
vt 0.2714 0.1564 0.0000
vt 0.5858 0.1564 0.0000
vt 0.5536 0.1564 0.0000
vt 0.7643 0.1564 0.0000
vt 0.7700 0.1564 0.0000
vt 0.4877 0.2234 0.0000
vt 0.4556 0.2234 0.0000
vt 0.7700 0.2234 0.0000
vt 0.7643 0.2234 0.0000
vt 0.5536 0.2234 0.0000
vt 0.5858 0.2234 0.0000
vt 0.2714 0.2234 0.0000
vt 0.2770 0.2234 0.0000
vt 0.4556 0.0378 0.0000
vt 0.4464 0.0378 0.0000
vt 0.4795 0.0378 0.0000
vt 0.4877 0.0378 0.0000
vt 0.3395 0.1564 0.0000
vt 0.2839 0.1564 0.0000
vt 0.2770 0.0378 0.0000
vt 0.2334 0.0378 0.0000
vt 0.2277 0.0378 0.0000
vt 0.2714 0.0378 0.0000
vt 0.4226 0.1564 0.0000
vt 0.5858 0.0378 0.0000
vt 0.5949 0.0378 0.0000
vt 0.5618 0.0378 0.0000
vt 0.5536 0.0378 0.0000
vt 0.7019 0.1564 0.0000
vt 0.7574 0.1564 0.0000
vt 0.7643 0.0378 0.0000
vt 0.8080 0.0378 0.0000
vt 0.8136 0.0378 0.0000
vt 0.7700 0.0378 0.0000
vt 0.6187 0.1564 0.0000
vt 0.6187 0.2234 0.0000
vt 0.7019 0.2234 0.0000
vt 0.7574 0.2234 0.0000
vt 0.4226 0.2234 0.0000
vt 0.3395 0.2234 0.0000
vt 0.2839 0.2234 0.0000
vt 0.4795 0.1178 0.0000
vt 0.4464 0.1178 0.0000
vt 0.4877 0.1178 0.0000
vt 0.4556 0.1178 0.0000
vt 0.2277 0.1178 0.0000
vt 0.2334 0.1178 0.0000
vt 0.2714 0.1178 0.0000
vt 0.2770 0.1178 0.0000
vt 0.5618 0.1178 0.0000
vt 0.5949 0.1178 0.0000
vt 0.5536 0.1178 0.0000
vt 0.5858 0.1178 0.0000
vt 0.8136 0.1178 0.0000
vt 0.8080 0.1178 0.0000
vt 0.7700 0.1178 0.0000
vt 0.7643 0.1178 0.0000
vt 0.4272 0.1178 0.0000
vt 0.4924 0.1178 0.0000
vt 0.4924 0.0378 0.0000
vt 0.4272 0.0378 0.0000
vt 0.5103 0.1178 0.0000
vt 0.5103 0.0378 0.0000
vt 0.4330 0.1178 0.0000
vt 0.4330 0.0378 0.0000
vt 0.2206 0.1178 0.0000
vt 0.2086 0.1178 0.0000
vt 0.2086 0.0378 0.0000
vt 0.2206 0.0378 0.0000
vt 0.2669 0.1178 0.0000
vt 0.2669 0.0378 0.0000
vt 0.2815 0.1178 0.0000
vt 0.2815 0.0378 0.0000
vt 0.6141 0.1178 0.0000
vt 0.5490 0.1178 0.0000
vt 0.5490 0.0378 0.0000
vt 0.6141 0.0378 0.0000
vt 0.5310 0.1178 0.0000
vt 0.5310 0.0378 0.0000
vt 0.6083 0.1178 0.0000
vt 0.6083 0.0378 0.0000
vt 0.8208 0.1178 0.0000
vt 0.8328 0.1178 0.0000
vt 0.8328 0.0378 0.0000
vt 0.8208 0.0378 0.0000
vt 0.7745 0.1178 0.0000
vt 0.7745 0.0378 0.0000
vt 0.7598 0.1178 0.0000
vt 0.7598 0.0378 0.0000
# 189 texture coords

g Cylinder002
usemtl wire_006135058
s 8
f 1/1/1 2/2/2 3/3/2 4/4/1 
f 2/2/2 5/5/3 6/6/3 3/3/2 
f 5/5/3 7/7/4 8/8/4 6/6/3 
f 7/7/4 9/9/5 10/10/5 8/8/4 
f 9/9/5 11/7/6 12/8/6 10/10/5 
f 11/7/6 13/5/7 14/6/7 12/8/6 
f 13/5/7 15/2/8 16/3/8 14/6/7 
f 15/2/8 17/1/9 18/4/9 16/3/8 
f 17/1/9 19/11/10 20/12/10 18/4/9 
f 19/11/10 21/13/11 22/14/11 20/12/10 
f 21/13/11 23/15/12 24/16/12 22/14/11 
f 23/15/12 25/17/13 26/18/13 24/16/12 
f 25/17/13 27/15/14 28/16/14 26/18/13 
f 27/15/14 29/13/15 30/14/15 28/16/14 
f 29/13/15 31/11/16 32/12/16 30/14/15 
f 31/11/16 1/1/1 4/4/1 32/12/16 
s 1
f 33/19/17 34/20/17 35/21/17 36/22/17 37/21/17 38/20/17 39/19/17 40/23/17 41/24/17 42/25/17 43/26/17 44/27/17 45/26/17 46/25/17 47/24/17 48/23/17 
f 4/4/18 3/3/18 6/6/18 8/8/18 10/10/18 12/8/18 14/6/18 16/3/18 18/4/18 20/12/18 22/14/18 24/16/18 26/18/18 28/16/18 30/14/18 32/12/18 
s off
f 2/2/17 1/1/17 49/1/17 50/28/17 
f 1/1/17 31/11/17 51/29/17 49/1/17 
f 31/11/17 29/13/17 52/30/17 51/29/17 
f 29/13/17 27/15/17 53/31/17 52/30/17 
f 27/15/17 25/17/17 54/32/17 53/31/17 
f 25/17/17 23/15/17 55/31/17 54/32/17 
f 23/15/17 21/13/17 56/30/17 55/31/17 
f 21/13/17 19/11/17 57/29/17 56/30/17 
f 19/11/17 17/1/17 58/1/17 57/29/17 
f 17/1/17 15/2/17 59/28/17 58/1/17 
f 15/2/17 13/5/17 60/33/17 59/28/17 
f 13/5/17 11/7/17 61/34/17 60/33/17 
f 11/7/17 9/9/17 62/35/17 61/34/17 
f 9/9/17 7/7/17 63/34/17 62/35/17 
f 7/7/17 5/5/17 64/33/17 63/34/17 
f 5/5/17 2/2/17 50/28/17 64/33/17 
s 8
f 50/28/2 49/1/1 65/36/1 66/37/2 
f 49/1/1 51/29/16 67/38/16 65/36/1 
f 51/29/16 52/30/15 68/39/15 67/38/16 
f 52/30/15 53/31/14 69/40/14 68/39/15 
f 53/31/14 54/32/19 70/41/19 69/40/14 
f 54/32/19 55/31/12 71/40/12 70/41/19 
f 55/31/12 56/30/11 72/39/11 71/40/12 
f 56/30/11 57/29/10 73/38/10 72/39/11 
f 57/29/10 58/1/9 74/36/9 73/38/10 
f 58/1/9 59/28/8 75/37/8 74/36/9 
f 59/28/8 60/33/7 76/42/7 75/37/8 
f 60/33/7 61/34/6 77/43/6 76/42/7 
f 61/34/6 62/35/20 78/44/21 77/43/6 
f 62/35/20 63/34/4 79/43/4 78/44/21 
f 63/34/4 64/33/3 80/42/3 79/43/4 
f 64/33/3 50/28/2 66/37/2 80/42/3 
f 81/45/2 82/36/1 83/46/1 84/47/2 
f 82/36/1 85/48/16 86/49/16 83/46/1 
f 85/48/16 87/50/15 88/51/15 86/49/16 
f 87/50/15 89/52/14 90/53/14 88/51/15 
f 89/52/14 91/54/19 92/55/19 90/53/14 
f 91/54/19 93/52/12 94/53/12 92/55/19 
f 93/52/12 95/50/11 96/51/11 94/53/12 
f 95/50/11 97/48/10 98/49/10 96/51/11 
f 97/48/10 99/36/9 100/46/9 98/49/10 
f 99/36/9 101/45/8 102/47/8 100/46/9 
f 101/45/8 103/56/7 104/57/7 102/47/8 
f 103/56/7 105/58/6 106/59/6 104/57/7 
f 105/58/6 107/60/5 108/61/5 106/59/6 
f 107/60/5 109/58/4 110/59/4 108/61/5 
f 109/58/4 111/56/3 112/57/3 110/59/4 
f 111/56/3 81/45/2 84/47/2 112/57/3 
s off
f 66/37/18 65/36/18 82/36/18 81/45/18 
f 65/36/18 67/38/18 85/48/18 82/36/18 
f 67/38/18 68/39/18 87/50/18 85/48/18 
f 68/39/18 69/40/18 89/52/18 87/50/18 
f 69/40/18 70/41/18 91/54/18 89/52/18 
f 70/41/18 71/40/18 93/52/18 91/54/18 
f 71/40/18 72/39/18 95/50/18 93/52/18 
f 72/39/18 73/38/18 97/48/18 95/50/18 
f 73/38/18 74/36/18 99/36/18 97/48/18 
f 74/36/18 75/37/18 101/45/18 99/36/18 
f 75/37/18 76/42/18 103/56/18 101/45/18 
f 76/42/18 77/43/18 105/58/18 103/56/18 
f 77/43/18 78/44/18 107/60/18 105/58/18 
f 78/44/18 79/43/18 109/58/18 107/60/18 
f 79/43/18 80/42/18 111/56/18 109/58/18 
f 80/42/18 66/37/18 81/45/18 111/56/18 
f 48/23/17 47/24/17 113/62/17 114/23/17 
f 47/24/17 46/25/17 115/63/17 113/62/17 
f 46/25/17 45/26/17 116/64/17 115/63/17 
f 45/26/17 44/27/17 117/65/17 116/64/17 
f 44/27/17 43/26/17 118/64/17 117/65/17 
f 43/26/17 42/25/17 119/63/17 118/64/17 
f 42/25/17 41/24/17 120/62/17 119/63/17 
f 41/24/17 40/23/17 121/23/17 120/62/17 
f 40/23/17 39/19/17 122/66/17 121/23/17 
f 39/19/17 38/20/17 123/67/17 122/66/17 
f 38/20/17 37/21/17 124/68/17 123/67/17 
f 37/21/17 36/22/17 125/69/17 124/68/17 
f 36/22/17 35/21/17 126/68/17 125/69/17 
f 35/21/17 34/20/17 127/67/17 126/68/17 
f 34/20/17 33/19/17 128/66/17 127/67/17 
f 33/19/17 48/23/17 114/23/17 128/66/17 
s 8
f 129/70/22 130/71/22 131/72/23 132/73/23 
f 133/74/24 134/75/24 130/71/22 129/70/22 
f 135/76/25 136/77/25 134/75/24 133/74/24 
f 137/78/26 138/79/26 136/77/25 135/76/25 
f 139/80/27 140/81/27 138/79/26 137/78/26 
f 141/82/28 142/83/28 140/81/27 139/80/27 
f 143/76/29 144/77/29 142/83/28 141/82/28 
f 145/84/30 146/85/30 144/77/29 143/76/29 
f 147/86/31 148/87/31 146/85/30 145/84/30 
f 149/88/32 150/89/32 148/87/31 147/86/31 
f 151/90/33 152/91/33 150/89/32 149/88/32 
f 153/92/34 154/93/34 152/91/33 151/90/33 
f 155/94/35 156/95/35 154/93/34 153/92/34 
f 157/96/36 158/97/36 156/95/35 155/94/35 
f 159/90/37 160/91/37 158/97/36 157/96/36 
f 132/73/23 131/72/23 160/91/37 159/90/37 
s off
f 114/23/38 113/62/38 161/98/38 162/99/38 
f 117/65/39 118/64/39 163/100/39 164/101/39 
f 121/23/17 122/66/17 165/102/17 166/103/17 
f 125/69/40 126/68/40 167/104/40 168/105/40 
f 84/47/18 83/46/18 169/106/18 170/107/18 
f 90/53/18 92/55/18 171/108/18 172/109/18 
f 98/49/18 100/46/18 173/110/18 174/111/18 
f 106/59/18 108/61/18 175/112/18 176/113/18 
f 177/114/17 178/115/17 179/116/17 180/117/17 
f 181/118/40 160/91/40 131/72/40 161/98/40 
f 182/119/17 158/97/17 160/91/17 181/118/17 
f 164/101/39 156/95/39 158/97/39 182/119/39 
f 183/120/17 184/121/17 185/122/17 186/123/17 
f 187/118/38 152/91/38 154/93/38 163/100/38 
f 188/124/17 150/89/17 152/91/17 187/118/17 
f 166/103/17 148/87/17 150/89/17 188/124/17 
f 189/125/17 190/126/17 191/127/17 192/128/17 
f 193/129/39 144/77/39 146/85/39 165/102/39 
f 194/130/17 142/83/17 144/77/17 193/129/17 
f 168/105/40 140/81/40 142/83/40 194/130/40 
f 195/131/17 196/132/17 197/133/17 198/134/17 
f 199/129/17 136/77/17 138/79/17 167/104/17 
f 200/135/17 134/75/17 136/77/17 199/129/17 
f 162/99/38 130/71/38 134/75/38 200/135/38 
f 169/106/18 129/70/18 132/73/18 170/107/18 
f 201/136/18 133/74/18 129/70/18 169/106/18 
f 202/137/18 135/76/18 133/74/18 201/136/18 
f 172/109/18 137/78/18 135/76/18 202/137/18 
f 171/108/18 139/80/18 137/78/18 172/109/18 
f 203/138/18 141/82/18 139/80/18 171/108/18 
f 204/137/18 143/76/18 141/82/18 203/138/18 
f 174/111/18 145/84/18 143/76/18 204/137/18 
f 173/110/18 147/86/18 145/84/18 174/111/18 
f 205/139/18 149/88/18 147/86/18 173/110/18 
f 206/140/18 151/90/18 149/88/18 205/139/18 
f 176/113/18 153/92/18 151/90/18 206/140/18 
f 175/112/18 155/94/18 153/92/18 176/113/18 
f 207/141/18 157/96/18 155/94/18 175/112/18 
f 208/140/18 159/90/18 157/96/18 207/141/18 
f 170/107/18 132/73/18 159/90/18 208/140/18 
s 1
f 83/46/41 86/49/41 128/66/41 114/23/41 
s 2
f 169/106/42 83/46/42 114/23/42 162/99/42 
s 1
f 201/136/43 169/106/44 162/99/44 200/135/43 
f 202/137/45 201/136/43 200/135/43 199/129/45 
f 172/109/46 202/137/45 199/129/45 167/104/46 
s 2
f 90/53/47 172/109/47 167/104/47 126/68/47 
s 1
f 88/51/48 90/53/48 126/68/48 127/67/48 
s 2
f 86/49/49 88/51/49 127/67/49 128/66/49 
s 1
f 92/55/50 94/53/50 124/68/50 125/69/50 
s 2
f 171/108/51 92/55/51 125/69/51 168/105/51 
s 1
f 203/138/52 171/108/53 168/105/53 194/130/52 
f 204/137/54 203/138/52 194/130/52 193/129/54 
f 174/111/55 204/137/54 193/129/54 165/102/55 
s 2
f 98/49/56 174/111/56 165/102/56 122/66/56 
s 1
f 96/51/57 98/49/57 122/66/57 123/67/57 
s 2
f 94/53/58 96/51/58 123/67/58 124/68/58 
s 1
f 100/46/59 102/47/59 120/62/59 121/23/59 
s 2
f 173/110/60 100/46/60 121/23/60 166/103/60 
s 1
f 205/139/61 173/110/62 166/103/62 188/124/61 
f 206/140/63 205/139/61 188/124/61 187/118/63 
f 176/113/64 206/140/63 187/118/63 163/100/64 
s 2
f 106/59/65 176/113/65 163/100/65 118/64/65 
s 1
f 104/57/66 106/59/66 118/64/66 119/63/66 
s 2
f 102/47/67 104/57/67 119/63/67 120/62/67 
s 1
f 108/61/68 110/59/68 116/64/68 117/65/68 
s 2
f 175/112/69 108/61/69 117/65/69 164/101/69 
s 1
f 207/141/70 175/112/71 164/101/71 182/119/70 
f 208/140/72 207/141/70 182/119/70 181/118/72 
f 170/107/73 208/140/72 181/118/72 161/98/73 
s 2
f 84/47/74 170/107/74 161/98/74 113/62/74 
s 1
f 112/57/75 84/47/75 113/62/75 115/63/75 
s 2
f 110/59/76 112/57/76 115/63/76 116/64/76 
s off
f 131/72/77 130/71/77 209/142/77 210/143/77 
f 130/71/42 162/99/42 211/144/42 209/142/42 
f 162/99/78 161/98/78 212/145/78 211/144/78 
f 161/98/74 131/72/74 210/143/74 212/145/74 
f 154/93/79 156/95/79 213/146/79 214/147/79 
f 156/95/69 164/101/69 215/148/69 213/146/69 
f 164/101/80 163/100/80 216/149/80 215/148/80 
f 163/100/65 154/93/65 214/147/65 216/149/65 
f 146/85/78 148/87/78 217/150/78 218/151/78 
f 148/87/60 166/103/60 219/152/60 217/150/60 
f 166/103/77 165/102/77 220/153/77 219/152/77 
f 165/102/56 146/85/56 218/151/56 220/153/56 
f 138/79/80 140/81/80 221/154/80 222/155/80 
f 140/81/51 168/105/51 223/156/51 221/154/51 
f 168/105/79 167/104/79 224/157/79 223/156/79 
f 167/104/47 138/79/47 222/155/47 224/157/47 
f 225/158/81 226/159/81 227/160/81 228/161/81 
f 226/159/82 229/162/82 230/163/82 227/160/82 
f 211/144/83 212/145/83 177/114/83 180/117/83 
f 231/164/84 225/158/84 228/161/84 232/165/84 
f 233/166/79 234/167/79 235/168/79 236/169/79 
f 234/167/85 237/170/85 238/171/85 235/168/85 
f 215/148/80 216/149/80 183/120/80 186/123/80 
f 239/172/86 233/166/86 236/169/86 240/173/86 
f 241/174/83 242/175/83 243/176/83 244/177/83 
f 242/175/87 245/178/87 246/179/87 243/176/87 
f 219/152/77 220/153/77 189/125/77 192/128/77 
f 247/180/88 241/174/88 244/177/88 248/181/88 
f 249/182/80 250/183/80 251/184/80 252/185/80 
f 250/183/89 253/186/89 254/187/89 251/184/89 
f 223/156/79 224/157/79 195/131/79 198/134/79 
f 255/188/90 249/182/90 252/185/90 256/189/90 
f 210/143/18 209/142/18 226/159/18 225/158/18 
f 209/142/18 211/144/18 229/162/18 226/159/18 
f 211/144/91 180/117/91 230/163/91 229/162/91 
f 180/117/17 179/116/17 227/160/17 230/163/17 
f 179/116/17 178/115/17 228/161/17 227/160/17 
f 178/115/17 177/114/17 232/165/17 228/161/17 
f 177/114/92 212/145/92 231/164/92 232/165/92 
f 212/145/18 210/143/18 225/158/18 231/164/18 
f 214/147/18 213/146/18 234/167/18 233/166/18 
f 213/146/18 215/148/18 237/170/18 234/167/18 
f 215/148/93 186/123/93 238/171/93 237/170/93 
f 186/123/17 185/122/17 235/168/17 238/171/17 
f 185/122/17 184/121/17 236/169/17 235/168/17 
f 184/121/17 183/120/17 240/173/17 236/169/17 
f 183/120/94 216/149/94 239/172/94 240/173/94 
f 216/149/18 214/147/18 233/166/18 239/172/18 
f 218/151/18 217/150/18 242/175/18 241/174/18 
f 217/150/18 219/152/18 245/178/18 242/175/18 
f 219/152/95 192/128/95 246/179/95 245/178/95 
f 192/128/17 191/127/17 243/176/17 246/179/17 
f 191/127/17 190/126/17 244/177/17 243/176/17 
f 190/126/17 189/125/17 248/181/17 244/177/17 
f 189/125/96 220/153/96 247/180/96 248/181/96 
f 220/153/18 218/151/18 241/174/18 247/180/18 
f 222/155/18 221/154/18 250/183/18 249/182/18 
f 221/154/18 223/156/18 253/186/18 250/183/18 
f 223/156/97 198/134/97 254/187/97 253/186/97 
f 198/134/17 197/133/17 251/184/17 254/187/17 
f 197/133/17 196/132/17 252/185/17 251/184/17 
f 196/132/17 195/131/17 256/189/17 252/185/17 
f 195/131/98 224/157/98 255/188/98 256/189/98 
f 224/157/18 222/155/18 249/182/18 255/188/18 
# 250 polygons

