# 3ds Max Wavefront OBJ Exporter v0.97b - (c)2007 guruware
# File Created: 11.05.2018 22:39:27

mtllib Locker.mtl

#
# object ???
#

v  0.3166 0.3139 0.2946
v  0.3166 0.2903 0.2946
v  0.3166 0.2903 0.2112
v  0.3166 0.3139 0.2112
v  -0.3264 -0.6042 -0.3021
v  -0.3264 -0.6042 0.3021
v  -0.3264 -0.0000 0.3021
v  -0.3264 -0.0000 -0.3021
v  0.2779 -0.6042 -0.3021
v  0.2779 -0.6042 0.3021
v  0.2779 -0.6042 0.9064
v  0.2779 0.0000 0.9064
v  -0.3264 -0.0000 0.9064
v  -0.3264 -0.6042 0.9064
v  0.2779 0.6042 0.3021
v  0.2779 0.6042 -0.3021
v  -0.3264 0.6042 -0.3021
v  -0.3264 0.6042 0.3021
v  0.2779 0.6042 -0.9064
v  0.2779 0.0000 -0.9064
v  -0.3264 -0.0000 -0.9064
v  -0.3264 0.6042 -0.9064
v  0.3166 0.3139 0.8988
v  0.3166 0.2903 0.8988
v  0.3166 0.2903 0.8155
v  0.3166 0.3139 0.8155
v  0.3081 -0.3139 -0.8988
v  0.3081 -0.2903 -0.8988
v  0.3081 -0.2903 -0.3930
v  0.3081 -0.3139 -0.3930
v  -0.3264 -0.6042 -0.9064
v  0.2779 -0.6042 -0.9064
v  -0.3264 0.6042 0.9064
v  0.2779 0.6042 0.9064
v  0.3166 -0.2903 0.2946
v  0.3166 -0.3139 0.2946
v  0.3166 -0.3139 0.2112
v  0.3166 -0.2903 0.2112
v  0.3166 -0.2903 0.8988
v  0.3166 -0.3139 0.8988
v  0.3166 -0.3139 0.8155
v  0.3166 -0.2903 0.8155
v  0.3081 0.2903 -0.8988
v  0.3081 0.3139 -0.8988
v  0.3081 0.3139 -0.3930
v  0.3081 0.2903 -0.3930
v  0.2779 0.0076 0.8988
v  0.2779 0.5967 0.8988
v  0.2779 0.0000 0.3021
v  0.2779 0.0076 0.3097
v  0.2779 0.5967 0.3097
v  0.2779 0.5967 0.2946
v  0.2779 0.5967 -0.2946
v  0.2779 0.0076 0.2946
v  0.2779 0.0000 -0.3021
v  0.2779 0.0076 -0.2946
v  0.2779 0.5967 -0.3097
v  0.2779 0.5967 -0.8988
v  0.2779 0.0076 -0.3097
v  0.2779 0.0076 -0.8988
v  0.2779 -0.5967 0.3097
v  0.2779 -0.5967 0.8988
v  0.2779 -0.0076 0.3097
v  0.2779 -0.0076 0.8988
v  0.2779 -0.5967 -0.2946
v  0.2779 -0.5967 0.2946
v  0.2779 -0.0076 -0.2946
v  0.2779 -0.0076 0.2946
v  0.2779 -0.0076 -0.8988
v  0.2779 -0.5967 -0.8988
v  0.2779 -0.0076 -0.3097
v  0.2779 -0.5967 -0.3097
v  0.3081 0.5967 0.2946
v  0.3081 0.5967 -0.2946
v  0.3081 0.0076 0.2946
v  0.3081 0.2903 0.2946
v  0.3081 0.3139 0.2946
v  0.3081 0.0076 -0.2946
v  0.3081 0.3139 -0.2946
v  0.3081 0.2903 -0.2946
v  0.3081 0.0076 0.8988
v  0.3081 0.2903 0.8988
v  0.3081 0.3139 0.8988
v  0.3081 0.5967 0.8988
v  0.3081 0.0076 0.3097
v  0.3081 0.5967 0.3097
v  0.3081 0.3139 0.3097
v  0.3081 0.2903 0.3097
v  0.3081 -0.0076 -0.8988
v  0.3081 -0.5967 -0.8988
v  0.3081 -0.0076 -0.3097
v  0.3081 -0.5967 -0.3097
v  0.3081 -0.3139 -0.3097
v  0.3081 -0.2903 -0.3097
v  0.3081 -0.5967 -0.2946
v  0.3081 -0.5967 0.2946
v  0.3081 -0.0076 -0.2946
v  0.3081 -0.2903 -0.2946
v  0.3081 -0.3139 -0.2946
v  0.3081 -0.0076 0.2946
v  0.3081 -0.3139 0.2946
v  0.3081 -0.2903 0.2946
v  0.3081 -0.5967 0.3097
v  0.3081 -0.5967 0.8988
v  0.3081 -0.0076 0.3097
v  0.3081 -0.2903 0.3097
v  0.3081 -0.3139 0.3097
v  0.3081 -0.0076 0.8988
v  0.3081 -0.3139 0.8988
v  0.3081 -0.2903 0.8988
v  0.3081 0.5967 -0.3097
v  0.3081 0.5967 -0.8988
v  0.3081 0.0076 -0.3097
v  0.3081 0.2903 -0.3097
v  0.3081 0.3139 -0.3097
v  0.3081 0.0076 -0.8988
v  0.3081 0.2903 0.2112
v  0.3081 0.3139 0.2112
v  0.3081 0.2903 0.8155
v  0.3081 0.3139 0.8155
v  0.3081 -0.3139 0.2112
v  0.3081 -0.2903 0.2112
v  0.3081 -0.3139 0.8155
v  0.3081 -0.2903 0.8155
v  0.3166 -0.2903 -0.3930
v  0.3166 -0.2903 -0.3097
v  0.3166 -0.3139 -0.3097
v  0.3166 -0.3139 -0.3930
v  0.3166 0.3139 -0.3930
v  0.3166 0.3139 -0.3097
v  0.3166 0.2903 -0.3097
v  0.3166 0.2903 -0.3930
# 132 vertices

vn 1.0000 0.0000 0.0000
vn -1.0000 -0.0000 -0.0000
vn 0.0000 -1.0000 0.0000
vn -0.0000 0.0000 1.0000
vn -0.0000 1.0000 -0.0000
vn 0.0000 0.0000 -1.0000
vn 1.0000 -0.0000 0.0000
vn 0.0000 -0.0000 -1.0000
# 8 vertex normals

vt 0.3774 0.4010 0.0000
vt 0.3774 0.3439 0.0000
vt 0.2793 0.3439 0.0000
vt 0.2793 0.4010 0.0000
vt 0.6142 0.4743 0.0000
vt 0.3635 0.4743 0.0000
vt 0.3635 0.7192 0.0000
vt 0.6142 0.7192 0.0000
vt 0.4723 0.0352 0.0000
vt 0.2508 0.0352 0.0000
vt 0.2508 0.2590 0.0000
vt 0.4723 0.2590 0.0000
vt 0.9536 0.0317 0.0000
vt 0.9536 0.2342 0.0000
vt 0.7468 0.2342 0.0000
vt 0.7468 0.0317 0.0000
vt 0.9536 0.4367 0.0000
vt 0.7468 0.4367 0.0000
vt 0.8617 0.5920 0.0000
vt 0.8617 0.6016 0.0000
vt 0.6519 0.6016 0.0000
vt 0.6519 0.5920 0.0000
vt 0.1128 0.4743 0.0000
vt 0.1128 0.7192 0.0000
vt 0.6142 0.9641 0.0000
vt 0.8648 0.9641 0.0000
vt 0.8648 0.7192 0.0000
vt 0.0294 0.0352 0.0000
vt 0.0294 0.2590 0.0000
vt 0.6937 0.2590 0.0000
vt 0.6937 0.0352 0.0000
vt 0.3635 0.9641 0.0000
vt 0.8617 0.8369 0.0000
vt 0.8617 0.8465 0.0000
vt 0.6519 0.8465 0.0000
vt 0.6519 0.8369 0.0000
vt 0.1128 0.9641 0.0000
vt 0.8648 0.4743 0.0000
vt 0.1159 0.7223 0.0000
vt 0.1159 0.9611 0.0000
vt 0.3604 0.7223 0.0000
vt 0.3604 0.9611 0.0000
vt 0.3666 0.9611 0.0000
vt 0.6110 0.9611 0.0000
vt 0.3666 0.7223 0.0000
vt 0.6110 0.7223 0.0000
vt 0.6173 0.9611 0.0000
vt 0.8617 0.9611 0.0000
vt 0.6173 0.7223 0.0000
vt 0.8617 0.7223 0.0000
vt 0.3604 0.4774 0.0000
vt 0.1159 0.4774 0.0000
vt 0.3604 0.7162 0.0000
vt 0.1159 0.7162 0.0000
vt 0.6110 0.4774 0.0000
vt 0.3666 0.4774 0.0000
vt 0.6110 0.7162 0.0000
vt 0.3666 0.7162 0.0000
vt 0.8617 0.7162 0.0000
vt 0.8617 0.4774 0.0000
vt 0.6173 0.7162 0.0000
vt 0.6173 0.4774 0.0000
vt 0.3666 0.8369 0.0000
vt 0.3666 0.8465 0.0000
vt 0.6110 0.8465 0.0000
vt 0.6110 0.8369 0.0000
vt 0.1159 0.8369 0.0000
vt 0.1159 0.8465 0.0000
vt 0.3604 0.8465 0.0000
vt 0.3604 0.8369 0.0000
vt 0.6173 0.5920 0.0000
vt 0.6173 0.6016 0.0000
vt 0.6110 0.6016 0.0000
vt 0.6110 0.5920 0.0000
vt 0.3666 0.5920 0.0000
vt 0.3666 0.6016 0.0000
vt 0.3604 0.6016 0.0000
vt 0.3604 0.5920 0.0000
vt 0.1159 0.5920 0.0000
vt 0.1159 0.6016 0.0000
vt 0.6173 0.8369 0.0000
vt 0.6173 0.8465 0.0000
vt 0.4012 0.8369 0.0000
vt 0.4012 0.8465 0.0000
vt 0.1505 0.8369 0.0000
vt 0.1505 0.8465 0.0000
vt 0.4012 0.5920 0.0000
vt 0.4012 0.6016 0.0000
vt 0.1505 0.5920 0.0000
vt 0.1505 0.6016 0.0000
# 90 texture coords

g ???
usemtl Material__46
s 2
f 1/1/1 2/2/1 3/3/1 4/4/1 
s 4
f 5/5/2 6/6/2 7/7/2 8/8/2 
s 8
f 9/9/3 10/10/3 6/11/3 5/12/3 
s 16
f 11/13/4 12/14/4 13/15/4 14/16/4 
s 32
f 15/10/5 16/9/5 17/12/5 18/11/5 
s 64
f 19/17/6 20/14/6 21/15/6 22/18/6 
s 2
f 23/1/1 24/2/1 25/3/7 26/4/7 
f 27/19/1 28/20/1 29/21/1 30/22/7 
s 4
f 6/6/2 14/23/2 13/24/2 7/7/2 
f 17/25/2 22/26/2 21/27/2 8/8/2 
s 8
f 10/10/3 11/28/3 14/29/3 6/11/3 
f 5/12/3 31/30/3 32/31/3 9/9/3 
s 32
f 16/9/5 19/31/5 22/30/5 17/12/5 
f 18/11/5 33/29/5 34/28/5 15/10/5 
s 2
f 35/1/1 36/2/1 37/3/1 38/4/1 
s 4
f 7/7/2 18/32/2 17/25/2 8/8/2 
s 16
f 12/14/4 34/17/4 33/18/4 13/15/4 
s 64
f 20/14/6 32/13/6 31/16/6 21/15/6 
s 2
f 39/1/1 40/2/1 41/3/1 42/4/1 
f 43/33/1 44/34/1 45/35/1 46/36/7 
s 4
f 13/24/2 33/37/2 18/32/2 7/7/2 
f 21/27/2 31/38/2 5/5/2 8/8/2 
s off
f 34/37/1 12/24/1 47/39/1 48/40/1 
f 12/24/1 49/7/1 50/41/1 47/39/1 
f 49/7/1 15/32/1 51/42/1 50/41/1 
f 15/32/1 34/37/1 48/40/1 51/42/1 
f 16/25/1 15/32/1 52/43/1 53/44/1 
f 15/32/1 49/7/1 54/45/1 52/43/1 
f 49/7/1 55/8/1 56/46/1 54/45/1 
f 55/8/1 16/25/1 53/44/1 56/46/1 
f 19/26/1 16/25/1 57/47/1 58/48/1 
f 16/25/1 55/8/1 59/49/1 57/47/1 
f 55/8/1 20/27/1 60/50/1 59/49/1 
f 20/27/1 19/26/1 58/48/1 60/50/1 
f 11/23/1 10/6/1 61/51/1 62/52/1 
f 10/6/1 49/7/1 63/53/1 61/51/1 
f 49/7/1 12/24/1 64/54/1 63/53/1 
f 12/24/1 11/23/1 62/52/1 64/54/1 
f 10/6/1 9/5/1 65/55/1 66/56/1 
f 9/5/1 55/8/1 67/57/1 65/55/1 
f 55/8/1 49/7/1 68/58/1 67/57/1 
f 49/7/1 10/6/1 66/56/1 68/58/1 
f 32/38/1 20/27/1 69/59/1 70/60/1 
f 20/27/1 55/8/1 71/61/1 69/59/1 
f 55/8/1 9/5/1 72/62/1 71/61/1 
f 9/5/1 32/38/1 70/60/1 72/62/1 
f 53/44/5 52/43/5 73/43/5 74/44/5 
f 52/43/4 54/45/4 75/45/4 76/63/4 77/64/4 73/43/4 
f 54/45/3 56/46/3 78/46/3 75/45/3 
f 56/46/6 53/44/6 74/44/6 79/65/6 80/66/6 78/46/6 
f 48/40/4 47/39/4 81/39/4 82/67/4 83/68/4 84/40/4 
f 47/39/3 50/41/3 85/41/3 81/39/3 
f 50/41/6 51/42/6 86/42/6 87/69/6 88/70/6 85/41/6 
f 51/42/5 48/40/5 84/40/5 86/42/5 
f 70/60/6 69/59/6 89/59/6 28/20/6 27/19/6 90/60/6 
f 69/59/5 71/61/5 91/61/5 89/59/5 
f 71/61/4 72/62/4 92/62/4 93/71/4 94/72/4 91/61/4 
f 72/62/3 70/60/3 90/60/3 92/62/3 
f 66/56/3 65/55/3 95/55/3 96/56/3 
f 65/55/6 67/57/6 97/57/6 98/73/6 99/74/6 95/55/6 
f 67/57/5 68/58/5 100/58/5 97/57/5 
f 68/58/4 66/56/4 96/56/4 101/75/4 102/76/4 100/58/4 
f 62/52/3 61/51/3 103/51/3 104/52/3 
f 61/51/6 63/53/6 105/53/6 106/77/6 107/78/6 103/51/6 
f 63/53/5 64/54/5 108/54/5 105/53/5 
f 64/54/4 62/52/4 104/52/4 109/79/4 110/80/4 108/54/4 
f 58/48/5 57/47/5 111/47/5 112/48/5 
f 57/47/4 59/49/4 113/49/4 114/81/4 115/82/4 111/47/4 
f 59/49/3 60/50/3 116/50/3 113/49/3 
f 60/50/6 58/48/6 112/48/6 44/34/6 43/33/6 116/50/6 
s 2
f 76/63/1 75/45/7 78/46/1 80/66/1 117/83/7 
f 79/65/1 74/44/1 73/43/1 77/64/1 118/84/1 
f 82/67/1 81/39/7 85/41/1 88/70/1 119/85/7 
f 87/69/1 86/42/1 84/40/1 83/68/1 120/86/1 
f 28/20/1 89/59/1 91/61/1 94/72/1 29/21/1 
f 93/71/1 92/62/7 90/60/1 27/19/1 30/22/7 
f 101/75/1 96/56/7 95/55/1 99/74/1 121/87/7 
f 98/73/1 97/57/1 100/58/1 102/76/1 122/88/1 
f 109/79/1 104/52/7 103/51/1 107/78/1 123/89/7 
f 106/77/1 105/53/1 108/54/1 110/80/1 124/90/1 
f 44/34/1 112/48/1 111/47/1 115/82/1 45/35/1 
f 114/81/1 113/49/7 116/50/1 43/33/1 46/36/7 
f 117/83/7 80/66/1 79/65/1 118/84/1 
f 119/85/7 88/70/1 87/69/1 120/86/1 
f 125/4/1 126/1/1 127/2/1 128/3/1 
f 121/87/7 99/74/1 98/73/1 122/88/1 
f 123/89/7 107/78/1 106/77/1 124/90/1 
f 129/4/7 130/1/7 131/2/1 132/3/7 
s off
f 77/1/4 76/2/4 2/2/4 1/1/4 
f 76/2/3 117/3/3 3/3/3 2/2/3 
f 117/3/6 118/4/6 4/4/6 3/3/6 
f 118/4/5 77/1/5 1/1/5 4/4/5 
f 83/1/4 82/2/4 24/2/4 23/1/4 
f 82/2/3 119/3/3 25/3/3 24/2/3 
f 119/3/6 120/4/6 26/4/6 25/3/6 
f 120/4/5 83/1/5 23/1/5 26/4/5 
f 102/1/4 101/2/4 36/2/4 35/1/4 
f 101/2/3 121/3/3 37/3/3 36/2/3 
f 121/3/8 122/4/8 38/4/8 37/3/8 
f 122/4/5 102/1/5 35/1/5 38/4/5 
f 110/1/4 109/2/4 40/2/4 39/1/4 
f 109/2/3 123/3/3 41/3/3 40/2/3 
f 123/3/6 124/4/6 42/4/6 41/3/6 
f 124/4/5 110/1/5 39/1/5 42/4/5 
f 94/1/4 93/2/4 127/2/4 126/1/4 
f 93/2/3 30/3/3 128/3/3 127/2/3 
f 30/3/6 29/4/6 125/4/6 128/3/6 
f 29/4/5 94/1/5 126/1/5 125/4/5 
f 115/1/4 114/2/4 131/2/4 130/1/4 
f 114/2/3 46/3/3 132/3/3 131/2/3 
f 46/3/6 45/4/6 129/4/6 132/3/6 
f 45/4/5 115/1/5 130/1/5 129/4/5 
# 112 polygons

