# 3ds Max Wavefront OBJ Exporter v0.97b - (c)2007 guruware
# File Created: 13.05.2018 00:04:09

mtllib studio_desk2.mtl

#
# object Box002
#

v  -0.5027 0.2575 0.2333
v  0.5027 0.2575 0.2333
v  0.5027 0.2575 -0.2333
v  -0.5027 0.2575 -0.2333
v  -0.5366 -0.2627 0.2333
v  0.5366 -0.2627 0.2333
v  0.5366 0.2091 0.2333
v  -0.5366 0.2091 0.2333
v  0.5366 -0.2627 -0.2333
v  0.5366 0.2091 -0.2333
v  0.4802 -0.2627 0.1841
v  -0.4802 -0.2627 0.1841
v  -0.4802 0.1507 0.1841
v  -0.4463 0.1990 0.1841
v  0.4463 0.1990 0.1841
v  0.4802 0.1507 0.1841
v  -0.5366 -0.2627 -0.2333
v  -0.5366 0.2091 -0.2333
v  -0.4802 -0.2627 -0.2333
v  -0.4802 0.1507 -0.2333
v  -0.4463 0.1990 -0.2333
v  0.4463 0.1990 -0.2333
v  0.4802 0.1507 -0.2333
v  0.4802 -0.2627 -0.2333
# 24 vertices

vn -0.3827 0.9239 -0.0000
vn 0.3827 0.9239 -0.0000
vn 0.0000 0.0000 1.0000
vn 1.0000 0.0000 -0.0000
vn 0.9239 0.3827 -0.0000
vn 0.0000 0.0000 -1.0000
vn -1.0000 0.0000 -0.0000
vn -0.9239 0.3827 -0.0000
vn 0.9239 -0.3827 -0.0000
vn 0.3827 -0.9239 -0.0000
vn -0.3827 -0.9239 -0.0000
vn -0.9239 -0.3827 -0.0000
vn 0.0000 -1.0000 -0.0000
# 13 vertex normals

vt 0.0315 0.0000 0.0000
vt 0.9685 0.0000 0.0000
vt 0.9685 1.0000 0.0000
vt 0.0315 1.0000 0.0000
vt 0.0000 0.0000 0.0000
vt 1.0000 0.0000 0.0000
vt 1.0000 0.9070 0.0000
vt 0.0000 0.9070 0.0000
vt 1.0000 0.8952 0.0000
vt 0.9647 1.0000 0.0000
vt 0.0353 1.0000 0.0000
vt 0.0000 0.8952 0.0000
vt 0.0000 1.0751 0.0000
vt 1.0000 1.0751 0.0000
# 14 texture coords

g Box002
usemtl wire_255255255
s 4
f 1/1/1 2/2/2 3/3/2 4/4/1 
s 2
f 5/5/3 6/6/3 7/7/3 2/3/3 1/4/3 8/8/3 
s 4
f 6/5/4 9/6/4 10/7/5 7/8/5 
s 1
f 11/5/6 12/6/6 13/9/6 14/10/6 15/11/6 16/12/6 
s 4
f 17/5/7 5/6/7 8/7/8 18/8/8 
f 19/6/4 20/9/9 13/9/9 12/6/4 
f 21/10/10 22/11/11 15/11/11 14/10/10 
f 23/12/12 24/5/7 11/5/7 16/12/12 
s 8
f 11/5/13 24/7/13 9/3/13 6/2/13 
f 12/6/13 11/5/13 6/2/13 5/1/13 
f 19/5/13 12/6/13 5/1/13 17/4/13 
s 4
f 20/9/9 21/10/10 14/10/10 13/9/9 
f 22/11/11 23/12/12 16/12/12 15/11/11 
s 2
f 18/7/6 20/9/6 19/6/6 17/6/6 
s 4
f 2/13/2 7/8/5 10/7/5 3/14/2 
f 4/13/1 18/8/8 8/7/8 1/14/1 
s 2
f 18/7/6 4/3/6 21/10/6 20/9/6 
f 4/3/6 3/4/6 22/11/6 21/10/6 
f 3/4/6 10/8/6 23/12/6 22/11/6 
f 10/8/6 9/5/6 24/5/6 23/12/6 
# 20 polygons

