# 3ds Max Wavefront OBJ Exporter v0.97b - (c)2007 guruware
# File Created: 13.05.2018 03:10:18

mtllib studio_desk3.mtl

#
# object Box004
#

v  -0.3726 0.1770 0.2795
v  0.0000 0.1770 0.2795
v  0.0000 0.1770 -0.2795
v  -0.3726 0.1770 -0.2795
v  0.0000 -0.1108 0.2795
v  0.0000 0.1308 0.2795
v  -0.3726 0.1308 0.2795
v  -0.3726 -0.1108 0.2795
v  0.7452 -0.1108 -0.2795
v  0.7452 0.1308 -0.2795
v  0.7452 0.1308 0.2795
v  0.7452 -0.1108 0.2795
v  0.0000 -0.1108 0.2502
v  0.0000 0.1308 0.2502
v  0.3726 0.1308 0.2502
v  0.3726 -0.1108 0.2502
v  -0.7452 -0.1108 0.2795
v  -0.7452 0.1308 0.2795
v  -0.7452 0.1308 -0.2795
v  -0.7452 -0.1108 -0.2795
v  -0.3726 -0.1867 0.2795
v  -0.7452 -0.1867 0.2795
v  -0.7452 -0.1867 -0.2795
v  -0.3726 -0.1867 -0.2795
v  0.3726 0.1770 0.2795
v  0.7452 0.1770 0.2795
v  0.7452 0.1770 -0.2795
v  0.3726 0.1770 -0.2795
v  -0.7452 0.1770 -0.2795
v  -0.7452 0.1770 0.2795
v  0.3726 0.1308 0.2795
v  0.3726 -0.1108 0.2795
v  -0.3726 0.1308 -0.2795
v  -0.3726 -0.1108 -0.2795
v  0.0000 0.1308 -0.2771
v  0.0000 -0.1108 -0.2771
v  0.3726 -0.1108 -0.2771
v  0.3726 0.1308 -0.2771
v  0.0000 -0.1867 0.2795
v  0.7452 -0.1867 0.2795
v  0.7452 -0.1867 -0.2795
v  0.3726 -0.1108 -0.2591
v  0.3726 -0.1867 -0.2591
v  0.0000 -0.1867 -0.2591
v  0.0000 -0.1108 -0.2591
v  0.3726 -0.1867 0.2795
v  0.0000 -0.1867 -0.2771
v  0.3726 -0.1867 -0.2771
v  0.0000 0.1308 -0.2591
v  0.3726 0.1308 -0.2591
# 50 vertices

vn 0.0000 1.0000 -0.0000
vn 0.0000 0.0000 1.0000
vn 1.0000 -0.0000 -0.0000
vn 1.0000 0.0000 -0.0000
vn 0.0000 0.0000 -1.0000
vn -1.0000 -0.0000 0.0000
vn -1.0000 0.0000 -0.0000
vn 0.0000 -1.0000 -0.0000
vn 0.0059 0.0000 -1.0000
vn 0.0043 -0.0500 -0.9987
vn 0.0118 0.0000 -0.9999
vn -0.0065 -0.0037 -1.0000
vn -0.0118 0.0000 -0.9999
vn -0.0118 -0.0000 -0.9999
vn -0.0079 -0.0524 -0.9986
vn 0.0000 -0.0786 -0.9969
vn -0.0053 -0.0749 -0.9972
vn -1.0000 -0.0000 -0.0000
vn 0.0054 -0.0037 -1.0000
vn -0.0000 1.0000 -0.0000
vn 0.0000 -1.0000 0.0000
# 21 vertex normals

vt 0.2661 0.6806 0.0000
vt 0.5015 0.6806 0.0000
vt 0.5015 0.9614 0.0000
vt 0.2661 0.9614 0.0000
vt 0.5006 0.4222 0.0000
vt 0.5006 0.5902 0.0000
vt 0.2652 0.5902 0.0000
vt 0.2652 0.4222 0.0000
vt 0.3319 0.0958 0.0000
vt 0.3319 0.2656 0.0000
vt 0.6832 0.2656 0.0000
vt 0.6832 0.0958 0.0000
vt 0.7359 0.5902 0.0000
vt 0.7359 0.4222 0.0000
vt 0.0307 0.6806 0.0000
vt 0.0307 0.9614 0.0000
vt 0.7368 0.6806 0.0000
vt 0.9722 0.6806 0.0000
vt 0.9722 0.9614 0.0000
vt 0.7368 0.9614 0.0000
vt 0.9713 0.4222 0.0000
vt 0.9713 0.5902 0.0000
vt 0.0298 0.5902 0.0000
vt 0.0298 0.4222 0.0000
vt 0.5006 0.6223 0.0000
vt 0.2652 0.6223 0.0000
vt 0.2652 0.3694 0.0000
vt 0.5006 0.3694 0.0000
vt 0.3319 0.2981 0.0000
vt 0.6832 0.2981 0.0000
vt 0.6832 0.0424 0.0000
vt 0.3319 0.0424 0.0000
vt 0.7359 0.6223 0.0000
vt 0.7359 0.3694 0.0000
vt 0.9713 0.6223 0.0000
vt 0.9713 0.3694 0.0000
vt 0.0298 0.3694 0.0000
vt 0.0298 0.6223 0.0000
vt 0.3334 0.0424 0.0000
vt 0.3334 0.0958 0.0000
vt 0.3447 0.0958 0.0000
vt 0.3447 0.0424 0.0000
vt 0.3334 0.2656 0.0000
vt 0.3447 0.2656 0.0000
vt 0.5015 0.9602 0.0000
vt 0.7368 0.9602 0.0000
vt 0.7368 0.9512 0.0000
vt 0.5015 0.9512 0.0000
vt 0.5015 0.6953 0.0000
vt 0.7368 0.6953 0.0000
vt 0.6648 0.2656 0.0000
vt 0.6648 0.0958 0.0000
# 52 texture coords

g Box004
usemtl wire_027177088
s 4
f 1/1/1 2/2/1 3/3/1 4/4/1 
s 8
f 5/5/2 6/6/2 7/7/2 8/8/2 
s 16
f 9/9/3 10/10/4 11/11/4 12/12/3 
s 32
f 13/5/5 14/6/5 15/13/5 16/14/5 
s 64
f 17/12/6 18/11/7 19/10/7 20/9/6 
s 2
f 21/1/8 22/15/8 23/16/8 24/4/8 
s 4
f 25/17/1 26/18/1 27/19/1 28/20/1 
f 2/2/1 25/17/1 28/20/1 3/3/1 
f 4/4/1 29/16/1 30/15/1 1/1/1 
s 8
f 12/21/2 11/22/2 31/13/2 32/14/2 
f 32/14/2 31/13/2 6/6/2 5/5/2 
f 18/23/2 17/24/2 8/8/2 7/7/2 
s 32
f 20/24/5 19/23/5 33/7/9 34/8/9 
f 34/8/9 33/7/9 35/6/10 36/5/11 
f 10/22/12 9/21/13 37/14/14 38/13/15 
s 8
f 6/6/2 2/25/2 1/26/2 7/7/2 
f 8/8/2 21/27/2 39/28/2 5/5/2 
s 16
f 10/10/4 27/29/4 26/30/4 11/11/4 
f 12/12/3 40/31/3 41/32/3 9/9/3 
s 32
f 35/6/10 3/25/16 28/33/17 38/13/15 
f 42/14/5 43/34/5 44/28/5 45/5/5 
s 64
f 18/11/7 30/30/7 29/29/7 19/10/7 
f 20/9/6 23/32/6 22/31/18 17/12/6 
s 8
f 11/22/2 26/35/2 25/33/2 31/13/2 
f 32/14/2 46/34/2 40/36/2 12/21/2 
f 31/13/2 25/33/2 2/25/2 6/6/2 
f 5/5/2 39/28/2 46/34/2 32/14/2 
f 17/24/2 22/37/2 21/27/2 8/8/2 
f 7/7/2 1/26/2 30/38/2 18/23/2 
s 32
f 19/23/5 29/38/5 4/26/19 33/7/9 
f 34/8/9 24/27/9 23/37/5 20/24/5 
f 33/7/9 4/26/19 3/25/16 35/6/10 
f 36/5/11 47/28/11 24/27/9 34/8/9 
f 9/21/13 41/36/13 48/34/14 37/14/14 
f 38/13/15 28/33/17 27/35/5 10/22/12 
s off
f 47/39/4 36/40/4 45/41/4 44/42/4 
f 36/40/4 35/43/4 49/44/4 45/41/4 
f 35/45/8 38/46/8 50/47/8 49/48/8 
f 38/43/7 37/40/7 42/41/7 50/44/7 
f 37/40/18 48/39/18 43/42/18 42/41/18 
s 1
f 47/45/8 44/48/8 21/1/8 24/4/8 
f 43/47/8 48/46/8 41/19/8 40/18/8 
s 2
f 44/48/8 43/47/8 46/17/8 39/2/8 
s 4
f 21/1/8 44/48/8 39/2/8 
f 46/17/8 43/47/8 40/18/8 
s off
f 42/47/20 45/48/20 13/49/20 16/50/20 
f 45/41/4 49/44/4 14/51/4 13/52/4 
f 49/48/21 50/47/21 15/50/21 14/49/21 
f 50/44/7 42/41/7 16/52/7 15/51/7 
# 47 polygons - 2 triangles

