# 3ds Max Wavefront OBJ Exporter v0.97b - (c)2007 guruware
# File Created: 12.05.2018 22:02:22

mtllib studio_light.mtl

#
# object studio_light
#

v  0.1717 -0.2073 -0.0000
v  0.1547 -0.2073 -0.0745
v  0.1547 -0.1098 -0.0745
v  0.1717 -0.1098 -0.0000
v  0.1071 -0.2073 -0.1343
v  0.1071 -0.1098 -0.1343
v  0.0382 -0.2073 -0.1674
v  0.0382 -0.1098 -0.1674
v  -0.0382 -0.2073 -0.1674
v  -0.0382 -0.1098 -0.1674
v  -0.1071 -0.2073 -0.1343
v  -0.1071 -0.1098 -0.1343
v  -0.1547 -0.2073 -0.0745
v  -0.1547 -0.1098 -0.0745
v  -0.1717 -0.2073 -0.0000
v  -0.1717 -0.1098 -0.0000
v  -0.1547 -0.2073 0.0745
v  -0.1547 -0.1098 0.0745
v  -0.1071 -0.2073 0.1343
v  -0.1071 -0.1098 0.1343
v  -0.0382 -0.2073 0.1674
v  -0.0382 -0.1098 0.1674
v  0.0382 -0.2073 0.1674
v  0.0382 -0.1098 0.1674
v  0.1071 -0.2073 0.1343
v  0.1071 -0.1098 0.1343
v  0.1547 -0.2073 0.0745
v  0.1547 -0.1098 0.0745
v  0.1547 -0.0125 -0.0745
v  0.1717 -0.0125 -0.0000
v  0.1071 -0.0125 -0.1343
v  0.0390 -0.0125 -0.1674
v  -0.0390 -0.0125 -0.1674
v  -0.1071 -0.0125 -0.1343
v  -0.1547 -0.0125 -0.0745
v  -0.1717 -0.0125 -0.0000
v  -0.1547 -0.0125 0.0745
v  -0.1071 -0.0125 0.1343
v  -0.0382 -0.0125 0.1674
v  0.0382 -0.0125 0.1674
v  0.1071 -0.0125 0.1343
v  0.1547 -0.0125 0.0745
v  0.1547 0.0855 -0.0745
v  0.1717 0.0855 -0.0000
v  0.1071 0.0855 -0.1343
v  0.0390 0.0855 -0.1674
v  0.0390 -0.0125 -0.1905
v  -0.0390 -0.0125 -0.1905
v  -0.0390 0.0855 -0.1905
v  0.0390 0.0855 -0.1905
v  -0.1071 0.0855 -0.1343
v  -0.0390 0.0855 -0.1674
v  -0.1547 0.0855 -0.0745
v  -0.1717 0.0855 -0.0000
v  -0.1547 0.0855 0.0745
v  -0.1071 0.0855 0.1343
v  -0.0382 0.0855 0.1674
v  -0.0382 -0.0125 0.1905
v  0.0382 -0.0125 0.1905
v  0.0382 0.0855 0.1905
v  -0.0382 0.0855 0.1905
v  0.1071 0.0855 0.1343
v  0.0382 0.0855 0.1674
v  0.1547 0.0855 0.0745
v  0.1446 0.1827 -0.0696
v  0.1605 0.1827 -0.0000
v  0.1001 0.1827 -0.1255
v  0.0357 0.1827 -0.1565
v  -0.0357 0.1827 -0.1565
v  -0.1001 0.1827 -0.1255
v  -0.1446 0.1827 -0.0696
v  -0.1605 0.1827 -0.0000
v  -0.1446 0.1827 0.0696
v  -0.1001 0.1827 0.1255
v  -0.0357 0.1827 0.1565
v  0.0357 0.1827 0.1565
v  0.1001 0.1827 0.1255
v  0.1446 0.1827 0.0696
v  0.1214 0.2802 -0.0584
v  0.1347 0.2802 -0.0000
v  0.0840 0.2802 -0.1053
v  0.0300 0.2802 -0.1313
v  -0.0300 0.2802 -0.1313
v  -0.0840 0.2802 -0.1053
v  -0.1214 0.2802 -0.0584
v  -0.1347 0.2802 -0.0000
v  -0.1214 0.2802 0.0584
v  -0.0840 0.2802 0.1053
v  -0.0300 0.2802 0.1313
v  0.0300 0.2802 0.1313
v  0.0840 0.2802 0.1053
v  0.1214 0.2802 0.0584
v  0.1121 -0.1993 0.0540
v  0.0776 -0.1993 0.0973
v  0.0277 -0.1993 0.1213
v  -0.0277 -0.1993 0.1213
v  -0.0776 -0.1993 0.0973
v  -0.1121 -0.1993 0.0540
v  -0.1244 -0.1993 -0.0000
v  -0.1121 -0.1993 -0.0540
v  -0.0776 -0.1993 -0.0973
v  -0.0277 -0.1993 -0.1213
v  0.0277 -0.1993 -0.1213
v  0.0776 -0.1993 -0.0973
v  0.1121 -0.1993 -0.0540
v  0.1244 -0.1993 0.0000
v  -0.1070 -0.4194 -0.2408
v  -0.1070 -0.4214 -0.2293
v  -0.1070 -0.1918 -0.1889
v  -0.1070 -0.1898 -0.2003
v  0.1070 -0.4214 -0.2293
v  0.1070 -0.4194 -0.2408
v  0.1070 -0.1898 -0.2003
v  0.1070 -0.1918 -0.1889
v  -0.1940 -0.1819 -0.0173
v  -0.1940 -0.1935 -0.0173
v  -0.1940 -0.1935 0.0173
v  -0.1940 -0.1819 0.0173
v  0.1940 -0.1935 -0.0173
v  0.1940 -0.1819 -0.0173
v  0.1940 -0.1819 0.0173
v  0.1940 -0.1935 0.0173
v  -0.0173 -0.1819 0.1940
v  -0.0173 -0.1935 0.1940
v  0.0173 -0.1935 0.1940
v  0.0173 -0.1819 0.1940
v  -0.0173 -0.1935 -0.1940
v  -0.0173 -0.1819 -0.1940
v  0.0173 -0.1819 -0.1940
v  0.0173 -0.1935 -0.1940
v  0.1244 -0.2073 0.0000
v  0.1121 -0.2073 -0.0540
v  0.1121 -0.2073 0.0540
v  0.0776 -0.2073 0.0973
v  0.0277 -0.2073 0.1213
v  -0.0277 -0.2073 0.1213
v  -0.0776 -0.2073 0.0973
v  -0.1121 -0.2073 0.0540
v  -0.1244 -0.2073 -0.0000
v  -0.1121 -0.2073 -0.0540
v  -0.0776 -0.2073 -0.0973
v  -0.0277 -0.2073 -0.1213
v  0.0277 -0.2073 -0.1213
v  0.0776 -0.2073 -0.0973
v  -0.1070 -0.4214 0.2293
v  -0.1070 -0.4194 0.2408
v  -0.1070 -0.1898 0.2003
v  -0.1070 -0.1918 0.1889
v  0.1070 -0.4194 0.2408
v  0.1070 -0.4214 0.2293
v  0.1070 -0.1918 0.1889
v  0.1070 -0.1898 0.2003
v  -0.2289 -0.4214 -0.1863
v  -0.2403 -0.4194 -0.1863
v  -0.1998 -0.1898 -0.1863
v  -0.1884 -0.1918 -0.1863
v  -0.2403 -0.4194 0.1863
v  -0.2289 -0.4214 0.1863
v  -0.1884 -0.1918 0.1863
v  -0.1998 -0.1898 0.1863
v  0.2407 -0.4194 -0.1863
v  0.2292 -0.4214 -0.1863
v  0.1887 -0.1918 -0.1863
v  0.2002 -0.1898 -0.1863
v  0.2292 -0.4214 0.1863
v  0.2407 -0.4194 0.1863
v  0.2002 -0.1898 0.1863
v  0.1887 -0.1918 0.1863
v  -0.0390 -0.0125 -0.1790
v  0.0390 -0.0125 -0.1790
v  -0.0390 0.0855 -0.1790
v  0.0390 0.0855 -0.1790
v  0.0382 -0.0125 0.1790
v  -0.0382 -0.0125 0.1790
v  0.0382 0.0855 0.1790
v  -0.0382 0.0855 0.1790
v  -0.0390 0.3502 -0.1790
v  0.0390 0.3502 -0.1790
v  0.0390 0.3502 -0.1905
v  -0.0390 0.3502 -0.1905
v  0.0382 0.3502 0.1790
v  -0.0382 0.3502 0.1790
v  -0.0382 0.3502 0.1905
v  0.0382 0.3502 0.1905
v  0.0390 0.3383 -0.1790
v  -0.0390 0.3383 -0.1790
v  0.0390 0.3383 -0.1905
v  -0.0390 0.3383 -0.1905
v  -0.0382 0.3383 0.1790
v  0.0382 0.3383 0.1790
v  -0.0382 0.3383 0.1905
v  0.0382 0.3383 0.1905
v  0.0387 0.3502 -0.0383
v  0.0385 0.3502 0.0383
v  0.0385 0.3383 0.0383
v  0.0387 0.3383 -0.0383
v  -0.0387 0.4552 -0.0383
v  -0.0385 0.4552 0.0383
v  0.0385 0.4552 0.0383
v  0.0387 0.4552 -0.0383
v  -0.0387 0.3383 -0.0383
v  -0.0385 0.3383 0.0383
v  -0.0385 0.3502 0.0383
v  -0.0387 0.3502 -0.0383
# 204 vertices

vn 1.0000 0.0000 -0.0000
vn 0.9010 0.0000 -0.4339
vn 0.6235 0.0000 -0.7818
vn 0.6238 -0.0005 -0.7816
vn 0.2225 0.0000 -0.9749
vn 0.2220 -0.0008 -0.9750
vn -0.2225 0.0000 -0.9749
vn -0.2224 -0.0004 -0.9749
vn -0.6235 0.0000 -0.7818
vn -0.9010 0.0000 -0.4339
vn -1.0000 0.0000 -0.0000
vn -0.9010 0.0000 0.4339
vn -0.6235 0.0000 0.7818
vn -0.2225 0.0000 0.9749
vn 0.2225 0.0000 0.9749
vn 0.6235 0.0000 0.7818
vn 0.9010 0.0000 0.4339
vn 0.6251 0.0000 -0.7805
vn 0.2987 -0.0005 -0.9544
vn -0.2992 -0.0011 -0.9542
vn -0.6248 -0.0005 -0.7808
vn -0.2958 0.0000 0.9552
vn 0.2958 0.0000 0.9552
vn 0.8995 0.0570 -0.4332
vn 0.9984 0.0570 -0.0000
vn 0.6238 0.0575 -0.7795
vn 0.2994 0.0771 -0.9510
vn 0.0000 0.0000 -1.0000
vn -0.6241 0.0570 -0.7793
vn -0.2989 0.0765 -0.9512
vn -0.8995 0.0570 -0.4332
vn -0.9984 0.0570 -0.0000
vn -0.8995 0.0570 0.4332
vn -0.6225 0.0570 0.7806
vn -0.2961 0.0760 0.9521
vn 0.0000 0.0000 1.0000
vn 0.6225 0.0570 0.7806
vn 0.2961 0.0760 0.9521
vn 0.8995 0.0570 0.4332
vn 0.8856 0.1840 -0.4265
vn 0.9829 0.1840 -0.0000
vn 0.6128 0.1840 -0.7685
vn 0.2186 0.1843 -0.9582
vn -0.2182 0.1848 -0.9583
vn -0.6132 0.1845 -0.7681
vn -0.8856 0.1840 -0.4265
vn -0.9829 0.1840 -0.0000
vn -0.8856 0.1840 0.4265
vn -0.6128 0.1840 0.7685
vn -0.2187 0.1840 0.9583
vn 0.2187 0.1840 0.9583
vn 0.6128 0.1840 0.7685
vn 0.8856 0.1840 0.4265
vn 0.8710 0.2559 -0.4194
vn 0.9667 0.2559 -0.0000
vn 0.6027 0.2559 -0.7558
vn 0.2151 0.2559 -0.9425
vn -0.2151 0.2559 -0.9425
vn -0.6027 0.2559 -0.7558
vn -0.8710 0.2559 -0.4194
vn -0.9667 0.2559 -0.0000
vn -0.8710 0.2559 0.4194
vn -0.6027 0.2559 0.7558
vn -0.2151 0.2559 0.9425
vn 0.2151 0.2559 0.9425
vn 0.6027 0.2559 0.7558
vn 0.8710 0.2559 0.4194
vn 0.0000 -1.0000 -0.0000
vn 0.0000 1.0000 -0.0000
vn 0.0000 -0.9848 -0.1736
vn 0.0000 0.9848 0.1736
vn 0.0000 -0.1736 0.9848
vn 0.0000 0.1736 -0.9848
vn -0.9749 0.0000 0.2225
vn -0.9749 0.0000 -0.2225
vn -0.7818 0.0000 -0.6235
vn -0.4339 0.0000 -0.9010
vn 0.4339 0.0000 -0.9010
vn 0.7818 0.0000 -0.6235
vn 0.9749 0.0000 -0.2225
vn 0.9749 0.0000 0.2225
vn 0.7818 0.0000 0.6235
vn 0.4339 0.0000 0.9010
vn -0.4339 0.0000 0.9010
vn -0.7818 0.0000 0.6235
vn 0.0000 -0.9848 0.1736
vn 0.0000 0.9848 -0.1736
vn 0.0000 0.1736 0.9848
vn 0.0000 -0.1736 -0.9848
vn -0.1736 -0.9848 -0.0000
vn 0.1736 0.9848 -0.0000
vn -0.9848 0.1736 -0.0000
vn 0.9848 -0.1736 -0.0000
vn 0.1736 -0.9848 -0.0000
vn -0.1736 0.9848 -0.0000
vn -0.9848 -0.1736 -0.0000
vn 0.9848 0.1736 -0.0000
vn 1.0000 -0.0000 -0.0000
vn 1.0000 0.0000 0.0025
vn -1.0000 0.0000 0.0025
vn 1.0000 0.0000 0.0018
vn -1.0000 0.0000 0.0018
vn 1.0000 0.0000 0.0032
vn -1.0000 0.0000 0.0032
# 104 vertex normals

vt 0.4417 0.2826 0.0000
vt 0.4252 0.2826 0.0000
vt 0.4252 0.3772 0.0000
vt 0.4417 0.3772 0.0000
vt 0.3789 0.2826 0.0000
vt 0.3789 0.3772 0.0000
vt 0.3119 0.2826 0.0000
vt 0.3119 0.3772 0.0000
vt 0.2377 0.2826 0.0000
vt 0.2377 0.3772 0.0000
vt 0.1707 0.2826 0.0000
vt 0.1707 0.3772 0.0000
vt 0.1244 0.2826 0.0000
vt 0.1244 0.3772 0.0000
vt 0.1079 0.2826 0.0000
vt 0.1079 0.3772 0.0000
vt 0.4252 0.4715 0.0000
vt 0.4417 0.4715 0.0000
vt 0.3789 0.4715 0.0000
vt 0.3127 0.4715 0.0000
vt 0.2369 0.4715 0.0000
vt 0.1707 0.4715 0.0000
vt 0.1244 0.4715 0.0000
vt 0.1079 0.4715 0.0000
vt 0.2377 0.4715 0.0000
vt 0.3119 0.4715 0.0000
vt 0.4252 0.5665 0.0000
vt 0.4417 0.5665 0.0000
vt 0.3789 0.5665 0.0000
vt 0.3127 0.5665 0.0000
vt 0.2369 0.5665 0.0000
vt 0.1707 0.5665 0.0000
vt 0.1244 0.5665 0.0000
vt 0.1079 0.5665 0.0000
vt 0.2377 0.5665 0.0000
vt 0.3119 0.5665 0.0000
vt 0.4153 0.6608 0.0000
vt 0.4308 0.6608 0.0000
vt 0.3720 0.6608 0.0000
vt 0.3095 0.6608 0.0000
vt 0.2401 0.6608 0.0000
vt 0.1775 0.6608 0.0000
vt 0.1343 0.6608 0.0000
vt 0.1188 0.6608 0.0000
vt 0.3927 0.7553 0.0000
vt 0.4057 0.7553 0.0000
vt 0.3564 0.7553 0.0000
vt 0.3039 0.7553 0.0000
vt 0.2457 0.7553 0.0000
vt 0.1932 0.7553 0.0000
vt 0.1569 0.7553 0.0000
vt 0.1439 0.7553 0.0000
vt 0.9265 0.4428 0.0000
vt 0.8645 0.3629 0.0000
vt 0.7748 0.3186 0.0000
vt 0.6752 0.3186 0.0000
vt 0.5855 0.3629 0.0000
vt 0.5235 0.4428 0.0000
vt 0.5013 0.5423 0.0000
vt 0.5235 0.6419 0.0000
vt 0.5855 0.7217 0.0000
vt 0.6752 0.7660 0.0000
vt 0.7748 0.7660 0.0000
vt 0.8645 0.7217 0.0000
vt 0.9265 0.6419 0.0000
vt 0.9487 0.5423 0.0000
vt 0.1708 0.0770 0.0000
vt 0.1708 0.0750 0.0000
vt 0.1708 0.2976 0.0000
vt 0.1708 0.2996 0.0000
vt 0.3788 0.0750 0.0000
vt 0.3788 0.0770 0.0000
vt 0.3788 0.2996 0.0000
vt 0.3788 0.2976 0.0000
vt 0.0863 0.3072 0.0000
vt 0.0863 0.2960 0.0000
vt 0.4633 0.2960 0.0000
vt 0.4633 0.3072 0.0000
vt 0.2580 0.3072 0.0000
vt 0.2580 0.2960 0.0000
vt 0.2916 0.2960 0.0000
vt 0.2916 0.3072 0.0000
vt 0.3957 0.2826 0.0000
vt 0.3837 0.2826 0.0000
vt 0.3502 0.2826 0.0000
vt 0.3017 0.2826 0.0000
vt 0.2479 0.2826 0.0000
vt 0.1994 0.2826 0.0000
vt 0.1659 0.2826 0.0000
vt 0.1539 0.2826 0.0000
vt 0.3957 0.2904 0.0000
vt 0.3837 0.2904 0.0000
vt 0.3502 0.2904 0.0000
vt 0.3017 0.2904 0.0000
vt 0.2479 0.2904 0.0000
vt 0.1994 0.2904 0.0000
vt 0.1659 0.2904 0.0000
vt 0.1539 0.2904 0.0000
vt 0.0524 0.0750 0.0000
vt 0.0412 0.0770 0.0000
vt 0.0806 0.2996 0.0000
vt 0.0917 0.2976 0.0000
vt 0.5087 0.0770 0.0000
vt 0.4976 0.0750 0.0000
vt 0.4582 0.2976 0.0000
vt 0.4693 0.2996 0.0000
vt 0.2369 0.8232 0.0000
vt 0.3127 0.8232 0.0000
vt 0.3119 0.8232 0.0000
vt 0.2377 0.8232 0.0000
vt 0.3127 0.8116 0.0000
vt 0.2369 0.8116 0.0000
vt 0.2377 0.8117 0.0000
vt 0.3119 0.8117 0.0000
vt 0.3124 0.8232 0.0000
vt 0.3122 0.8232 0.0000
vt 0.3122 0.8116 0.0000
vt 0.3124 0.8116 0.0000
vt 0.2372 0.9250 0.0000
vt 0.2374 0.9250 0.0000
vt 0.3122 0.9250 0.0000
vt 0.3124 0.9250 0.0000
vt 0.2372 0.8116 0.0000
vt 0.2374 0.8116 0.0000
vt 0.2374 0.8232 0.0000
vt 0.2372 0.8232 0.0000
# 126 texture coords

g studio_light
usemtl wire_148177027
s 8
f 1/1/1 2/2/2 3/3/2 4/4/1 
f 2/2/2 5/5/3 6/6/4 3/3/2 
f 5/5/3 7/7/5 8/8/6 6/6/4 
f 7/7/5 9/9/7 10/10/8 8/8/6 
f 9/9/7 11/11/9 12/12/9 10/10/8 
f 11/11/9 13/13/10 14/14/10 12/12/9 
f 13/13/10 15/15/11 16/16/11 14/14/10 
f 15/15/11 17/13/12 18/14/12 16/16/11 
f 17/13/12 19/11/13 20/12/13 18/14/12 
f 19/11/13 21/9/14 22/10/14 20/12/13 
f 21/9/14 23/7/15 24/8/15 22/10/14 
f 23/7/15 25/5/16 26/6/16 24/8/15 
f 25/5/16 27/2/17 28/3/17 26/6/16 
f 27/2/17 1/1/1 4/4/1 28/3/17 
f 4/4/1 3/3/2 29/17/2 30/18/1 
f 3/3/2 6/6/4 31/19/18 29/17/2 
f 6/6/4 8/8/6 32/20/19 31/19/18 
f 8/8/6 10/10/8 33/21/20 32/20/19 
f 10/10/8 12/12/9 34/22/21 33/21/20 
f 12/12/9 14/14/10 35/23/10 34/22/21 
f 14/14/10 16/16/11 36/24/11 35/23/10 
f 16/16/11 18/14/12 37/23/12 36/24/11 
f 18/14/12 20/12/13 38/22/13 37/23/12 
f 20/12/13 22/10/14 39/25/22 38/22/13 
f 22/10/14 24/8/15 40/26/23 39/25/22 
f 24/8/15 26/6/16 41/19/16 40/26/23 
f 26/6/16 28/3/17 42/17/17 41/19/16 
f 28/3/17 4/4/1 30/18/1 42/17/17 
f 30/18/1 29/17/2 43/27/24 44/28/25 
f 29/17/2 31/19/18 45/29/26 43/27/24 
f 31/19/18 32/20/19 46/30/27 45/29/26 
f 47/20/28 48/21/28 49/31/28 50/30/28 
f 33/21/20 34/22/21 51/32/29 52/31/30 
f 34/22/21 35/23/10 53/33/31 51/32/29 
f 35/23/10 36/24/11 54/34/32 53/33/31 
f 36/24/11 37/23/12 55/33/33 54/34/32 
f 37/23/12 38/22/13 56/32/34 55/33/33 
f 38/22/13 39/25/22 57/35/35 56/32/34 
f 58/25/36 59/26/36 60/36/36 61/35/36 
f 40/26/23 41/19/16 62/29/37 63/36/38 
f 41/19/16 42/17/17 64/27/39 62/29/37 
f 42/17/17 30/18/1 44/28/25 64/27/39 
f 44/28/25 43/27/24 65/37/40 66/38/41 
f 43/27/24 45/29/26 67/39/42 65/37/40 
f 45/29/26 46/30/27 68/40/43 67/39/42 
f 46/30/27 52/31/30 69/41/44 68/40/43 
f 52/31/30 51/32/29 70/42/45 69/41/44 
f 51/32/29 53/33/31 71/43/46 70/42/45 
f 53/33/31 54/34/32 72/44/47 71/43/46 
f 54/34/32 55/33/33 73/43/48 72/44/47 
f 55/33/33 56/32/34 74/42/49 73/43/48 
f 56/32/34 57/35/35 75/41/50 74/42/49 
f 57/35/35 63/36/38 76/40/51 75/41/50 
f 63/36/38 62/29/37 77/39/52 76/40/51 
f 62/29/37 64/27/39 78/37/53 77/39/52 
f 64/27/39 44/28/25 66/38/41 78/37/53 
f 66/38/41 65/37/40 79/45/54 80/46/55 
f 65/37/40 67/39/42 81/47/56 79/45/54 
f 67/39/42 68/40/43 82/48/57 81/47/56 
f 68/40/43 69/41/44 83/49/58 82/48/57 
f 69/41/44 70/42/45 84/50/59 83/49/58 
f 70/42/45 71/43/46 85/51/60 84/50/59 
f 71/43/46 72/44/47 86/52/61 85/51/60 
f 72/44/47 73/43/48 87/51/62 86/52/61 
f 73/43/48 74/42/49 88/50/63 87/51/62 
f 74/42/49 75/41/50 89/49/64 88/50/63 
f 75/41/50 76/40/51 90/48/65 89/49/64 
f 76/40/51 77/39/52 91/47/66 90/48/65 
f 77/39/52 78/37/53 92/45/67 91/47/66 
f 78/37/53 66/38/41 80/46/55 92/45/67 
s 1
f 93/53/68 94/54/68 95/55/68 96/56/68 97/57/68 98/58/68 99/59/68 100/60/68 101/61/68 102/62/68 103/63/68 104/64/68 105/65/68 106/66/68 
f 80/46/69 79/45/69 81/47/69 82/48/69 83/49/69 84/50/69 85/51/69 86/52/69 87/51/69 88/50/69 89/49/69 90/48/69 91/47/69 92/45/69 
s off
f 107/67/11 108/68/11 109/69/11 110/70/11 
f 111/71/1 112/72/1 113/73/1 114/74/1 
f 112/72/70 111/71/70 108/68/70 107/67/70 
f 110/70/71 109/69/71 114/74/71 113/73/71 
f 108/68/72 111/71/72 114/74/72 109/69/72 
f 112/72/73 107/67/73 110/70/73 113/73/73 
f 115/75/11 116/76/11 117/76/11 118/75/11 
f 119/77/1 120/78/1 121/78/1 122/77/1 
f 120/78/28 119/77/28 116/76/28 115/75/28 
f 118/75/36 117/76/36 122/77/36 121/78/36 
f 116/76/68 119/77/68 122/77/68 117/76/68 
f 120/78/69 115/75/69 118/75/69 121/78/69 
f 123/79/36 124/80/36 125/81/36 126/82/36 
f 127/80/28 128/79/28 129/82/28 130/81/28 
f 128/79/11 127/80/11 124/80/11 123/79/11 
f 126/82/1 125/81/1 130/81/1 129/82/1 
f 124/80/68 127/80/68 130/81/68 125/81/68 
f 128/79/69 123/79/69 126/82/69 129/82/69 
f 2/2/68 1/1/68 131/83/68 132/84/68 
f 1/1/68 27/2/68 133/84/68 131/83/68 
f 27/2/68 25/5/68 134/85/68 133/84/68 
f 25/5/68 23/7/68 135/86/68 134/85/68 
f 23/7/68 21/9/68 136/87/68 135/86/68 
f 21/9/68 19/11/68 137/88/68 136/87/68 
f 19/11/68 17/13/68 138/89/68 137/88/68 
f 17/13/68 15/15/68 139/90/68 138/89/68 
f 15/15/68 13/13/68 140/89/68 139/90/68 
f 13/13/68 11/11/68 141/88/68 140/89/68 
f 11/11/68 9/9/68 142/87/68 141/88/68 
f 9/9/68 7/7/68 143/86/68 142/87/68 
f 7/7/68 5/5/68 144/85/68 143/86/68 
f 5/5/68 2/2/68 132/84/68 144/85/68 
f 132/84/74 131/83/74 106/91/74 105/92/74 
f 131/83/75 133/84/75 93/92/75 106/91/75 
f 133/84/76 134/85/76 94/93/76 93/92/76 
f 134/85/77 135/86/77 95/94/77 94/93/77 
f 135/86/28 136/87/28 96/95/28 95/94/28 
f 136/87/78 137/88/78 97/96/78 96/95/78 
f 137/88/79 138/89/79 98/97/79 97/96/79 
f 138/89/80 139/90/80 99/98/80 98/97/80 
f 139/90/81 140/89/81 100/97/81 99/98/81 
f 140/89/82 141/88/82 101/96/82 100/97/82 
f 141/88/83 142/87/83 102/95/83 101/96/83 
f 142/87/36 143/86/36 103/94/36 102/95/36 
f 143/86/84 144/85/84 104/93/84 103/94/84 
f 144/85/85 132/84/85 105/92/85 104/93/85 
f 145/68/11 146/67/11 147/70/11 148/69/11 
f 149/72/1 150/71/1 151/74/1 152/73/1 
f 150/71/86 149/72/86 146/67/86 145/68/86 
f 148/69/87 147/70/87 152/73/87 151/74/87 
f 146/67/88 149/72/88 152/73/88 147/70/88 
f 150/71/89 145/68/89 148/69/89 151/74/89 
f 153/99/28 154/100/28 155/101/28 156/102/28 
f 157/100/36 158/99/36 159/102/36 160/101/36 
f 158/99/90 157/100/90 154/100/90 153/99/90 
f 156/102/91 155/101/91 160/101/91 159/102/91 
f 154/100/92 157/100/92 160/101/92 155/101/92 
f 158/99/93 153/99/93 156/102/93 159/102/93 
f 161/103/28 162/104/28 163/105/28 164/106/28 
f 165/104/36 166/103/36 167/106/36 168/105/36 
f 166/103/94 165/104/94 162/104/94 161/103/94 
f 164/106/95 163/105/95 168/105/95 167/106/95 
f 162/104/96 165/104/96 168/105/96 163/105/96 
f 166/103/97 161/103/97 164/106/97 167/106/97 
f 32/20/68 33/21/68 169/21/68 170/20/68 
f 33/21/11 52/31/11 171/31/11 169/21/11 
f 52/31/69 46/30/69 172/30/69 171/31/69 
f 46/30/1 32/20/1 170/20/1 172/30/1 
f 39/25/68 40/26/68 173/26/68 174/25/68 
f 40/26/1 63/36/1 175/36/1 173/26/1 
f 63/36/69 57/35/69 176/35/69 175/36/69 
f 57/35/11 39/25/11 174/25/11 176/35/11 
f 170/20/68 169/21/68 48/21/68 47/20/68 
f 169/21/11 171/31/11 49/31/11 48/21/11 
f 177/107/69 178/108/69 179/108/69 180/107/69 
f 172/30/1 170/20/1 47/20/1 50/30/1 
f 174/25/68 173/26/68 59/26/68 58/25/68 
f 173/26/1 175/36/1 60/36/1 59/26/1 
f 181/109/69 182/110/69 183/110/69 184/109/69 
f 176/35/11 174/25/11 58/25/11 61/35/11 
f 171/31/36 172/30/36 185/111/36 186/112/36 
f 172/30/1 50/30/1 187/111/1 185/111/1 
f 50/30/28 49/31/28 188/112/28 187/111/28 
f 49/31/11 171/31/11 186/112/11 188/112/11 
f 175/36/28 176/35/28 189/113/28 190/114/28 
f 176/35/11 61/35/11 191/113/11 189/113/11 
f 61/35/36 60/36/36 192/114/36 191/113/36 
f 60/36/98 175/36/98 190/114/98 192/114/98 
f 185/111/1 187/111/1 179/108/1 178/108/1 
f 187/111/28 188/112/28 180/107/28 179/108/28 
f 188/112/11 186/112/11 177/107/11 180/107/11 
f 189/113/11 191/113/11 183/110/11 182/110/11 
f 191/113/36 192/114/36 184/109/36 183/110/36 
f 192/114/1 190/114/1 181/109/1 184/109/1 
s 1
f 193/115/99 194/116/99 195/117/99 196/118/99 
s 2
f 197/119/69 198/120/69 199/121/69 200/122/69 
s 1
f 201/123/100 202/124/100 203/125/100 204/126/100 
s 2
f 196/118/68 195/117/68 202/124/68 201/123/68 
s 1
f 194/116/99 181/109/101 190/114/101 195/117/99 
f 196/118/99 185/111/101 178/108/101 193/115/99 
s 2
f 203/125/69 182/110/69 181/109/69 194/116/69 
f 193/115/69 178/108/69 177/107/69 204/126/69 
s 1
f 202/124/100 189/113/102 182/110/102 203/125/100 
f 204/126/100 177/107/102 186/112/102 201/123/100 
s 2
f 195/117/68 190/114/68 189/113/68 202/124/68 
f 201/123/68 186/112/68 185/111/68 196/118/68 
s off
f 194/116/103 193/115/103 200/122/103 199/121/103 
f 193/115/28 204/126/28 197/119/28 200/122/28 
f 204/126/104 203/125/104 198/120/104 197/119/104 
f 203/125/36 194/116/36 199/121/36 198/120/36 
# 182 polygons

