# 3ds Max Wavefront OBJ Exporter v0.97b - (c)2007 guruware
# File Created: 14.05.2018 03:38:40

mtllib studio_chair.mtl

#
# object Cylinder003
#

v  0.2346 0.3204 -0.0000
v  0.2167 0.3204 -0.0898
v  0.2167 0.4655 -0.0898
v  0.2346 0.4655 -0.0000
v  0.1659 0.3204 -0.1659
v  0.1659 0.4655 -0.1659
v  0.0898 0.3204 -0.2167
v  0.0898 0.4655 -0.2167
v  -0.0000 0.3204 -0.2346
v  -0.0000 0.4655 -0.2346
v  -0.0898 0.3204 -0.2167
v  -0.0898 0.4655 -0.2167
v  -0.1659 0.3204 -0.1659
v  -0.1659 0.4655 -0.1659
v  -0.2167 0.3204 -0.0898
v  -0.2167 0.4655 -0.0898
v  -0.2346 0.3204 -0.0000
v  -0.2346 0.4655 -0.0000
v  -0.2167 0.3204 0.0898
v  -0.2167 0.4655 0.0898
v  -0.1659 0.3204 0.1659
v  -0.1659 0.4655 0.1659
v  -0.0898 0.3204 0.2167
v  -0.0898 0.4655 0.2167
v  0.0000 0.3204 0.2346
v  0.0000 0.4655 0.2346
v  0.0898 0.3204 0.2167
v  0.0898 0.4655 0.2167
v  0.1659 0.3204 0.1659
v  0.1659 0.4655 0.1659
v  0.2167 0.3204 0.0898
v  0.2167 0.4655 0.0898
v  0.0440 -0.4834 0.0182
v  0.0337 -0.4834 0.0337
v  0.0182 -0.4834 0.0440
v  -0.0000 -0.4834 0.0477
v  -0.0182 -0.4834 0.0440
v  -0.0337 -0.4834 0.0337
v  -0.0440 -0.4834 0.0182
v  -0.0477 -0.4834 -0.0000
v  -0.0440 -0.4834 -0.0182
v  -0.0337 -0.4834 -0.0337
v  -0.0182 -0.4834 -0.0440
v  -0.0000 -0.4834 -0.0477
v  0.0182 -0.4834 -0.0440
v  0.0337 -0.4834 -0.0337
v  0.0440 -0.4834 -0.0182
v  0.0477 -0.4834 0.0000
v  0.0477 0.3204 0.0000
v  0.0440 0.3204 -0.0182
v  0.0440 0.3204 0.0182
v  0.0337 0.3204 0.0337
v  0.0182 0.3204 0.0440
v  -0.0000 0.3204 0.0477
v  -0.0182 0.3204 0.0440
v  -0.0337 0.3204 0.0337
v  -0.0440 0.3204 0.0182
v  -0.0477 0.3204 -0.0000
v  -0.0440 0.3204 -0.0182
v  -0.0337 0.3204 -0.0337
v  -0.0182 0.3204 -0.0440
v  -0.0000 0.3204 -0.0477
v  0.0182 0.3204 -0.0440
v  0.0337 0.3204 -0.0337
v  0.0477 0.0367 0.0000
v  0.0440 0.0367 -0.0182
v  0.0440 0.0367 0.0182
v  0.0337 0.0367 0.0337
v  0.0182 0.0367 0.0440
v  -0.0000 0.0367 0.0477
v  -0.0182 0.0367 0.0440
v  -0.0337 0.0367 0.0337
v  -0.0440 0.0367 0.0182
v  -0.0477 0.0367 -0.0000
v  -0.0440 0.0367 -0.0182
v  -0.0337 0.0367 -0.0337
v  -0.0182 0.0367 -0.0440
v  -0.0000 0.0367 -0.0477
v  0.0182 0.0367 -0.0440
v  0.0337 0.0367 -0.0337
v  0.0500 0.0367 -0.0207
v  0.0541 0.0367 -0.0000
v  0.0541 -0.1280 -0.0000
v  0.0500 -0.1280 -0.0207
v  0.0500 0.0367 0.0207
v  0.0500 -0.1280 0.0207
v  0.0383 0.0367 0.0383
v  0.0383 -0.1280 0.0383
v  0.0207 0.0367 0.0500
v  0.0207 -0.1280 0.0500
v  -0.0000 0.0367 0.0541
v  -0.0000 -0.1280 0.0541
v  -0.0207 0.0367 0.0500
v  -0.0207 -0.1280 0.0500
v  -0.0383 0.0367 0.0383
v  -0.0383 -0.1280 0.0383
v  -0.0500 0.0367 0.0207
v  -0.0500 -0.1280 0.0207
v  -0.0541 0.0367 -0.0000
v  -0.0541 -0.1280 -0.0000
v  -0.0500 0.0367 -0.0207
v  -0.0500 -0.1280 -0.0207
v  -0.0383 0.0367 -0.0383
v  -0.0383 -0.1280 -0.0383
v  -0.0207 0.0367 -0.0500
v  -0.0207 -0.1280 -0.0500
v  0.0000 0.0367 -0.0541
v  0.0000 -0.1280 -0.0541
v  0.0207 0.0367 -0.0500
v  0.0207 -0.1280 -0.0500
v  0.0383 0.0367 -0.0383
v  0.0383 -0.1280 -0.0383
v  0.0477 -0.1745 0.0000
v  0.0440 -0.1745 -0.0182
v  0.0500 -0.1745 -0.0207
v  0.0541 -0.1745 -0.0000
v  0.0337 -0.1745 -0.0337
v  0.0383 -0.1745 -0.0383
v  0.0182 -0.1745 -0.0440
v  0.0207 -0.1745 -0.0500
v  -0.0000 -0.1745 -0.0477
v  0.0000 -0.1745 -0.0541
v  -0.0182 -0.1745 -0.0440
v  -0.0207 -0.1745 -0.0500
v  -0.0337 -0.1745 -0.0337
v  -0.0383 -0.1745 -0.0383
v  -0.0440 -0.1745 -0.0182
v  -0.0500 -0.1745 -0.0207
v  -0.0477 -0.1745 -0.0000
v  -0.0541 -0.1745 -0.0000
v  -0.0440 -0.1745 0.0182
v  -0.0500 -0.1745 0.0207
v  -0.0337 -0.1745 0.0337
v  -0.0383 -0.1745 0.0383
v  -0.0182 -0.1745 0.0440
v  -0.0207 -0.1745 0.0500
v  -0.0000 -0.1745 0.0477
v  -0.0000 -0.1745 0.0541
v  0.0182 -0.1745 0.0440
v  0.0207 -0.1745 0.0500
v  0.0337 -0.1745 0.0337
v  0.0383 -0.1745 0.0383
v  0.0440 -0.1745 0.0182
v  0.0500 -0.1745 0.0207
v  0.2126 -0.1280 -0.0298
v  0.2126 -0.1745 -0.0298
v  0.2078 -0.1745 -0.0538
v  0.2078 -0.1280 -0.0538
v  0.2019 -0.1280 0.0836
v  0.2019 -0.1745 0.0836
v  0.1545 -0.1280 0.1545
v  0.1545 -0.1745 0.1545
v  0.0521 -0.1280 0.2082
v  0.0521 -0.1745 0.2082
v  0.0315 -0.1280 0.2123
v  0.0315 -0.1745 0.2123
v  -0.0836 -0.1280 0.2019
v  -0.0836 -0.1745 0.2019
v  -0.1545 -0.1280 0.1545
v  -0.1545 -0.1745 0.1545
v  -0.2078 -0.1280 0.0538
v  -0.2078 -0.1745 0.0538
v  -0.2126 -0.1280 0.0298
v  -0.2126 -0.1745 0.0298
v  -0.2019 -0.1280 -0.0836
v  -0.2019 -0.1745 -0.0836
v  -0.1545 -0.1280 -0.1545
v  -0.1545 -0.1745 -0.1545
v  -0.0521 -0.1280 -0.2082
v  -0.0521 -0.1745 -0.2082
v  -0.0315 -0.1280 -0.2123
v  -0.0315 -0.1745 -0.2123
v  0.0836 -0.1280 -0.2019
v  0.0836 -0.1745 -0.2019
v  0.1545 -0.1280 -0.1545
v  0.1545 -0.1745 -0.1545
v  0.1763 -0.1745 -0.0472
v  0.1809 -0.1745 -0.0239
v  -0.0458 -0.1745 -0.1765
v  -0.0252 -0.1745 -0.1806
v  -0.1763 -0.1745 0.0472
v  -0.1809 -0.1745 0.0239
v  0.0458 -0.1745 0.1765
v  0.0252 -0.1745 0.1806
v  0.1809 -0.1280 -0.0239
v  0.1763 -0.1280 -0.0472
v  0.0252 -0.1280 0.1806
v  0.0458 -0.1280 0.1765
v  -0.1809 -0.1280 0.0239
v  -0.1763 -0.1280 0.0472
v  -0.0252 -0.1280 -0.1806
v  -0.0458 -0.1280 -0.1765
v  0.1313 -0.1745 -0.1313
v  0.0710 -0.1745 -0.1715
v  -0.1313 -0.1745 -0.1313
v  -0.1715 -0.1745 -0.0710
v  -0.1313 -0.1745 0.1313
v  -0.0710 -0.1745 0.1715
v  0.1313 -0.1745 0.1313
v  0.1715 -0.1745 0.0710
v  0.1715 -0.1280 0.0710
v  0.1313 -0.1280 0.1313
v  -0.0710 -0.1280 0.1715
v  -0.1313 -0.1280 0.1313
v  -0.1715 -0.1280 -0.0710
v  -0.1313 -0.1280 -0.1313
v  0.0710 -0.1280 -0.1715
v  0.1313 -0.1280 -0.1313
v  0.0477 -0.4566 0.0000
v  0.0440 -0.4566 -0.0182
v  0.0440 -0.4566 0.0182
v  0.0337 -0.4566 0.0337
v  0.0182 -0.4566 0.0440
v  -0.0000 -0.4566 0.0477
v  -0.0182 -0.4566 0.0440
v  -0.0337 -0.4566 0.0337
v  -0.0440 -0.4566 0.0182
v  -0.0477 -0.4566 -0.0000
v  -0.0440 -0.4566 -0.0182
v  -0.0337 -0.4566 -0.0337
v  -0.0182 -0.4566 -0.0440
v  -0.0000 -0.4566 -0.0477
v  0.0182 -0.4566 -0.0440
v  0.0337 -0.4566 -0.0337
v  0.1532 -0.4688 -0.0635
v  0.1658 -0.4688 -0.0000
v  0.1658 -0.4834 -0.0000
v  0.1532 -0.4834 -0.0635
v  0.1532 -0.4688 0.0635
v  0.1532 -0.4834 0.0635
v  0.1173 -0.4688 0.1173
v  0.1173 -0.4834 0.1173
v  0.0635 -0.4688 0.1532
v  0.0635 -0.4834 0.1532
v  -0.0000 -0.4688 0.1658
v  -0.0000 -0.4834 0.1658
v  -0.0635 -0.4688 0.1532
v  -0.0635 -0.4834 0.1532
v  -0.1173 -0.4688 0.1173
v  -0.1173 -0.4834 0.1173
v  -0.1532 -0.4688 0.0635
v  -0.1532 -0.4834 0.0635
v  -0.1658 -0.4688 -0.0000
v  -0.1658 -0.4834 -0.0000
v  -0.1532 -0.4688 -0.0635
v  -0.1532 -0.4834 -0.0635
v  -0.1173 -0.4688 -0.1173
v  -0.1173 -0.4834 -0.1173
v  -0.0635 -0.4688 -0.1532
v  -0.0635 -0.4834 -0.1532
v  -0.0000 -0.4688 -0.1658
v  -0.0000 -0.4834 -0.1658
v  0.0635 -0.4688 -0.1532
v  0.0635 -0.4834 -0.1532
v  0.1173 -0.4688 -0.1173
v  0.1173 -0.4834 -0.1173
# 256 vertices

vn 1.0000 0.0000 -0.0000
vn 0.9239 0.0000 -0.3827
vn 0.7071 0.0000 -0.7071
vn 0.3827 0.0000 -0.9239
vn 0.0000 0.0000 -1.0000
vn -0.3827 0.0000 -0.9239
vn -0.7071 0.0000 -0.7071
vn -0.9239 0.0000 -0.3827
vn -1.0000 0.0000 -0.0000
vn -0.9239 0.0000 0.3827
vn -0.7071 0.0000 0.7071
vn -0.3827 0.0000 0.9239
vn 0.0000 0.0000 1.0000
vn 0.3827 0.0000 0.9239
vn 0.7071 0.0000 0.7071
vn 0.9239 0.0000 0.3827
vn 0.0000 -1.0000 -0.0000
vn 0.0000 1.0000 -0.0000
vn 1.0000 -0.0000 -0.0000
vn 0.3827 -0.0000 0.9239
vn -0.0000 -0.0000 1.0000
vn -0.3827 -0.0000 0.9239
vn -0.7071 -0.0000 0.7071
vn -0.9239 -0.0000 0.3827
vn -1.0000 -0.0000 -0.0000
vn -0.9239 -0.0000 -0.3827
vn -0.0000 0.0000 -1.0000
vn -0.0000 0.0000 1.0000
vn 0.9987 0.0000 -0.0511
vn 0.9422 0.0000 -0.3349
vn 0.9422 0.0000 0.3349
vn 0.6684 0.0000 0.7438
vn 0.3329 0.0000 0.9430
vn 0.0533 0.0000 0.9986
vn -0.3329 0.0000 0.9430
vn -0.7423 0.0000 0.6700
vn -0.9422 0.0000 0.3349
vn -0.9987 0.0000 0.0511
vn -0.9422 0.0000 -0.3349
vn -0.6684 0.0000 -0.7438
vn -0.3329 0.0000 -0.9430
vn -0.0533 0.0000 -0.9986
vn 0.3329 0.0000 -0.9430
vn 0.7423 0.0000 -0.6700
vn -0.0000 -1.0000 0.0000
vn 0.0000 -1.0000 0.0000
vn -0.0000 -1.0000 -0.0000
vn 0.9808 0.0000 0.1951
vn 0.1850 0.0000 0.9827
vn -0.9415 0.0000 -0.3371
vn -0.9951 0.0000 -0.0984
vn -0.6702 0.0000 -0.7422
vn -0.4681 0.0000 -0.8837
vn 0.9809 0.0000 -0.1946
vn 0.5556 0.0000 0.8315
vn 0.8315 0.0000 0.5556
vn -0.1951 0.0000 0.9808
vn -0.9807 0.0000 0.1956
vn 0.3351 0.0000 -0.9422
vn 0.0943 0.0000 -0.9955
vn 0.7408 0.0000 -0.6717
vn 0.8817 0.0000 -0.4717
vn 0.2052 0.0000 0.9787
vn -0.8315 0.0000 0.5556
vn -0.5556 0.0000 0.8315
vn -0.9808 0.0000 -0.1951
vn -0.1850 0.0000 -0.9827
vn 0.9415 0.0000 0.3371
vn 0.9951 0.0000 0.0984
vn 0.6702 0.0000 0.7422
vn 0.4681 0.0000 0.8837
vn -0.9809 0.0000 0.1946
vn -0.5556 0.0000 -0.8315
vn -0.8315 0.0000 -0.5556
vn 0.1951 0.0000 -0.9808
vn 0.9807 0.0000 -0.1956
vn -0.3351 0.0000 0.9422
vn -0.0942 0.0000 0.9955
vn -0.7408 0.0000 0.6717
vn -0.8817 0.0000 0.4717
vn -0.2052 0.0000 -0.9787
vn 0.8315 0.0000 -0.5556
vn 0.5556 0.0000 -0.8315
vn 0.9239 -0.0000 -0.3827
vn 0.9239 -0.0000 0.3827
vn 0.7071 -0.0000 0.7071
vn -0.3827 -0.0000 -0.9239
vn -0.0000 -0.0000 -1.0000
vn 0.3827 -0.0000 -0.9239
vn 0.7071 -0.0000 -0.7071
vn -0.7071 -0.0000 -0.7071
vn 0.0642 0.9979 -0.0128
vn 0.0642 0.9979 0.0128
vn 0.0544 0.9979 0.0364
vn 0.0364 0.9979 0.0544
vn 0.0128 0.9979 0.0642
vn -0.0128 0.9979 0.0642
vn -0.0364 0.9979 0.0544
vn -0.0544 0.9979 0.0364
vn -0.0642 0.9979 0.0128
vn -0.0642 0.9979 -0.0128
vn -0.0544 0.9979 -0.0364
vn -0.0364 0.9979 -0.0544
vn -0.0128 0.9979 -0.0642
vn 0.0128 0.9979 -0.0642
vn 0.0364 0.9979 -0.0544
vn 0.0544 0.9979 -0.0364
# 107 vertex normals

vt 0.5124 0.8277 0.0000
vt 0.4267 0.8277 0.0000
vt 0.4267 0.9720 0.0000
vt 0.5124 0.9720 0.0000
vt 0.3540 0.8277 0.0000
vt 0.3540 0.9720 0.0000
vt 0.3055 0.8277 0.0000
vt 0.3055 0.9720 0.0000
vt 0.2884 0.8277 0.0000
vt 0.2884 0.9720 0.0000
vt 0.5981 0.8277 0.0000
vt 0.5981 0.9720 0.0000
vt 0.6707 0.8277 0.0000
vt 0.6707 0.9720 0.0000
vt 0.7193 0.8277 0.0000
vt 0.7193 0.9720 0.0000
vt 0.7363 0.8277 0.0000
vt 0.7363 0.9720 0.0000
vt 0.5298 0.0280 0.0000
vt 0.5445 0.0280 0.0000
vt 0.5544 0.0280 0.0000
vt 0.5579 0.0280 0.0000
vt 0.5124 0.0280 0.0000
vt 0.4949 0.0280 0.0000
vt 0.4802 0.0280 0.0000
vt 0.4703 0.0280 0.0000
vt 0.4669 0.0280 0.0000
vt 0.4949 0.8277 0.0000
vt 0.5298 0.8277 0.0000
vt 0.5445 0.8277 0.0000
vt 0.5544 0.8277 0.0000
vt 0.5579 0.8277 0.0000
vt 0.4802 0.8277 0.0000
vt 0.4703 0.8277 0.0000
vt 0.4669 0.8277 0.0000
vt 0.5124 0.5454 0.0000
vt 0.4949 0.5454 0.0000
vt 0.5298 0.5454 0.0000
vt 0.5445 0.5454 0.0000
vt 0.5544 0.5454 0.0000
vt 0.5579 0.5454 0.0000
vt 0.4802 0.5454 0.0000
vt 0.4703 0.5454 0.0000
vt 0.4669 0.5454 0.0000
vt 0.4926 0.5454 0.0000
vt 0.5124 0.3815 0.0000
vt 0.4926 0.3815 0.0000
vt 0.5321 0.5454 0.0000
vt 0.5321 0.3815 0.0000
vt 0.5489 0.5454 0.0000
vt 0.5489 0.3815 0.0000
vt 0.5601 0.5454 0.0000
vt 0.5601 0.3815 0.0000
vt 0.5640 0.5454 0.0000
vt 0.5640 0.3815 0.0000
vt 0.4758 0.5454 0.0000
vt 0.4758 0.3815 0.0000
vt 0.4646 0.5454 0.0000
vt 0.4646 0.3815 0.0000
vt 0.4607 0.5454 0.0000
vt 0.4607 0.3815 0.0000
vt 0.5124 0.3353 0.0000
vt 0.4949 0.3353 0.0000
vt 0.4926 0.3353 0.0000
vt 0.4802 0.3353 0.0000
vt 0.4758 0.3353 0.0000
vt 0.4703 0.3353 0.0000
vt 0.4646 0.3353 0.0000
vt 0.4669 0.3353 0.0000
vt 0.4607 0.3353 0.0000
vt 0.5298 0.3353 0.0000
vt 0.5321 0.3353 0.0000
vt 0.5445 0.3353 0.0000
vt 0.5489 0.3353 0.0000
vt 0.5544 0.3353 0.0000
vt 0.5601 0.3353 0.0000
vt 0.5579 0.3353 0.0000
vt 0.5640 0.3353 0.0000
vt 0.4839 0.3815 0.0000
vt 0.4839 0.3353 0.0000
vt 0.4610 0.3353 0.0000
vt 0.4610 0.3815 0.0000
vt 0.5922 0.3815 0.0000
vt 0.5922 0.3353 0.0000
vt 0.6599 0.3815 0.0000
vt 0.6599 0.3353 0.0000
vt 0.7111 0.3815 0.0000
vt 0.7111 0.3353 0.0000
vt 0.7150 0.3815 0.0000
vt 0.7150 0.3353 0.0000
vt 0.7051 0.3815 0.0000
vt 0.7051 0.3353 0.0000
vt 0.5637 0.3815 0.0000
vt 0.5637 0.3353 0.0000
vt 0.5408 0.3815 0.0000
vt 0.5408 0.3353 0.0000
vt 0.4325 0.3815 0.0000
vt 0.4325 0.3353 0.0000
vt 0.3648 0.3815 0.0000
vt 0.3648 0.3353 0.0000
vt 0.3136 0.3815 0.0000
vt 0.3136 0.3353 0.0000
vt 0.3097 0.3815 0.0000
vt 0.3097 0.3353 0.0000
vt 0.3196 0.3815 0.0000
vt 0.3196 0.3353 0.0000
vt 0.4673 0.3353 0.0000
vt 0.4896 0.3353 0.0000
vt 0.3438 0.3353 0.0000
vt 0.3399 0.3353 0.0000
vt 0.5574 0.3353 0.0000
vt 0.5352 0.3353 0.0000
vt 0.6809 0.3353 0.0000
vt 0.6848 0.3353 0.0000
vt 0.4896 0.3815 0.0000
vt 0.4673 0.3815 0.0000
vt 0.6848 0.3815 0.0000
vt 0.6809 0.3815 0.0000
vt 0.5352 0.3815 0.0000
vt 0.5574 0.3815 0.0000
vt 0.3399 0.3815 0.0000
vt 0.3438 0.3815 0.0000
vt 0.3870 0.3353 0.0000
vt 0.3486 0.3353 0.0000
vt 0.4445 0.3353 0.0000
vt 0.6377 0.3353 0.0000
vt 0.6761 0.3353 0.0000
vt 0.5802 0.3353 0.0000
vt 0.5802 0.3815 0.0000
vt 0.6377 0.3815 0.0000
vt 0.6761 0.3815 0.0000
vt 0.4445 0.3815 0.0000
vt 0.3870 0.3815 0.0000
vt 0.3486 0.3815 0.0000
vt 0.5124 0.0546 0.0000
vt 0.4949 0.0546 0.0000
vt 0.5298 0.0546 0.0000
vt 0.5445 0.0546 0.0000
vt 0.5544 0.0546 0.0000
vt 0.5579 0.0546 0.0000
vt 0.4802 0.0546 0.0000
vt 0.4703 0.0546 0.0000
vt 0.4669 0.0546 0.0000
vt 0.4518 0.0425 0.0000
vt 0.5124 0.0425 0.0000
vt 0.4518 0.0280 0.0000
vt 0.5730 0.0425 0.0000
vt 0.5730 0.0280 0.0000
vt 0.6243 0.0425 0.0000
vt 0.6243 0.0280 0.0000
vt 0.6586 0.0425 0.0000
vt 0.6586 0.0280 0.0000
vt 0.6707 0.0425 0.0000
vt 0.6707 0.0280 0.0000
vt 0.4004 0.0425 0.0000
vt 0.4004 0.0280 0.0000
vt 0.3661 0.0425 0.0000
vt 0.3661 0.0280 0.0000
vt 0.3540 0.0425 0.0000
vt 0.3540 0.0280 0.0000
# 160 texture coords

g Cylinder003
usemtl wire_006135058
s 8
f 1/1/1 2/2/2 3/3/2 4/4/1 
f 2/2/2 5/5/3 6/6/3 3/3/2 
f 5/5/3 7/7/4 8/8/4 6/6/3 
f 7/7/4 9/9/5 10/10/5 8/8/4 
f 9/9/5 11/7/6 12/8/6 10/10/5 
f 11/7/6 13/5/7 14/6/7 12/8/6 
f 13/5/7 15/2/8 16/3/8 14/6/7 
f 15/2/8 17/1/9 18/4/9 16/3/8 
f 17/1/9 19/11/10 20/12/10 18/4/9 
f 19/11/10 21/13/11 22/14/11 20/12/10 
f 21/13/11 23/15/12 24/16/12 22/14/11 
f 23/15/12 25/17/13 26/18/13 24/16/12 
f 25/17/13 27/15/14 28/16/14 26/18/13 
f 27/15/14 29/13/15 30/14/15 28/16/14 
f 29/13/15 31/11/16 32/12/16 30/14/15 
f 31/11/16 1/1/1 4/4/1 32/12/16 
s 1
f 33/19/17 34/20/17 35/21/17 36/22/17 37/21/17 38/20/17 39/19/17 40/23/17 41/24/17 42/25/17 43/26/17 44/27/17 45/26/17 46/25/17 47/24/17 48/23/17 
f 4/4/18 3/3/18 6/6/18 8/8/18 10/10/18 12/8/18 14/6/18 16/3/18 18/4/18 20/12/18 22/14/18 24/16/18 26/18/18 28/16/18 30/14/18 32/12/18 
s off
f 2/2/17 1/1/17 49/1/17 50/28/17 
f 1/1/17 31/11/17 51/29/17 49/1/17 
f 31/11/17 29/13/17 52/30/17 51/29/17 
f 29/13/17 27/15/17 53/31/17 52/30/17 
f 27/15/17 25/17/17 54/32/17 53/31/17 
f 25/17/17 23/15/17 55/31/17 54/32/17 
f 23/15/17 21/13/17 56/30/17 55/31/17 
f 21/13/17 19/11/17 57/29/17 56/30/17 
f 19/11/17 17/1/17 58/1/17 57/29/17 
f 17/1/17 15/2/17 59/28/17 58/1/17 
f 15/2/17 13/5/17 60/33/17 59/28/17 
f 13/5/17 11/7/17 61/34/17 60/33/17 
f 11/7/17 9/9/17 62/35/17 61/34/17 
f 9/9/17 7/7/17 63/34/17 62/35/17 
f 7/7/17 5/5/17 64/33/17 63/34/17 
f 5/5/17 2/2/17 50/28/17 64/33/17 
s 8
f 50/28/2 49/1/1 65/36/19 66/37/2 
f 49/1/1 51/29/16 67/38/16 65/36/19 
f 51/29/16 52/30/15 68/39/15 67/38/16 
f 52/30/15 53/31/20 69/40/20 68/39/15 
f 53/31/20 54/32/21 70/41/21 69/40/20 
f 54/32/21 55/31/22 71/40/22 70/41/21 
f 55/31/22 56/30/11 72/39/23 71/40/22 
f 56/30/11 57/29/24 73/38/24 72/39/23 
f 57/29/24 58/1/25 74/36/25 73/38/24 
f 58/1/25 59/28/26 75/37/26 74/36/25 
f 59/28/26 60/33/7 76/42/7 75/37/26 
f 60/33/7 61/34/6 77/43/6 76/42/7 
f 61/34/6 62/35/27 78/44/27 77/43/6 
f 62/35/27 63/34/4 79/43/4 78/44/27 
f 63/34/4 64/33/3 80/42/3 79/43/4 
f 64/33/3 50/28/2 66/37/2 80/42/3 
f 81/45/2 82/36/1 83/46/1 84/47/2 
f 82/36/1 85/48/16 86/49/16 83/46/1 
f 85/48/16 87/50/15 88/51/15 86/49/16 
f 87/50/15 89/52/14 90/53/14 88/51/15 
f 89/52/14 91/54/28 92/55/28 90/53/14 
f 91/54/28 93/52/12 94/53/12 92/55/28 
f 93/52/12 95/50/11 96/51/11 94/53/12 
f 95/50/11 97/48/10 98/49/10 96/51/11 
f 97/48/10 99/36/9 100/46/9 98/49/10 
f 99/36/9 101/45/8 102/47/8 100/46/9 
f 101/45/8 103/56/7 104/57/7 102/47/8 
f 103/56/7 105/58/6 106/59/6 104/57/7 
f 105/58/6 107/60/5 108/61/5 106/59/6 
f 107/60/5 109/58/4 110/59/4 108/61/5 
f 109/58/4 111/56/3 112/57/3 110/59/4 
f 111/56/3 81/45/2 84/47/2 112/57/3 
s off
f 66/37/18 65/36/18 82/36/18 81/45/18 
f 65/36/18 67/38/18 85/48/18 82/36/18 
f 67/38/18 68/39/18 87/50/18 85/48/18 
f 68/39/18 69/40/18 89/52/18 87/50/18 
f 69/40/18 70/41/18 91/54/18 89/52/18 
f 70/41/18 71/40/18 93/52/18 91/54/18 
f 71/40/18 72/39/18 95/50/18 93/52/18 
f 72/39/18 73/38/18 97/48/18 95/50/18 
f 73/38/18 74/36/18 99/36/18 97/48/18 
f 74/36/18 75/37/18 101/45/18 99/36/18 
f 75/37/18 76/42/18 103/56/18 101/45/18 
f 76/42/18 77/43/18 105/58/18 103/56/18 
f 77/43/18 78/44/18 107/60/18 105/58/18 
f 78/44/18 79/43/18 109/58/18 107/60/18 
f 79/43/18 80/42/18 111/56/18 109/58/18 
f 80/42/18 66/37/18 81/45/18 111/56/18 
f 113/62/17 114/63/17 115/64/17 116/62/17 
f 114/63/17 117/65/17 118/66/17 115/64/17 
f 117/65/17 119/67/17 120/68/17 118/66/17 
f 119/67/17 121/69/17 122/70/17 120/68/17 
f 121/69/17 123/67/17 124/68/17 122/70/17 
f 123/67/17 125/65/17 126/66/17 124/68/17 
f 125/65/17 127/63/17 128/64/17 126/66/17 
f 127/63/17 129/62/17 130/62/17 128/64/17 
f 129/62/17 131/71/17 132/72/17 130/62/17 
f 131/71/17 133/73/17 134/74/17 132/72/17 
f 133/73/17 135/75/17 136/76/17 134/74/17 
f 135/75/17 137/77/17 138/78/17 136/76/17 
f 137/77/17 139/75/17 140/76/17 138/78/17 
f 139/75/17 141/73/17 142/74/17 140/76/17 
f 141/73/17 143/71/17 144/72/17 142/74/17 
f 143/71/17 113/62/17 116/62/17 144/72/17 
s 8
f 145/79/29 146/80/29 147/81/30 148/82/30 
f 149/83/31 150/84/31 146/80/29 145/79/29 
f 151/85/32 152/86/32 150/84/31 149/83/31 
f 153/87/33 154/88/33 152/86/32 151/85/32 
f 155/89/34 156/90/34 154/88/33 153/87/33 
f 157/91/35 158/92/35 156/90/34 155/89/34 
f 159/85/36 160/86/36 158/92/35 157/91/35 
f 161/93/37 162/94/37 160/86/36 159/85/36 
f 163/95/38 164/96/38 162/94/37 161/93/37 
f 165/97/39 166/98/39 164/96/38 163/95/38 
f 167/99/40 168/100/40 166/98/39 165/97/39 
f 169/101/41 170/102/41 168/100/40 167/99/40 
f 171/103/42 172/104/42 170/102/41 169/101/41 
f 173/105/43 174/106/43 172/104/42 171/103/42 
f 175/99/44 176/100/44 174/106/43 173/105/43 
f 148/82/30 147/81/30 176/100/44 175/99/44 
s off
f 116/62/45 115/64/45 177/107/45 178/108/45 
f 122/70/46 124/68/46 179/109/46 180/110/46 
f 130/62/17 132/72/17 181/111/17 182/112/17 
f 138/78/47 140/76/47 183/113/47 184/114/47 
f 84/47/18 83/46/18 185/115/18 186/116/18 
f 90/53/18 92/55/18 187/117/18 188/118/18 
f 98/49/18 100/46/18 189/119/18 190/120/18 
f 106/59/18 108/61/18 191/121/18 192/122/18 
f 193/123/47 176/100/47 147/81/47 177/107/47 
f 194/124/17 174/106/17 176/100/17 193/123/17 
f 180/110/46 172/104/46 174/106/46 194/124/46 
f 195/123/45 168/100/45 170/102/45 179/109/45 
f 196/125/17 166/98/17 168/100/17 195/123/17 
f 182/112/17 164/96/17 166/98/17 196/125/17 
f 197/126/46 160/86/46 162/94/46 181/111/46 
f 198/127/17 158/92/17 160/86/17 197/126/17 
f 184/114/47 156/90/47 158/92/47 198/127/47 
f 199/126/17 152/86/17 154/88/17 183/113/17 
f 200/128/17 150/84/17 152/86/17 199/126/17 
f 178/108/45 146/80/45 150/84/45 200/128/45 
f 185/115/18 145/79/18 148/82/18 186/116/18 
f 201/129/18 149/83/18 145/79/18 185/115/18 
f 202/130/18 151/85/18 149/83/18 201/129/18 
f 188/118/18 153/87/18 151/85/18 202/130/18 
f 187/117/18 155/89/18 153/87/18 188/118/18 
f 203/131/18 157/91/18 155/89/18 187/117/18 
f 204/130/18 159/85/18 157/91/18 203/131/18 
f 190/120/18 161/93/18 159/85/18 204/130/18 
f 189/119/18 163/95/18 161/93/18 190/120/18 
f 205/132/18 165/97/18 163/95/18 189/119/18 
f 206/133/18 167/99/18 165/97/18 205/132/18 
f 192/122/18 169/101/18 167/99/18 206/133/18 
f 191/121/18 171/103/18 169/101/18 192/122/18 
f 207/134/18 173/105/18 171/103/18 191/121/18 
f 208/133/18 175/99/18 173/105/18 207/134/18 
f 186/116/18 148/82/18 175/99/18 208/133/18 
s 1
f 83/46/48 86/49/48 144/72/48 116/62/48 
s 2
f 185/115/49 83/46/49 116/62/49 178/108/49 
s 1
f 201/129/50 185/115/51 178/108/51 200/128/50 
f 202/130/52 201/129/50 200/128/50 199/126/52 
f 188/118/53 202/130/52 199/126/52 183/113/53 
s 2
f 90/53/54 188/118/54 183/113/54 140/76/54 
s 1
f 88/51/55 90/53/55 140/76/55 142/74/55 
s 2
f 86/49/56 88/51/56 142/74/56 144/72/56 
s 1
f 92/55/57 94/53/57 136/76/57 138/78/57 
s 2
f 187/117/58 92/55/58 138/78/58 184/114/58 
s 1
f 203/131/59 187/117/60 184/114/60 198/127/59 
f 204/130/61 203/131/59 198/127/59 197/126/61 
f 190/120/62 204/130/61 197/126/61 181/111/62 
s 2
f 98/49/63 190/120/63 181/111/63 132/72/63 
s 1
f 96/51/64 98/49/64 132/72/64 134/74/64 
s 2
f 94/53/65 96/51/65 134/74/65 136/76/65 
s 1
f 100/46/66 102/47/66 128/64/66 130/62/66 
s 2
f 189/119/67 100/46/67 130/62/67 182/112/67 
s 1
f 205/132/68 189/119/69 182/112/69 196/125/68 
f 206/133/70 205/132/68 196/125/68 195/123/70 
f 192/122/71 206/133/70 195/123/70 179/109/71 
s 2
f 106/59/72 192/122/72 179/109/72 124/68/72 
s 1
f 104/57/73 106/59/73 124/68/73 126/66/73 
s 2
f 102/47/74 104/57/74 126/66/74 128/64/74 
s 1
f 108/61/75 110/59/75 120/68/75 122/70/75 
s 2
f 191/121/76 108/61/76 122/70/76 180/110/76 
s 1
f 207/134/77 191/121/78 180/110/78 194/124/77 
f 208/133/79 207/134/77 194/124/77 193/123/79 
f 186/116/80 208/133/79 193/123/79 177/107/80 
s 2
f 84/47/81 186/116/81 177/107/81 115/64/81 
s 1
f 112/57/82 84/47/82 115/64/82 118/66/82 
s 2
f 110/59/83 112/57/83 118/66/83 120/68/83 
s 4
f 183/113/17 154/88/17 156/90/17 184/114/17 
f 177/107/17 147/81/17 146/80/17 178/108/17 
f 179/109/17 170/102/17 172/104/17 180/110/17 
f 181/111/17 162/94/17 164/96/17 182/112/17 
s 8
f 114/63/84 113/62/19 209/135/19 210/136/84 
f 113/62/19 143/71/85 211/137/16 209/135/19 
f 143/71/85 141/73/86 212/138/86 211/137/16 
f 141/73/86 139/75/14 213/139/20 212/138/86 
f 139/75/14 137/77/28 214/140/28 213/139/20 
f 137/77/28 135/75/12 215/139/12 214/140/28 
f 135/75/12 133/73/11 216/138/11 215/139/12 
f 133/73/11 131/71/10 217/137/10 216/138/11 
f 131/71/10 129/62/9 218/135/9 217/137/10 
f 129/62/9 127/63/8 219/136/8 218/135/9 
f 127/63/8 125/65/7 220/141/7 219/136/8 
f 125/65/7 123/67/87 221/142/87 220/141/7 
f 123/67/87 121/69/88 222/143/88 221/142/87 
f 121/69/88 119/67/89 223/142/89 222/143/88 
f 119/67/89 117/65/90 224/141/90 223/142/89 
f 117/65/90 114/63/84 210/136/84 224/141/90 
f 225/144/84 226/145/1 227/23/19 228/146/84 
f 226/145/1 229/147/16 230/148/16 227/23/19 
f 229/147/16 231/149/86 232/150/15 230/148/16 
f 231/149/86 233/151/20 234/152/20 232/150/15 
f 233/151/20 235/153/21 236/154/21 234/152/20 
f 235/153/21 237/151/22 238/152/22 236/154/21 
f 237/151/22 239/149/11 240/150/23 238/152/22 
f 239/149/11 241/147/24 242/148/10 240/150/23 
f 241/147/24 243/145/25 244/23/25 242/148/10 
f 243/145/25 245/144/8 246/146/26 244/23/25 
f 245/144/8 247/155/91 248/156/7 246/146/26 
f 247/155/91 249/157/87 250/158/87 248/156/7 
f 249/157/87 251/159/88 252/160/88 250/158/87 
f 251/159/88 253/157/89 254/158/89 252/160/88 
f 253/157/89 255/155/90 256/156/90 254/158/89 
f 255/155/90 225/144/84 228/146/84 256/156/90 
s off
f 210/136/92 209/135/92 226/145/92 225/144/92 
f 209/135/93 211/137/93 229/147/93 226/145/93 
f 211/137/94 212/138/94 231/149/94 229/147/94 
f 212/138/95 213/139/95 233/151/95 231/149/95 
f 213/139/96 214/140/96 235/153/96 233/151/96 
f 214/140/97 215/139/97 237/151/97 235/153/97 
f 215/139/98 216/138/98 239/149/98 237/151/98 
f 216/138/99 217/137/99 241/147/99 239/149/99 
f 217/137/100 218/135/100 243/145/100 241/147/100 
f 218/135/101 219/136/101 245/144/101 243/145/101 
f 219/136/102 220/141/102 247/155/102 245/144/102 
f 220/141/103 221/142/103 249/157/103 247/155/103 
f 221/142/104 222/143/104 251/159/104 249/157/104 
f 222/143/105 223/142/105 253/157/105 251/159/105 
f 223/142/106 224/141/106 255/155/106 253/157/106 
f 224/141/107 210/136/107 225/144/107 255/155/107 
f 48/23/17 47/24/17 228/146/17 227/23/17 
f 47/24/17 46/25/17 256/156/17 228/146/17 
f 46/25/17 45/26/17 254/158/17 256/156/17 
f 45/26/17 44/27/17 252/160/17 254/158/17 
f 44/27/17 43/26/17 250/158/17 252/160/17 
f 43/26/17 42/25/17 248/156/17 250/158/17 
f 42/25/17 41/24/17 246/146/17 248/156/17 
f 41/24/17 40/23/17 244/23/17 246/146/17 
f 40/23/17 39/19/17 242/148/17 244/23/17 
f 39/19/17 38/20/17 240/150/17 242/148/17 
f 38/20/17 37/21/17 238/152/17 240/150/17 
f 37/21/17 36/22/17 236/154/17 238/152/17 
f 36/22/17 35/21/17 234/152/17 236/154/17 
f 35/21/17 34/20/17 232/150/17 234/152/17 
f 34/20/17 33/19/17 230/148/17 232/150/17 
f 33/19/17 48/23/17 227/23/17 230/148/17 
# 250 polygons

