# 3ds Max Wavefront OBJ Exporter v0.97b - (c)2007 guruware
# File Created: 13.05.2018 20:04:00

mtllib studio_databox_vol2.mtl

#
# object Box008
#

v  -0.4508 -0.4708 0.4094
v  -0.4508 -0.4708 -0.4094
v  0.4508 -0.4708 -0.4094
v  0.4508 -0.4708 0.4094
v  -0.4508 0.4307 0.4094
v  0.4508 0.4307 0.4094
v  0.4508 0.4307 -0.4094
v  -0.4508 0.4307 -0.4094
v  -0.4508 0.2504 0.4094
v  -0.4508 0.0701 0.4094
v  -0.4508 -0.1102 0.4094
v  -0.4508 -0.2905 0.4094
v  -0.4508 -0.2905 -0.4094
v  -0.4508 -0.1102 -0.4094
v  -0.4508 0.0701 -0.4094
v  -0.4508 0.2504 -0.4094
v  0.4230 -0.1012 0.4012
v  0.4230 0.0611 0.4012
v  0.4230 0.0611 -0.4012
v  0.4230 -0.1012 -0.4012
v  0.4230 0.2595 0.4012
v  0.4230 0.4217 0.4012
v  0.4230 0.4217 -0.4012
v  0.4230 0.2595 -0.4012
v  0.4230 0.0792 0.4012
v  0.4230 0.2414 0.4012
v  0.4230 0.2414 -0.4012
v  0.4230 0.0792 -0.4012
v  0.4230 -0.1192 -0.4012
v  0.4230 -0.2815 -0.4012
v  0.4230 -0.2815 0.4012
v  0.4230 -0.1192 0.4012
v  -0.4508 0.0611 0.4012
v  -0.4508 -0.1012 0.4012
v  -0.4508 0.0611 -0.4012
v  -0.4508 -0.1012 -0.4012
v  -0.4508 -0.1192 0.4012
v  -0.4508 -0.2815 0.4012
v  -0.4508 -0.1192 -0.4012
v  -0.4508 -0.2815 -0.4012
v  -0.4508 0.2414 0.4012
v  -0.4508 0.0792 0.4012
v  -0.4508 0.2414 -0.4012
v  -0.4508 0.0792 -0.4012
v  -0.4508 0.4217 -0.4012
v  -0.4508 0.4217 0.4012
v  -0.4508 0.2595 -0.4012
v  -0.4508 0.2595 0.4012
v  -0.4197 -0.2801 0.3781
v  -0.4197 -0.2801 -0.3612
v  0.4197 -0.2801 -0.3612
v  0.4197 -0.2801 0.3781
v  -0.4197 -0.1333 -0.3612
v  -0.4197 -0.1333 0.3781
v  0.4197 -0.1333 0.3781
v  0.4197 -0.1333 -0.3612
v  -0.4004 -0.2072 0.3162
v  -0.4004 -0.1896 0.3132
v  -0.4534 -0.1896 0.3132
v  -0.4534 -0.2072 0.3162
v  -0.4004 -0.1742 0.3043
v  -0.4534 -0.1742 0.3043
v  -0.4004 -0.1628 0.2906
v  -0.4534 -0.1628 0.2906
v  -0.4004 -0.1567 0.2739
v  -0.4534 -0.1567 0.2739
v  -0.4004 -0.1567 0.2561
v  -0.4534 -0.1567 0.2561
v  -0.4004 -0.1628 0.2393
v  -0.4534 -0.1628 0.2393
v  -0.4004 -0.1742 0.2257
v  -0.4534 -0.1742 0.2257
v  -0.4004 -0.1896 0.2168
v  -0.4534 -0.1896 0.2168
v  -0.4004 -0.2072 0.2137
v  -0.4534 -0.2072 0.2137
v  -0.4004 -0.2247 0.2168
v  -0.4534 -0.2247 0.2168
v  -0.4004 -0.2401 0.2257
v  -0.4534 -0.2401 0.2257
v  -0.4004 -0.2516 0.2393
v  -0.4534 -0.2516 0.2393
v  -0.4004 -0.2577 0.2561
v  -0.4534 -0.2577 0.2561
v  -0.4004 -0.2577 0.2739
v  -0.4534 -0.2577 0.2739
v  -0.4004 -0.2516 0.2906
v  -0.4534 -0.2516 0.2906
v  -0.4004 -0.2401 0.3043
v  -0.4534 -0.2401 0.3043
v  -0.4004 -0.2247 0.3132
v  -0.4534 -0.2247 0.3132
v  -0.4197 -0.0994 0.3781
v  -0.4197 -0.0994 -0.3612
v  0.4197 -0.0994 -0.3612
v  0.4197 -0.0994 0.3781
v  -0.4197 0.0474 -0.3612
v  -0.4197 0.0474 0.3781
v  0.4197 0.0474 0.3781
v  0.4197 0.0474 -0.3612
v  -0.4004 -0.0265 0.3162
v  -0.4004 -0.0089 0.3132
v  -0.4534 -0.0089 0.3132
v  -0.4534 -0.0265 0.3162
v  -0.4004 0.0065 0.3043
v  -0.4534 0.0065 0.3043
v  -0.4004 0.0179 0.2906
v  -0.4534 0.0179 0.2906
v  -0.4004 0.0240 0.2739
v  -0.4534 0.0240 0.2739
v  -0.4004 0.0240 0.2561
v  -0.4534 0.0240 0.2561
v  -0.4004 0.0179 0.2393
v  -0.4534 0.0179 0.2393
v  -0.4004 0.0065 0.2257
v  -0.4534 0.0065 0.2257
v  -0.4004 -0.0089 0.2168
v  -0.4534 -0.0089 0.2168
v  -0.4004 -0.0265 0.2137
v  -0.4534 -0.0265 0.2137
v  -0.4004 -0.0440 0.2168
v  -0.4534 -0.0440 0.2168
v  -0.4004 -0.0594 0.2257
v  -0.4534 -0.0594 0.2257
v  -0.4004 -0.0709 0.2393
v  -0.4534 -0.0709 0.2393
v  -0.4004 -0.0770 0.2561
v  -0.4534 -0.0770 0.2561
v  -0.4004 -0.0770 0.2739
v  -0.4534 -0.0770 0.2739
v  -0.4004 -0.0709 0.2906
v  -0.4534 -0.0709 0.2906
v  -0.4004 -0.0594 0.3043
v  -0.4534 -0.0594 0.3043
v  -0.4004 -0.0440 0.3132
v  -0.4534 -0.0440 0.3132
v  -0.4197 0.2612 0.3781
v  -0.4197 0.2612 -0.3612
v  0.4197 0.2612 -0.3612
v  0.4197 0.2612 0.3781
v  -0.4197 0.4080 -0.3612
v  -0.4197 0.4080 0.3781
v  0.4197 0.4080 0.3781
v  0.4197 0.4080 -0.3612
v  -0.4004 0.3341 0.3162
v  -0.4004 0.3517 0.3132
v  -0.4534 0.3517 0.3132
v  -0.4534 0.3341 0.3162
v  -0.4004 0.3671 0.3043
v  -0.4534 0.3671 0.3043
v  -0.4004 0.3785 0.2906
v  -0.4534 0.3785 0.2906
v  -0.4004 0.3846 0.2739
v  -0.4534 0.3846 0.2739
v  -0.4004 0.3846 0.2561
v  -0.4534 0.3846 0.2561
v  -0.4004 0.3785 0.2393
v  -0.4534 0.3785 0.2393
v  -0.4004 0.3671 0.2257
v  -0.4534 0.3671 0.2257
v  -0.4004 0.3517 0.2168
v  -0.4534 0.3517 0.2168
v  -0.4004 0.3341 0.2137
v  -0.4534 0.3341 0.2137
v  -0.4004 0.3166 0.2168
v  -0.4534 0.3166 0.2168
v  -0.4004 0.3012 0.2257
v  -0.4534 0.3012 0.2257
v  -0.4004 0.2897 0.2393
v  -0.4534 0.2897 0.2393
v  -0.4004 0.2836 0.2561
v  -0.4534 0.2836 0.2561
v  -0.4004 0.2836 0.2739
v  -0.4534 0.2836 0.2739
v  -0.4004 0.2897 0.2906
v  -0.4534 0.2897 0.2906
v  -0.4004 0.3012 0.3043
v  -0.4534 0.3012 0.3043
v  -0.4004 0.3166 0.3132
v  -0.4534 0.3166 0.3132
v  -0.4197 0.0799 0.3781
v  -0.4197 0.0799 -0.3612
v  0.4197 0.0799 -0.3612
v  0.4197 0.0799 0.3781
v  -0.4197 0.2267 -0.3612
v  -0.4197 0.2267 0.3781
v  0.4197 0.2267 0.3781
v  0.4197 0.2267 -0.3612
v  -0.4004 0.1528 0.3162
v  -0.4004 0.1704 0.3132
v  -0.4534 0.1704 0.3132
v  -0.4534 0.1528 0.3162
v  -0.4004 0.1858 0.3043
v  -0.4534 0.1858 0.3043
v  -0.4004 0.1972 0.2906
v  -0.4534 0.1972 0.2906
v  -0.4004 0.2033 0.2739
v  -0.4534 0.2033 0.2739
v  -0.4004 0.2033 0.2561
v  -0.4534 0.2033 0.2561
v  -0.4004 0.1972 0.2393
v  -0.4534 0.1972 0.2393
v  -0.4004 0.1858 0.2257
v  -0.4534 0.1858 0.2257
v  -0.4004 0.1704 0.2168
v  -0.4534 0.1704 0.2168
v  -0.4004 0.1528 0.2137
v  -0.4534 0.1528 0.2137
v  -0.4004 0.1353 0.2168
v  -0.4534 0.1353 0.2168
v  -0.4004 0.1199 0.2257
v  -0.4534 0.1199 0.2257
v  -0.4004 0.1084 0.2393
v  -0.4534 0.1084 0.2393
v  -0.4004 0.1023 0.2561
v  -0.4534 0.1023 0.2561
v  -0.4004 0.1023 0.2739
v  -0.4534 0.1023 0.2739
v  -0.4004 0.1084 0.2906
v  -0.4534 0.1084 0.2906
v  -0.4004 0.1199 0.3043
v  -0.4534 0.1199 0.3043
v  -0.4004 0.1353 0.3132
v  -0.4534 0.1353 0.3132
# 224 vertices

vn 0.0000 -1.0000 -0.0000
vn 0.0000 1.0000 -0.0000
vn 0.0000 0.0000 1.0000
vn 1.0000 0.0000 -0.0000
vn 0.0000 0.0000 -1.0000
vn -1.0000 0.0000 -0.0000
vn -0.0000 1.0000 -0.0000
vn 0.0000 0.3700 0.9290
vn 0.0000 0.6764 0.7365
vn -0.0000 0.8846 0.4664
vn 0.0000 0.8846 0.4664
vn -0.0000 0.9873 0.1590
vn 0.0000 0.9873 -0.1590
vn 0.0000 0.8846 -0.4664
vn 0.0000 0.6764 -0.7365
vn 0.0000 0.3700 -0.9290
vn 0.0000 -0.3700 -0.9290
vn 0.0000 -0.6764 -0.7365
vn 0.0000 -0.8846 -0.4664
vn 0.0000 -0.9873 -0.1590
vn 0.0000 -0.9873 0.1590
vn 0.0000 -0.8846 0.4664
vn 0.0000 -0.6764 0.7365
vn 0.0000 -0.3700 0.9290
vn -1.0000 -0.0000 -0.0000
vn 0.0000 0.9873 0.1590
vn 0.0000 -0.0000 -1.0000
vn 0.0000 0.9873 0.1589
vn 0.0000 0.9873 -0.1589
# 29 vertex normals

vt 0.8302 0.2381 0.0000
vt 0.1418 0.2381 0.0000
vt 0.8302 0.9781 0.0000
vt 0.1418 0.9781 0.0000
vt 0.8302 0.8301 0.0000
vt 0.8302 0.6821 0.0000
vt 0.8302 0.5341 0.0000
vt 0.8302 0.3861 0.0000
vt 0.1418 0.3861 0.0000
vt 0.1418 0.5341 0.0000
vt 0.1418 0.6821 0.0000
vt 0.1418 0.8301 0.0000
vt 0.8233 0.5415 0.0000
vt 0.8233 0.6747 0.0000
vt 0.1486 0.6747 0.0000
vt 0.1486 0.5415 0.0000
vt 0.8233 0.8375 0.0000
vt 0.8233 0.9707 0.0000
vt 0.1486 0.9707 0.0000
vt 0.1486 0.8375 0.0000
vt 0.8233 0.6895 0.0000
vt 0.8233 0.8227 0.0000
vt 0.1486 0.8227 0.0000
vt 0.1486 0.6895 0.0000
vt 0.1486 0.5267 0.0000
vt 0.1486 0.3935 0.0000
vt 0.8233 0.3935 0.0000
vt 0.8233 0.5267 0.0000
vt 0.9752 0.0264 0.0000
vt 0.0248 0.0264 0.0000
vt 0.0248 0.2164 0.0000
vt 0.9752 0.2164 0.0000
vt 0.8956 0.1207 0.0000
vt 0.8917 0.1434 0.0000
vt 0.8802 0.1634 0.0000
vt 0.8627 0.1782 0.0000
vt 0.8412 0.1861 0.0000
vt 0.8183 0.1861 0.0000
vt 0.7968 0.1782 0.0000
vt 0.7792 0.1634 0.0000
vt 0.7678 0.1434 0.0000
vt 0.7638 0.1207 0.0000
vt 0.7678 0.0980 0.0000
vt 0.7792 0.0781 0.0000
vt 0.7968 0.0633 0.0000
vt 0.8183 0.0554 0.0000
vt 0.8412 0.0554 0.0000
vt 0.8627 0.0633 0.0000
vt 0.8802 0.0781 0.0000
vt 0.8917 0.0980 0.0000
# 50 texture coords

g Box008
usemtl wire_214229166
s 2
f 1/1/1 2/2/1 3/2/1 4/1/1 
s 4
f 5/3/2 6/3/2 7/4/2 8/4/2 
s 8
f 1/1/3 4/1/3 6/3/3 5/3/3 9/5/3 10/6/3 11/7/3 12/8/3 
s 16
f 4/1/4 3/2/4 7/4/4 6/3/4 
s 32
f 3/2/5 2/2/5 13/9/5 14/10/5 15/11/5 16/12/5 8/4/5 7/4/5 
s 64
f 17/13/6 18/14/6 19/15/6 20/16/6 
f 21/17/6 22/18/6 23/19/6 24/20/6 
f 25/21/6 26/22/6 27/23/6 28/24/6 
f 13/9/6 2/2/6 1/1/6 12/8/6 
f 29/25/6 30/26/6 31/27/6 32/28/6 
s off
f 11/7/6 10/6/6 33/14/6 34/13/6 
f 10/6/6 15/11/6 35/15/6 33/14/6 
f 15/11/6 14/10/6 36/16/6 35/15/6 
f 14/10/6 11/7/6 34/13/6 36/16/6 
f 12/8/6 11/7/6 37/28/6 38/27/6 
f 11/7/6 14/10/6 39/25/6 37/28/6 
f 14/10/6 13/9/6 40/26/6 39/25/6 
f 13/9/6 12/8/6 38/27/6 40/26/6 
f 10/6/6 9/5/6 41/22/6 42/21/6 
f 9/5/6 16/12/6 43/23/6 41/22/6 
f 16/12/6 15/11/6 44/24/6 43/23/6 
f 15/11/6 10/6/6 42/21/6 44/24/6 
f 5/3/6 8/4/6 45/19/6 46/18/6 
f 8/4/6 16/12/6 47/20/6 45/19/6 
f 16/12/6 9/5/6 48/17/6 47/20/6 
f 9/5/6 5/3/6 46/18/6 48/17/6 
f 34/13/5 33/14/5 18/14/5 17/13/5 
f 33/14/1 35/15/1 19/15/1 18/14/1 
f 35/15/3 36/16/3 20/16/3 19/15/3 
f 36/16/2 34/13/2 17/13/2 20/16/2 
f 46/18/1 45/19/1 23/19/1 22/18/1 
f 45/19/3 47/20/3 24/20/3 23/19/3 
f 47/20/2 48/17/2 21/17/2 24/20/2 
f 48/17/5 46/18/5 22/18/5 21/17/5 
f 42/21/5 41/22/5 26/22/5 25/21/5 
f 41/22/1 43/23/1 27/23/1 26/22/1 
f 43/23/3 44/24/3 28/24/3 27/23/3 
f 44/24/2 42/21/2 25/21/2 28/24/2 
f 38/27/5 37/28/5 32/28/5 31/27/5 
f 37/28/1 39/25/1 29/25/1 32/28/1 
f 39/25/3 40/26/3 30/26/3 29/25/3 
f 40/26/7 38/27/7 31/27/7 30/26/7 
s 2
f 49/29/1 50/30/1 51/30/1 52/29/1 
s 64
f 53/31/6 50/30/6 49/29/6 54/32/6 
s 16
f 55/32/4 52/29/4 51/30/4 56/31/4 
s 1
f 54/32/3 49/29/3 52/29/3 55/32/3 
s 2
f 55/32/2 56/31/2 53/31/2 54/32/2 
s 1
f 50/30/5 53/31/5 56/31/5 51/30/5 
s 8
f 57/33/3 58/34/8 59/34/8 60/33/3 
f 58/34/8 61/35/9 62/35/9 59/34/8 
f 61/35/9 63/36/10 64/36/11 62/35/9 
f 63/36/10 65/37/12 66/37/12 64/36/11 
f 65/37/12 67/38/13 68/38/13 66/37/12 
f 67/38/13 69/39/14 70/39/14 68/38/13 
f 69/39/14 71/40/15 72/40/15 70/39/14 
f 71/40/15 73/41/16 74/41/16 72/40/15 
f 73/41/16 75/42/5 76/42/5 74/41/16 
f 75/42/5 77/43/17 78/43/17 76/42/5 
f 77/43/17 79/44/18 80/44/18 78/43/17 
f 79/44/18 81/45/19 82/45/19 80/44/18 
f 81/45/19 83/46/20 84/46/20 82/45/19 
f 83/46/20 85/47/21 86/47/21 84/46/20 
f 85/47/21 87/48/22 88/48/22 86/47/21 
f 87/48/22 89/49/23 90/49/23 88/48/22 
f 89/49/23 91/50/24 92/50/24 90/49/23 
f 91/50/24 57/33/3 60/33/3 92/50/24 
s 1
f 91/50/4 89/49/4 87/48/4 85/47/4 83/46/4 81/45/4 79/44/4 77/43/4 75/42/4 73/41/4 71/40/4 69/39/4 67/38/4 65/37/4 63/36/4 61/35/4 58/34/4 57/33/4 
f 60/33/6 59/34/6 62/35/6 64/36/25 66/37/6 68/38/25 70/39/6 72/40/6 74/41/6 76/42/6 78/43/6 80/44/25 82/45/6 84/46/25 86/47/6 88/48/6 90/49/6 92/50/6 
s 2
f 93/29/1 94/30/1 95/30/1 96/29/1 
s 64
f 97/31/6 94/30/6 93/29/6 98/32/6 
s 16
f 99/32/4 96/29/4 95/30/4 100/31/4 
s 1
f 98/32/3 93/29/3 96/29/3 99/32/3 
s 2
f 99/32/2 100/31/2 97/31/2 98/32/2 
s 1
f 94/30/5 97/31/5 100/31/5 95/30/5 
s 8
f 101/33/3 102/34/8 103/34/8 104/33/3 
f 102/34/8 105/35/9 106/35/9 103/34/8 
f 105/35/9 107/36/11 108/36/11 106/35/9 
f 107/36/11 109/37/26 110/37/26 108/36/11 
f 109/37/26 111/38/13 112/38/13 110/37/26 
f 111/38/13 113/39/14 114/39/14 112/38/13 
f 113/39/14 115/40/15 116/40/15 114/39/14 
f 115/40/15 117/41/16 118/41/16 116/40/15 
f 117/41/16 119/42/27 120/42/27 118/41/16 
f 119/42/27 121/43/17 122/43/17 120/42/27 
f 121/43/17 123/44/18 124/44/18 122/43/17 
f 123/44/18 125/45/19 126/45/19 124/44/18 
f 125/45/19 127/46/20 128/46/20 126/45/19 
f 127/46/20 129/47/21 130/47/21 128/46/20 
f 129/47/21 131/48/22 132/48/22 130/47/21 
f 131/48/22 133/49/23 134/49/23 132/48/22 
f 133/49/23 135/50/24 136/50/24 134/49/23 
f 135/50/24 101/33/3 104/33/3 136/50/24 
s 1
f 135/50/4 133/49/4 131/48/4 129/47/4 127/46/4 125/45/4 123/44/4 121/43/4 119/42/4 117/41/4 115/40/4 113/39/4 111/38/4 109/37/4 107/36/4 105/35/4 102/34/4 101/33/4 
f 104/33/6 103/34/6 106/35/6 108/36/25 110/37/6 112/38/25 114/39/6 116/40/6 118/41/6 120/42/6 122/43/6 124/44/25 126/45/6 128/46/25 130/47/6 132/48/6 134/49/6 136/50/6 
s 2
f 137/29/1 138/30/1 139/30/1 140/29/1 
s 64
f 141/31/6 138/30/6 137/29/6 142/32/6 
s 16
f 143/32/4 140/29/4 139/30/4 144/31/4 
s 1
f 142/32/3 137/29/3 140/29/3 143/32/3 
s 2
f 143/32/2 144/31/2 141/31/2 142/32/2 
s 1
f 138/30/5 141/31/5 144/31/5 139/30/5 
s 8
f 145/33/3 146/34/8 147/34/8 148/33/3 
f 146/34/8 149/35/9 150/35/9 147/34/8 
f 149/35/9 151/36/11 152/36/11 150/35/9 
f 151/36/11 153/37/26 154/37/26 152/36/11 
f 153/37/26 155/38/13 156/38/13 154/37/26 
f 155/38/13 157/39/14 158/39/14 156/38/13 
f 157/39/14 159/40/15 160/40/15 158/39/14 
f 159/40/15 161/41/16 162/41/16 160/40/15 
f 161/41/16 163/42/5 164/42/27 162/41/16 
f 163/42/5 165/43/17 166/43/17 164/42/27 
f 165/43/17 167/44/18 168/44/18 166/43/17 
f 167/44/18 169/45/19 170/45/19 168/44/18 
f 169/45/19 171/46/20 172/46/20 170/45/19 
f 171/46/20 173/47/21 174/47/21 172/46/20 
f 173/47/21 175/48/22 176/48/22 174/47/21 
f 175/48/22 177/49/23 178/49/23 176/48/22 
f 177/49/23 179/50/24 180/50/24 178/49/23 
f 179/50/24 145/33/3 148/33/3 180/50/24 
s 1
f 179/50/4 177/49/4 175/48/4 173/47/4 171/46/4 169/45/4 167/44/4 165/43/4 163/42/4 161/41/4 159/40/4 157/39/4 155/38/4 153/37/4 151/36/4 149/35/4 146/34/4 145/33/4 
f 148/33/6 147/34/6 150/35/6 152/36/25 154/37/6 156/38/25 158/39/6 160/40/6 162/41/6 164/42/6 166/43/6 168/44/25 170/45/6 172/46/25 174/47/6 176/48/6 178/49/6 180/50/6 
s 2
f 181/29/1 182/30/1 183/30/1 184/29/1 
s 64
f 185/31/6 182/30/6 181/29/6 186/32/6 
s 16
f 187/32/4 184/29/4 183/30/4 188/31/4 
s 1
f 186/32/3 181/29/3 184/29/3 187/32/3 
s 2
f 187/32/2 188/31/2 185/31/2 186/32/2 
s 1
f 182/30/5 185/31/5 188/31/5 183/30/5 
s 8
f 189/33/3 190/34/8 191/34/8 192/33/3 
f 190/34/8 193/35/9 194/35/9 191/34/8 
f 193/35/9 195/36/11 196/36/11 194/35/9 
f 195/36/11 197/37/28 198/37/28 196/36/11 
f 197/37/28 199/38/29 200/38/29 198/37/28 
f 199/38/29 201/39/14 202/39/14 200/38/29 
f 201/39/14 203/40/15 204/40/15 202/39/14 
f 203/40/15 205/41/16 206/41/16 204/40/15 
f 205/41/16 207/42/5 208/42/5 206/41/16 
f 207/42/5 209/43/17 210/43/17 208/42/5 
f 209/43/17 211/44/18 212/44/18 210/43/17 
f 211/44/18 213/45/19 214/45/19 212/44/18 
f 213/45/19 215/46/20 216/46/20 214/45/19 
f 215/46/20 217/47/21 218/47/21 216/46/20 
f 217/47/21 219/48/22 220/48/22 218/47/21 
f 219/48/22 221/49/23 222/49/23 220/48/22 
f 221/49/23 223/50/24 224/50/24 222/49/23 
f 223/50/24 189/33/3 192/33/3 224/50/24 
s 1
f 223/50/4 221/49/4 219/48/4 217/47/4 215/46/4 213/45/4 211/44/4 209/43/4 207/42/4 205/41/4 203/40/4 201/39/4 199/38/4 197/37/4 195/36/4 193/35/4 190/34/4 189/33/4 
f 192/33/6 191/34/6 194/35/6 196/36/25 198/37/6 200/38/25 202/39/6 204/40/6 206/41/6 208/42/6 210/43/6 212/44/25 214/45/6 216/46/25 218/47/6 220/48/6 222/49/6 224/50/6 
# 146 polygons

