# 3ds Max Wavefront OBJ Exporter v0.97b - (c)2007 guruware
# File Created: 11.05.2018 22:58:30

mtllib wash_stand.mtl

#
# object ???
#

v  0.3110 -0.3085 -0.3898
v  0.3110 0.1531 -0.3898
v  0.3110 0.1531 -0.3274
v  0.3110 0.1531 0.3274
v  0.3110 0.1531 0.3898
v  0.3110 -0.3085 0.3898
v  -0.3126 -0.3085 -0.3898
v  -0.3126 -0.3085 0.3898
v  -0.3126 0.1531 0.3898
v  -0.3126 0.1531 0.3274
v  -0.3126 0.1531 -0.3274
v  -0.3126 0.1531 -0.3898
v  0.0407 -0.5934 -0.0417
v  0.0407 -0.5934 0.0417
v  -0.0423 -0.5934 0.0417
v  -0.0423 -0.5934 -0.0417
v  0.2377 0.1531 0.3898
v  -0.2393 0.1531 0.3898
v  -0.2393 -0.2484 -0.3274
v  -0.2393 -0.2484 0.3274
v  0.2377 -0.2484 0.3274
v  0.2377 -0.2484 -0.3274
v  -0.2393 0.1531 -0.3898
v  0.2377 0.1531 -0.3898
v  -0.3126 0.6116 -0.3274
v  -0.3126 0.6116 0.3274
v  -0.2393 0.6116 0.3274
v  -0.2393 0.6116 -0.3274
v  0.2377 0.1531 -0.3274
v  0.2377 0.1531 0.3274
v  -0.2393 0.1531 0.3274
v  -0.2393 0.1531 -0.3274
v  -0.3126 0.6116 0.3898
v  -0.2393 0.6116 0.3898
v  -0.2393 0.6116 -0.3898
v  -0.3126 0.6116 -0.3898
v  -0.2393 0.4419 0.3274
v  -0.2393 0.4602 0.3274
v  -0.2393 0.4602 -0.0717
v  -0.2393 0.4602 0.0453
v  -0.2393 0.4419 0.0453
v  -0.2393 0.4419 -0.0717
v  -0.2393 0.4602 -0.3274
v  -0.2393 0.4419 -0.3274
v  -0.2393 0.4602 0.0662
v  -0.2393 0.4602 -0.0927
v  -0.2393 0.4419 -0.0927
v  -0.2393 0.4419 0.0662
v  -0.1394 0.4602 0.0453
v  -0.1394 0.4602 0.0662
v  -0.1394 0.4419 0.0662
v  -0.1394 0.4419 0.0453
v  -0.1394 0.4419 -0.0717
v  -0.1394 0.4419 -0.0927
v  -0.1394 0.4602 -0.0927
v  -0.1394 0.4602 -0.0717
v  -0.2016 0.4602 0.0662
v  -0.2016 0.4602 0.0453
v  -0.2016 0.4419 0.0662
v  -0.2016 0.4419 0.0453
v  -0.2016 0.4602 -0.0717
v  -0.2016 0.4602 -0.0927
v  -0.2016 0.4419 -0.0717
v  -0.2016 0.4419 -0.0927
v  -0.2016 0.4859 0.0453
v  -0.2016 0.4859 0.0662
v  -0.1809 0.4859 0.0662
v  -0.1809 0.4859 0.0453
v  -0.1809 0.4419 0.0662
v  -0.1809 0.4602 0.0662
v  -0.1809 0.4419 0.0453
v  -0.1809 0.4602 0.0453
v  -0.2016 0.4859 -0.0927
v  -0.2016 0.4859 -0.0717
v  -0.1809 0.4859 -0.0717
v  -0.1809 0.4859 -0.0927
v  -0.1809 0.4419 -0.0717
v  -0.1809 0.4602 -0.0717
v  -0.1809 0.4419 -0.0927
v  -0.1809 0.4602 -0.0927
v  -0.1601 0.4602 0.0662
v  -0.1601 0.4602 0.0453
v  -0.1601 0.4419 0.0662
v  -0.1601 0.4419 0.0453
v  -0.1601 0.4602 -0.0717
v  -0.1601 0.4602 -0.0927
v  -0.1601 0.4419 -0.0717
v  -0.1601 0.4419 -0.0927
v  -0.1601 0.4137 0.0662
v  -0.1601 0.4137 0.0453
v  -0.1394 0.4137 0.0453
v  -0.1394 0.4137 0.0662
v  -0.1601 0.4137 -0.0717
v  -0.1601 0.4137 -0.0927
v  -0.1394 0.4137 -0.0927
v  -0.1394 0.4137 -0.0717
v  -0.2016 0.4628 0.0662
v  -0.2016 0.4628 0.0453
v  -0.1809 0.4628 0.0662
v  -0.1809 0.4628 0.0453
v  -0.2016 0.4628 -0.0717
v  -0.2016 0.4628 -0.0927
v  -0.1809 0.4628 -0.0717
v  -0.1809 0.4628 -0.0927
v  -0.2204 0.4628 0.0662
v  -0.2204 0.4859 0.0662
v  -0.2204 0.4859 0.0453
v  -0.2204 0.4628 0.0453
v  -0.1809 0.4628 0.0847
v  -0.1809 0.4859 0.0847
v  -0.2016 0.4859 0.0847
v  -0.2016 0.4628 0.0847
v  -0.1620 0.4628 0.0453
v  -0.1620 0.4859 0.0453
v  -0.1620 0.4859 0.0662
v  -0.1620 0.4628 0.0662
v  -0.2016 0.4628 0.0272
v  -0.2016 0.4859 0.0272
v  -0.1809 0.4859 0.0272
v  -0.1809 0.4628 0.0272
v  -0.2204 0.4628 -0.0717
v  -0.2204 0.4859 -0.0717
v  -0.2204 0.4859 -0.0927
v  -0.2204 0.4628 -0.0927
v  -0.1809 0.4628 -0.0543
v  -0.1809 0.4859 -0.0543
v  -0.2016 0.4859 -0.0543
v  -0.2016 0.4628 -0.0543
v  -0.1620 0.4628 -0.0927
v  -0.1620 0.4859 -0.0927
v  -0.1620 0.4859 -0.0717
v  -0.1620 0.4628 -0.0717
v  -0.2016 0.4628 -0.1103
v  -0.2016 0.4859 -0.1103
v  -0.1809 0.4859 -0.1103
v  -0.1809 0.4628 -0.1103
v  0.0407 -0.3085 0.0417
v  0.0407 -0.3085 -0.0417
v  -0.0423 -0.3085 0.0417
v  -0.0423 -0.3085 -0.0417
# 140 vertices

vn 1.0000 0.0000 0.0000
vn -1.0000 -0.0000 -0.0000
vn 0.0000 -1.0000 0.0000
vn -0.0000 0.0000 1.0000
vn -0.0000 1.0000 0.0000
vn -0.0000 1.0000 -0.0000
vn 0.0000 0.0000 -1.0000
vn -0.0000 -0.0000 1.0000
vn 1.0000 -0.0000 0.0000
vn 0.0000 -0.0000 -1.0000
vn -1.0000 0.0000 -0.0000
vn 1.0000 -0.0000 -0.0000
vn 1.0000 0.0000 -0.0000
vn -0.0000 -1.0000 -0.0000
vn 0.0000 -1.0000 -0.0000
# 15 vertex normals

vt 0.0731 0.0418 0.0000
vt 0.0731 0.2342 0.0000
vt 0.1420 0.2342 0.0000
vt 0.8650 0.2342 0.0000
vt 0.9338 0.2342 0.0000
vt 0.9338 0.0418 0.0000
vt 0.6316 0.5070 0.0000
vt 0.7438 0.5070 0.0000
vt 0.0189 0.4947 0.0000
vt 0.5890 0.4947 0.0000
vt 0.5890 0.9171 0.0000
vt 0.0189 0.9171 0.0000
vt 0.1420 0.4253 0.0000
vt 0.8650 0.4253 0.0000
vt 0.9338 0.4253 0.0000
vt 0.0731 0.4253 0.0000
vt 0.8650 0.3546 0.0000
vt 0.8650 0.3622 0.0000
vt 0.4243 0.3622 0.0000
vt 0.5535 0.3622 0.0000
vt 0.5535 0.3546 0.0000
vt 0.4243 0.3546 0.0000
vt 0.1420 0.3622 0.0000
vt 0.1420 0.3546 0.0000
vt 0.8650 0.0668 0.0000
vt 0.1420 0.0668 0.0000
vt 0.5766 0.3622 0.0000
vt 0.4012 0.3622 0.0000
vt 0.4012 0.3546 0.0000
vt 0.5766 0.3546 0.0000
vt 0.9632 0.7115 0.0000
vt 0.9632 0.6627 0.0000
vt 0.7712 0.7115 0.0000
vt 0.8437 0.7115 0.0000
vt 0.7712 0.6627 0.0000
vt 0.8437 0.6627 0.0000
vt 0.8437 0.7796 0.0000
vt 0.8835 0.7796 0.0000
vt 0.8835 0.6627 0.0000
vt 0.8835 0.7115 0.0000
vt 0.9234 0.7115 0.0000
vt 0.9234 0.6627 0.0000
vt 0.9234 0.5877 0.0000
vt 0.9632 0.5877 0.0000
vt 0.8437 0.7183 0.0000
vt 0.8835 0.7183 0.0000
vt 0.8074 0.7183 0.0000
vt 0.8074 0.7796 0.0000
vt 0.9197 0.7183 0.0000
vt 0.9197 0.7796 0.0000
vt 0.5495 0.0418 0.0000
vt 0.4574 0.0418 0.0000
vt 0.6316 0.8670 0.0000
vt 0.7438 0.8670 0.0000
# 54 texture coords

g ???
usemtl Material__40
s 2
f 1/1/1 2/2/1 3/3/1 4/4/1 5/5/1 6/6/1 
s 4
f 7/1/2 8/6/2 9/5/2 10/4/2 11/3/2 12/2/2 
s 8
f 13/7/3 14/8/3 15/8/3 16/7/3 
s 16
f 6/6/4 5/5/4 17/5/4 18/5/4 9/5/4 8/6/4 
s 32
f 19/9/5 20/10/6 21/11/6 22/12/6 
s 64
f 2/2/7 1/1/7 7/1/7 12/2/7 23/2/7 24/2/7 
s 32
f 25/13/6 26/14/6 27/14/6 28/13/6 
f 4/4/6 3/3/6 29/3/6 30/4/6 
f 31/4/6 18/5/6 17/5/6 30/4/6 
f 29/3/6 24/2/6 23/2/6 32/3/6 
f 26/14/6 33/15/6 34/15/6 27/14/6 
f 28/13/6 35/16/6 36/16/6 25/13/6 
f 3/3/6 2/2/6 24/2/6 29/3/6 
f 30/4/6 17/5/6 5/5/6 4/4/6 
s off
f 10/4/2 9/5/2 33/15/2 26/14/2 
f 9/5/8 18/5/8 34/15/8 33/15/8 
f 18/5/9 31/4/9 37/17/9 38/18/9 27/14/9 34/15/9 
f 39/19/1 40/20/1 41/21/1 42/22/1 
f 32/3/9 23/2/9 35/16/9 28/13/9 43/23/9 44/24/9 
f 23/2/7 12/2/7 36/16/7 35/16/7 
f 12/2/2 11/3/2 25/13/2 36/16/2 
f 11/3/2 10/4/2 26/14/2 25/13/2 
f 32/3/9 31/4/9 20/25/9 19/26/9 
f 31/4/10 30/4/10 21/25/10 20/25/10 
f 30/4/11 29/3/11 22/26/11 21/25/11 
f 29/3/8 32/3/8 19/26/8 22/26/8 
f 43/23/12 28/13/12 27/14/12 38/18/12 45/27/12 40/20/12 39/19/12 46/28/12 
f 37/17/1 31/4/1 32/3/1 44/24/1 47/29/1 42/22/1 41/21/1 48/30/1 
f 45/27/13 38/18/13 37/17/13 48/30/13 
f 49/31/1 50/31/1 51/32/1 52/32/1 
f 47/29/1 44/24/1 43/23/1 46/28/1 
f 53/32/1 54/32/1 55/31/1 56/31/1 
f 40/33/6 45/33/6 57/34/6 58/34/6 
f 45/33/4 48/35/4 59/36/4 57/34/4 
f 48/35/3 41/35/3 60/36/3 59/36/3 
f 41/35/7 40/33/7 58/34/7 60/36/7 
f 46/33/6 39/33/6 61/34/6 62/34/6 
f 39/33/8 42/35/8 63/36/8 61/34/8 
f 42/35/3 47/35/3 64/36/3 63/36/3 
f 47/35/7 46/33/7 62/34/7 64/36/7 
f 65/37/6 66/37/6 67/38/6 68/38/6 
f 57/34/4 59/36/4 69/39/4 70/40/4 
f 59/36/3 60/36/3 71/39/3 69/39/3 
f 60/36/7 58/34/7 72/40/7 71/39/7 
f 73/37/6 74/37/6 75/38/6 76/38/6 
f 61/34/8 63/36/8 77/39/8 78/40/8 
f 63/36/3 64/36/3 79/39/3 77/39/3 
f 64/36/7 62/34/7 80/40/7 79/39/7 
f 72/40/6 70/40/6 81/41/6 82/41/6 
f 70/40/4 69/39/4 83/42/4 81/41/4 
f 69/39/3 71/39/3 84/42/3 83/42/3 
f 71/39/7 72/40/7 82/41/7 84/42/7 
f 80/40/6 78/40/6 85/41/6 86/41/6 
f 78/40/8 77/39/8 87/42/8 85/41/8 
f 77/39/3 79/39/3 88/42/3 87/42/3 
f 79/39/7 80/40/7 86/41/7 88/42/7 
f 82/41/6 81/41/6 50/31/6 49/31/6 
f 81/41/4 83/42/4 51/32/4 50/31/4 
f 89/43/3 90/43/3 91/44/3 92/44/3 
f 84/42/7 82/41/7 49/31/7 52/32/7 
f 86/41/6 85/41/6 56/31/6 55/31/6 
f 85/41/8 87/42/8 53/32/8 56/31/8 
f 93/43/3 94/43/3 95/44/3 96/44/3 
f 88/42/7 86/41/7 55/31/7 54/32/7 
f 83/42/2 84/42/2 90/43/2 89/43/2 
f 84/42/7 52/32/7 91/44/7 90/43/7 
f 52/32/1 51/32/1 92/44/1 91/44/1 
f 51/32/4 83/42/4 89/43/4 92/44/4 
f 87/42/2 88/42/2 94/43/2 93/43/2 
f 88/42/7 54/32/7 95/44/7 94/43/7 
f 54/32/1 53/32/1 96/44/1 95/44/1 
f 53/32/4 87/42/4 93/43/4 96/44/4 
f 58/34/2 57/34/2 97/45/2 98/45/2 
f 57/34/4 70/40/4 99/46/4 97/45/4 
f 70/40/1 72/40/1 100/46/1 99/46/1 
f 72/40/7 58/34/7 98/45/7 100/46/7 
f 62/34/2 61/34/2 101/45/2 102/45/2 
f 61/34/4 78/40/4 103/46/4 101/45/4 
f 78/40/1 80/40/1 104/46/1 103/46/1 
f 80/40/7 62/34/7 102/45/7 104/46/7 
f 105/47/2 106/48/2 107/48/2 108/47/2 
f 109/46/8 110/38/8 111/37/8 112/45/8 
f 113/49/1 114/50/1 115/50/1 116/49/1 
f 117/45/7 118/37/7 119/38/7 120/46/7 
f 121/47/2 122/48/2 123/48/2 124/47/2 
f 125/46/4 126/38/4 127/37/4 128/45/4 
f 129/49/1 130/50/1 131/50/1 132/49/1 
f 133/45/7 134/37/7 135/38/7 136/46/7 
f 97/45/4 66/37/4 106/48/4 105/47/4 
f 66/37/6 65/37/6 107/48/6 106/48/6 
f 65/37/7 98/45/7 108/47/7 107/48/7 
f 98/45/3 97/45/3 105/47/3 108/47/3 
f 99/46/1 67/38/1 110/38/1 109/46/1 
f 67/38/5 66/37/5 111/37/5 110/38/5 
f 66/37/2 97/45/2 112/45/2 111/37/2 
f 97/45/3 99/46/3 109/46/3 112/45/3 
f 100/46/7 68/38/7 114/50/7 113/49/7 
f 68/38/6 67/38/6 115/50/6 114/50/6 
f 67/38/4 99/46/4 116/49/4 115/50/4 
f 99/46/3 100/46/3 113/49/3 116/49/3 
f 98/45/2 65/37/2 118/37/2 117/45/2 
f 65/37/6 68/38/6 119/38/6 118/37/6 
f 68/38/1 100/46/1 120/46/1 119/38/1 
f 100/46/3 98/45/3 117/45/3 120/46/3 
f 101/45/4 74/37/4 122/48/4 121/47/4 
f 74/37/6 73/37/6 123/48/6 122/48/6 
f 73/37/7 102/45/7 124/47/7 123/48/7 
f 102/45/3 101/45/3 121/47/3 124/47/3 
f 103/46/13 75/38/13 126/38/13 125/46/13 
f 75/38/5 74/37/5 127/37/5 126/38/5 
f 74/37/2 101/45/2 128/45/2 127/37/2 
f 101/45/3 103/46/3 125/46/3 128/45/3 
f 104/46/7 76/38/7 130/50/7 129/49/7 
f 76/38/6 75/38/6 131/50/6 130/50/6 
f 75/38/4 103/46/4 132/49/4 131/50/4 
f 103/46/3 104/46/3 129/49/3 132/49/3 
f 102/45/2 73/37/2 134/37/2 133/45/2 
f 73/37/6 76/38/6 135/38/6 134/37/6 
f 76/38/1 104/46/1 136/46/1 135/38/1 
f 104/46/3 102/45/3 133/45/3 136/46/3 
f 1/1/14 6/6/14 137/51/14 138/52/14 
f 6/6/15 8/6/15 139/51/15 137/51/15 
f 8/6/3 7/1/3 140/52/3 139/51/3 
f 7/1/3 1/1/3 138/52/3 140/52/3 
f 138/53/9 137/54/9 14/8/9 13/7/9 
f 137/54/4 139/54/4 15/8/4 14/8/4 
f 139/54/11 140/53/11 16/7/11 15/8/11 
f 140/53/7 138/53/7 13/7/7 16/7/7 
# 128 polygons

