# 3ds Max Wavefront OBJ Exporter v0.97b - (c)2007 guruware
# File Created: 06.04.2018 01:08:50

mtllib ?\????????.mtl

#
# object Object003
#

v  0.2252 327.8748 1473.8779
v  0.2252 341.7975 1473.8779
v  0.2252 341.7975 1621.0583
v  0.3182 327.8748 1621.0585
v  -9.4859 327.8748 1621.0583
v  -9.3928 341.7975 1621.0583
v  -9.3928 341.7975 1473.8779
v  -9.3928 327.8748 1473.8779
v  1.3897 327.8748 1706.0691
v  1.3896 341.7975 1706.0691
v  -10.5573 341.7975 1706.0691
v  -10.5573 327.8748 1706.0691
v  -6.5750 327.8748 1706.0691
v  -2.5927 327.8748 1706.0691
v  -10.5573 327.8748 1462.9723
v  -10.5573 341.7975 1462.9723
v  1.3897 341.7975 1462.9723
v  1.3897 327.8748 1462.9723
v  1.3897 327.8748 1621.0585
v  1.3897 341.7975 1621.0583
v  1.3896 341.7975 1631.9640
v  1.3897 327.8748 1631.9640
v  1.3897 341.7975 1473.8779
v  1.3897 327.8748 1473.8779
v  -10.5573 327.8748 1631.9640
v  -10.5573 341.7975 1631.9640
v  -10.5573 341.7975 1621.0583
v  -10.5573 327.8748 1621.0583
v  -10.5573 327.8748 1473.8779
v  -10.5573 341.7975 1473.8779
v  -10.5573 0.7609 1621.0585
v  -9.4859 0.7609 1621.0585
v  -10.5573 0.7609 1631.9641
v  0.3182 0.7609 1621.0585
v  1.3897 0.7609 1621.0585
v  1.3897 0.7609 1631.9641
v  -5.8994 305.6432 1621.0583
v  -5.8994 21.8603 1621.0585
v  -3.2682 21.8603 1621.0585
v  -3.2682 305.6432 1621.0585
v  -5.8994 0.8329 1621.0585
v  -3.2682 0.8329 1621.0585
v  -3.2682 326.6706 1621.0585
v  -5.8994 326.6706 1621.0583
v  -2.1037 0.8329 1621.0585
v  -2.1037 21.8603 1621.0585
v  -2.1038 305.6432 1621.0585
v  -2.1038 326.6706 1621.0585
v  -7.0639 326.6706 1621.0583
v  -7.0639 305.6432 1621.0583
v  -7.0638 21.8603 1621.0585
v  -7.0638 0.8329 1621.0585
v  -6.5750 13.8454 1706.0691
v  -2.5927 13.8454 1706.0691
v  -10.5573 13.8454 1621.0585
v  -10.5573 13.8454 1631.9641
v  -9.4859 13.8454 1621.0585
v  0.3182 13.8454 1621.0585
v  1.3897 13.8454 1621.0585
v  1.3897 13.8454 1631.9641
v  -10.5573 13.8454 1706.0691
v  -10.5573 0.7609 1706.0691
v  1.3897 0.7609 1706.0691
v  1.3897 13.8454 1706.0691
v  -6.5750 327.8748 1631.9640
v  -6.5750 13.8454 1631.9641
v  -2.5927 13.8454 1631.9641
v  -2.5927 327.8748 1631.9640
# 68 vertices

vn 1.0000 0.0000 -0.0006
vn 1.0000 0.0004 -0.0006
vn 1.0000 0.0069 0.0000
vn 1.0000 0.0065 -0.0000
vn -1.0000 0.0069 -0.0006
vn -1.0000 0.0065 -0.0006
vn -1.0000 -0.0000 -0.0000
vn -1.0000 0.0004 -0.0000
vn -0.0000 0.0000 1.0000
vn 0.0000 0.0000 -1.0000
vn 1.0000 0.0000 0.0000
vn 0.0000 -0.0000 -1.0000
vn -0.0000 1.0000 0.0000
vn -0.0000 1.0000 -0.0000
vn 0.0000 -1.0000 -0.0000
vn 0.0000 -1.0000 0.0000
vn -0.0000 -0.0000 1.0000
vn -1.0000 0.0000 -0.0000
vn 1.0000 -0.0000 0.0000
# 19 vertex normals

vt 0.9355 0.9592 0.0000
vt 0.9355 1.0000 0.0000
vt 0.0645 1.0000 0.0000
vt 0.0645 0.9592 0.0000
vt 0.9592 0.0000 0.0000
vt 1.0000 0.0000 0.0000
vt 1.0000 1.0000 0.0000
vt 0.9592 1.0000 0.0000
vt 0.9592 0.6667 0.0000
vt 0.9592 0.3333 0.0000
vt 0.0408 1.0000 0.0000
vt 0.0000 1.0000 0.0000
vt 0.0000 0.0000 0.0000
vt 0.0408 0.0000 0.0000
vt 0.0000 0.9592 0.0000
vt 1.0000 0.9592 0.0000
vt 0.9355 0.0408 0.0000
vt 1.0000 0.0408 0.0000
vt 0.9355 0.8999 0.0000
vt 0.9355 0.1001 0.0000
vt 0.0645 0.1001 0.0000
vt 0.0645 0.8999 0.0000
vt 0.0645 0.0408 0.0000
# 23 texture coords

g Object003
usemtl wire_086086086
s 2
f 1/1/1 2/2/2 3/3/3 4/4/4 
s 4
f 5/1/5 6/2/6 7/3/7 8/4/8 
s 16
f 9/5/9 10/6/9 11/7/9 12/8/9 13/9/9 14/10/9 
s 64
f 15/11/10 16/12/10 17/13/10 18/14/10 
s 2
f 19/4/11 20/3/11 21/12/11 22/15/11 
f 18/16/11 17/7/11 23/2/11 24/1/11 
s 4
f 25/16/7 26/7/7 27/2/7 28/1/7 
f 29/4/7 30/3/7 16/12/7 15/15/7 
s off
f 20/3/12 19/4/12 4/4/12 3/3/12 
f 24/1/9 23/2/9 2/2/9 1/1/9 
f 28/1/10 27/2/10 6/2/10 5/1/10 
f 30/3/9 29/4/9 8/4/9 7/3/9 
s 1
f 7/1/13 6/17/13 3/16/13 2/18/13 
s 40
f 20/6/14 3/16/14 21/12/14 
f 3/16/14 6/17/14 26/7/14 21/12/14 
f 6/17/14 27/12/14 26/7/14 
s 24
f 30/7/14 7/1/14 16/12/14 
f 2/18/14 23/13/14 17/7/14 
f 7/1/14 2/18/14 17/7/14 16/12/14 
s 1
f 5/1/15 8/4/15 1/1/15 4/4/15 
s 40
f 31/7/16 32/1/16 33/8/16 
f 34/4/16 35/4/16 36/5/16 
s 24
f 8/4/16 15/11/16 18/14/16 1/1/16 
f 8/4/16 29/2/16 15/11/16 
f 18/14/16 24/15/16 1/1/16 
s 8
f 37/19/9 38/20/9 39/21/9 40/22/9 
f 38/20/9 41/17/9 42/23/9 39/21/9 
f 40/22/9 43/4/17 44/1/17 37/19/9 
s off
f 39/21/9 42/23/9 45/23/9 46/21/9 
f 43/4/9 40/22/9 47/22/9 48/4/9 
f 37/19/9 44/1/9 49/1/9 50/19/9 
f 41/17/9 38/20/9 51/20/9 52/17/9 
s 64
f 32/1/16 34/4/16 36/5/16 33/8/16 
s off
f 14/10/9 13/9/9 53/9/9 54/10/9 
f 25/8/18 28/7/18 55/7/18 56/8/18 
f 28/7/12 5/1/12 57/1/12 55/7/12 
f 5/1/12 4/4/12 58/4/12 57/1/12 
f 4/4/12 19/4/12 59/4/12 58/4/12 
f 19/4/19 22/5/19 60/5/19 59/4/19 
f 61/8/9 62/8/9 63/5/9 64/5/9 54/10/9 53/9/9 
f 55/7/18 31/7/18 33/8/18 56/8/18 
f 57/1/10 32/1/10 31/7/10 55/7/10 
f 58/4/12 34/4/12 32/1/12 57/1/12 
f 59/4/10 35/4/10 34/4/10 58/4/10 
f 60/5/19 36/5/19 35/4/19 59/4/19 
f 65/9/9 25/8/9 56/8/9 66/9/9 
f 67/10/9 60/5/9 22/5/9 68/10/9 
f 22/5/11 21/6/11 10/6/11 9/5/11 
f 21/6/14 26/7/14 11/7/14 10/6/14 
f 26/7/7 25/8/7 12/8/7 11/7/7 
f 25/8/16 65/9/16 13/9/16 12/8/16 
f 65/9/18 66/9/18 53/9/18 13/9/18 
f 66/9/14 56/8/14 61/8/14 53/9/14 
f 56/8/18 33/8/18 62/8/18 61/8/18 
f 33/8/16 36/5/16 63/5/16 62/8/16 
f 36/5/19 60/5/19 64/5/19 63/5/19 
f 60/5/14 67/10/14 54/10/14 64/5/14 
f 67/10/19 68/10/19 14/10/19 54/10/19 
f 68/10/16 22/5/16 9/5/16 14/10/16 
# 51 polygons - 8 triangles

