# 3ds Max Wavefront OBJ Exporter v0.97b - (c)2007 guruware
# File Created: 11.05.2018 23:07:54

mtllib Elevator_door_left(window).mtl

#
# object ??????_?_??_
#

v  0.1019 -1.4389 -0.4499
v  0.1019 -1.4389 0.4376
v  -0.1023 -1.4389 0.4376
v  -0.1023 -1.4389 -0.4499
v  0.1019 1.4116 0.4376
v  -0.1023 1.4116 0.4376
v  0.1019 1.4116 -0.4499
v  -0.1023 1.4116 -0.4499
v  0.1019 0.9563 -0.2821
v  0.1019 0.1439 -0.2821
v  0.1019 0.9563 0.0068
v  0.1019 0.1439 0.0068
v  -0.1023 0.1439 0.0068
v  -0.1023 0.1439 -0.2821
v  -0.1023 0.9563 0.0068
v  -0.1023 0.9563 -0.2821
v  0.0843 0.9563 -0.2821
v  0.0843 0.1439 -0.2821
v  0.0843 0.9563 0.0068
v  0.0843 0.1439 0.0068
v  -0.0847 0.1439 0.0068
v  -0.0847 0.1439 -0.2821
v  -0.0847 0.9563 0.0068
v  -0.0847 0.9563 -0.2821
# 24 vertices

vn 0.0000 -1.0000 0.0000
vn -0.0000 0.0000 1.0000
vn -0.0000 1.0000 -0.0000
vn 0.0000 -0.0000 -1.0000
vn 1.0000 0.0000 -0.0000
vn 1.0000 -0.0000 0.0000
vn 1.0000 0.0000 0.0000
vn -1.0000 -0.0000 -0.0000
vn -1.0000 -0.0000 0.0000
vn 0.0000 0.0000 -1.0000
# 10 vertex normals

vt 0.1800 0.1000 0.0000
vt 0.4614 0.1000 0.0000
vt 0.4614 0.0308 0.0000
vt 0.1800 0.0308 0.0000
vt 0.5628 0.1161 0.0000
vt 0.5628 0.9652 0.0000
vt 0.4990 0.9652 0.0000
vt 0.4990 0.1161 0.0000
vt 0.2545 0.2045 0.0000
vt 0.2545 0.8763 0.0000
vt 0.2967 0.7690 0.0000
vt 0.2967 0.5775 0.0000
vt 0.4778 0.8763 0.0000
vt 0.3694 0.7690 0.0000
vt 0.4778 0.2045 0.0000
vt 0.3694 0.5775 0.0000
vt 0.2492 0.2043 0.0000
vt 0.0261 0.2043 0.0000
vt 0.1344 0.5776 0.0000
vt 0.2070 0.5776 0.0000
vt 0.0261 0.8766 0.0000
vt 0.1344 0.7692 0.0000
vt 0.2492 0.8766 0.0000
vt 0.2070 0.7692 0.0000
vt 0.5628 0.5876 0.0000
vt 0.5628 0.8295 0.0000
vt 0.5573 0.8295 0.0000
vt 0.5573 0.5876 0.0000
vt 0.2332 0.1000 0.0000
vt 0.3248 0.1000 0.0000
vt 0.3248 0.0940 0.0000
vt 0.2332 0.0940 0.0000
vt 0.2332 0.0308 0.0000
vt 0.3248 0.0308 0.0000
vt 0.3248 0.0368 0.0000
vt 0.2332 0.0368 0.0000
vt 0.4990 0.5876 0.0000
vt 0.4990 0.8295 0.0000
vt 0.5045 0.8295 0.0000
vt 0.5045 0.5876 0.0000
vt 0.6610 0.4057 0.0000
vt 0.6610 0.8789 0.0000
vt 0.8295 0.8789 0.0000
vt 0.8295 0.4057 0.0000
# 44 texture coords

g ??????_?_??_
usemtl Material__36
s 8
f 1/1/1 2/2/1 3/3/1 4/4/1 
s 16
f 2/5/2 5/6/2 6/7/2 3/8/2 
s 32
f 5/2/3 7/1/3 8/4/3 6/3/3 
s 64
f 7/6/4 1/5/4 4/8/4 8/7/4 
s off
f 1/9/5 7/10/5 9/11/5 10/12/5 
f 7/10/6 5/13/6 11/14/6 9/11/6 
f 5/13/7 2/15/7 12/16/7 11/14/7 
f 2/15/7 1/9/7 10/12/7 12/16/7 
f 4/17/8 3/18/8 13/19/8 14/20/8 
f 3/18/8 6/21/8 15/22/8 13/19/8 
f 6/21/8 8/23/8 16/24/8 15/22/8 
f 8/23/9 4/17/9 14/20/9 16/24/9 
f 10/25/2 9/26/2 17/27/2 18/28/2 
f 9/29/1 11/30/1 19/31/1 17/32/1 
f 11/26/10 12/25/10 20/28/10 19/27/10 
f 12/30/3 10/29/3 18/32/3 20/31/3 
f 14/33/3 13/34/3 21/35/3 22/36/3 
f 13/37/4 15/38/4 23/39/4 21/40/4 
f 15/34/1 16/33/1 24/36/1 23/35/1 
f 16/38/2 14/37/2 22/40/2 24/39/2 
s 1
f 21/40/4 23/39/4 19/27/10 20/28/4 
f 24/39/2 22/40/2 18/28/2 17/27/2 
s 2
f 22/36/3 21/35/3 20/31/3 18/32/3 
f 23/35/1 24/36/1 17/32/1 19/31/1 
f 18/41/7 17/42/7 19/43/7 20/44/7 
s 4
f 22/41/8 21/44/8 23/43/8 24/42/8 
s 1
f 22/41/10 24/42/10 17/42/10 18/41/10 
f 23/43/2 21/44/2 20/44/2 19/43/2 
s 8
f 24/42/3 23/43/3 19/43/3 17/42/3 
f 21/44/1 22/41/1 18/41/1 20/44/1 
# 30 polygons

