# 3ds Max Wavefront OBJ Exporter v0.97b - (c)2007 guruware
# File Created: 06.04.2018 00:52:15

mtllib ???.mtl

#
# object Box007
#

v  1.3898 0.3766 280.0906
v  1.3897 0.3766 397.5841
v  -25.6432 0.3766 397.5841
v  -25.6432 0.3766 280.0906
v  1.3897 377.7817 397.5841
v  -25.6432 377.7817 397.5841
v  1.3897 377.7817 280.0906
v  -25.6432 377.7817 280.0906
v  1.3897 317.4959 302.2964
v  1.3898 209.9435 302.2964
v  1.3897 317.4959 340.5530
v  1.3897 209.9435 340.5530
v  -25.6432 209.9435 340.5530
v  -25.6432 209.9435 302.2964
v  -25.6432 317.4959 340.5530
v  -25.6432 317.4959 302.2964
v  -0.9392 317.4959 302.2964
v  -0.9392 209.9435 302.2964
v  -0.9392 317.4959 340.5530
v  -0.9392 209.9435 340.5530
v  -23.3142 209.9435 340.5530
v  -23.3142 209.9435 302.2964
v  -23.3142 317.4959 340.5530
v  -23.3142 317.4959 302.2964
# 24 vertices

vn 0.0000 -1.0000 0.0000
vn -0.0000 0.0000 1.0000
vn -0.0000 1.0000 -0.0000
vn 0.0000 -0.0000 -1.0000
vn 1.0000 0.0000 -0.0000
vn 1.0000 -0.0000 0.0000
vn 1.0000 0.0000 0.0000
vn -1.0000 -0.0000 -0.0000
vn -1.0000 -0.0000 0.0000
vn 0.0000 0.0000 -1.0000
# 10 vertex normals

vt 0.0000 0.0000 0.0000
vt 1.0000 0.0000 0.0000
vt 1.0000 1.0000 0.0000
vt 0.0000 1.0000 0.0000
# 4 texture coords

g Box007
usemtl wire_086086086
s 8
f 1/1/1 2/2/1 3/3/1 4/4/1 
s 16
f 2/1/2 5/2/2 6/3/2 3/4/2 
s 32
f 5/1/3 7/2/3 8/3/3 6/4/3 
s 64
f 7/1/4 1/2/4 4/3/4 8/4/4 
s off
f 1/2/5 7/3/5 9/3/5 10/2/5 
f 7/3/6 5/4/6 11/4/6 9/3/6 
f 5/4/7 2/1/7 12/1/7 11/4/7 
f 2/1/7 1/2/7 10/2/7 12/1/7 
f 4/1/8 3/2/8 13/2/8 14/1/8 
f 3/2/8 6/3/8 15/3/8 13/2/8 
f 6/3/8 8/4/8 16/4/8 15/3/8 
f 8/4/9 4/1/9 14/1/9 16/4/9 
f 10/2/2 9/3/2 17/3/2 18/2/2 
f 9/3/1 11/4/1 19/4/1 17/3/1 
f 11/4/10 12/1/10 20/1/10 19/4/10 
f 12/1/3 10/2/3 18/2/3 20/1/3 
f 14/1/3 13/2/3 21/2/3 22/1/3 
f 13/2/4 15/3/4 23/3/4 21/2/4 
f 15/3/1 16/4/1 24/4/1 23/3/1 
f 16/4/2 14/1/2 22/1/2 24/4/2 
s 1
f 21/2/4 23/4/4 19/4/10 20/3/4 
f 24/3/2 22/1/2 18/1/2 17/2/2 
s 2
f 22/1/3 21/2/3 20/3/3 18/1/3 
f 23/4/1 24/3/1 17/2/1 19/4/1 
# 24 polygons

#
# object Object001
#

v  -0.9388 209.9435 302.2964
v  -0.9389 317.4959 302.2964
v  -0.9389 317.4959 340.5530
v  -0.9389 209.9435 340.5530
v  -23.3139 209.9435 302.2964
v  -23.3139 209.9435 340.5530
v  -23.3139 317.4959 340.5530
v  -23.3139 317.4959 302.2964
# 8 vertices

vn 1.0000 0.0000 0.0000
vn -1.0000 -0.0000 -0.0000
vn 0.0000 0.0000 -1.0000
vn -0.0000 0.0000 1.0000
vn -0.0000 1.0000 -0.0000
vn 0.0000 -1.0000 0.0000
# 6 vertex normals

vt 1.0000 0.0000 0.0000
vt 1.0000 1.0000 0.0000
vt 0.0000 1.0000 0.0000
vt 0.0000 0.0000 0.0000
# 4 texture coords

g Object001
usemtl wire_166229229
s 2
f 25/5/11 26/6/11 27/7/11 28/8/11 
s 4
f 29/8/12 30/5/12 31/6/12 32/7/12 
s 1
f 29/8/13 32/7/13 26/6/13 25/5/13 
f 31/6/14 30/5/14 28/8/14 27/7/14 
s 8
f 32/7/15 31/6/15 27/7/15 26/6/15 
f 30/5/16 29/8/16 25/5/16 28/8/16 
# 6 polygons

