# 3ds Max Wavefront OBJ Exporter v0.97b - (c)2007 guruware
# File Created: 11.05.2018 23:00:55

mtllib Multimedia_topwall.mtl

#
# object ????????
#

v  0.0428 -0.3003 0.9175
v  0.0428 0.2774 0.9175
v  -0.0474 0.2774 0.9175
v  -0.0474 -0.3003 0.9175
v  0.0428 0.2774 -0.9227
v  0.0428 -0.3003 -0.9227
v  -0.0474 -0.3003 -0.9227
v  -0.0474 0.2774 -0.9227
v  0.0428 -0.3003 0.7988
v  0.0428 0.2774 0.7988
v  0.0428 0.2774 -0.8039
v  0.0428 -0.3003 -0.8039
v  -0.0474 0.2774 0.7988
v  -0.0474 -0.3003 0.7988
v  -0.0474 -0.3003 -0.8039
v  -0.0474 0.2774 -0.8039
v  0.0340 -0.3003 0.7988
v  0.0340 -0.3260 0.7988
v  0.0340 -0.3260 -0.8039
v  0.0340 -0.3003 -0.8039
v  0.0340 0.2774 -0.8039
v  0.0340 0.3031 -0.8039
v  0.0340 0.3031 0.7988
v  0.0340 0.2774 0.7988
v  -0.0386 0.2774 0.7988
v  -0.0386 0.3031 0.7988
v  -0.0386 0.3031 -0.8039
v  -0.0386 0.2774 -0.8039
v  -0.0386 -0.3003 -0.8039
v  -0.0386 -0.3260 -0.8039
v  -0.0386 -0.3260 0.7988
v  -0.0386 -0.3003 0.7988
v  0.0428 0.3031 0.9175
v  -0.0474 0.3031 0.9175
v  -0.0474 -0.3260 0.9175
v  0.0428 -0.3260 0.9175
v  0.0428 -0.3260 -0.9227
v  -0.0474 -0.3260 -0.9227
v  -0.0474 0.3031 -0.9227
v  0.0428 0.3031 -0.9227
v  0.0428 -0.3260 0.7988
v  0.0428 0.3031 0.7988
v  0.0428 0.3031 -0.8039
v  0.0428 -0.3260 -0.8039
v  -0.0474 0.3031 0.7988
v  -0.0474 -0.3260 0.7988
v  -0.0474 -0.3260 -0.8039
v  -0.0474 0.3031 -0.8039
v  0.0076 -0.3003 -0.8039
v  0.0076 -0.3003 0.7988
v  0.0076 0.2774 -0.8039
v  0.0076 0.2774 0.7988
v  -0.0122 0.2774 -0.8039
v  -0.0122 0.2774 0.7988
v  -0.0122 -0.3003 -0.8039
v  -0.0122 -0.3003 0.7988
# 56 vertices

vn -0.0000 0.0000 1.0000
vn 0.0000 0.0000 -1.0000
vn 1.0000 0.0000 0.0000
vn -1.0000 -0.0000 -0.0000
vn 0.0000 -0.0000 -1.0000
vn -0.0000 -0.0000 1.0000
vn -0.0000 1.0000 -0.0000
vn 0.0000 -1.0000 0.0000
vn 0.0000 -1.0000 -0.0000
vn -0.0000 -0.0000 -1.0000
vn 0.0000 -0.0000 1.0000
vn -0.0000 1.0000 0.0000
# 12 vertex normals

vt 0.9391 0.0911 0.0000
vt 0.9391 0.4178 0.0000
vt 0.0478 0.4178 0.0000
vt 0.0478 0.0911 0.0000
vt 0.8816 0.0911 0.0000
vt 0.8816 0.4178 0.0000
vt 0.1053 0.4178 0.0000
vt 0.1053 0.0911 0.0000
vt 0.8816 0.0765 0.0000
vt 0.1053 0.0765 0.0000
vt 0.1053 0.4324 0.0000
vt 0.8816 0.4324 0.0000
vt 0.9391 0.4324 0.0000
vt 0.9391 0.0765 0.0000
vt 0.0478 0.0765 0.0000
vt 0.0478 0.4324 0.0000
vt 0.9453 0.9177 0.0000
vt 0.9453 0.5558 0.0000
vt 0.0540 0.5558 0.0000
vt 0.0540 0.9177 0.0000
# 20 texture coords

g ????????
usemtl Material__32
s 16
f 1/1/1 2/2/1 3/2/1 4/1/1 
s 64
f 5/3/2 6/4/2 7/4/2 8/3/2 
s 2
f 2/2/3 1/1/3 9/5/3 10/6/3 
f 6/4/3 5/3/3 11/7/3 12/8/3 
s 4
f 4/1/4 3/2/4 13/6/4 14/5/4 
f 8/3/4 7/4/4 15/8/4 16/7/4 
s 2
f 17/5/3 18/9/3 19/10/3 20/8/3 
f 21/7/3 22/11/3 23/12/3 24/6/3 
s 4
f 25/6/4 26/12/4 27/11/4 28/7/4 
f 29/8/4 30/10/4 31/9/4 32/5/4 
s 16
f 2/2/1 33/13/1 34/13/1 3/2/1 
f 4/1/1 35/14/1 36/14/1 1/1/1 
s 64
f 6/4/2 37/15/2 38/15/2 7/4/2 
f 8/3/2 39/16/2 40/16/2 5/3/2 
s 2
f 1/1/3 36/14/3 41/9/3 9/5/3 
f 10/6/3 42/12/3 33/13/3 2/2/3 
f 5/3/3 40/16/3 43/11/3 11/7/3 
f 12/8/3 44/10/3 37/15/3 6/4/3 
s 4
f 3/2/4 34/13/4 45/12/4 13/6/4 
f 14/5/4 46/9/4 35/14/4 4/1/4 
f 7/4/4 38/15/4 47/10/4 15/8/4 
f 16/7/4 48/11/4 39/16/4 8/3/4 
s off
f 42/12/5 10/6/5 24/6/5 23/12/5 
f 10/6/2 9/5/2 17/5/2 24/6/2 
f 9/5/2 41/9/2 18/9/2 17/5/2 
f 44/10/1 12/8/1 20/8/1 19/10/1 
f 12/8/6 11/7/6 21/7/6 20/8/6 
f 11/7/1 43/11/1 22/11/1 21/7/1 
f 46/9/2 14/5/2 32/5/2 31/9/2 
f 14/5/5 13/6/5 25/6/5 32/5/5 
f 13/6/2 45/12/2 26/12/2 25/6/2 
f 48/11/1 16/7/1 28/7/1 27/11/1 
f 16/7/1 15/8/1 29/8/1 28/7/1 
f 15/8/1 47/10/1 30/10/1 29/8/1 
s 1
f 27/11/7 26/12/7 23/12/7 22/11/7 
s 40
f 42/12/7 23/12/7 33/13/7 
f 23/12/7 26/12/7 34/13/7 33/13/7 
f 26/12/7 45/12/7 34/13/7 
s 24
f 48/11/7 27/11/7 39/16/7 
s 1
f 31/9/8 30/10/8 19/10/8 18/9/8 
s 24
f 44/10/8 19/10/8 37/15/8 
s 40
f 46/9/8 31/9/8 35/14/8 
f 31/9/8 18/9/8 36/14/8 35/14/8 
f 18/9/8 41/9/8 36/14/8 
s 24
f 19/10/8 30/10/8 38/15/8 37/15/8 
f 22/11/7 43/11/7 40/16/7 
f 27/11/7 22/11/7 40/16/7 39/16/7 
s off
f 17/5/7 20/8/7 49/8/7 50/5/7 
f 20/8/6 21/7/6 51/7/6 49/8/6 
f 21/7/9 24/6/9 52/6/9 51/7/9 
f 24/6/2 17/5/2 50/5/2 52/6/2 
f 25/6/9 28/7/9 53/7/9 54/6/9 
f 28/7/1 29/8/1 55/8/1 53/7/1 
f 29/8/7 32/5/7 56/5/7 55/8/7 
f 32/5/5 25/6/5 54/6/5 56/5/5 
s 2
f 52/17/3 50/18/3 49/19/3 51/20/3 
s 4
f 56/18/4 54/17/4 53/20/4 55/19/4 
s 1
f 56/5/10 54/6/2 52/6/2 50/5/10 
s 2
f 55/8/7 56/5/7 50/5/7 49/8/7 
f 54/6/9 53/7/9 51/7/9 52/6/9 
s 1
f 53/7/1 55/8/11 49/8/11 51/7/1 
f 53/20/12 54/17/12 52/17/12 51/20/12 
s 8
f 55/19/2 53/20/2 51/20/2 49/19/2 
f 54/17/1 56/18/1 50/18/1 52/17/1 
s 1
f 56/18/8 55/19/8 49/19/8 50/18/8 
# 58 polygons - 7 triangles

