# 3ds Max Wavefront OBJ Exporter v0.97b - (c)2007 guruware
# File Created: 11.05.2018 23:03:21

mtllib Multimedia_door_frame.mtl

#
# object ?????????
#

v  0.0360 1.1984 -0.8554
v  0.0360 1.3035 -0.8554
v  0.0360 1.3035 0.2563
v  0.0367 1.1984 0.2563
v  -0.0374 1.1984 0.2563
v  -0.0367 1.3035 0.2563
v  -0.0367 1.3035 -0.8554
v  -0.0367 1.1984 -0.8554
v  0.0448 1.1984 0.8984
v  0.0448 1.3035 0.8984
v  -0.0455 1.3035 0.8984
v  -0.0455 1.1984 0.8984
v  -0.0154 1.1984 0.8984
v  0.0147 1.1984 0.8984
v  -0.0455 1.1984 -0.9377
v  -0.0455 1.3035 -0.9377
v  0.0448 1.3035 -0.9377
v  0.0448 1.1984 -0.9377
v  0.0448 1.1984 0.2563
v  0.0448 1.3035 0.2563
v  0.0448 1.3035 0.3386
v  0.0448 1.1984 0.3386
v  0.0448 1.3035 -0.8554
v  0.0448 1.1984 -0.8554
v  -0.0455 1.1984 0.3386
v  -0.0455 1.3035 0.3386
v  -0.0455 1.3035 0.2563
v  -0.0455 1.1984 0.2563
v  -0.0455 1.1984 -0.8554
v  -0.0455 1.3035 -0.8554
v  -0.0455 -1.2723 0.2563
v  -0.0374 -1.2723 0.2563
v  -0.0455 -1.2723 0.3386
v  0.0367 -1.2723 0.2563
v  0.0448 -1.2723 0.2563
v  0.0448 -1.2723 0.3386
v  -0.0455 -1.1735 0.2563
v  -0.0455 -1.1735 0.3386
v  -0.0374 -1.1735 0.2563
v  0.0367 -1.1735 0.2563
v  0.0448 -1.1735 0.2563
v  0.0448 -1.1735 0.3386
v  -0.0455 -1.1735 0.8984
v  -0.0455 -1.2723 0.8984
v  0.0448 -1.2723 0.8984
v  0.0448 -1.1735 0.8984
v  0.0147 -1.1735 0.8984
v  -0.0154 -1.1735 0.8984
v  -0.0154 1.1984 0.3386
v  -0.0154 -1.1735 0.3386
v  0.0147 -1.1735 0.3386
v  0.0147 1.1984 0.3386
# 52 vertices

vn 1.0000 0.0000 -0.0006
vn 1.0000 0.0004 -0.0006
vn 1.0000 0.0069 0.0000
vn 1.0000 0.0065 -0.0000
vn -1.0000 0.0069 -0.0006
vn -1.0000 0.0065 -0.0006
vn -1.0000 -0.0000 -0.0000
vn -1.0000 0.0004 -0.0000
vn -0.0000 0.0000 1.0000
vn 0.0000 0.0000 -1.0000
vn 1.0000 0.0000 0.0000
vn 0.0000 -0.0000 -1.0000
vn -0.0000 1.0000 0.0000
vn -0.0000 1.0000 -0.0000
vn 0.0000 -1.0000 -0.0000
vn 0.0000 -1.0000 0.0000
vn -1.0000 0.0000 -0.0000
vn 1.0000 -0.0000 0.0000
# 18 vertex normals

vt 0.0599 0.4245 0.0000
vt 0.0599 0.4382 0.0000
vt 0.6340 0.4382 0.0000
vt 0.6340 0.4245 0.0000
vt 0.9655 0.4245 0.0000
vt 0.9655 0.4382 0.0000
vt 0.0174 0.4245 0.0000
vt 0.0174 0.4382 0.0000
vt 0.6765 0.4382 0.0000
vt 0.6765 0.4245 0.0000
vt 0.6340 0.1034 0.0000
vt 0.6765 0.1034 0.0000
vt 0.6340 0.1163 0.0000
vt 0.6765 0.1163 0.0000
vt 0.9655 0.1163 0.0000
vt 0.9655 0.1034 0.0000
vt 0.9718 0.9120 0.0000
vt 0.9718 0.5830 0.0000
vt 0.0237 0.9120 0.0000
vt 0.0237 0.5830 0.0000
# 20 texture coords

g ?????????
usemtl Material__32
s 2
f 1/1/1 2/2/2 3/3/3 4/4/4 
s 4
f 5/4/5 6/3/6 7/2/7 8/1/8 
s 16
f 9/5/9 10/6/9 11/6/9 12/5/9 13/5/9 14/5/9 
s 64
f 15/7/10 16/8/10 17/8/10 18/7/10 
s 2
f 19/4/11 20/3/11 21/9/11 22/10/11 
f 18/7/11 17/8/11 23/2/11 24/1/11 
s 4
f 25/10/7 26/9/7 27/3/7 28/4/7 
f 29/1/7 30/2/7 16/8/7 15/7/7 
s off
f 20/3/12 19/4/12 4/4/12 3/3/12 
f 24/1/9 23/2/9 2/2/9 1/1/9 
f 28/4/10 27/3/10 6/3/10 5/4/10 
f 30/2/9 29/1/9 8/1/9 7/2/9 
s 1
f 7/2/13 6/3/13 3/3/13 2/2/13 
s 40
f 20/3/14 3/3/14 21/9/14 
f 3/3/14 6/3/14 26/9/14 21/9/14 
f 6/3/14 27/3/14 26/9/14 
s 24
f 30/2/14 7/2/14 16/8/14 
f 2/2/14 23/2/14 17/8/14 
f 7/2/14 2/2/14 17/8/14 16/8/14 
s 1
f 5/4/15 8/1/15 1/1/15 4/4/15 
s 40
f 31/11/16 32/11/16 33/12/16 
f 34/11/16 35/11/16 36/12/16 
s 24
f 8/1/16 15/7/16 18/7/16 1/1/16 
f 8/1/16 29/1/16 15/7/16 
f 18/7/16 24/1/16 1/1/16 
s 64
f 32/11/16 34/11/16 36/12/16 33/12/16 
s off
f 25/10/17 28/4/17 37/13/17 38/14/17 
f 28/4/12 5/4/12 39/13/12 37/13/12 
f 5/4/12 4/4/12 40/13/12 39/13/12 
f 4/4/12 19/4/12 41/13/12 40/13/12 
f 19/4/18 22/10/18 42/14/18 41/13/18 
f 43/15/9 44/16/9 45/16/9 46/15/9 47/15/9 48/15/9 
f 37/13/17 31/11/17 33/12/17 38/14/17 
f 39/13/10 32/11/10 31/11/10 37/13/10 
f 40/13/12 34/11/12 32/11/12 39/13/12 
f 41/13/10 35/11/10 34/11/10 40/13/10 
f 42/14/18 36/12/18 35/11/18 41/13/18 
f 49/10/9 25/10/9 38/14/9 50/14/9 
f 51/14/9 42/14/9 22/10/9 52/10/9 
f 22/10/11 21/9/11 10/6/11 9/5/11 
f 21/9/14 26/9/14 11/6/14 10/6/14 
f 26/9/7 25/10/7 12/5/7 11/6/7 
f 25/10/16 49/10/16 13/5/16 12/5/16 
f 50/14/14 38/14/14 43/15/14 48/15/14 
f 38/14/17 33/12/17 44/16/17 43/15/17 
f 33/12/16 36/12/16 45/16/16 44/16/16 
f 36/12/18 42/14/18 46/15/18 45/16/18 
f 42/14/14 51/14/14 47/15/14 46/15/14 
f 52/10/16 22/10/16 9/5/16 14/5/16 
f 14/17/9 13/17/9 48/18/9 47/18/9 
f 49/19/17 50/20/17 48/18/17 13/17/17 
f 51/20/18 52/19/18 14/17/18 47/18/18 
s 1
f 51/14/9 52/10/9 49/10/9 50/14/9 
s 2
f 47/15/14 51/14/14 50/14/14 48/15/14 
f 52/10/16 14/5/16 13/5/16 49/10/16 
s 1
f 14/17/14 52/19/14 49/19/14 13/17/14 
s 2
f 52/19/12 51/20/12 50/20/12 49/19/12 
s 1
f 51/20/16 47/18/16 48/18/16 50/20/16 
# 50 polygons - 8 triangles

