# 3ds Max Wavefront OBJ Exporter v0.97b - (c)2007 guruware
# File Created: 11.05.2018 23:01:26

mtllib Multimedia_wall.mtl

#
# object ???????
#

v  0.0419 -1.1666 0.9137
v  0.0419 1.1984 0.9137
v  -0.0483 1.1984 0.9137
v  -0.0483 -1.1666 0.9137
v  0.0419 1.1984 -0.9265
v  0.0419 -1.1666 -0.9265
v  -0.0483 -1.1666 -0.9265
v  -0.0483 1.1984 -0.9265
v  0.0419 -1.1666 0.7949
v  0.0419 1.1984 0.7949
v  0.0419 1.1984 -0.8078
v  0.0419 -1.1666 -0.8078
v  -0.0483 1.1984 0.7949
v  -0.0483 -1.1666 0.7949
v  -0.0483 -1.1666 -0.8078
v  -0.0483 1.1984 -0.8078
v  0.0331 -1.1666 0.7949
v  0.0331 -1.2718 0.7949
v  0.0331 -1.2718 -0.8078
v  0.0331 -1.1666 -0.8078
v  0.0331 1.1984 -0.8078
v  0.0331 1.3035 -0.8078
v  0.0331 1.3035 0.7949
v  0.0331 1.1984 0.7949
v  -0.0395 1.1984 0.7949
v  -0.0395 1.3035 0.7949
v  -0.0395 1.3035 -0.8078
v  -0.0395 1.1984 -0.8078
v  -0.0395 -1.1666 -0.8078
v  -0.0395 -1.2718 -0.8078
v  -0.0395 -1.2718 0.7949
v  -0.0395 -1.1666 0.7949
v  0.0419 1.3035 0.9137
v  -0.0483 1.3035 0.9137
v  -0.0483 -1.2718 0.9137
v  0.0419 -1.2718 0.9137
v  0.0419 -1.2718 -0.9265
v  -0.0483 -1.2718 -0.9265
v  -0.0483 1.3035 -0.9265
v  0.0419 1.3035 -0.9265
v  0.0419 -1.2718 0.7949
v  0.0419 1.3035 0.7949
v  0.0419 1.3035 -0.8078
v  0.0419 -1.2718 -0.8078
v  -0.0483 1.3035 0.7949
v  -0.0483 -1.2718 0.7949
v  -0.0483 -1.2718 -0.8078
v  -0.0483 1.3035 -0.8078
v  0.0067 -1.1666 -0.8078
v  0.0067 -1.1666 0.7949
v  0.0067 1.1984 -0.8078
v  0.0067 1.1984 0.7949
v  -0.0131 1.1984 -0.8078
v  -0.0131 1.1984 0.7949
v  -0.0131 -1.1666 -0.8078
v  -0.0131 -1.1666 0.7949
# 56 vertices

vn -0.0000 0.0000 1.0000
vn 0.0000 0.0000 -1.0000
vn 1.0000 0.0000 0.0000
vn -1.0000 -0.0000 -0.0000
vn 0.0000 -0.0000 -1.0000
vn -0.0000 -0.0000 1.0000
vn -0.0000 1.0000 0.0000
vn -0.0000 1.0000 -0.0000
vn 0.0000 -1.0000 0.0000
vn 0.0000 -1.0000 -0.0000
vn 0.0000 -0.0000 1.0000
vn -0.0000 -0.0000 -1.0000
# 12 vertex normals

vt 0.9712 0.1760 0.0000
vt 0.9712 0.7889 0.0000
vt 0.5056 0.7889 0.0000
vt 0.5056 0.1760 0.0000
vt 0.9411 0.1760 0.0000
vt 0.9411 0.7889 0.0000
vt 0.5356 0.7889 0.0000
vt 0.5356 0.1760 0.0000
vt 0.9411 0.1487 0.0000
vt 0.5356 0.1487 0.0000
vt 0.5356 0.8162 0.0000
vt 0.9411 0.8162 0.0000
vt 0.9712 0.8162 0.0000
vt 0.9712 0.1487 0.0000
vt 0.5056 0.1487 0.0000
vt 0.5056 0.8162 0.0000
vt 0.4590 0.7934 0.0000
vt 0.4590 0.1649 0.0000
vt 0.0614 0.1649 0.0000
vt 0.0614 0.7934 0.0000
# 20 texture coords

g ???????
usemtl Material__33
s 16
f 1/1/1 2/2/1 3/2/1 4/1/1 
s 64
f 5/3/2 6/4/2 7/4/2 8/3/2 
s 2
f 2/2/3 1/1/3 9/5/3 10/6/3 
f 6/4/3 5/3/3 11/7/3 12/8/3 
s 4
f 4/1/4 3/2/4 13/6/4 14/5/4 
f 8/3/4 7/4/4 15/8/4 16/7/4 
s 2
f 17/5/3 18/9/3 19/10/3 20/8/3 
f 21/7/3 22/11/3 23/12/3 24/6/3 
s 4
f 25/6/4 26/12/4 27/11/4 28/7/4 
f 29/8/4 30/10/4 31/9/4 32/5/4 
s 16
f 2/2/1 33/13/1 34/13/1 3/2/1 
f 4/1/1 35/14/1 36/14/1 1/1/1 
s 64
f 6/4/2 37/15/2 38/15/2 7/4/2 
f 8/3/2 39/16/2 40/16/2 5/3/2 
s 2
f 1/1/3 36/14/3 41/9/3 9/5/3 
f 10/6/3 42/12/3 33/13/3 2/2/3 
f 5/3/3 40/16/3 43/11/3 11/7/3 
f 12/8/3 44/10/3 37/15/3 6/4/3 
s 4
f 3/2/4 34/13/4 45/12/4 13/6/4 
f 14/5/4 46/9/4 35/14/4 4/1/4 
f 7/4/4 38/15/4 47/10/4 15/8/4 
f 16/7/4 48/11/4 39/16/4 8/3/4 
s off
f 42/12/5 10/6/5 24/6/5 23/12/5 
f 10/6/2 9/5/2 17/5/2 24/6/2 
f 9/5/2 41/9/2 18/9/2 17/5/2 
f 44/10/1 12/8/1 20/8/1 19/10/1 
f 12/8/6 11/7/6 21/7/6 20/8/6 
f 11/7/1 43/11/1 22/11/1 21/7/1 
f 46/9/2 14/5/2 32/5/2 31/9/2 
f 14/5/5 13/6/5 25/6/5 32/5/5 
f 13/6/2 45/12/2 26/12/2 25/6/2 
f 48/11/1 16/7/1 28/7/1 27/11/1 
f 16/7/1 15/8/1 29/8/1 28/7/1 
f 15/8/1 47/10/1 30/10/1 29/8/1 
s 1
f 27/11/7 26/12/7 23/12/7 22/11/7 
s 40
f 42/12/8 23/12/8 33/13/8 
f 23/12/8 26/12/8 34/13/8 33/13/8 
f 26/12/8 45/12/8 34/13/8 
s 24
f 48/11/8 27/11/8 39/16/8 
s 1
f 31/9/9 30/10/9 19/10/9 18/9/9 
s 24
f 44/10/9 19/10/9 37/15/9 
s 40
f 46/9/9 31/9/9 35/14/9 
f 31/9/9 18/9/9 36/14/9 35/14/9 
f 18/9/9 41/9/9 36/14/9 
s 24
f 30/10/9 47/10/9 38/15/9 
f 19/10/9 30/10/9 38/15/9 37/15/9 
f 22/11/8 43/11/8 40/16/8 
f 27/11/8 22/11/8 40/16/8 39/16/8 
s off
f 17/5/8 20/8/8 49/8/8 50/5/8 
f 20/8/6 21/7/6 51/7/6 49/8/6 
f 21/7/10 24/6/10 52/6/10 51/7/10 
f 24/6/2 17/5/2 50/5/2 52/6/2 
f 25/6/10 28/7/10 53/7/10 54/6/10 
f 28/7/1 29/8/1 55/8/1 53/7/1 
f 29/8/8 32/5/8 56/5/8 55/8/8 
f 32/5/5 25/6/5 54/6/5 56/5/5 
s 2
f 52/17/3 50/18/3 49/19/3 51/20/3 
s 4
f 56/18/4 54/17/4 53/20/4 55/19/4 
s 1
f 53/7/1 55/8/11 49/8/11 51/7/1 
s 2
f 54/6/10 53/7/10 51/7/10 52/6/10 
s 1
f 56/5/12 54/6/2 52/6/2 50/5/12 
s 2
f 55/8/8 56/5/8 50/5/8 49/8/8 
s 1
f 53/20/7 54/17/7 52/17/7 51/20/7 
s 8
f 55/19/5 53/20/5 51/20/2 49/19/5 
f 54/17/6 56/18/6 50/18/6 52/17/6 
s 1
f 56/18/9 55/19/9 49/19/9 50/18/9 
# 58 polygons - 8 triangles

