# 3ds Max Wavefront OBJ Exporter v0.97b - (c)2007 guruware
# File Created: 11.05.2018 22:27:27

mtllib classroom_door.mtl

#
# object ???
#

v  0.0685 -1.4389 -0.5452
v  0.0685 1.1388 -0.5452
v  0.0685 1.1388 -0.5324
v  0.0685 -1.4389 -0.5324
v  0.0597 -1.4389 -0.5452
v  0.0597 -1.4389 -0.5206
v  -0.0470 -1.4389 -0.5452
v  0.0597 -1.4389 0.6847
v  0.0597 1.1388 0.6847
v  -0.0470 1.1388 0.6847
v  -0.0470 -1.4389 0.6847
v  0.0597 1.1388 -0.5206
v  -0.0470 1.1388 -0.5452
v  0.0597 1.1388 -0.5452
v  0.2005 -0.1143 -0.4778
v  0.2005 -0.1143 -0.3285
v  0.2005 -0.2638 -0.3285
v  0.2005 -0.2638 -0.4778
v  0.0597 -1.4389 -0.5804
v  0.0597 1.1388 -0.5804
v  0.0685 1.1388 -0.5804
v  0.0685 -1.4389 -0.5804
v  -0.1877 -0.2638 -0.4778
v  -0.1877 -0.2638 -0.3285
v  -0.1877 -0.1143 -0.3285
v  -0.1877 -0.1143 -0.4778
v  0.0597 -0.2407 -0.3516
v  0.0597 -0.1374 -0.3516
v  0.0597 -0.2407 -0.4547
v  0.0597 -0.1374 -0.4547
v  -0.0470 0.9233 0.4779
v  -0.0470 0.9233 -0.2905
v  -0.0470 -1.2276 -0.2905
v  -0.0470 -1.2389 0.4779
v  -0.0470 0.9409 -0.3081
v  -0.0470 0.9409 0.4955
v  0.0948 -0.2407 -0.3516
v  0.0948 -0.1374 -0.3516
v  0.0948 -0.2407 -0.4547
v  0.0948 -0.1374 -0.4547
v  -0.0470 -0.2407 -0.3516
v  -0.0470 -0.1374 -0.3516
v  -0.0820 -0.1374 -0.3516
v  -0.0820 -0.2407 -0.3516
v  -0.0470 -0.1374 -0.4547
v  -0.0820 -0.1374 -0.4547
v  -0.0470 -0.2407 -0.4547
v  -0.0820 -0.2407 -0.4547
v  0.0949 -0.1143 -0.3285
v  0.0949 -0.2638 -0.3285
v  0.0949 -0.2638 -0.4778
v  0.0949 -0.1143 -0.4778
v  -0.0822 -0.2638 -0.3285
v  -0.0822 -0.1143 -0.3285
v  -0.0822 -0.1143 -0.4778
v  -0.0822 -0.2638 -0.4778
v  -0.0470 -1.2450 -0.3081
v  -0.0470 -1.2568 0.4955
v  -0.0575 -1.2567 0.4954
v  -0.0575 -1.2449 -0.3080
v  -0.0575 0.9409 0.4952
v  -0.0575 0.9409 -0.3083
v  -0.0634 -1.2363 -0.2993
v  -0.0634 -1.2479 0.4867
v  -0.0575 -1.2390 0.4779
v  -0.0575 -1.2277 -0.2905
v  -0.0634 0.9321 0.4864
v  -0.0575 0.9234 0.4777
v  -0.0634 0.9321 -0.2995
v  -0.0575 0.9234 -0.2908
# 70 vertices

vn 1.0000 0.0000 0.0000
vn 0.0000 -1.0000 0.0000
vn -0.0000 0.0000 1.0000
vn -0.0000 -0.0000 1.0000
vn -0.0000 1.0000 -0.0000
vn 0.0000 -0.0000 -1.0000
vn 0.0000 0.0000 -1.0000
vn 0.8022 0.0000 0.5970
vn -1.0000 -0.0000 -0.0000
vn 1.0000 -0.0000 0.0000
vn -1.0000 0.0000 -0.0000
vn 0.0000 -1.0000 -0.0000
vn 0.0000 0.0000 1.0000
vn -0.0000 1.0000 0.0000
vn -1.0000 -0.0000 0.0000
vn -1.0000 -0.0000 0.0076
vn -1.0000 -0.0076 -0.0000
vn -1.0000 -0.0000 -0.0076
vn -1.0000 0.0076 -0.0000
vn 1.0000 0.0000 0.0076
vn 1.0000 0.0076 0.0000
vn 1.0000 0.0000 -0.0076
vn 1.0000 -0.0076 0.0000
vn -0.0042 -0.9999 -0.0147
vn -0.0164 0.0001 0.9999
vn -0.0042 1.0000 -0.0000
vn 0.0080 -0.0001 -1.0000
vn -0.8273 0.5617 0.0083
vn -0.8273 -0.0001 -0.5618
vn -0.8273 -0.5618 -0.0000
vn -0.8273 0.0001 0.5618
vn -0.8273 -0.5617 -0.0083
vn -0.8273 0.5618 -0.0000
vn -0.0042 0.9999 0.0147
vn -0.0042 -1.0000 -0.0000
# 35 vertex normals

vt 0.2177 0.5206 0.0000
vt 0.2177 0.9722 0.0000
vt 0.2202 0.9722 0.0000
vt 0.2202 0.5206 0.0000
vt 0.1351 0.9669 0.0000
vt 0.1351 0.9616 0.0000
vt 0.1135 0.9669 0.0000
vt 0.7844 0.0349 0.0000
vt 0.7844 0.4864 0.0000
vt 0.7676 0.4864 0.0000
vt 0.7676 0.0349 0.0000
vt 0.1351 0.7034 0.0000
vt 0.1135 0.7034 0.0000
vt 0.1447 0.4303 0.0000
vt 0.2214 0.4303 0.0000
vt 0.2214 0.3536 0.0000
vt 0.1447 0.3536 0.0000
vt 0.7857 0.4864 0.0000
vt 0.7857 0.0349 0.0000
vt 0.1368 0.9641 0.0000
vt 0.1368 0.9669 0.0000
vt 0.2225 0.9722 0.0000
vt 0.2225 0.5206 0.0000
vt 0.2110 0.9722 0.0000
vt 0.2110 0.5206 0.0000
vt 0.1368 0.9744 0.0000
vt 0.1351 0.9744 0.0000
vt 0.4547 0.9722 0.0000
vt 0.4547 0.5206 0.0000
vt 0.2551 0.7305 0.0000
vt 0.2551 0.7486 0.0000
vt 0.2352 0.7305 0.0000
vt 0.2352 0.7486 0.0000
vt 0.7172 0.4864 0.0000
vt 0.5335 0.4864 0.0000
vt 0.5335 0.0372 0.0000
vt 0.7172 0.0370 0.0000
vt 0.2634 0.9375 0.0000
vt 0.4183 0.9375 0.0000
vt 0.3639 0.4202 0.0000
vt 0.3639 0.3756 0.0000
vt 0.3785 0.3756 0.0000
vt 0.3785 0.4202 0.0000
vt 0.3641 0.3025 0.0000
vt 0.3641 0.3486 0.0000
vt 0.3788 0.3486 0.0000
vt 0.3788 0.3025 0.0000
vt 0.3640 0.3486 0.0000
vt 0.3640 0.3025 0.0000
vt 0.3192 0.3756 0.0000
vt 0.3192 0.4202 0.0000
vt 0.3045 0.4202 0.0000
vt 0.3045 0.3756 0.0000
vt 0.3190 0.3025 0.0000
vt 0.3190 0.3486 0.0000
vt 0.3042 0.3486 0.0000
vt 0.3042 0.3025 0.0000
vt 0.3786 0.4302 0.0000
vt 0.3786 0.3656 0.0000
vt 0.4228 0.3656 0.0000
vt 0.4228 0.4302 0.0000
vt 0.3789 0.2922 0.0000
vt 0.3789 0.3589 0.0000
vt 0.4235 0.3589 0.0000
vt 0.4235 0.2922 0.0000
vt 0.3044 0.3656 0.0000
vt 0.3044 0.4302 0.0000
vt 0.2602 0.4302 0.0000
vt 0.2602 0.3656 0.0000
vt 0.3041 0.2922 0.0000
vt 0.3041 0.3589 0.0000
vt 0.2595 0.3589 0.0000
vt 0.2595 0.2922 0.0000
vt 0.2634 0.5546 0.0000
vt 0.2096 0.3655 0.0000
vt 0.2096 0.4185 0.0000
vt 0.1565 0.3655 0.0000
vt 0.1565 0.4185 0.0000
vt 0.4183 0.5525 0.0000
vt 0.5270 0.9766 0.0000
vt 0.5270 0.8130 0.0000
vt 0.5247 0.8130 0.0000
vt 0.5247 0.9766 0.0000
vt 0.5302 0.5146 0.0000
vt 0.5302 0.8057 0.0000
vt 0.5260 0.8057 0.0000
vt 0.5260 0.5146 0.0000
vt 0.5247 0.9767 0.0000
vt 0.5302 0.5162 0.0000
vt 0.5260 0.5162 0.0000
vt 0.6248 0.5144 0.0000
vt 0.7934 0.5121 0.0000
vt 0.7915 0.5139 0.0000
vt 0.6267 0.5162 0.0000
vt 0.7933 0.9600 0.0000
vt 0.7914 0.9582 0.0000
vt 0.6248 0.9600 0.0000
vt 0.6267 0.9582 0.0000
vt 0.7952 0.5102 0.0000
vt 0.6230 0.5127 0.0000
vt 0.7952 0.9618 0.0000
vt 0.6229 0.9618 0.0000
vt 0.5247 0.8165 0.0000
vt 0.5270 0.8165 0.0000
vt 0.5270 0.9730 0.0000
vt 0.5247 0.9731 0.0000
vt 0.5260 0.8034 0.0000
vt 0.5302 0.8034 0.0000
vt 0.5302 0.5170 0.0000
vt 0.5260 0.5170 0.0000
vt 0.5247 0.8166 0.0000
vt 0.5260 0.5185 0.0000
vt 0.5302 0.5185 0.0000
# 113 texture coords

g ???
usemtl Material__23
s 2
f 1/1/1 2/2/1 3/3/1 4/4/1 
s 8
f 5/5/2 6/6/2 7/7/2 
s 16
f 8/8/3 9/9/4 10/10/3 11/11/3 
s 32
f 9/12/5 12/6/5 13/7/5 10/13/5 
s 64
f 14/9/6 5/8/6 7/11/6 13/10/6 
s 2
f 15/14/1 16/15/1 17/16/1 18/17/1 
s off
f 19/8/7 20/9/7 21/18/7 22/19/7 
f 14/5/5 12/6/5 3/20/5 2/21/5 
f 12/22/8 6/23/8 4/4/8 3/3/8 
f 6/6/2 5/5/2 1/21/2 4/20/2 
f 5/1/9 14/2/9 20/24/9 19/25/9 
f 14/5/5 2/21/5 21/26/5 20/27/5 
f 2/2/1 1/1/1 22/25/1 21/24/1 
f 1/21/2 5/5/2 19/27/2 22/26/2 
s 4
f 23/17/9 24/16/9 25/15/9 26/14/9 
s off
f 9/28/1 8/29/1 27/30/1 28/31/1 
f 8/29/1 6/23/1 29/32/1 27/30/1 
f 6/23/1 12/22/1 30/33/1 29/32/1 
f 12/22/10 9/28/10 28/31/10 30/33/10 
f 31/34/9 32/35/9 33/36/9 34/37/9 
s 4
f 10/28/11 13/2/11 35/38/11 36/39/9 
s off
f 28/40/4 27/41/4 37/42/4 38/43/4 
f 27/44/12 29/45/12 39/46/12 37/47/12 
f 29/41/7 30/40/7 40/43/7 39/42/7 
f 30/48/5 28/49/5 38/47/5 40/46/5 
f 41/50/13 42/51/13 43/52/13 44/53/13 
f 42/54/14 45/55/14 46/56/14 43/57/14 
f 45/51/7 47/50/7 48/53/7 46/52/7 
f 47/55/12 41/54/12 44/57/12 48/56/12 
f 49/58/4 50/59/4 17/60/4 16/61/4 
f 50/62/12 51/63/12 18/64/12 17/65/12 
f 51/59/7 52/58/7 15/61/7 18/60/7 
f 52/63/5 49/62/5 16/65/5 15/64/5 
f 53/66/4 54/67/4 25/68/4 24/69/4 
f 54/70/14 55/71/14 26/72/14 25/73/14 
f 55/67/7 56/66/7 23/69/7 26/68/7 
f 56/71/12 53/70/12 24/73/12 23/72/12 
s 32
f 12/6/5 14/5/5 13/7/5 
s 8
f 6/6/2 8/12/2 11/13/2 7/7/2 
s 4
f 7/1/9 57/74/9 41/30/11 47/32/15 
f 13/2/11 7/1/9 47/32/15 45/33/9 
s off
f 37/75/16 50/16/16 49/15/16 38/76/16 
f 39/77/17 51/17/17 50/16/17 37/75/17 
f 40/78/18 52/14/18 51/17/18 39/77/18 
f 38/76/19 49/15/19 52/14/19 40/78/19 
f 43/76/20 54/15/20 53/16/20 44/75/20 
f 46/78/21 55/14/21 54/15/21 43/76/21 
f 48/77/22 56/17/22 55/14/22 46/78/22 
f 44/75/23 53/16/23 56/17/23 48/77/23 
f 35/38/15 42/31/15 41/30/15 57/74/15 
f 58/79/9 11/29/9 10/28/9 36/39/9 
s 4
f 13/2/11 45/33/9 42/31/11 35/38/11 
f 7/1/9 11/29/9 58/79/9 57/74/9 
s off
f 57/80/24 58/81/24 59/82/24 60/83/24 
f 58/84/25 36/85/25 61/86/25 59/87/25 
f 36/81/26 35/80/26 62/88/26 61/82/26 
f 35/85/27 57/89/27 60/90/27 62/86/27 
f 63/91/28 64/92/28 65/93/28 66/94/28 
f 64/92/29 67/95/29 68/96/29 65/93/29 
f 67/95/30 69/97/30 70/98/30 68/96/30 
f 69/97/31 63/91/31 66/94/31 70/98/31 
f 59/99/32 64/92/32 63/91/32 60/100/32 
f 61/101/31 67/95/31 64/92/31 59/99/31 
f 62/102/33 69/97/33 67/95/33 61/101/33 
f 60/100/29 63/91/29 69/97/29 62/102/29 
f 65/103/34 34/104/34 33/105/34 66/106/34 
f 68/107/27 31/108/27 34/109/27 65/110/27 
f 70/106/35 32/105/35 31/104/35 68/111/35 
f 66/112/25 33/113/25 32/108/25 70/107/25 
# 67 polygons - 2 triangles

