# 3ds Max Wavefront OBJ Exporter v0.97b - (c)2007 guruware
# File Created: 11.05.2018 23:06:14

mtllib English_room_door.mtl

#
# object ??????
#

v  0.0522 -1.4025 0.6473
v  0.0522 1.1752 0.6473
v  -0.0546 1.1752 0.6473
v  -0.0546 -1.4025 0.6473
v  0.0522 1.1752 -0.6185
v  -0.0546 1.1752 -0.6185
v  0.1929 -0.0779 -0.5791
v  0.1929 -0.0779 -0.4299
v  0.1929 -0.2275 -0.4299
v  0.1929 -0.2275 -0.5791
v  -0.1953 -0.2275 -0.5791
v  -0.1953 -0.2275 -0.4299
v  -0.1953 -0.0779 -0.4299
v  -0.1953 -0.0779 -0.5791
v  0.0522 -0.0908 0.3941
v  0.0522 0.9614 0.3941
v  0.0522 -1.4025 -0.6185
v  0.0522 -0.2043 -0.5561
v  0.0522 -0.2043 -0.4530
v  0.0522 -0.1011 -0.5561
v  -0.0546 -0.0908 0.3941
v  -0.0546 -0.1011 -0.4530
v  -0.0546 -0.2043 -0.4530
v  0.0522 -0.1011 -0.4530
v  0.0872 -0.2043 -0.4530
v  0.0872 -0.1011 -0.4530
v  0.0872 -0.2043 -0.5561
v  0.0872 -0.1011 -0.5561
v  -0.0896 -0.1011 -0.4530
v  -0.0896 -0.2043 -0.4530
v  -0.0546 -0.1011 -0.5561
v  -0.0896 -0.1011 -0.5561
v  -0.0546 -0.2043 -0.5561
v  -0.0896 -0.2043 -0.5561
v  0.0874 -0.0779 -0.4299
v  0.0874 -0.2275 -0.4299
v  0.0874 -0.2275 -0.5791
v  0.0874 -0.0779 -0.5791
v  -0.0897 -0.2275 -0.4299
v  -0.0897 -0.0779 -0.4299
v  -0.0897 -0.0779 -0.5791
v  -0.0897 -0.2275 -0.5791
v  -0.0546 -1.4025 -0.6185
v  -0.0546 -0.0908 -0.3970
v  -0.0546 0.9614 -0.3970
v  0.0522 -0.0908 -0.3970
v  0.0522 0.9614 -0.3970
v  -0.0546 0.9614 0.3941
v  0.0644 -0.0908 0.3941
v  0.0644 0.9614 0.3941
v  0.0644 -0.0908 -0.3970
v  0.0644 0.9614 -0.3970
v  -0.0668 0.9614 0.3941
v  -0.0668 -0.0908 0.3941
v  -0.0668 0.9614 -0.3970
v  -0.0668 -0.0908 -0.3970
v  0.0644 -0.0556 0.3590
v  0.0644 0.9262 0.3590
v  0.0644 -0.0556 -0.3618
v  0.0644 0.9262 -0.3618
v  -0.0668 0.9262 0.3590
v  -0.0668 -0.0556 0.3590
v  -0.0668 0.9262 -0.3618
v  -0.0668 -0.0556 -0.3618
v  0.0199 0.9262 0.3585
v  0.0199 -0.0556 0.3585
v  0.0199 -0.0556 -0.3623
v  0.0199 0.9262 -0.3623
v  -0.0145 0.9262 -0.3623
v  -0.0145 -0.0556 -0.3623
v  -0.0145 -0.0556 0.3585
v  -0.0145 0.9262 0.3585
# 72 vertices

vn -0.0000 0.0000 1.0000
vn -0.0000 -0.0000 1.0000
vn -0.0000 1.0000 -0.0000
vn 1.0000 0.0000 0.0000
vn -1.0000 -0.0000 -0.0000
vn 1.0000 0.0000 -0.0000
vn 0.0000 -1.0000 -0.0000
vn 0.0000 0.0000 -1.0000
vn 0.0000 0.0000 1.0000
vn -0.0000 1.0000 0.0000
vn -0.0000 -0.0000 -1.0000
vn -1.0000 0.0000 -0.0000
vn -1.0000 -0.0000 0.0000
vn -1.0000 -0.0000 0.0076
vn -1.0000 -0.0076 -0.0000
vn -1.0000 -0.0000 -0.0076
vn -1.0000 0.0076 -0.0000
vn 1.0000 0.0000 0.0076
vn 1.0000 0.0076 0.0000
vn 1.0000 0.0000 -0.0076
vn 1.0000 -0.0076 0.0000
vn 1.0000 -0.0000 0.0000
vn 0.0000 -0.0000 1.0000
vn 0.0000 -0.0000 -1.0000
vn 0.0000 1.0000 0.0000
vn -1.0000 0.0000 0.0000
vn 0.0000 -1.0000 0.0000
vn -0.0000 0.0000 -1.0000
# 28 vertex normals

vt 0.5436 0.1188 0.0000
vt 0.5436 0.9646 0.0000
vt 0.5035 0.9646 0.0000
vt 0.5035 0.1188 0.0000
vt 0.0539 0.0454 0.0000
vt 0.4842 0.0454 0.0000
vt 0.4842 0.0941 0.0000
vt 0.0539 0.0941 0.0000
vt 0.5865 0.6405 0.0000
vt 0.7422 0.6405 0.0000
vt 0.7422 0.4848 0.0000
vt 0.5865 0.4848 0.0000
vt 0.4844 0.9655 0.0000
vt 0.4844 0.1197 0.0000
vt 0.3983 0.5501 0.0000
vt 0.3983 0.8953 0.0000
vt 0.0539 0.1197 0.0000
vt 0.0752 0.5129 0.0000
vt 0.1102 0.5129 0.0000
vt 0.0539 0.9655 0.0000
vt 0.0752 0.5467 0.0000
vt 0.1102 0.5467 0.0000
vt 0.8220 0.7805 0.0000
vt 0.8220 0.6746 0.0000
vt 0.8552 0.6746 0.0000
vt 0.8552 0.7805 0.0000
vt 0.8215 0.8317 0.0000
vt 0.8215 0.9319 0.0000
vt 0.8547 0.9319 0.0000
vt 0.8547 0.8317 0.0000
vt 0.7207 0.6746 0.0000
vt 0.7207 0.7805 0.0000
vt 0.6874 0.7805 0.0000
vt 0.6874 0.6746 0.0000
vt 0.7202 0.8317 0.0000
vt 0.7202 0.9319 0.0000
vt 0.6869 0.9319 0.0000
vt 0.6869 0.8317 0.0000
vt 0.6875 0.6746 0.0000
vt 0.6875 0.7805 0.0000
vt 0.8554 0.8042 0.0000
vt 0.8554 0.6509 0.0000
vt 0.9556 0.6509 0.0000
vt 0.9556 0.8042 0.0000
vt 0.8549 0.8093 0.0000
vt 0.8549 0.9544 0.0000
vt 0.9551 0.9544 0.0000
vt 0.9551 0.8093 0.0000
vt 0.6873 0.6509 0.0000
vt 0.6873 0.8042 0.0000
vt 0.5871 0.8042 0.0000
vt 0.5871 0.6509 0.0000
vt 0.6868 0.8093 0.0000
vt 0.6868 0.9544 0.0000
vt 0.5866 0.9544 0.0000
vt 0.5866 0.8093 0.0000
vt 0.1292 0.5501 0.0000
vt 0.1292 0.8953 0.0000
vt 0.7182 0.5088 0.0000
vt 0.7182 0.6164 0.0000
vt 0.6106 0.5088 0.0000
vt 0.6106 0.6164 0.0000
vt 0.5436 0.8944 0.0000
vt 0.5436 0.5492 0.0000
vt 0.5482 0.5492 0.0000
vt 0.5482 0.8944 0.0000
vt 0.1400 0.0454 0.0000
vt 0.4089 0.0454 0.0000
vt 0.4089 0.0398 0.0000
vt 0.1400 0.0398 0.0000
vt 0.5035 0.5492 0.0000
vt 0.5035 0.8944 0.0000
vt 0.4989 0.8944 0.0000
vt 0.4989 0.5492 0.0000
vt 0.1400 0.0941 0.0000
vt 0.4089 0.0941 0.0000
vt 0.4089 0.0996 0.0000
vt 0.1400 0.0996 0.0000
vt 0.3863 0.5617 0.0000
vt 0.3863 0.8838 0.0000
vt 0.1412 0.5617 0.0000
vt 0.1412 0.8838 0.0000
vt 0.1520 0.0996 0.0000
vt 0.3970 0.0996 0.0000
vt 0.3970 0.0398 0.0000
vt 0.1520 0.0398 0.0000
vt 0.4989 0.5608 0.0000
vt 0.4989 0.8829 0.0000
vt 0.5482 0.8829 0.0000
vt 0.5482 0.5608 0.0000
vt 0.9078 0.4031 0.0000
vt 0.9078 0.0758 0.0000
vt 0.6660 0.0758 0.0000
vt 0.6660 0.4031 0.0000
vt 0.5437 0.1188 0.0000
# 95 texture coords

g ??????
usemtl Material__35
s 16
f 1/1/1 2/2/2 3/3/1 4/4/1 
s 32
f 2/5/3 5/6/3 6/7/3 3/8/3 
s 2
f 7/9/4 8/10/4 9/11/4 10/12/4 
s 4
f 11/12/5 12/11/5 13/10/5 14/9/5 
s off
f 2/13/6 1/14/6 15/15/6 16/16/6 
f 1/14/4 17/17/4 18/18/4 19/19/4 
f 17/17/4 5/20/4 20/21/4 18/18/4 
f 4/14/5 21/15/5 22/22/5 23/19/5 
f 24/23/2 19/24/2 25/25/2 26/26/2 
f 19/27/7 18/28/7 27/29/7 25/30/7 
f 18/24/8 20/23/8 28/26/8 27/25/8 
f 20/28/3 24/27/3 26/30/3 28/29/3 
f 23/31/9 22/32/9 29/33/9 30/34/9 
f 22/35/10 31/36/10 32/37/10 29/38/10 
f 31/32/8 33/31/8 34/39/8 32/40/8 
f 33/36/7 23/35/7 30/38/7 34/37/7 
f 35/41/2 36/42/2 9/43/2 8/44/2 
f 36/45/7 37/46/7 10/47/7 9/48/7 
f 37/42/8 38/41/8 7/44/8 10/43/8 
f 38/46/3 35/45/3 8/48/3 7/47/3 
f 39/49/2 40/50/2 13/51/2 12/52/2 
f 40/53/10 41/54/10 14/55/10 13/56/10 
f 41/50/11 42/49/11 11/52/11 14/51/11 
f 42/54/7 39/53/7 12/56/7 11/55/7 
s 8
f 17/6/7 1/5/7 4/8/7 43/7/7 
s 4
f 43/17/5 4/14/5 23/19/5 33/18/5 
f 6/20/5 31/21/5 44/57/12 45/58/13 
s off
f 25/59/14 36/11/14 35/10/14 26/60/14 
f 27/61/15 37/12/15 36/11/15 25/59/15 
f 28/62/16 38/9/16 37/12/16 27/61/16 
f 26/60/17 35/10/17 38/9/17 28/62/17 
f 29/60/18 40/10/18 39/11/18 30/59/18 
f 32/62/19 41/9/19 40/10/19 29/60/19 
f 34/61/20 42/12/20 41/9/20 32/62/20 
f 30/59/21 39/11/21 42/12/21 34/61/21 
f 15/15/22 24/22/22 20/21/22 46/57/22 
f 47/58/4 5/20/4 2/13/4 16/16/4 
f 1/14/4 19/19/4 24/22/4 15/15/4 
f 5/20/22 47/58/22 46/57/22 20/21/22 
s 4
f 44/57/12 31/21/5 22/22/12 21/15/12 
f 48/16/5 3/13/5 6/20/5 45/58/13 
s off
f 4/14/5 3/13/5 48/16/5 21/15/5 
s 4
f 6/20/5 43/17/5 33/18/5 31/21/5 
s off
f 16/63/23 15/64/23 49/65/23 50/66/23 
f 15/67/7 46/68/7 51/69/7 49/70/7 
f 46/64/24 47/63/24 52/66/24 51/65/24 
f 47/68/25 16/67/25 50/70/25 52/69/25 
f 21/71/2 48/72/2 53/73/2 54/74/2 
f 48/75/3 45/76/3 55/77/3 53/78/3 
f 45/72/8 44/71/8 56/74/8 55/73/8 
f 44/76/7 21/75/7 54/78/7 56/77/7 
f 50/16/22 49/15/22 57/79/22 58/80/22 
f 49/15/22 51/57/22 59/81/22 57/79/22 
f 51/57/4 52/58/4 60/82/4 59/81/4 
f 52/58/22 50/16/22 58/80/22 60/82/22 
f 54/15/26 53/16/26 61/80/26 62/79/26 
f 53/16/12 55/58/12 63/82/12 61/80/12 
f 55/58/5 56/57/5 64/81/5 63/82/5 
f 56/57/12 54/15/12 62/79/12 64/81/12 
s 1
f 61/83/27 63/84/27 60/85/27 58/86/27 
s 2
f 62/87/8 61/88/8 58/89/8 57/90/8 
f 63/88/2 64/87/2 59/90/2 60/89/2 
s 1
f 64/84/10 62/83/10 57/86/3 59/85/10 
s off
f 65/91/4 66/92/4 67/93/4 68/94/4 
s 4
f 69/94/5 70/93/5 71/92/5 72/91/5 
s 1
f 69/94/3 72/91/3 65/91/3 68/94/3 
f 71/92/7 70/93/7 67/93/7 66/92/7 
s 2
f 72/91/23 71/92/23 66/92/23 65/91/23 
f 70/93/8 69/94/28 68/94/28 67/93/8 
s 1
f 5/2/8 17/95/8 43/4/8 6/3/8 
# 70 polygons

