# 3ds Max Wavefront OBJ Exporter v0.97b - (c)2007 guruware
# File Created: 11.05.2018 23:12:48

mtllib nomal_door.mtl

#
# object ???
#

v  0.0589 -1.4126 -0.5755
v  0.0589 1.1651 -0.5755
v  0.0589 1.1651 -0.5628
v  0.0589 -1.4126 -0.5628
v  0.0501 -1.4126 -0.5755
v  0.0501 -1.4126 -0.5509
v  -0.0567 -1.4126 -0.5755
v  0.0501 -1.4126 0.6544
v  0.0501 1.1651 0.6544
v  -0.0567 1.1651 0.6544
v  -0.0567 -1.4126 0.6544
v  0.0501 1.1651 -0.5509
v  -0.0567 1.1651 -0.5755
v  0.0501 1.1651 -0.5755
v  0.1908 -0.0880 -0.5081
v  0.1908 -0.0880 -0.3588
v  0.1908 -0.2375 -0.3588
v  0.1908 -0.2375 -0.5081
v  0.0501 -1.4126 -0.6107
v  0.0501 1.1651 -0.6107
v  0.0589 1.1651 -0.6107
v  0.0589 -1.4126 -0.6107
v  -0.1974 -0.2375 -0.5081
v  -0.1974 -0.2375 -0.3588
v  -0.1974 -0.0880 -0.3588
v  -0.1974 -0.0880 -0.5081
v  0.0501 -0.2144 -0.3819
v  0.0501 -0.1111 -0.3819
v  0.0501 -0.2144 -0.4850
v  0.0501 -0.1111 -0.4850
v  -0.0567 -0.1111 -0.3819
v  -0.0567 -0.2144 -0.3819
v  -0.0567 -0.1111 -0.4850
v  0.0851 -0.2144 -0.3819
v  0.0851 -0.1111 -0.3819
v  0.0851 -0.2144 -0.4850
v  0.0851 -0.1111 -0.4850
v  -0.0917 -0.1111 -0.3819
v  -0.0917 -0.2144 -0.3819
v  -0.0917 -0.1111 -0.4850
v  -0.0567 -0.2144 -0.4850
v  -0.0917 -0.2144 -0.4850
v  0.0852 -0.0880 -0.3588
v  0.0852 -0.2375 -0.3588
v  0.0852 -0.2375 -0.5081
v  0.0852 -0.0880 -0.5081
v  -0.0919 -0.2375 -0.3588
v  -0.0919 -0.0880 -0.3588
v  -0.0919 -0.0880 -0.5081
v  -0.0919 -0.2375 -0.5081
# 50 vertices

vn 1.0000 0.0000 0.0000
vn 0.0000 -1.0000 0.0000
vn -0.0000 0.0000 1.0000
vn -0.0000 -0.0000 1.0000
vn -0.0000 1.0000 -0.0000
vn 0.0000 -0.0000 -1.0000
vn 0.0000 0.0000 -1.0000
vn 0.8022 0.0000 0.5970
vn -1.0000 -0.0000 -0.0000
vn 1.0000 -0.0000 0.0000
vn -1.0000 0.0000 -0.0000
vn 0.0000 -1.0000 -0.0000
vn 0.0000 0.0000 1.0000
vn -0.0000 1.0000 0.0000
vn -1.0000 -0.0000 0.0000
vn -1.0000 -0.0000 0.0076
vn -1.0000 -0.0076 -0.0000
vn -1.0000 -0.0000 -0.0076
vn -1.0000 0.0076 -0.0000
vn 1.0000 0.0000 0.0076
vn 1.0000 0.0076 0.0000
vn 1.0000 0.0000 -0.0076
vn 1.0000 -0.0076 0.0000
# 23 vertex normals

vt 0.5537 0.0117 0.0000
vt 0.5537 0.8272 0.0000
vt 0.5577 0.8272 0.0000
vt 0.5577 0.0117 0.0000
vt 0.3909 0.9389 0.0000
vt 0.4020 0.9389 0.0000
vt 0.3909 0.8865 0.0000
vt 0.5093 0.0123 0.0000
vt 0.5093 0.8030 0.0000
vt 0.4516 0.8030 0.0000
vt 0.4516 0.0123 0.0000
vt 0.9450 0.9389 0.0000
vt 0.9450 0.8865 0.0000
vt 0.1469 0.4233 0.0000
vt 0.2598 0.4233 0.0000
vt 0.2598 0.3104 0.0000
vt 0.1469 0.3104 0.0000
vt 0.5141 0.8030 0.0000
vt 0.5141 0.0123 0.0000
vt 0.3967 0.9432 0.0000
vt 0.3909 0.9432 0.0000
vt 0.5614 0.8272 0.0000
vt 0.5614 0.0117 0.0000
vt 0.5425 0.8272 0.0000
vt 0.5425 0.0117 0.0000
vt 0.3750 0.9432 0.0000
vt 0.3750 0.9389 0.0000
vt 0.9423 0.8272 0.0000
vt 0.9423 0.0117 0.0000
vt 0.6148 0.3908 0.0000
vt 0.6148 0.4234 0.0000
vt 0.5823 0.3908 0.0000
vt 0.5823 0.4234 0.0000
vt 0.3628 0.3444 0.0000
vt 0.3628 0.3130 0.0000
vt 0.3730 0.3130 0.0000
vt 0.3730 0.3444 0.0000
vt 0.3644 0.3835 0.0000
vt 0.3644 0.4149 0.0000
vt 0.3745 0.4149 0.0000
vt 0.3745 0.3835 0.0000
vt 0.3318 0.3130 0.0000
vt 0.3318 0.3444 0.0000
vt 0.3216 0.3444 0.0000
vt 0.3216 0.3130 0.0000
vt 0.3333 0.3835 0.0000
vt 0.3333 0.4149 0.0000
vt 0.3231 0.4149 0.0000
vt 0.3231 0.3835 0.0000
vt 0.3731 0.3514 0.0000
vt 0.3731 0.3060 0.0000
vt 0.4038 0.3060 0.0000
vt 0.4038 0.3514 0.0000
vt 0.3746 0.3765 0.0000
vt 0.3746 0.4219 0.0000
vt 0.4053 0.4219 0.0000
vt 0.4053 0.3765 0.0000
vt 0.3215 0.3060 0.0000
vt 0.3215 0.3514 0.0000
vt 0.2908 0.3514 0.0000
vt 0.2908 0.3060 0.0000
vt 0.3231 0.3765 0.0000
vt 0.3231 0.4219 0.0000
vt 0.2923 0.4219 0.0000
vt 0.2923 0.3765 0.0000
vt 0.2424 0.3279 0.0000
vt 0.2424 0.4059 0.0000
vt 0.1643 0.3279 0.0000
vt 0.1643 0.4059 0.0000
# 69 texture coords

g ???
usemtl Material__31
s 2
f 1/1/1 2/2/1 3/3/1 4/4/1 
s 8
f 5/5/2 6/6/2 7/7/2 
s 16
f 8/8/3 9/9/4 10/10/3 11/11/3 
s 32
f 9/12/5 12/6/5 13/7/5 10/13/5 
s 64
f 14/9/6 5/8/6 7/11/6 13/10/6 
s 2
f 15/14/1 16/15/1 17/16/1 18/17/1 
s off
f 19/8/7 20/9/7 21/18/7 22/19/7 
f 14/5/5 12/6/5 3/20/5 2/21/5 
f 12/22/8 6/23/8 4/4/8 3/3/8 
f 6/6/2 5/5/2 1/21/2 4/20/2 
f 5/1/9 14/2/9 20/24/9 19/25/9 
f 14/5/5 2/21/5 21/26/5 20/27/5 
f 2/2/1 1/1/1 22/25/1 21/24/1 
f 1/21/2 5/5/2 19/27/2 22/26/2 
s 4
f 23/17/9 24/16/9 25/15/9 26/14/9 
s off
f 9/28/1 8/29/1 27/30/1 28/31/1 
f 8/29/1 6/23/1 29/32/1 27/30/1 
f 6/23/1 12/22/1 30/33/1 29/32/1 
f 12/22/10 9/28/10 28/31/10 30/33/10 
f 11/29/9 10/28/9 31/31/9 32/30/9 
s 4
f 10/28/11 13/2/9 33/33/11 31/31/11 
s off
f 28/34/4 27/35/4 34/36/4 35/37/4 
f 27/38/12 29/39/12 36/40/12 34/41/12 
f 29/35/7 30/34/7 37/37/7 36/36/7 
f 30/39/5 28/38/5 35/41/5 37/40/5 
f 32/42/13 31/43/13 38/44/13 39/45/13 
f 31/46/14 33/47/14 40/48/14 38/49/14 
f 33/43/7 41/42/7 42/45/7 40/44/7 
f 41/47/12 32/46/12 39/49/12 42/48/12 
f 43/50/4 44/51/4 17/52/4 16/53/4 
f 44/54/12 45/55/12 18/56/12 17/57/12 
f 45/51/7 46/50/7 15/53/7 18/52/7 
f 46/55/5 43/54/5 16/57/5 15/56/5 
f 47/58/4 48/59/4 25/60/4 24/61/4 
f 48/62/14 49/63/14 26/64/14 25/65/14 
f 49/59/7 50/58/7 23/61/7 26/60/7 
f 50/63/12 47/62/12 24/65/12 23/64/12 
s 32
f 12/6/5 14/5/5 13/7/5 
s 8
f 6/6/2 8/12/2 11/13/2 7/7/2 
s 4
f 7/1/9 11/29/9 32/30/9 41/32/15 
f 13/2/9 7/1/9 41/32/15 33/33/11 
s off
f 34/66/16 44/16/16 43/15/16 35/67/16 
f 36/68/17 45/17/17 44/16/17 34/66/17 
f 37/69/18 46/14/18 45/17/18 36/68/18 
f 35/67/19 43/15/19 46/14/19 37/69/19 
f 38/67/20 48/15/20 47/16/20 39/66/20 
f 40/69/21 49/14/21 48/15/21 38/67/21 
f 42/68/22 50/17/22 49/14/22 40/69/22 
f 39/66/23 47/16/23 50/17/23 42/68/23 
# 47 polygons - 2 triangles

