# 3ds Max Wavefront OBJ Exporter v0.97b - (c)2007 guruware
# File Created: 06.04.2018 01:16:33

mtllib ???.mtl

#
# object Box022
#

v  -18.3876 42.4532 2924.7761
v  18.5590 42.4532 2924.7761
v  18.5590 2.4781 2924.7761
v  -18.3876 2.4781 2924.7761
v  -18.3876 2.4781 3122.4600
v  18.5590 2.4781 3122.4600
v  18.5590 42.4532 3122.4600
v  -18.3876 42.4532 3122.4600
v  50.6339 2.4781 2924.7761
v  50.6339 42.4533 2924.7761
v  50.6339 42.4532 3122.4600
v  50.6339 2.4781 3122.4600
v  18.5590 362.5972 2924.7761
v  -18.3876 362.5972 2924.7761
v  -18.3876 362.5972 3122.4597
v  18.5590 362.5972 3122.4597
v  -50.4626 42.4533 2924.7761
v  -50.4626 2.4781 2924.7761
v  -50.4626 2.4781 3122.4600
v  -50.4626 42.4532 3122.4600
# 20 vertices

vn 0.0000 0.0000 -1.0000
vn 0.0000 -0.0000 1.0000
vn 0.0000 -1.0000 -0.0000
vn -0.0000 -1.0000 -0.0000
vn 1.0000 0.0000 -0.0000
vn 0.0000 1.0000 0.0000
vn -1.0000 0.0000 -0.0000
vn 0.0000 1.0000 -0.0000
vn -0.0000 1.0000 0.0000
vn 1.0000 -0.0000 0.0000
# 10 vertex normals

vt 0.6667 1.0000 0.0000
vt 0.3333 1.0000 0.0000
vt 0.3333 0.0000 0.0000
vt 0.6667 0.0000 0.0000
vt 0.0000 0.0000 0.0000
vt 1.0000 0.0000 0.0000
vt 1.0000 1.0000 0.0000
vt 0.0000 1.0000 0.0000
# 8 texture coords

g Box022
usemtl wire_027177027
s 2
f 1/1/1 2/2/1 3/3/1 4/4/1 
s 4
f 5/3/2 6/4/2 7/1/2 8/2/2 
s 8
f 4/3/3 3/4/3 6/1/4 5/2/3 
s 16
f 9/5/5 10/6/5 11/7/5 12/8/5 
s 32
f 13/3/6 14/4/6 15/1/6 16/2/6 
s 64
f 17/5/7 18/6/7 19/7/7 20/8/7 
s 2
f 2/2/1 10/8/1 9/5/1 3/3/1 
f 4/4/1 18/6/1 17/7/1 1/1/1 
s 4
f 6/4/2 12/6/2 11/7/2 7/1/2 
f 8/2/2 20/8/2 19/5/2 5/3/2 
s 8
f 3/4/3 9/6/4 12/7/4 6/1/4 
f 5/2/3 19/8/3 18/5/3 4/3/3 
s 32
f 1/4/8 17/6/6 20/7/9 8/1/6 
f 7/2/8 11/8/9 10/5/9 2/3/9 
s off
f 2/3/1 1/4/1 14/4/1 13/3/1 
f 1/4/7 8/1/7 15/1/7 14/4/7 
f 8/1/2 7/2/2 16/2/2 15/1/2 
f 7/2/10 2/3/10 13/3/10 16/2/10 
# 18 polygons

