# 3ds Max Wavefront OBJ Exporter v0.97b - (c)2007 guruware
# File Created: 06.04.2018 01:17:19

mtllib ???? ??? ??.mtl

#
# object Object005
#

v  -2.8818 308.6967 2199.5874
v  -2.8818 205.2740 2199.5874
v  -2.8818 205.2740 2108.5032
v  -2.8818 308.6967 2108.5032
v  -7.4475 308.6967 2108.5032
v  -7.4475 205.2740 2108.5032
v  -7.4475 205.2740 2199.5874
v  -7.4475 308.6967 2199.5874
# 8 vertices

vn 1.0000 0.0000 0.0000
vn -1.0000 -0.0000 -0.0000
vn -0.0000 1.0000 -0.0000
vn 0.0000 -1.0000 0.0000
vn 0.0000 0.0000 1.0000
vn -0.0000 -0.0000 -1.0000
# 6 vertex normals

vt 0.0000 1.0000 0.0000
vt 0.9800 1.0000 0.0000
vt 0.0067 1.0000 0.0000
vt 0.0133 1.0000 0.0000
vt 1.0000 1.0000 0.0000
# 5 texture coords

g Object005
usemtl wire_086086086
s off
f 1/1/1 2/1/1 3/2/1 4/2/1 
s 4
f 5/3/2 6/4/2 7/5/2 8/5/2 
s 1
f 5/3/3 8/5/3 1/1/3 4/2/3 
f 7/5/4 6/4/4 3/2/4 2/1/4 
s 2
f 8/5/5 7/5/5 2/1/5 1/1/5 
f 6/4/6 5/3/6 4/2/6 3/2/6 
# 6 polygons

