# 3ds Max Wavefront OBJ Exporter v0.97b - (c)2007 guruware
# File Created: 06.04.2018 01:16:57

mtllib ???? ??.mtl

#
# object Box015
#

v  2.5542 0.3769 2074.9915
v  2.5542 341.6631 2074.9915
v  2.5542 341.6631 2076.6833
v  2.5542 0.3769 2076.6833
v  1.3898 0.3769 2074.9915
v  1.3898 0.3769 2078.2483
v  -12.7466 0.3769 2074.9915
v  1.3897 0.3769 2237.8267
v  1.3897 341.6631 2237.8267
v  -12.7467 341.6631 2237.8267
v  -12.7466 0.3769 2237.8267
v  1.3897 341.6631 2078.2483
v  -12.7466 341.6631 2074.9915
v  1.3897 341.6631 2074.9915
v  20.0213 175.7531 2083.9209
v  20.0213 175.7531 2103.6836
v  20.0213 155.9559 2103.6836
v  20.0214 155.9559 2083.9209
v  1.3898 0.3769 2070.3337
v  1.3897 341.6631 2070.3337
v  2.5542 341.6631 2070.3337
v  2.5542 0.3769 2070.3337
v  -31.3782 155.9559 2083.9209
v  -31.3782 155.9559 2103.6836
v  -31.3782 175.7531 2103.6836
v  -31.3782 175.7531 2083.9209
v  1.3897 200.6161 2204.3022
v  1.3897 313.3546 2204.3022
v  1.3898 159.0173 2086.9771
v  1.3897 159.0173 2100.6274
v  1.3897 172.6917 2086.9771
v  -12.7466 200.6161 2204.3022
v  -12.7466 172.6917 2100.6274
v  -12.7466 159.0173 2100.6274
v  1.3897 172.6917 2100.6274
v  6.0244 159.0173 2100.6274
v  6.0243 172.6917 2100.6274
v  6.0244 159.0173 2086.9771
v  6.0244 172.6917 2086.9771
v  -17.3813 172.6917 2100.6274
v  -17.3812 159.0173 2100.6274
v  -12.7466 172.6917 2086.9771
v  -17.3812 172.6917 2086.9771
v  -12.7466 159.0173 2086.9771
v  -17.3812 159.0173 2086.9771
v  6.0476 175.7531 2103.6836
v  6.0476 155.9559 2103.6836
v  6.0477 155.9559 2083.9209
v  6.0476 175.7531 2083.9209
v  -17.4045 155.9559 2103.6836
v  -17.4045 175.7531 2103.6836
v  -17.4045 175.7531 2083.9209
v  -17.4045 155.9559 2083.9209
v  -12.7466 200.6161 2103.9021
v  -12.7466 313.3546 2103.9021
v  1.3897 200.6161 2103.9021
v  1.3897 313.3546 2103.9021
v  -12.7466 313.3546 2204.3022
v  0.2252 200.6161 2204.3022
v  0.2253 313.3546 2204.3022
v  0.2253 200.6161 2103.9021
v  0.2253 313.3546 2103.9021
v  -11.5822 313.3546 2204.3022
v  -11.5822 200.6161 2204.3022
v  -11.5822 313.3546 2103.9021
v  -11.5822 200.6161 2103.9021
v  0.2253 205.2740 2199.6443
v  0.2253 308.6967 2199.6443
v  0.2253 205.2740 2108.5601
v  0.2253 308.6967 2108.5601
v  -11.5822 308.6967 2199.6443
v  -11.5822 205.2740 2199.6443
v  -11.5822 308.6967 2108.5601
v  -11.5822 205.2740 2108.5601
# 74 vertices

vn 1.0000 0.0000 0.0000
vn 0.0000 -1.0000 0.0000
vn -0.0000 0.0000 1.0000
vn -0.0000 -0.0000 1.0000
vn -0.0000 1.0000 -0.0000
vn 0.0000 -0.0000 -1.0000
vn 0.0000 0.0000 -1.0000
vn 0.8022 0.0000 0.5970
vn -1.0000 -0.0000 -0.0000
vn 1.0000 0.0000 -0.0000
vn 0.0000 -1.0000 -0.0000
vn 0.0000 0.0000 1.0000
vn -0.0000 1.0000 0.0000
vn -1.0000 0.0000 -0.0000
vn -1.0000 -0.0000 0.0000
vn -1.0000 -0.0000 0.0076
vn -1.0000 -0.0076 -0.0000
vn -1.0000 -0.0000 -0.0076
vn -1.0000 0.0076 -0.0000
vn 1.0000 0.0000 0.0076
vn 1.0000 0.0076 0.0000
vn 1.0000 0.0000 -0.0076
vn 1.0000 -0.0076 0.0000
vn 1.0000 -0.0000 0.0000
# 24 vertex normals

vt 1.0000 0.0000 0.0000
vt 1.0000 1.0000 0.0000
vt 0.9800 1.0000 0.0000
vt 0.9800 0.0000 0.0000
vt 0.0000 0.0000 0.0000
vt 0.0200 0.0000 0.0000
vt 0.0000 1.0000 0.0000
vt 0.0200 1.0000 0.0000
vt 0.0133 1.0000 0.0000
vt 0.0067 1.0000 0.0000
# 10 texture coords

g Box015
usemtl wire_086086086
s 2
f 1/1/1 2/2/1 3/3/1 4/4/1 
s 8
f 5/5/2 6/6/2 7/7/2 
s 16
f 8/5/3 9/1/4 10/2/3 11/7/3 
s 32
f 9/5/5 12/4/5 13/2/5 10/7/5 
s 64
f 14/5/6 5/1/6 7/2/6 13/7/6 
s 2
f 15/3/1 16/7/1 17/5/1 18/4/1 
s off
f 19/1/7 20/2/7 21/2/7 22/1/7 
f 14/2/5 12/3/5 3/3/5 2/2/5 
f 12/3/8 6/4/8 4/4/8 3/3/8 
f 6/4/2 5/1/2 1/1/2 4/4/2 
f 5/1/9 14/2/9 20/2/9 19/1/9 
f 14/2/5 2/2/5 21/2/5 20/2/5 
f 2/2/1 1/1/1 22/1/1 21/2/1 
f 1/1/2 5/1/2 19/1/2 22/1/2 
s 4
f 23/6/9 24/1/9 25/2/9 26/8/9 
s off
f 9/7/10 8/5/10 27/7/10 28/7/10 
f 8/5/1 6/4/1 29/4/1 30/5/1 
f 6/4/1 12/3/1 31/3/1 29/4/1 
f 11/1/9 32/2/9 33/2/9 34/1/9 
f 35/7/4 30/5/4 36/5/4 37/7/4 
f 30/5/11 29/4/11 38/4/11 36/5/11 
f 29/4/7 31/3/7 39/3/7 38/4/7 
f 31/3/5 35/7/5 37/7/5 39/3/5 
f 34/1/12 33/2/12 40/2/12 41/1/12 
f 33/2/13 42/8/13 43/8/13 40/2/13 
f 42/8/7 44/6/7 45/6/7 43/8/7 
f 44/6/11 34/1/11 41/1/11 45/6/11 
f 46/7/4 47/5/4 17/5/4 16/7/4 
f 47/5/11 48/4/11 18/4/11 17/5/11 
f 48/4/7 49/3/7 15/3/7 18/4/7 
f 49/3/5 46/7/5 16/7/5 15/3/5 
f 50/1/4 51/2/4 25/2/4 24/1/4 
f 51/2/13 52/8/13 26/8/13 25/2/13 
f 52/8/7 53/6/7 23/6/7 26/8/7 
f 53/6/11 50/1/11 24/1/11 23/6/11 
s 32
f 12/4/5 14/1/5 13/2/5 
s 8
f 6/6/2 8/1/2 11/2/2 7/7/2 
s 4
f 7/5/9 11/1/9 34/1/9 44/6/9 
f 13/7/9 42/8/9 54/9/14 55/10/15 
s off
f 36/5/16 47/5/16 46/7/16 37/7/16 
f 38/4/17 48/4/17 47/5/17 36/5/17 
f 39/3/18 49/3/18 48/4/18 38/4/18 
f 37/7/19 46/7/19 49/3/19 39/3/19 
f 40/2/20 51/2/20 50/1/20 41/1/20 
f 43/8/21 52/8/21 51/2/21 40/2/21 
f 45/6/22 53/6/22 52/8/22 43/8/22 
f 41/1/23 50/1/23 53/6/23 45/6/23 
f 27/7/24 35/7/24 31/3/24 56/3/24 
f 57/3/1 12/3/1 9/7/1 28/7/1 
f 8/5/1 30/5/1 35/7/1 27/7/1 
f 12/3/1 57/3/1 56/3/1 31/3/1 
s 4
f 54/9/14 42/8/9 33/2/14 32/2/14 
f 58/2/9 10/2/9 13/7/9 55/10/15 
s off
f 11/1/9 10/2/9 58/2/9 32/2/9 
s 4
f 13/7/9 7/5/9 44/6/9 42/8/9 
s off
f 28/7/7 27/7/7 59/7/7 60/7/7 
f 27/7/5 56/3/5 61/3/5 59/7/5 
f 56/3/3 57/3/3 62/3/3 61/3/3 
f 57/3/2 28/7/2 60/7/2 62/3/2 
f 32/2/7 58/2/7 63/2/7 64/2/7 
f 58/2/2 55/10/2 65/10/2 63/2/2 
f 55/10/3 54/9/3 66/9/3 65/10/3 
f 54/9/5 32/2/5 64/2/5 66/9/5 
f 60/7/24 59/7/24 67/7/24 68/7/24 
f 59/7/24 61/3/24 69/3/24 67/7/24 
f 61/3/1 62/3/1 70/3/1 69/3/1 
f 62/3/24 60/7/24 68/7/24 70/3/24 
f 64/2/14 63/2/14 71/2/14 72/2/14 
f 63/2/14 65/10/14 73/10/14 71/2/14 
f 65/10/14 66/9/14 74/9/14 73/10/14 
f 66/9/14 64/2/14 72/2/14 74/9/14 
s 1
f 71/3/2 73/2/2 70/7/2 68/8/2 
s 2
f 72/3/7 71/3/7 68/8/7 67/6/7 
f 73/2/3 74/2/3 69/7/3 70/7/3 
s 1
f 74/2/5 72/3/5 67/6/5 69/7/5 
# 73 polygons - 2 triangles

