# 3ds Max Wavefront OBJ Exporter v0.97b - (c)2007 guruware
# File Created: 06.04.2018 01:05:11

mtllib ?.mtl

#
# object Box012
#

v  4.5899 220.4061 906.1461
v  4.5899 220.4061 915.8442
v  -27.5940 220.4061 915.8442
v  -27.5939 220.4061 906.1461
v  4.5898 220.4061 1032.2209
v  4.5898 410.4814 1032.2209
v  -27.5940 410.4814 1032.2209
v  -27.5940 220.4061 1032.2209
v  4.5899 410.4814 915.8442
v  4.5899 410.4814 906.1461
v  -27.5940 410.4814 906.1461
v  -27.5940 410.4814 915.8442
v  4.5900 410.4814 789.7693
v  4.5900 220.4061 789.7693
v  -27.5939 220.4061 789.7693
v  -27.5939 410.4814 789.7693
v  4.5900 398.8366 801.4141
v  4.5900 232.0508 801.4141
v  4.5899 398.8366 915.3784
v  4.5899 398.8366 906.6119
v  4.5898 232.0508 1020.5762
v  4.5898 398.8366 1020.5762
v  4.5899 232.0508 906.6119
v  4.5899 232.0508 915.3784
v  -27.5939 232.0508 915.3784
v  -27.5939 232.0508 906.6119
v  -27.5940 398.8366 1020.5762
v  -27.5940 232.0508 1020.5762
v  -27.5940 398.8366 906.6119
v  -27.5940 398.8366 915.3784
v  -27.5939 232.0508 801.4141
v  -27.5939 398.8366 801.4141
v  -2.4905 232.0508 906.6119
v  -2.4905 232.0508 915.3784
v  -20.5135 232.0508 915.3784
v  -20.5135 232.0508 906.6119
v  -2.4905 232.0508 801.4141
v  -2.4905 327.0911 801.4141
v  -20.5135 398.8366 801.4141
v  -20.5134 341.7778 801.4141
v  -2.4906 398.8366 1020.5762
v  -2.4906 341.7778 1020.5762
v  -20.5136 232.0508 1020.5762
v  -20.5136 327.0911 1020.5762
v  -2.4906 398.8366 915.3784
v  -2.4906 398.8366 906.6119
v  -20.5135 398.8366 906.6119
v  -20.5135 398.8366 915.3784
v  -17.8100 232.0508 801.4141
v  -11.5020 232.0508 801.4141
v  -11.5020 327.0911 801.4141
v  -17.8100 327.0911 801.4141
v  -5.1941 232.0508 1020.5762
v  -11.5021 232.0508 1020.5762
v  -11.5021 327.0911 1020.5762
v  -5.1941 327.0911 1020.5762
v  -20.5135 327.0911 906.6119
v  -20.5135 327.0911 915.3784
v  -20.5135 341.7778 915.3784
v  -20.5135 341.7778 906.6119
v  -2.4906 341.7778 906.6119
v  -2.4906 341.7778 915.3784
v  -2.4905 327.0911 915.3784
v  -2.4905 327.0911 906.6119
v  -5.1940 232.0508 906.6119
v  -5.1940 232.0508 915.3784
v  -17.8101 232.0508 915.3784
v  -17.8101 232.0508 906.6119
v  -5.1940 398.8366 915.3784
v  -5.1940 398.8366 906.6119
v  -17.8101 398.8366 906.6119
v  -17.8101 398.8366 915.3784
v  -17.8100 398.8366 801.4141
v  -17.8100 341.7778 801.4141
v  -11.5020 398.8366 801.4141
v  -11.5020 341.7778 801.4141
v  -5.1939 341.7778 801.4141
v  -2.4905 341.7778 801.4141
v  -2.4905 398.8366 801.4141
v  -5.1939 398.8366 801.4141
v  -5.1939 232.0508 801.4141
v  -5.1939 327.0911 801.4141
v  -20.5134 327.0911 801.4141
v  -20.5134 232.0508 801.4141
v  -17.8101 232.0508 1020.5762
v  -17.8101 327.0911 1020.5762
v  -2.4906 327.0911 1020.5762
v  -2.4906 232.0508 1020.5762
v  -5.1941 398.8366 1020.5762
v  -5.1941 341.7778 1020.5762
v  -11.5021 398.8366 1020.5762
v  -11.5021 341.7778 1020.5762
v  -17.8101 341.7778 1020.5762
v  -20.5136 341.7778 1020.5762
v  -20.5136 398.8366 1020.5762
v  -17.8102 398.8366 1020.5762
v  -17.8101 341.7778 915.3784
v  -17.8101 341.7778 906.6119
v  -5.1940 341.7778 906.6119
v  -5.1940 341.7778 915.3784
v  -5.1940 327.0911 915.3784
v  -5.1940 327.0911 906.6119
v  -17.8101 327.0911 906.6119
v  -17.8101 327.0911 915.3784
v  -11.5020 341.7778 915.3784
v  -11.5020 327.0911 906.6119
v  -11.5020 341.7778 906.6119
v  -11.5020 327.0911 915.3784
v  -11.5020 232.0508 906.6119
v  -11.5020 232.0508 915.3784
v  -11.5020 398.8366 906.6119
v  -11.5020 398.8366 915.3784
v  -5.3104 393.0254 899.9122
v  -5.3104 393.0254 808.1138
v  -5.3104 347.5890 899.9122
v  -5.3104 347.5890 808.1138
v  -11.3856 393.0254 808.1138
v  -11.3856 393.0254 899.9122
v  -11.3855 347.5890 808.1138
v  -11.3856 347.5890 899.9122
v  -17.6937 393.0254 922.0781
v  -17.6937 393.0254 1013.8765
v  -17.6937 347.5890 922.0781
v  -17.6937 347.5890 1013.8765
v  -11.6185 347.5890 1013.8765
v  -11.6185 393.0254 1013.8765
v  -11.6185 347.5890 922.0781
v  -11.6185 393.0254 922.0781
v  -5.3104 320.5788 808.1138
v  -5.3103 238.5630 808.1138
v  -5.3104 320.5788 899.9121
v  -5.3104 238.5630 899.9122
v  -11.3855 238.5630 808.1138
v  -11.3855 320.5788 808.1138
v  -11.3856 238.5630 899.9122
v  -11.3856 320.5788 899.9121
v  -11.6185 238.5630 922.0781
v  -11.6185 238.5631 1013.8765
v  -11.6185 320.5788 922.0781
v  -11.6185 320.5788 1013.8765
v  -17.6937 320.5788 1013.8765
v  -17.6937 238.5631 1013.8765
v  -17.6936 320.5788 922.0781
v  -17.6936 238.5630 922.0781
v  -9.3605 393.0254 808.1138
v  -9.3605 347.5890 808.1138
v  -7.9582 347.5890 808.1138
v  -7.9582 393.0254 808.1138
v  -13.6436 393.0254 1013.8765
v  -13.6436 347.5890 1013.8765
v  -15.6687 347.5890 1013.8765
v  -15.6687 393.0254 1013.8765
v  -7.9582 238.5630 808.1138
v  -7.9582 320.5788 808.1138
v  -9.3605 320.5788 808.1138
v  -9.3605 238.5630 808.1138
v  -15.6686 238.5631 1013.8765
v  -15.6686 320.5788 1013.8765
v  -14.2664 320.5788 1013.8765
v  -14.2664 238.5631 1013.8765
v  -7.9583 347.5890 899.9122
v  -15.6686 320.5788 922.0781
v  -14.2663 320.5788 922.0781
v  -13.6435 347.5890 922.0781
v  -15.6686 347.5890 922.0781
v  -7.9583 320.5788 899.9121
v  -9.3605 320.5788 899.9121
v  -14.2663 238.5631 922.0781
v  -15.6686 238.5630 922.0781
v  -9.3605 238.5630 899.9122
v  -7.9583 238.5630 899.9122
v  -15.6686 393.0254 922.0781
v  -13.6435 393.0254 922.0781
v  -7.9583 393.0254 899.9122
v  -9.3606 393.0254 899.9122
v  -9.3605 347.5890 899.9122
# 176 vertices

vn 0.0000 -1.0000 -0.0000
vn -0.0000 -0.0000 1.0000
vn -0.0000 1.0000 0.0000
vn 0.0000 0.0000 -1.0000
vn 1.0000 0.0000 0.0000
vn -1.0000 -0.0000 -0.0000
vn -1.0000 0.0000 -0.0000
vn 1.0000 -0.0066 0.0000
vn 1.0000 0.0000 -0.0057
vn 1.0000 0.0066 0.0000
vn 1.0000 0.0000 0.0057
vn -1.0000 -0.0066 -0.0000
vn -1.0000 -0.0000 0.0057
vn -1.0000 0.0066 -0.0000
vn -1.0000 -0.0000 -0.0057
vn 1.0000 -0.0059 0.0000
vn 1.0000 0.0059 0.0000
vn -1.0000 0.0059 -0.0000
vn -1.0000 -0.0059 -0.0000
vn 0.0000 -0.0000 1.0000
vn 0.0000 1.0000 0.0000
vn 0.0000 -1.0000 0.0000
vn 0.0000 1.0000 -0.0000
vn -0.0000 1.0000 -0.0000
vn -0.0000 0.0000 1.0000
vn 0.0000 -0.0000 -1.0000
vn -0.0000 -1.0000 0.0000
vn -0.0000 -0.0000 -1.0000
vn -0.0000 0.0000 -1.0000
# 29 vertex normals

vt 0.4800 0.0000 0.0000
vt 0.5200 0.0000 0.0000
vt 0.5200 1.0000 0.0000
vt 0.4800 1.0000 0.0000
vt 0.0000 0.0000 0.0000
vt 1.0000 0.0000 0.0000
vt 1.0000 1.0000 0.0000
vt 0.0000 1.0000 0.0000
vt 0.5200 0.5200 0.0000
vt 0.4800 0.4800 0.0000
vt 0.4800 0.3744 0.0000
vt 0.5200 0.4056 0.0000
vt 0.5200 0.1144 0.0000
vt 0.4800 0.1056 0.0000
vt 0.3333 0.0733 0.0000
vt 1.0000 0.7800 0.0000
vt 0.6667 0.5200 0.0000
vt 0.3333 0.9267 0.0000
vt 1.0000 0.2200 0.0000
vt 0.6667 0.4800 0.0000
vt 0.5200 0.4800 0.0000
vt 0.4800 0.5200 0.0000
vt 0.4800 0.6256 0.0000
vt 0.5200 0.5944 0.0000
vt 0.5200 0.8856 0.0000
vt 0.4800 0.8944 0.0000
vt 0.3333 0.1667 0.0000
vt 0.3333 0.2320 0.0000
vt 1.0000 0.6960 0.0000
vt 1.0000 0.5000 0.0000
vt 0.6667 0.6667 0.0000
vt 0.6667 0.7973 0.0000
vt 0.4933 0.3656 0.0000
vt 0.5067 0.3744 0.0000
vt 0.4933 0.6344 0.0000
vt 0.5067 0.6256 0.0000
vt 0.5067 0.5211 0.0000
vt 0.4933 0.5523 0.0000
vt 0.5067 0.4789 0.0000
vt 0.4933 0.4477 0.0000
vt 0.4800 0.3341 0.0000
vt 0.5200 0.3619 0.0000
vt 0.5200 0.1581 0.0000
vt 0.4800 0.1459 0.0000
vt 0.4800 0.6659 0.0000
vt 0.5200 0.6381 0.0000
vt 0.5200 0.8419 0.0000
vt 0.4800 0.8541 0.0000
vt 0.6667 0.4640 0.0000
vt 0.6667 0.3333 0.0000
vt 0.6667 0.2027 0.0000
vt 0.6667 0.1467 0.0000
vt 1.0000 0.3040 0.0000
vt 0.3333 0.1013 0.0000
vt 0.3333 0.2600 0.0000
vt 0.6667 0.5360 0.0000
vt 0.6667 0.8533 0.0000
vt 0.3333 0.8987 0.0000
vt 0.3333 0.8333 0.0000
vt 0.3333 0.7680 0.0000
vt 0.3333 0.7400 0.0000
vt 0.4933 0.6221 0.0000
vt 0.5067 0.6099 0.0000
vt 0.5067 0.5367 0.0000
vt 0.4933 0.5646 0.0000
vt 0.5067 0.4633 0.0000
vt 0.4933 0.4354 0.0000
vt 0.4933 0.3779 0.0000
vt 0.5067 0.3901 0.0000
vt 0.4933 0.5933 0.0000
vt 0.4933 0.4067 0.0000
vt 0.5067 0.5733 0.0000
vt 0.5067 0.4267 0.0000
vt 0.4800 0.2400 0.0000
vt 0.5200 0.2600 0.0000
vt 0.5200 0.7400 0.0000
vt 0.4800 0.7600 0.0000
vt 1.0000 0.4347 0.0000
vt 0.6667 0.2898 0.0000
vt 0.6667 0.2462 0.0000
vt 1.0000 0.3693 0.0000
vt 0.3333 0.8116 0.0000
vt 0.3333 0.7898 0.0000
vt 0.3333 0.1231 0.0000
vt 0.3333 0.1449 0.0000
vt 0.6667 0.5796 0.0000
vt 0.6667 0.6231 0.0000
vt 0.5067 0.5489 0.0000
vt 0.5067 0.4023 0.0000
vt 0.5067 0.4145 0.0000
vt 0.4933 0.6029 0.0000
vt 0.4933 0.6125 0.0000
vt 0.4933 0.4258 0.0000
vt 0.4933 0.4162 0.0000
vt 0.5200 0.2260 0.0000
vt 0.5200 0.1921 0.0000
vt 0.4800 0.2714 0.0000
vt 0.4800 0.3027 0.0000
vt 0.4800 0.8227 0.0000
vt 0.4800 0.7914 0.0000
vt 0.5200 0.6721 0.0000
vt 0.5200 0.7060 0.0000
vt 0.5067 0.5611 0.0000
# 103 texture coords

g Box012
usemtl wire_086086086
s 8
f 1/1/1 2/2/1 3/3/1 4/4/1 
s 16
f 5/5/2 6/6/2 7/7/2 8/8/2 
s 32
f 9/1/3 10/2/3 11/3/3 12/4/3 
s 64
f 13/5/4 14/6/4 15/7/4 16/8/4 
s off
f 14/6/5 13/7/5 17/7/5 18/6/5 
f 10/3/5 9/4/5 19/4/5 20/3/5 
f 6/8/5 5/5/5 21/5/5 22/8/5 
f 2/1/5 1/2/5 23/2/5 24/1/5 
f 4/1/6 3/2/6 25/2/6 26/1/6 
f 8/6/6 7/7/6 27/7/6 28/6/6 
f 12/3/6 11/4/6 29/4/6 30/3/6 
f 16/8/6 15/5/6 31/5/6 32/8/6 
s 1
f 24/9/3 23/10/3 33/11/3 34/12/3 
f 26/1/3 25/2/3 35/13/3 36/14/3 
s 2
f 37/5/2 18/5/2 38/15/2 
f 39/16/2 32/7/2 40/17/2 
f 41/8/4 22/8/4 42/18/4 
f 43/19/4 28/6/4 44/20/4 
s 1
f 20/21/1 19/22/1 45/23/1 46/24/1 
f 30/4/1 29/3/1 47/25/1 48/26/1 
s 2
f 49/5/2 50/5/2 51/27/2 52/28/2 
f 53/29/4 54/30/4 55/31/4 56/32/4 
s 4
f 57/33/6 58/34/6 59/35/6 60/36/6 
f 61/37/5 62/38/5 63/39/5 64/40/5 
s 1
f 34/12/3 33/11/3 65/41/3 66/42/3 
f 36/14/3 35/13/3 67/43/3 68/44/3 
f 46/24/1 45/23/1 69/45/1 70/46/1 
f 48/26/1 47/25/1 71/47/1 72/48/1 
s 2
f 73/29/2 39/16/2 40/17/2 74/49/2 
f 75/30/2 73/29/2 74/49/2 76/50/2 
f 77/51/2 78/52/2 79/19/2 80/53/2 
f 81/5/2 37/5/2 38/15/2 82/54/2 
f 52/28/2 83/55/2 84/5/2 49/5/2 
f 85/53/4 43/19/4 44/20/4 86/56/4 
f 56/32/4 87/57/4 88/16/4 53/29/4 
f 89/8/4 41/8/4 42/18/4 90/58/4 
f 91/8/4 89/8/4 90/58/4 92/59/4 
f 93/60/4 94/61/4 95/8/4 96/8/4 
s 1
f 60/36/3 59/35/3 97/62/3 98/63/3 
f 62/38/3 61/37/3 99/64/3 100/65/3 
f 64/40/1 63/39/1 101/66/1 102/67/1 
f 58/34/1 57/33/1 103/68/1 104/69/1 
f 105/70/3 92/59/3 90/58/3 100/65/3 
s 4
f 58/34/6 44/20/6 94/61/6 59/35/6 
f 60/36/6 40/17/6 83/55/6 57/33/6 
s 1
f 103/68/1 52/28/1 51/27/1 106/71/1 
s 4
f 62/38/5 42/18/5 87/57/5 63/39/5 
f 64/40/5 38/15/5 78/52/5 61/37/5 
s 1
f 59/35/3 94/61/3 93/60/3 97/62/3 
f 98/63/3 74/49/3 40/17/3 60/36/3 
f 107/72/3 76/50/3 74/49/3 98/63/3 
f 61/37/3 78/52/3 77/51/3 99/64/3 
f 100/65/3 90/58/3 42/18/3 62/38/3 
f 63/39/1 87/57/1 56/32/1 101/66/1 
f 102/67/1 82/54/1 38/15/1 64/40/1 
f 101/66/1 56/32/1 55/31/1 108/73/1 
f 57/33/1 83/55/1 52/28/1 103/68/1 
f 104/69/1 86/56/1 44/20/1 58/34/1 
s 8
f 2/2/1 5/6/1 8/7/1 3/3/1 
f 4/4/1 15/8/1 14/5/1 1/1/1 
s off
f 1/2/5 14/6/5 18/6/5 23/2/5 
f 24/1/5 21/5/5 5/5/5 2/1/5 
f 3/2/7 8/6/7 28/6/7 25/2/7 
f 26/1/7 31/5/7 15/5/7 4/1/7 
s 1
f 109/74/3 50/5/3 49/5/3 68/44/3 
f 23/10/3 18/5/3 37/5/3 33/11/3 
f 34/12/3 88/16/3 21/7/3 24/9/3 
f 25/2/3 28/6/3 43/19/3 35/13/3 
f 36/14/3 84/5/3 31/5/3 26/1/3 
f 33/11/3 37/5/3 81/5/3 65/41/3 
f 66/42/3 53/29/3 88/16/3 34/12/3 
f 110/75/3 54/30/3 53/29/3 66/42/3 
f 35/13/3 43/19/3 85/53/3 67/43/3 
f 68/44/3 49/5/3 84/5/3 36/14/3 
s 32
f 10/2/3 13/6/3 16/7/3 11/3/3 
f 12/4/3 7/8/3 6/5/3 9/1/3 
s off
f 9/4/5 6/8/5 22/8/5 19/4/5 
f 20/3/5 17/7/5 13/7/5 10/3/5 
f 11/4/6 16/8/6 32/8/6 29/4/6 
f 30/3/7 27/7/7 7/7/7 12/3/7 
s 1
f 71/47/1 73/29/1 75/30/1 111/76/1 
f 19/22/1 22/8/1 41/8/1 45/23/1 
f 46/24/1 79/19/1 17/6/1 20/21/1 
f 29/3/1 32/7/1 39/16/1 47/25/1 
f 48/26/1 95/8/1 27/8/1 30/4/1 
f 45/23/1 41/8/1 89/8/1 69/45/1 
f 70/46/1 80/53/1 79/19/1 46/24/1 
f 69/45/1 89/8/1 91/8/1 112/77/1 
f 47/25/1 39/16/1 73/29/1 71/47/1 
f 72/48/1 96/8/1 95/8/1 48/26/1 
s 2
f 17/6/2 79/19/2 78/52/2 
f 32/7/2 31/5/2 83/55/2 40/17/2 
f 22/8/4 21/7/4 87/57/4 42/18/4 
f 27/8/4 95/8/4 94/61/4 
f 18/5/2 17/6/2 78/52/2 38/15/2 
f 28/6/4 27/8/4 94/61/4 44/20/4 
f 31/5/2 84/5/2 83/55/2 
f 21/7/4 88/16/4 87/57/4 
s 4
f 72/48/6 71/47/6 98/63/6 97/62/6 
s 2
f 71/47/4 111/76/4 107/72/4 98/63/4 
s 4
f 70/46/5 69/45/5 100/65/5 99/64/5 
s 2
f 69/45/2 112/77/2 105/70/2 100/65/2 
f 109/74/4 68/44/4 103/68/4 106/71/4 
s 4
f 68/44/6 67/43/6 104/69/6 103/68/6 
s 2
f 110/75/2 66/42/2 101/66/2 108/73/2 
s 4
f 66/42/5 65/41/5 102/67/5 101/66/5 
s off
f 80/53/8 70/46/8 113/46/8 114/53/8 
f 70/46/9 99/64/9 115/64/9 113/46/9 
f 99/64/10 77/51/10 116/51/10 115/64/10 
f 77/51/11 80/53/11 114/53/11 116/51/11 
f 111/76/12 75/30/12 117/30/12 118/76/12 
f 75/30/13 76/50/13 119/50/13 117/30/13 
f 76/50/14 107/72/14 120/72/14 119/50/14 
f 107/72/15 111/76/15 118/76/15 120/72/15 
f 96/8/12 72/48/12 121/48/12 122/8/12 
f 72/48/13 97/62/13 123/62/13 121/48/13 
f 97/62/14 93/60/14 124/60/14 123/62/14 
f 93/60/15 96/8/15 122/8/15 124/60/15 
f 91/8/9 92/59/9 125/59/9 126/8/9 
f 92/59/10 105/70/10 127/70/10 125/59/10 
f 105/70/11 112/77/11 128/77/11 127/70/11 
f 112/77/8 91/8/8 126/8/8 128/77/8 
f 81/5/11 82/54/11 129/54/11 130/5/11 
f 82/54/16 102/67/16 131/67/16 129/54/16 
f 102/67/9 65/41/9 132/41/9 131/67/9 
f 65/41/17 81/5/17 130/5/17 132/41/17 
f 51/27/13 50/5/13 133/5/13 134/27/13 
f 50/5/18 109/74/18 135/74/18 133/5/18 
f 109/74/15 106/71/15 136/71/15 135/74/15 
f 106/71/19 51/27/19 134/27/19 136/71/19 
f 54/30/17 110/75/17 137/75/17 138/30/17 
f 110/75/11 108/73/11 139/73/11 137/75/11 
f 108/73/16 55/31/16 140/31/16 139/73/16 
f 55/31/9 54/30/9 138/30/9 140/31/9 
f 85/53/15 86/56/15 141/56/15 142/53/15 
f 86/56/19 104/69/19 143/69/19 141/56/19 
f 104/69/13 67/43/13 144/43/13 143/69/13 
f 67/43/18 85/53/18 142/53/18 144/43/18 
s 2
f 145/78/2 117/30/2 119/50/2 146/79/2 
f 147/80/2 116/51/2 114/53/2 148/81/2 
f 149/8/4 126/8/4 125/59/4 150/82/4 
f 151/83/4 124/60/4 122/8/4 152/8/4 
f 153/5/20 130/5/20 129/54/20 154/84/20 
f 155/85/2 134/27/2 133/5/2 156/5/2 
f 157/81/4 142/53/4 141/56/4 158/86/4 
f 159/87/4 140/31/4 138/30/4 160/78/4 
s 1
f 161/88/21 115/64/21 116/51/21 147/80/21 
f 158/86/22 141/56/22 143/69/22 162/89/22 
f 163/90/22 139/73/22 140/31/22 159/87/22 
f 150/82/3 125/59/3 127/70/3 164/91/3 
f 165/92/3 123/62/3 124/60/3 151/83/3 
f 154/84/1 129/54/1 131/67/22 166/93/22 
f 167/94/22 136/71/22 134/27/22 155/85/22 
f 160/78/3 138/30/3 137/75/23 168/95/23 
f 169/96/24 144/43/24 142/53/24 157/81/24 
f 156/5/24 133/5/24 135/74/24 170/97/24 
f 171/98/24 132/41/24 130/5/24 153/5/24 
f 152/8/1 122/8/1 121/48/1 172/99/1 
f 173/100/1 128/77/1 126/8/1 149/8/1 
f 148/81/22 114/53/22 113/46/1 174/101/1 
f 175/102/1 118/76/1 117/30/1 145/78/1 
s 2
f 172/99/25 121/48/25 123/62/25 165/92/25 
f 164/91/25 127/70/25 128/77/25 173/100/25 
f 174/101/26 113/46/26 115/64/26 161/88/26 
f 176/103/26 120/72/26 118/76/26 175/102/26 
f 170/97/26 135/74/26 136/71/26 167/94/26 
f 166/93/26 131/67/26 132/41/26 171/98/26 
f 168/95/25 137/75/25 139/73/25 163/90/25 
f 162/89/25 143/69/25 144/43/25 169/96/25 
s 1
f 120/4/3 176/5/3 146/8/3 119/3/3 
s 4
f 175/43/1 145/30/27 148/76/27 174/69/1 
s 8
f 147/48/2 148/76/2 145/30/2 146/8/2 
s 4
f 146/8/3 176/5/3 161/54/3 147/48/3 
s 8
f 176/5/26 175/43/26 174/69/26 161/54/26 
s 4
f 167/71/27 155/60/1 154/62/1 166/74/27 
s 8
f 166/74/26 171/31/28 170/73/28 167/71/26 
f 155/60/2 156/51/2 153/64/2 154/62/2 
s 4
f 171/31/24 153/64/24 156/51/24 170/73/24 
f 169/75/24 157/53/3 160/46/3 168/30/24 
s 8
f 162/67/25 169/75/25 168/30/25 163/41/25 
s 4
f 163/41/22 159/59/22 158/8/22 162/67/22 
s 8
f 159/59/29 160/46/29 157/53/29 158/8/29 
s 4
f 151/77/4 152/50/4 149/72/4 150/70/4 
s 8
f 165/5/3 151/77/3 150/70/3 164/27/3 
f 173/56/1 149/72/1 152/50/1 172/53/1 
s 4
f 164/27/25 173/56/25 172/53/25 165/5/25 
# 178 polygons - 8 triangles

